%TF.GenerationSoftware,KiCad,Pcbnew,8.0.5*%
%TF.CreationDate,2024-10-29T23:06:17+07:00*%
%TF.ProjectId,inverter_vcu,696e7665-7274-4657-925f-7663752e6b69,rev?*%
%TF.SameCoordinates,Original*%
%TF.FileFunction,Copper,L1,Top*%
%TF.FilePolarity,Positive*%
%FSLAX46Y46*%
G04 Gerber Fmt 4.6, Leading zero omitted, Abs format (unit mm)*
G04 Created by KiCad (PCBNEW 8.0.5) date 2024-10-29 23:06:17*
%MOMM*%
%LPD*%
G01*
G04 APERTURE LIST*
G04 Aperture macros list*
%AMRoundRect*
0 Rectangle with rounded corners*
0 $1 Rounding radius*
0 $2 $3 $4 $5 $6 $7 $8 $9 X,Y pos of 4 corners*
0 Add a 4 corners polygon primitive as box body*
4,1,4,$2,$3,$4,$5,$6,$7,$8,$9,$2,$3,0*
0 Add four circle primitives for the rounded corners*
1,1,$1+$1,$2,$3*
1,1,$1+$1,$4,$5*
1,1,$1+$1,$6,$7*
1,1,$1+$1,$8,$9*
0 Add four rect primitives between the rounded corners*
20,1,$1+$1,$2,$3,$4,$5,0*
20,1,$1+$1,$4,$5,$6,$7,0*
20,1,$1+$1,$6,$7,$8,$9,0*
20,1,$1+$1,$8,$9,$2,$3,0*%
G04 Aperture macros list end*
%TA.AperFunction,SMDPad,CuDef*%
%ADD10RoundRect,0.250000X-0.350000X-0.450000X0.350000X-0.450000X0.350000X0.450000X-0.350000X0.450000X0*%
%TD*%
%TA.AperFunction,ComponentPad*%
%ADD11RoundRect,0.250000X-0.600000X-0.725000X0.600000X-0.725000X0.600000X0.725000X-0.600000X0.725000X0*%
%TD*%
%TA.AperFunction,ComponentPad*%
%ADD12O,1.700000X1.950000*%
%TD*%
%TA.AperFunction,ComponentPad*%
%ADD13R,1.700000X1.700000*%
%TD*%
%TA.AperFunction,ComponentPad*%
%ADD14O,1.700000X1.700000*%
%TD*%
%TA.AperFunction,SMDPad,CuDef*%
%ADD15RoundRect,0.250000X-0.475000X0.337500X-0.475000X-0.337500X0.475000X-0.337500X0.475000X0.337500X0*%
%TD*%
%TA.AperFunction,SMDPad,CuDef*%
%ADD16RoundRect,0.250000X-0.337500X-0.475000X0.337500X-0.475000X0.337500X0.475000X-0.337500X0.475000X0*%
%TD*%
%TA.AperFunction,ComponentPad*%
%ADD17RoundRect,0.250001X-1.099999X-1.099999X1.099999X-1.099999X1.099999X1.099999X-1.099999X1.099999X0*%
%TD*%
%TA.AperFunction,ComponentPad*%
%ADD18C,2.700000*%
%TD*%
%TA.AperFunction,SMDPad,CuDef*%
%ADD19RoundRect,0.250000X0.475000X-0.337500X0.475000X0.337500X-0.475000X0.337500X-0.475000X-0.337500X0*%
%TD*%
%TA.AperFunction,ComponentPad*%
%ADD20RoundRect,0.249999X-1.550001X0.790001X-1.550001X-0.790001X1.550001X-0.790001X1.550001X0.790001X0*%
%TD*%
%TA.AperFunction,ComponentPad*%
%ADD21O,3.600000X2.080000*%
%TD*%
%TA.AperFunction,SMDPad,CuDef*%
%ADD22RoundRect,0.250000X0.350000X0.450000X-0.350000X0.450000X-0.350000X-0.450000X0.350000X-0.450000X0*%
%TD*%
%TA.AperFunction,SMDPad,CuDef*%
%ADD23RoundRect,0.250000X0.450000X-0.350000X0.450000X0.350000X-0.450000X0.350000X-0.450000X-0.350000X0*%
%TD*%
%TA.AperFunction,SMDPad,CuDef*%
%ADD24RoundRect,0.075000X-0.662500X-0.075000X0.662500X-0.075000X0.662500X0.075000X-0.662500X0.075000X0*%
%TD*%
%TA.AperFunction,SMDPad,CuDef*%
%ADD25RoundRect,0.075000X-0.075000X-0.662500X0.075000X-0.662500X0.075000X0.662500X-0.075000X0.662500X0*%
%TD*%
%TA.AperFunction,SMDPad,CuDef*%
%ADD26RoundRect,0.250000X-0.325000X-0.450000X0.325000X-0.450000X0.325000X0.450000X-0.325000X0.450000X0*%
%TD*%
%TA.AperFunction,ComponentPad*%
%ADD27RoundRect,0.250000X-0.725000X0.600000X-0.725000X-0.600000X0.725000X-0.600000X0.725000X0.600000X0*%
%TD*%
%TA.AperFunction,ComponentPad*%
%ADD28O,1.950000X1.700000*%
%TD*%
%TA.AperFunction,SMDPad,CuDef*%
%ADD29RoundRect,0.150000X0.150000X-0.825000X0.150000X0.825000X-0.150000X0.825000X-0.150000X-0.825000X0*%
%TD*%
%TA.AperFunction,SMDPad,CuDef*%
%ADD30RoundRect,0.250000X-0.450000X0.325000X-0.450000X-0.325000X0.450000X-0.325000X0.450000X0.325000X0*%
%TD*%
%TA.AperFunction,ComponentPad*%
%ADD31C,4.000000*%
%TD*%
%TA.AperFunction,ComponentPad*%
%ADD32R,1.600000X1.600000*%
%TD*%
%TA.AperFunction,ComponentPad*%
%ADD33C,1.600000*%
%TD*%
%TA.AperFunction,SMDPad,CuDef*%
%ADD34RoundRect,0.250000X0.337500X0.475000X-0.337500X0.475000X-0.337500X-0.475000X0.337500X-0.475000X0*%
%TD*%
%TA.AperFunction,ComponentPad*%
%ADD35C,2.000000*%
%TD*%
%TA.AperFunction,ComponentPad*%
%ADD36C,1.500000*%
%TD*%
%TA.AperFunction,SMDPad,CuDef*%
%ADD37R,2.000000X1.500000*%
%TD*%
%TA.AperFunction,SMDPad,CuDef*%
%ADD38R,2.000000X3.800000*%
%TD*%
%TA.AperFunction,ComponentPad*%
%ADD39R,1.905000X2.000000*%
%TD*%
%TA.AperFunction,ComponentPad*%
%ADD40O,1.905000X2.000000*%
%TD*%
%TA.AperFunction,ComponentPad*%
%ADD41RoundRect,0.250000X0.600000X0.725000X-0.600000X0.725000X-0.600000X-0.725000X0.600000X-0.725000X0*%
%TD*%
%TA.AperFunction,ViaPad*%
%ADD42C,0.800000*%
%TD*%
%TA.AperFunction,Conductor*%
%ADD43C,0.300000*%
%TD*%
%TA.AperFunction,Conductor*%
%ADD44C,0.250000*%
%TD*%
%TA.AperFunction,Conductor*%
%ADD45C,0.500000*%
%TD*%
G04 APERTURE END LIST*
D10*
%TO.P,R3,1*%
%TO.N,/I2C_SDA*%
X147700000Y-92500000D03*
%TO.P,R3,2*%
%TO.N,+3.3V*%
X149700000Y-92500000D03*
%TD*%
D11*
%TO.P,J16,1,Pin_1*%
%TO.N,GND*%
X164675000Y-124300000D03*
D12*
%TO.P,J16,2,Pin_2*%
%TO.N,unconnected-(J16-Pad2)*%
X167175000Y-124300000D03*
%TO.P,J16,3,Pin_3*%
%TO.N,/fault1*%
X169675000Y-124300000D03*
%TO.P,J16,4,Pin_4*%
%TO.N,/rdy1*%
X172175000Y-124300000D03*
%TO.P,J16,5,Pin_5*%
%TO.N,/a11*%
X174675000Y-124300000D03*
%TO.P,J16,6,Pin_6*%
%TO.N,/a9*%
X177175000Y-124300000D03*
%TO.P,J16,7,Pin_7*%
%TO.N,/b0*%
X179675000Y-124300000D03*
%TD*%
D13*
%TO.P,J1,1,Pin_1*%
%TO.N,+3.3V*%
X155725000Y-80900000D03*
D14*
%TO.P,J1,2,Pin_2*%
%TO.N,Net-(J1-Pad2)*%
X153185000Y-80900000D03*
%TO.P,J1,3,Pin_3*%
%TO.N,GND*%
X150645000Y-80900000D03*
%TD*%
D15*
%TO.P,C8,1*%
%TO.N,+3.3V*%
X152200000Y-97737500D03*
%TO.P,C8,2*%
%TO.N,GND*%
X152200000Y-99812500D03*
%TD*%
D16*
%TO.P,C1,1*%
%TO.N,+3.3V*%
X135662500Y-95400000D03*
%TO.P,C1,2*%
%TO.N,GND*%
X137737500Y-95400000D03*
%TD*%
D13*
%TO.P,J8,1,Pin_1*%
%TO.N,+3.3V*%
X158200000Y-88000000D03*
D14*
%TO.P,J8,2,Pin_2*%
%TO.N,/SWDIO*%
X155660000Y-88000000D03*
%TO.P,J8,3,Pin_3*%
%TO.N,/SWCLK*%
X153120000Y-88000000D03*
%TO.P,J8,4,Pin_4*%
%TO.N,GND*%
X150580000Y-88000000D03*
%TD*%
D17*
%TO.P,J5,1,Pin_1*%
%TO.N,GND*%
X131522500Y-121625000D03*
D18*
%TO.P,J5,2,Pin_2*%
%TO.N,/adc3*%
X136522500Y-121625000D03*
%TD*%
D19*
%TO.P,C3,1*%
%TO.N,+3.3V*%
X131800000Y-104837500D03*
%TO.P,C3,2*%
%TO.N,GND*%
X131800000Y-102762500D03*
%TD*%
D15*
%TO.P,C4,1*%
%TO.N,+3.3V*%
X149500000Y-97737500D03*
%TO.P,C4,2*%
%TO.N,GND*%
X149500000Y-99812500D03*
%TD*%
D20*
%TO.P,J13,1,Pin_1*%
%TO.N,+BATT*%
X177877500Y-89960000D03*
D21*
%TO.P,J13,2,Pin_2*%
%TO.N,GND*%
X177877500Y-95040000D03*
%TD*%
D22*
%TO.P,R15,1*%
%TO.N,/OSC_OUT*%
X131000000Y-100200000D03*
%TO.P,R15,2*%
%TO.N,Net-(C9-Pad1)*%
X129000000Y-100200000D03*
%TD*%
%TO.P,R10,1*%
%TO.N,Net-(J1-Pad2)*%
X143200000Y-92600000D03*
%TO.P,R10,2*%
%TO.N,/BOOT0*%
X141200000Y-92600000D03*
%TD*%
D13*
%TO.P,J6,1,Pin_1*%
%TO.N,/CAN_Tx*%
X133400000Y-87900000D03*
%TD*%
D23*
%TO.P,R4,1*%
%TO.N,Net-(D1-Pad2)*%
X125550000Y-79150000D03*
%TO.P,R4,2*%
%TO.N,Net-(R4-Pad2)*%
X125550000Y-77150000D03*
%TD*%
D19*
%TO.P,C7,1*%
%TO.N,+3.3V*%
X129200000Y-104837500D03*
%TO.P,C7,2*%
%TO.N,GND*%
X129200000Y-102762500D03*
%TD*%
D24*
%TO.P,U1,1,VBAT*%
%TO.N,+3.3V*%
X136737500Y-99950000D03*
%TO.P,U1,2,PC13*%
%TO.N,/VCU_HBT*%
X136737500Y-100450000D03*
%TO.P,U1,3,PC14*%
%TO.N,/MVCU_HBT*%
X136737500Y-100950000D03*
%TO.P,U1,4,PC15*%
%TO.N,Net-(R4-Pad2)*%
X136737500Y-101450000D03*
%TO.P,U1,5,PD0*%
%TO.N,/OSC_IN*%
X136737500Y-101950000D03*
%TO.P,U1,6,PD1*%
%TO.N,/OSC_OUT*%
X136737500Y-102450000D03*
%TO.P,U1,7,NRST*%
%TO.N,/RESET*%
X136737500Y-102950000D03*
%TO.P,U1,8,VSSA*%
%TO.N,GND*%
X136737500Y-103450000D03*
%TO.P,U1,9,VDDA*%
%TO.N,+3.3V*%
X136737500Y-103950000D03*
%TO.P,U1,10,PA0*%
%TO.N,/pwm_a0*%
X136737500Y-104450000D03*
%TO.P,U1,11,PA1*%
%TO.N,/pwm_a1*%
X136737500Y-104950000D03*
%TO.P,U1,12,PA2*%
%TO.N,/pmw_a2*%
X136737500Y-105450000D03*
D25*
%TO.P,U1,13,PA3*%
%TO.N,/pwm_a3*%
X138150000Y-106862500D03*
%TO.P,U1,14,PA4*%
%TO.N,/adc1*%
X138650000Y-106862500D03*
%TO.P,U1,15,PA5*%
%TO.N,/adc2*%
X139150000Y-106862500D03*
%TO.P,U1,16,PA6*%
%TO.N,/adc3*%
X139650000Y-106862500D03*
%TO.P,U1,17,PA7*%
%TO.N,/a7*%
X140150000Y-106862500D03*
%TO.P,U1,18,PB0*%
%TO.N,/b0*%
X140650000Y-106862500D03*
%TO.P,U1,19,PB1*%
%TO.N,/b1*%
X141150000Y-106862500D03*
%TO.P,U1,20,PB2*%
%TO.N,/rdy2*%
X141650000Y-106862500D03*
%TO.P,U1,21,PB10*%
%TO.N,/uart3_tx*%
X142150000Y-106862500D03*
%TO.P,U1,22,PB11*%
%TO.N,/uart3_rx*%
X142650000Y-106862500D03*
%TO.P,U1,23,VSS*%
%TO.N,GND*%
X143150000Y-106862500D03*
%TO.P,U1,24,VDD*%
%TO.N,+3.3V*%
X143650000Y-106862500D03*
D24*
%TO.P,U1,25,PB12*%
%TO.N,/rdy1*%
X145062500Y-105450000D03*
%TO.P,U1,26,PB13*%
%TO.N,/sck*%
X145062500Y-104950000D03*
%TO.P,U1,27,PB14*%
%TO.N,/miso*%
X145062500Y-104450000D03*
%TO.P,U1,28,PB15*%
%TO.N,/mosi*%
X145062500Y-103950000D03*
%TO.P,U1,29,PA8*%
%TO.N,/a8*%
X145062500Y-103450000D03*
%TO.P,U1,30,PA9*%
%TO.N,/a9*%
X145062500Y-102950000D03*
%TO.P,U1,31,PA10*%
%TO.N,/a10*%
X145062500Y-102450000D03*
%TO.P,U1,32,PA11*%
%TO.N,/a11*%
X145062500Y-101950000D03*
%TO.P,U1,33,PA12*%
%TO.N,/a12*%
X145062500Y-101450000D03*
%TO.P,U1,34,PA13*%
%TO.N,/SWDIO*%
X145062500Y-100950000D03*
%TO.P,U1,35,VSS*%
%TO.N,GND*%
X145062500Y-100450000D03*
%TO.P,U1,36,VDD*%
%TO.N,+3.3V*%
X145062500Y-99950000D03*
D25*
%TO.P,U1,37,PA14*%
%TO.N,/SWCLK*%
X143650000Y-98537500D03*
%TO.P,U1,38,PA15*%
%TO.N,/a15*%
X143150000Y-98537500D03*
%TO.P,U1,39,PB3*%
%TO.N,/swo*%
X142650000Y-98537500D03*
%TO.P,U1,40,PB4*%
%TO.N,/fault1*%
X142150000Y-98537500D03*
%TO.P,U1,41,PB5*%
%TO.N,/fault2*%
X141650000Y-98537500D03*
%TO.P,U1,42,PB6*%
%TO.N,/I2C_SCL*%
X141150000Y-98537500D03*
%TO.P,U1,43,PB7*%
%TO.N,/I2C_SDA*%
X140650000Y-98537500D03*
%TO.P,U1,44,BOOT0*%
%TO.N,/BOOT0*%
X140150000Y-98537500D03*
%TO.P,U1,45,PB8*%
%TO.N,/CAN_Rx*%
X139650000Y-98537500D03*
%TO.P,U1,46,PB9*%
%TO.N,/CAN_Tx*%
X139150000Y-98537500D03*
%TO.P,U1,47,VSS*%
%TO.N,GND*%
X138650000Y-98537500D03*
%TO.P,U1,48,VDD*%
%TO.N,+3.3V*%
X138150000Y-98537500D03*
%TD*%
D13*
%TO.P,J7,1,Pin_1*%
%TO.N,/CAN_Rx*%
X144600000Y-87800000D03*
%TD*%
D10*
%TO.P,R16,1*%
%TO.N,/CAN_H+*%
X138300000Y-79700000D03*
%TO.P,R16,2*%
%TO.N,/CAN_L-*%
X140300000Y-79700000D03*
%TD*%
D26*
%TO.P,5V,1,K*%
%TO.N,GND*%
X162900000Y-76175000D03*
%TO.P,5V,2,A*%
%TO.N,Net-(D5-Pad2)*%
X164950000Y-76175000D03*
%TD*%
D10*
%TO.P,R17,1*%
%TO.N,Net-(D5-Pad2)*%
X167650000Y-76175000D03*
%TO.P,R17,2*%
%TO.N,+5V*%
X169650000Y-76175000D03*
%TD*%
D22*
%TO.P,R1,1*%
%TO.N,+3.3V*%
X131050000Y-107400000D03*
%TO.P,R1,2*%
%TO.N,/RESET*%
X129050000Y-107400000D03*
%TD*%
D13*
%TO.P,J10,1,Pin_1*%
%TO.N,/uart3_tx*%
X123325000Y-94800000D03*
D14*
%TO.P,J10,2,Pin_2*%
%TO.N,/uart3_rx*%
X120785000Y-94800000D03*
%TD*%
D10*
%TO.P,R2,1*%
%TO.N,/I2C_SCL*%
X147700000Y-94800000D03*
%TO.P,R2,2*%
%TO.N,+3.3V*%
X149700000Y-94800000D03*
%TD*%
D17*
%TO.P,J3,1,Pin_1*%
%TO.N,GND*%
X118725000Y-110925000D03*
D18*
%TO.P,J3,2,Pin_2*%
%TO.N,/adc1*%
X123725000Y-110925000D03*
%TD*%
D27*
%TO.P,J15,1,Pin_1*%
%TO.N,GND*%
X180725000Y-102950000D03*
D28*
%TO.P,J15,2,Pin_2*%
%TO.N,Net-(J15-Pad2)*%
X180725000Y-105450000D03*
%TO.P,J15,3,Pin_3*%
%TO.N,/a15*%
X180725000Y-107950000D03*
%TO.P,J15,4,Pin_4*%
%TO.N,/a12*%
X180725000Y-110450000D03*
%TO.P,J15,5,Pin_5*%
%TO.N,/a11*%
X180725000Y-112950000D03*
%TO.P,J15,6,Pin_6*%
%TO.N,/a8*%
X180725000Y-115450000D03*
%TO.P,J15,7,Pin_7*%
%TO.N,/a7*%
X180725000Y-117950000D03*
%TD*%
D29*
%TO.P,U2,1,TXD*%
%TO.N,/CAN_Tx*%
X137395000Y-88475000D03*
%TO.P,U2,2,VSS*%
%TO.N,GND*%
X138665000Y-88475000D03*
%TO.P,U2,3,VDD*%
%TO.N,+5V*%
X139935000Y-88475000D03*
%TO.P,U2,4,RXD*%
%TO.N,/CAN_Rx*%
X141205000Y-88475000D03*
%TO.P,U2,5,Vref*%
%TO.N,unconnected-(U2-Pad5)*%
X141205000Y-83525000D03*
%TO.P,U2,6,CANL*%
%TO.N,/CAN_L-*%
X139935000Y-83525000D03*
%TO.P,U2,7,CANH*%
%TO.N,/CAN_H+*%
X138665000Y-83525000D03*
%TO.P,U2,8,Rs*%
%TO.N,GND*%
X137395000Y-83525000D03*
%TD*%
D10*
%TO.P,R18,1*%
%TO.N,Net-(D6-Pad2)*%
X167900000Y-93400000D03*
%TO.P,R18,2*%
%TO.N,Net-(C14-Pad1)*%
X169900000Y-93400000D03*
%TD*%
D13*
%TO.P,J11,1,Pin_1*%
%TO.N,/pwm_a0*%
X129450000Y-114575000D03*
D14*
%TO.P,J11,2,Pin_2*%
%TO.N,/pwm_a1*%
X131990000Y-114575000D03*
%TO.P,J11,3,Pin_3*%
%TO.N,/pmw_a2*%
X134530000Y-114575000D03*
%TO.P,J11,4,Pin_4*%
%TO.N,/pwm_a3*%
X137070000Y-114575000D03*
%TD*%
D17*
%TO.P,J4,1,Pin_1*%
%TO.N,GND*%
X119275000Y-121625000D03*
D18*
%TO.P,J4,2,Pin_2*%
%TO.N,/adc2*%
X124275000Y-121625000D03*
%TD*%
D30*
%TO.P,D1,1,K*%
%TO.N,GND*%
X121150000Y-77125000D03*
%TO.P,D1,2,A*%
%TO.N,Net-(D1-Pad2)*%
X121150000Y-79175000D03*
%TD*%
D31*
%TO.P,J12,0,PAD*%
%TO.N,GND*%
X152110000Y-72005331D03*
X127110000Y-72005331D03*
D32*
%TO.P,J12,1,1*%
%TO.N,/MVCU_HBT*%
X145150000Y-72305331D03*
D33*
%TO.P,J12,2,2*%
%TO.N,/CAN_L-*%
X142380000Y-72305331D03*
%TO.P,J12,3,3*%
%TO.N,GND*%
X139610000Y-72305331D03*
%TO.P,J12,4,4*%
%TO.N,/I2C_SCL*%
X136840000Y-72305331D03*
%TO.P,J12,5,5*%
%TO.N,GND*%
X134070000Y-72305331D03*
%TO.P,J12,6,6*%
%TO.N,/VCU_HBT*%
X143765000Y-69465331D03*
%TO.P,J12,7,7*%
%TO.N,/CAN_H+*%
X140995000Y-69465331D03*
%TO.P,J12,8,8*%
%TO.N,/I2C_SDA*%
X138225000Y-69465331D03*
%TO.P,J12,9,9*%
%TO.N,+5V*%
X135455000Y-69465331D03*
%TD*%
D34*
%TO.P,C13,1*%
%TO.N,+5V*%
X169937500Y-80300000D03*
%TO.P,C13,2*%
%TO.N,GND*%
X167862500Y-80300000D03*
%TD*%
D15*
%TO.P,C10,1*%
%TO.N,GND*%
X126275000Y-82100000D03*
%TO.P,C10,2*%
%TO.N,/OSC_IN*%
X126275000Y-84175000D03*
%TD*%
D19*
%TO.P,C9,1*%
%TO.N,Net-(C9-Pad1)*%
X126275000Y-89175000D03*
%TO.P,C9,2*%
%TO.N,GND*%
X126275000Y-87100000D03*
%TD*%
D13*
%TO.P,J14,1,Pin_1*%
%TO.N,Net-(C14-Pad1)*%
X168900000Y-97000000D03*
D14*
%TO.P,J14,2,Pin_2*%
%TO.N,+3.3V*%
X166360000Y-97000000D03*
%TO.P,J14,3,Pin_3*%
%TO.N,GND*%
X163820000Y-97000000D03*
%TD*%
D32*
%TO.P,C12,1*%
%TO.N,+BATT*%
X170975000Y-70150000D03*
D33*
%TO.P,C12,2*%
%TO.N,GND*%
X168475000Y-70150000D03*
%TD*%
D26*
%TO.P,3v3,1,K*%
%TO.N,GND*%
X162952500Y-93360000D03*
%TO.P,3v3,2,A*%
%TO.N,Net-(D6-Pad2)*%
X165002500Y-93360000D03*
%TD*%
D35*
%TO.P,SW1,1,1*%
%TO.N,GND*%
X124250000Y-103700000D03*
X117750000Y-103700000D03*
%TO.P,SW1,2,2*%
%TO.N,/RESET*%
X124250000Y-99200000D03*
X117750000Y-99200000D03*
%TD*%
D16*
%TO.P,C2,1*%
%TO.N,/RESET*%
X129012500Y-110000000D03*
%TO.P,C2,2*%
%TO.N,GND*%
X131087500Y-110000000D03*
%TD*%
D32*
%TO.P,C15,1*%
%TO.N,+5V*%
X161480113Y-70025000D03*
D33*
%TO.P,C15,2*%
%TO.N,GND*%
X159480113Y-70025000D03*
%TD*%
D15*
%TO.P,C11,1*%
%TO.N,GND*%
X134000000Y-81762500D03*
%TO.P,C11,2*%
%TO.N,+5V*%
X134000000Y-83837500D03*
%TD*%
D36*
%TO.P,Y1,1,1*%
%TO.N,Net-(C9-Pad1)*%
X122175000Y-89037500D03*
%TO.P,Y1,2,2*%
%TO.N,/OSC_IN*%
X122175000Y-84157500D03*
%TD*%
D37*
%TO.P,U4,1,GND*%
%TO.N,GND*%
X169650000Y-89200000D03*
%TO.P,U4,2,VO*%
%TO.N,Net-(C14-Pad1)*%
X169650000Y-86900000D03*
D38*
X163350000Y-86900000D03*
D37*
%TO.P,U4,3,VI*%
%TO.N,+5V*%
X169650000Y-84600000D03*
%TD*%
D34*
%TO.P,C5,1*%
%TO.N,+3.3V*%
X146650000Y-109600000D03*
%TO.P,C5,2*%
%TO.N,GND*%
X144575000Y-109600000D03*
%TD*%
D13*
%TO.P,J9,1,Pin_1*%
%TO.N,/sck*%
X151400000Y-110725000D03*
D14*
%TO.P,J9,2,Pin_2*%
%TO.N,/miso*%
X151400000Y-108185000D03*
%TO.P,J9,3,Pin_3*%
%TO.N,/mosi*%
X151400000Y-105645000D03*
%TD*%
D39*
%TO.P,U3,1,VI*%
%TO.N,+BATT*%
X180700000Y-80200000D03*
D40*
%TO.P,U3,2,GND*%
%TO.N,GND*%
X178160000Y-80200000D03*
%TO.P,U3,3,VO*%
%TO.N,+5V*%
X175620000Y-80200000D03*
%TD*%
D41*
%TO.P,J2,1,Pin_1*%
%TO.N,GND*%
X158125000Y-124925000D03*
D12*
%TO.P,J2,2,Pin_2*%
%TO.N,unconnected-(J2-Pad2)*%
X155625000Y-124925000D03*
%TO.P,J2,3,Pin_3*%
%TO.N,/fault2*%
X153125000Y-124925000D03*
%TO.P,J2,4,Pin_4*%
%TO.N,/rdy2*%
X150625000Y-124925000D03*
%TO.P,J2,5,Pin_5*%
%TO.N,/a11*%
X148125000Y-124925000D03*
%TO.P,J2,6,Pin_6*%
%TO.N,/a10*%
X145625000Y-124925000D03*
%TO.P,J2,7,Pin_7*%
%TO.N,/b1*%
X143125000Y-124925000D03*
%TD*%
D34*
%TO.P,C6,1*%
%TO.N,+3.3V*%
X146650000Y-112100000D03*
%TO.P,C6,2*%
%TO.N,GND*%
X144575000Y-112100000D03*
%TD*%
D16*
%TO.P,C14,1*%
%TO.N,Net-(C14-Pad1)*%
X162985000Y-80340000D03*
%TO.P,C14,2*%
%TO.N,GND*%
X165060000Y-80340000D03*
%TD*%
D13*
%TO.P,J17,1,Pin_1*%
%TO.N,+5V*%
X175325000Y-101725000D03*
D14*
%TO.P,J17,2,Pin_2*%
%TO.N,Net-(J15-Pad2)*%
X175325000Y-104265000D03*
%TO.P,J17,3,Pin_3*%
%TO.N,unconnected-(J17-Pad3)*%
X175325000Y-106805000D03*
%TD*%
D42*
%TO.N,+3.3V*%
X154900000Y-96749500D03*
X156550500Y-98400000D03*
X151400000Y-91200000D03*
%TO.N,GND*%
X160500000Y-93500000D03*
X142879977Y-101579977D03*
X121150000Y-74650000D03*
X139300000Y-90500000D03*
X126225000Y-85625000D03*
X137700000Y-92700000D03*
X127625000Y-111175000D03*
X139300000Y-102200000D03*
X142070023Y-104629977D03*
X167800000Y-78400000D03*
X134000000Y-79300000D03*
X127500000Y-80150000D03*
%TO.N,+5V*%
X166600000Y-82525000D03*
X147249500Y-84300000D03*
%TO.N,Net-(J1-Pad2)*%
X147250500Y-90300000D03*
X149200000Y-85400000D03*
%TO.N,/a15*%
X145400000Y-95449500D03*
%TO.N,/a9*%
X175800000Y-114025000D03*
%TO.N,/b0*%
X177724500Y-116625000D03*
%TO.N,/a10*%
X161125000Y-118850000D03*
X169100000Y-110975000D03*
%TO.N,/b1*%
X143900000Y-115150000D03*
%TO.N,/pwm_a0*%
X132600000Y-110100000D03*
%TO.N,/pwm_a1*%
X133900000Y-110000000D03*
%TO.N,/pmw_a2*%
X135200000Y-110000000D03*
%TO.N,/pwm_a3*%
X136700000Y-110100000D03*
%TO.N,/I2C_SCL*%
X146250000Y-93750000D03*
%TO.N,/I2C_SDA*%
X138400000Y-65600000D03*
%TO.N,/uart3_tx*%
X142100000Y-111775000D03*
%TO.N,/uart3_rx*%
X142204977Y-113245023D03*
%TO.N,/fault2*%
X142500000Y-96100000D03*
%TO.N,/rdy2*%
X141925000Y-109750000D03*
%TO.N,/fault1*%
X144100000Y-95449500D03*
%TO.N,/rdy1*%
X168850000Y-115500000D03*
%TD*%
D43*
%TO.N,+3.3V*%
X132762500Y-104837500D02*
X133650000Y-103950000D01*
X140600000Y-103100000D02*
X140600000Y-101300000D01*
X145062500Y-99837500D02*
X146937500Y-97962500D01*
X139250000Y-99950000D02*
X136737500Y-99950000D01*
X131800000Y-104837500D02*
X132762500Y-104837500D01*
X143650000Y-106862500D02*
X145062500Y-106862500D01*
X159300000Y-100300000D02*
X158200000Y-99200000D01*
X155725000Y-80900000D02*
X156700000Y-80900000D01*
X141400000Y-101300000D02*
X141400000Y-102200000D01*
X136737500Y-99950000D02*
X135662500Y-98875000D01*
X140600000Y-101300000D02*
X141400000Y-101300000D01*
X141400000Y-101500000D02*
X141400000Y-102300000D01*
X131800000Y-104837500D02*
X131800000Y-106650000D01*
X150100000Y-92500000D02*
X151400000Y-91200000D01*
X140600000Y-101300000D02*
X139250000Y-99950000D01*
X166360000Y-99340000D02*
X165400000Y-100300000D01*
X135662500Y-96862500D02*
X135662500Y-95400000D01*
X156700000Y-80900000D02*
X158200000Y-82400000D01*
X149700000Y-92500000D02*
X150100000Y-92500000D01*
X141400000Y-102300000D02*
X143650000Y-104550000D01*
X146650000Y-109600000D02*
X146650000Y-112100000D01*
X153912000Y-97737500D02*
X152200000Y-97737500D01*
X133650000Y-103950000D02*
X136737500Y-103950000D01*
X165400000Y-100300000D02*
X159300000Y-100300000D01*
X166360000Y-97000000D02*
X166360000Y-99340000D01*
X158200000Y-82400000D02*
X158200000Y-88000000D01*
X139750000Y-103950000D02*
X140600000Y-103100000D01*
X158200000Y-99200000D02*
X158200000Y-88000000D01*
X135662500Y-98875000D02*
X135662500Y-95400000D01*
X158200000Y-99200000D02*
X157400000Y-98400000D01*
X149500000Y-97737500D02*
X152200000Y-97737500D01*
X145062500Y-106862500D02*
X146650000Y-108450000D01*
X146937500Y-97962500D02*
X149500000Y-97962500D01*
X149700000Y-92500000D02*
X149700000Y-94800000D01*
X131800000Y-106650000D02*
X131050000Y-107400000D01*
X142750000Y-99950000D02*
X141400000Y-101300000D01*
X145062500Y-99950000D02*
X142750000Y-99950000D01*
X146650000Y-108450000D02*
X146650000Y-109600000D01*
X129200000Y-104837500D02*
X131800000Y-104837500D01*
X143650000Y-104550000D02*
X143650000Y-106862500D01*
X136737500Y-103950000D02*
X139750000Y-103950000D01*
X137337500Y-98537500D02*
X135662500Y-96862500D01*
X154900000Y-96749500D02*
X153912000Y-97737500D01*
X145062500Y-99950000D02*
X145062500Y-99837500D01*
X138150000Y-98537500D02*
X137337500Y-98537500D01*
X157400000Y-98400000D02*
X156550500Y-98400000D01*
%TO.N,GND*%
X134000000Y-81762500D02*
X134000000Y-79300000D01*
X165060000Y-80340000D02*
X167822500Y-80340000D01*
X138650000Y-96150000D02*
X138650000Y-98537500D01*
X167862500Y-78462500D02*
X167800000Y-78400000D01*
X142879977Y-101227129D02*
X142879977Y-101579977D01*
X134000000Y-81762500D02*
X136962500Y-81762500D01*
X145062500Y-100450000D02*
X143657106Y-100450000D01*
X169650000Y-89950000D02*
X169650000Y-89200000D01*
X138050000Y-103450000D02*
X139300000Y-102200000D01*
D44*
X163800000Y-78700000D02*
X164400000Y-78700000D01*
D43*
X147250000Y-100450000D02*
X147887500Y-99812500D01*
D44*
X126275000Y-81375000D02*
X127500000Y-80150000D01*
D43*
X137737500Y-92737500D02*
X137700000Y-92700000D01*
X163820000Y-97000000D02*
X162952500Y-96132500D01*
D44*
X129662500Y-111425000D02*
X131087500Y-110000000D01*
D43*
X143150000Y-108450000D02*
X143725000Y-109025000D01*
X138665000Y-89865000D02*
X139300000Y-90500000D01*
X167862500Y-80300000D02*
X167862500Y-78462500D01*
X143150000Y-106862500D02*
X143150000Y-105350000D01*
X145062500Y-100450000D02*
X147250000Y-100450000D01*
D44*
X121150000Y-74650000D02*
X121150000Y-77125000D01*
D43*
X133650000Y-103450000D02*
X136737500Y-103450000D01*
X167822500Y-80340000D02*
X167862500Y-80300000D01*
X168300000Y-91300000D02*
X169650000Y-89950000D01*
D44*
X163150000Y-78050000D02*
X163800000Y-78700000D01*
D43*
X137737500Y-95400000D02*
X137737500Y-92737500D01*
X160640000Y-93360000D02*
X160500000Y-93500000D01*
X143150000Y-106862500D02*
X143150000Y-108450000D01*
X143150000Y-105350000D02*
X142429977Y-104629977D01*
D44*
X126275000Y-82100000D02*
X126275000Y-81375000D01*
D43*
X149500000Y-99812500D02*
X152200000Y-99812500D01*
D44*
X164400000Y-78700000D02*
X165060000Y-79360000D01*
D43*
X163900000Y-91300000D02*
X168300000Y-91300000D01*
X126275000Y-85675000D02*
X126225000Y-85625000D01*
X143657106Y-100450000D02*
X142879977Y-101227129D01*
X144575000Y-109600000D02*
X144575000Y-112100000D01*
X143662500Y-108950000D02*
X144312500Y-109600000D01*
X147887500Y-99812500D02*
X149500000Y-99812500D01*
X126275000Y-87100000D02*
X126275000Y-85675000D01*
D44*
X127625000Y-111175000D02*
X127875000Y-111425000D01*
X165060000Y-79360000D02*
X165060000Y-80340000D01*
D43*
X136962500Y-81762500D02*
X137395000Y-82195000D01*
X131800000Y-102762500D02*
X132962500Y-102762500D01*
X137900000Y-95400000D02*
X138650000Y-96150000D01*
X162952500Y-93360000D02*
X160640000Y-93360000D01*
D44*
X127875000Y-111425000D02*
X129662500Y-111425000D01*
D43*
X144312500Y-109600000D02*
X144575000Y-109600000D01*
X132962500Y-102762500D02*
X133650000Y-103450000D01*
X138665000Y-88475000D02*
X138665000Y-89865000D01*
X162952500Y-92247500D02*
X163900000Y-91300000D01*
X162952500Y-96132500D02*
X162952500Y-93360000D01*
X142429977Y-104629977D02*
X142070023Y-104629977D01*
X136737500Y-103450000D02*
X138050000Y-103450000D01*
X162952500Y-93360000D02*
X162952500Y-92247500D01*
X137395000Y-82195000D02*
X137395000Y-83525000D01*
X129200000Y-102762500D02*
X131800000Y-102762500D01*
D44*
X163150000Y-76200000D02*
X163150000Y-78050000D01*
D43*
X137737500Y-95400000D02*
X137900000Y-95400000D01*
%TO.N,/RESET*%
X127300000Y-106800000D02*
X127900000Y-107400000D01*
X127900000Y-101500000D02*
X127300000Y-102100000D01*
X129012500Y-110000000D02*
X126675000Y-110000000D01*
X121300000Y-104625000D02*
X121300000Y-102150000D01*
X121300000Y-102150000D02*
X124250000Y-99200000D01*
X117750000Y-99200000D02*
X124250000Y-99200000D01*
X136737500Y-102950000D02*
X134150000Y-102950000D01*
X126675000Y-110000000D02*
X121300000Y-104625000D01*
X129012500Y-110000000D02*
X129012500Y-107437500D01*
X132700000Y-101500000D02*
X127900000Y-101500000D01*
X127900000Y-107400000D02*
X129050000Y-107400000D01*
X129012500Y-107437500D02*
X129050000Y-107400000D01*
X127300000Y-102100000D02*
X127300000Y-106800000D01*
X134150000Y-102950000D02*
X132700000Y-101500000D01*
D44*
%TO.N,Net-(C9-Pad1)*%
X127825000Y-99025000D02*
X127825000Y-90200000D01*
X121875000Y-89037500D02*
X126137500Y-89037500D01*
X129000000Y-100200000D02*
X127825000Y-99025000D01*
X126137500Y-89037500D02*
X126275000Y-89175000D01*
X127825000Y-90200000D02*
X126800000Y-89175000D01*
X126800000Y-89175000D02*
X126275000Y-89175000D01*
D43*
%TO.N,/OSC_IN*%
X127775000Y-84175000D02*
X126275000Y-84175000D01*
X132500000Y-99700000D02*
X128775000Y-95975000D01*
X134757106Y-101950000D02*
X132507106Y-99700000D01*
X132507106Y-99700000D02*
X132500000Y-99700000D01*
D44*
X126257500Y-84157500D02*
X126275000Y-84175000D01*
D43*
X128775000Y-95975000D02*
X128775000Y-85175000D01*
X128775000Y-85175000D02*
X127775000Y-84175000D01*
X136737500Y-101950000D02*
X134757106Y-101950000D01*
D44*
X121875000Y-84157500D02*
X126257500Y-84157500D01*
D43*
%TO.N,+5V*%
X134000000Y-84000000D02*
X135800000Y-85800000D01*
D45*
X172550000Y-98950000D02*
X172550000Y-85150000D01*
X169650000Y-76150000D02*
X169650000Y-76175000D01*
X172000000Y-84600000D02*
X169650000Y-84600000D01*
D43*
X132834669Y-69465331D02*
X132000000Y-70300000D01*
X132437500Y-83837500D02*
X134000000Y-83837500D01*
X134000000Y-83837500D02*
X134000000Y-84000000D01*
X167925000Y-82525000D02*
X166600000Y-82525000D01*
X132000000Y-70300000D02*
X132000000Y-83400000D01*
D45*
X170037500Y-80200000D02*
X175620000Y-80200000D01*
D43*
X139935000Y-88475000D02*
X139935000Y-87165000D01*
D45*
X172550000Y-85150000D02*
X172000000Y-84600000D01*
X169650000Y-75925000D02*
X169650000Y-76175000D01*
D43*
X139935000Y-86635000D02*
X139935000Y-88475000D01*
D45*
X161480113Y-70025000D02*
X163750000Y-70025000D01*
X169937500Y-80300000D02*
X170037500Y-80200000D01*
D43*
X135800000Y-85800000D02*
X139100000Y-85800000D01*
X132000000Y-83400000D02*
X132437500Y-83837500D01*
X139935000Y-87165000D02*
X141200000Y-85900000D01*
X142800000Y-84300000D02*
X147249500Y-84300000D01*
D45*
X169937500Y-84312500D02*
X169650000Y-84600000D01*
X169650000Y-80012500D02*
X169937500Y-80300000D01*
X175325000Y-101725000D02*
X172550000Y-98950000D01*
X169937500Y-80300000D02*
X169937500Y-84312500D01*
D43*
X139100000Y-85800000D02*
X139935000Y-86635000D01*
X141200000Y-85900000D02*
X142800000Y-84300000D01*
X135455000Y-69465331D02*
X132834669Y-69465331D01*
D45*
X163750000Y-70025000D02*
X169650000Y-75925000D01*
D43*
X169650000Y-84600000D02*
X169650000Y-84250000D01*
X169650000Y-84250000D02*
X167925000Y-82525000D01*
D45*
X169650000Y-76175000D02*
X169650000Y-80012500D01*
%TO.N,+BATT*%
X180700000Y-87137500D02*
X180700000Y-80200000D01*
X180700000Y-79875000D02*
X180700000Y-80200000D01*
X177877500Y-89960000D02*
X180700000Y-87137500D01*
X170975000Y-70150000D02*
X180700000Y-79875000D01*
D43*
%TO.N,Net-(C14-Pad1)*%
X169900000Y-93400000D02*
X171600000Y-91700000D01*
X163350000Y-86900000D02*
X163350000Y-80705000D01*
X169900000Y-93400000D02*
X169900000Y-96400000D01*
X169900000Y-96400000D02*
X169300000Y-97000000D01*
X163350000Y-80705000D02*
X162985000Y-80340000D01*
X171600000Y-91700000D02*
X171600000Y-88200000D01*
X169300000Y-97000000D02*
X168900000Y-97000000D01*
X170300000Y-86900000D02*
X169650000Y-86900000D01*
X163350000Y-86900000D02*
X169650000Y-86900000D01*
X171600000Y-88200000D02*
X170300000Y-86900000D01*
D44*
%TO.N,Net-(D1-Pad2)*%
X121150000Y-79175000D02*
X125525000Y-79175000D01*
X125525000Y-79175000D02*
X125550000Y-79150000D01*
D43*
%TO.N,Net-(D5-Pad2)*%
X164950000Y-76175000D02*
X167650000Y-76175000D01*
%TO.N,Net-(D6-Pad2)*%
X165002500Y-93360000D02*
X167860000Y-93360000D01*
X167860000Y-93360000D02*
X167900000Y-93400000D01*
%TO.N,Net-(J1-Pad2)*%
X143200000Y-91000000D02*
X143200000Y-92600000D01*
X153185000Y-80900000D02*
X153185000Y-84715000D01*
X153185000Y-84715000D02*
X153000000Y-84900000D01*
X152500000Y-85400000D02*
X149200000Y-85400000D01*
X143900000Y-90300000D02*
X143200000Y-91000000D01*
X153000000Y-84900000D02*
X152500000Y-85400000D01*
X147250500Y-90300000D02*
X143900000Y-90300000D01*
%TO.N,/a15*%
X143150000Y-97699500D02*
X143150000Y-98537500D01*
X145400000Y-95449500D02*
X143150000Y-97699500D01*
%TO.N,/a12*%
X161950000Y-101450000D02*
X170950000Y-110450000D01*
X145062500Y-101450000D02*
X161950000Y-101450000D01*
X170950000Y-110450000D02*
X180725000Y-110450000D01*
%TO.N,/a11*%
X182100000Y-112950000D02*
X183200000Y-114050000D01*
X148125000Y-122275000D02*
X148125000Y-124925000D01*
X175825000Y-121475000D02*
X174675000Y-122625000D01*
X175825000Y-121475000D02*
X148925000Y-121475000D01*
X174675000Y-122625000D02*
X174675000Y-124300000D01*
X148925000Y-121475000D02*
X148125000Y-122275000D01*
X172150000Y-112950000D02*
X180725000Y-112950000D01*
X180725000Y-112950000D02*
X182100000Y-112950000D01*
X161150000Y-101950000D02*
X172150000Y-112950000D01*
X145062500Y-101950000D02*
X161150000Y-101950000D01*
X176275000Y-121475000D02*
X175825000Y-121475000D01*
X183200000Y-114050000D02*
X183200000Y-120350000D01*
X182075000Y-121475000D02*
X176275000Y-121475000D01*
X183200000Y-120350000D02*
X182075000Y-121475000D01*
%TO.N,/a8*%
X170550000Y-115450000D02*
X180725000Y-115450000D01*
X145062500Y-103450000D02*
X158550000Y-103450000D01*
X158550000Y-103450000D02*
X170550000Y-115450000D01*
%TO.N,/a9*%
X175750000Y-113975000D02*
X175800000Y-114025000D01*
X159797152Y-102950000D02*
X162973576Y-106126424D01*
X162973576Y-106126424D02*
X163026424Y-106126424D01*
X163026424Y-106126424D02*
X170875000Y-113975000D01*
X170875000Y-113975000D02*
X175750000Y-113975000D01*
X145062500Y-102950000D02*
X159797152Y-102950000D01*
%TO.N,/b0*%
X140650000Y-113825000D02*
X140650000Y-106862500D01*
X177724500Y-116625000D02*
X143450000Y-116625000D01*
X143450000Y-116625000D02*
X140650000Y-113825000D01*
%TO.N,/a10*%
X161125000Y-119025000D02*
X159525000Y-120625000D01*
X160575000Y-102450000D02*
X145062500Y-102450000D01*
X160575000Y-102450000D02*
X169100000Y-110975000D01*
X148375000Y-120625000D02*
X145625000Y-123375000D01*
X145625000Y-123375000D02*
X145625000Y-124925000D01*
X159525000Y-120625000D02*
X148375000Y-120625000D01*
X161125000Y-118850000D02*
X161125000Y-119025000D01*
%TO.N,/b1*%
X141150000Y-113250000D02*
X141150000Y-106862500D01*
X142975000Y-115075000D02*
X141150000Y-113250000D01*
X143825000Y-115075000D02*
X143900000Y-115150000D01*
X143325000Y-115075000D02*
X142975000Y-115075000D01*
X143325000Y-115075000D02*
X143825000Y-115075000D01*
%TO.N,/adc1*%
X136475000Y-112250000D02*
X125050000Y-112250000D01*
X125050000Y-112250000D02*
X123725000Y-110925000D01*
X138650000Y-110075000D02*
X136475000Y-112250000D01*
X138650000Y-106862500D02*
X138650000Y-110075000D01*
%TO.N,/adc2*%
X124850000Y-117000000D02*
X124275000Y-117575000D01*
X124275000Y-117575000D02*
X124275000Y-121625000D01*
X139150000Y-106862500D02*
X139150000Y-116225000D01*
X138375000Y-117000000D02*
X124850000Y-117000000D01*
X139150000Y-116225000D02*
X138375000Y-117000000D01*
%TO.N,/adc3*%
X139650000Y-106862500D02*
X139650000Y-118497500D01*
X139650000Y-118497500D02*
X136522500Y-121625000D01*
%TO.N,/CAN_Tx*%
X137395000Y-89895000D02*
X137395000Y-88475000D01*
X139150000Y-91650000D02*
X137395000Y-89895000D01*
D44*
X133400000Y-87900000D02*
X136820000Y-87900000D01*
X136820000Y-87900000D02*
X137395000Y-88475000D01*
D43*
X139150000Y-98537500D02*
X139150000Y-91650000D01*
%TO.N,/CAN_Rx*%
X141205000Y-88475000D02*
X141880000Y-87800000D01*
X141205000Y-89995000D02*
X141205000Y-88475000D01*
X139650000Y-98537500D02*
X139650000Y-91550000D01*
X139650000Y-91550000D02*
X141205000Y-89995000D01*
X141880000Y-87800000D02*
X144600000Y-87800000D01*
%TO.N,/pwm_a0*%
X136737500Y-104450000D02*
X134750000Y-104450000D01*
X132600000Y-106600000D02*
X132600000Y-110100000D01*
X134750000Y-104450000D02*
X132600000Y-106600000D01*
%TO.N,/pwm_a1*%
X136737500Y-104950000D02*
X135150000Y-104950000D01*
X135150000Y-104950000D02*
X133500000Y-106600000D01*
X133500000Y-106600000D02*
X133500000Y-109600000D01*
X133500000Y-109600000D02*
X133900000Y-110000000D01*
%TO.N,/pmw_a2*%
X135000000Y-106200000D02*
X135000000Y-109800000D01*
X135750000Y-105450000D02*
X135000000Y-106200000D01*
X135000000Y-109800000D02*
X135200000Y-110000000D01*
X136737500Y-105450000D02*
X135750000Y-105450000D01*
%TO.N,/pwm_a3*%
X138150000Y-108650000D02*
X136700000Y-110100000D01*
X138150000Y-106862500D02*
X138150000Y-108650000D01*
%TO.N,/MVCU_HBT*%
X146494669Y-72305331D02*
X145150000Y-72305331D01*
X130000000Y-95500000D02*
X130000000Y-68400000D01*
X144800000Y-66500000D02*
X146700000Y-68400000D01*
X146700000Y-72100000D02*
X146494669Y-72305331D01*
X135450000Y-100950000D02*
X130000000Y-95500000D01*
X146700000Y-68400000D02*
X146700000Y-72100000D01*
X130000000Y-68400000D02*
X131900000Y-66500000D01*
X136737500Y-100950000D02*
X135450000Y-100950000D01*
X131900000Y-66500000D02*
X144800000Y-66500000D01*
%TO.N,/CAN_L-*%
X140900000Y-73785331D02*
X142380000Y-72305331D01*
X140300000Y-74400000D02*
X140900000Y-73800000D01*
X139935000Y-80065000D02*
X140300000Y-79700000D01*
X140300000Y-79700000D02*
X140300000Y-74400000D01*
X139935000Y-83525000D02*
X139935000Y-80065000D01*
X140900000Y-73800000D02*
X140900000Y-73785331D01*
%TO.N,/I2C_SCL*%
X141150000Y-98537500D02*
X141150000Y-96350000D01*
X142800000Y-94700000D02*
X147600000Y-94700000D01*
X146250000Y-93750000D02*
X147300000Y-94800000D01*
X147600000Y-94700000D02*
X147700000Y-94800000D01*
X141150000Y-96350000D02*
X142800000Y-94700000D01*
X147300000Y-94800000D02*
X147700000Y-94800000D01*
%TO.N,/VCU_HBT*%
X132400000Y-67200000D02*
X143100000Y-67200000D01*
X143765000Y-67935000D02*
X143765000Y-69465331D01*
X130900000Y-68700000D02*
X132400000Y-67200000D01*
X130900000Y-95451041D02*
X130900000Y-68700000D01*
X143100000Y-67200000D02*
X143800000Y-67900000D01*
X143800000Y-67900000D02*
X143765000Y-67935000D01*
X136737500Y-100450000D02*
X135898959Y-100450000D01*
X135898959Y-100450000D02*
X130900000Y-95451041D01*
%TO.N,/CAN_H+*%
X139700000Y-78300000D02*
X139700000Y-74100000D01*
X138665000Y-80065000D02*
X138300000Y-79700000D01*
X140995000Y-72805000D02*
X140995000Y-69465331D01*
X139700000Y-74100000D02*
X140995000Y-72805000D01*
X138300000Y-79700000D02*
X139700000Y-78300000D01*
X138665000Y-83525000D02*
X138665000Y-80065000D01*
%TO.N,/I2C_SDA*%
X140650000Y-98537500D02*
X140650000Y-96050000D01*
X144175000Y-93950000D02*
X145125000Y-93000000D01*
X148000000Y-66600000D02*
X147000000Y-65600000D01*
X145125000Y-93000000D02*
X147200000Y-93000000D01*
X148000000Y-92200000D02*
X148000000Y-66600000D01*
X147200000Y-93000000D02*
X147700000Y-92500000D01*
X140650000Y-96050000D02*
X142750000Y-93950000D01*
X147000000Y-65600000D02*
X138400000Y-65600000D01*
X147700000Y-92500000D02*
X148000000Y-92200000D01*
X142750000Y-93950000D02*
X144175000Y-93950000D01*
D44*
%TO.N,Net-(R4-Pad2)*%
X126525000Y-77150000D02*
X125550000Y-77150000D01*
X129525000Y-95696751D02*
X129525000Y-80150000D01*
X129525000Y-80150000D02*
X126525000Y-77150000D01*
X136737500Y-101450000D02*
X135278249Y-101450000D01*
X135278249Y-101450000D02*
X129525000Y-95696751D01*
D43*
%TO.N,/BOOT0*%
X141200000Y-94300000D02*
X141200000Y-92600000D01*
X140150000Y-98537500D02*
X140150000Y-95350000D01*
X140150000Y-95350000D02*
X141200000Y-94300000D01*
%TO.N,/OSC_OUT*%
X134550000Y-102450000D02*
X132300000Y-100200000D01*
X136737500Y-102450000D02*
X134550000Y-102450000D01*
X132300000Y-100200000D02*
X131000000Y-100200000D01*
D44*
%TO.N,/uart3_tx*%
X142875000Y-109483148D02*
X142150000Y-108758148D01*
X142875000Y-111000000D02*
X142875000Y-109483148D01*
X142150000Y-108758148D02*
X142150000Y-106862500D01*
X142100000Y-111775000D02*
X142875000Y-111000000D01*
%TO.N,/uart3_rx*%
X142650000Y-108621752D02*
X142650000Y-106862500D01*
X142555650Y-113245023D02*
X143325000Y-112475673D01*
X143325000Y-112475673D02*
X143325000Y-109296752D01*
X142204977Y-113245023D02*
X142555650Y-113245023D01*
X143325000Y-109296752D02*
X142650000Y-108621752D01*
%TO.N,/sck*%
X149825000Y-110725000D02*
X151400000Y-110725000D01*
X146750000Y-104950000D02*
X149400000Y-107600000D01*
X149400000Y-110300000D02*
X149825000Y-110725000D01*
X149400000Y-107600000D02*
X149400000Y-110300000D01*
X145062500Y-104950000D02*
X146750000Y-104950000D01*
%TO.N,/miso*%
X147665000Y-104450000D02*
X151400000Y-108185000D01*
X145062500Y-104450000D02*
X147665000Y-104450000D01*
%TO.N,/mosi*%
X145062500Y-103950000D02*
X149705000Y-103950000D01*
X149705000Y-103950000D02*
X151400000Y-105645000D01*
D43*
%TO.N,/SWDIO*%
X153650000Y-100950000D02*
X155660000Y-98940000D01*
X155660000Y-98940000D02*
X155660000Y-88000000D01*
X145062500Y-100950000D02*
X153650000Y-100950000D01*
%TO.N,/SWCLK*%
X151600000Y-96500000D02*
X153120000Y-94980000D01*
X145687500Y-96500000D02*
X151600000Y-96500000D01*
X153120000Y-94980000D02*
X153120000Y-88000000D01*
X143650000Y-98537500D02*
X145687500Y-96500000D01*
%TO.N,/fault2*%
X141650000Y-96950000D02*
X142500000Y-96100000D01*
X141650000Y-98537500D02*
X141650000Y-96950000D01*
D44*
%TO.N,/rdy2*%
X141650000Y-106862500D02*
X141650000Y-109475000D01*
X141650000Y-109475000D02*
X141925000Y-109750000D01*
D43*
%TO.N,/a7*%
X140150000Y-106862500D02*
X140150000Y-114625000D01*
X140150000Y-114625000D02*
X143475000Y-117950000D01*
X143475000Y-117950000D02*
X180725000Y-117950000D01*
%TO.N,/fault1*%
X144100000Y-95560661D02*
X142150000Y-97510661D01*
X144100000Y-95449500D02*
X144100000Y-95560661D01*
X142150000Y-97510661D02*
X142150000Y-98537500D01*
D44*
%TO.N,/rdy1*%
X145062500Y-105450000D02*
X145275000Y-105450000D01*
X145275000Y-105450000D02*
X148700000Y-108875000D01*
X148700000Y-114075000D02*
X150125000Y-115500000D01*
X148700000Y-108875000D02*
X148700000Y-114075000D01*
X150125000Y-115500000D02*
X168850000Y-115500000D01*
D45*
%TO.N,Net-(J15-Pad2)*%
X175325000Y-104265000D02*
X176510000Y-105450000D01*
X176510000Y-105450000D02*
X180725000Y-105450000D01*
%TD*%
M02*
