%TF.GenerationSoftware,KiCad,Pcbnew,8.0.5*%
%TF.CreationDate,2024-10-29T23:06:17+07:00*%
%TF.ProjectId,inverter_vcu,696e7665-7274-4657-925f-7663752e6b69,rev?*%
%TF.SameCoordinates,Original*%
%TF.FileFunction,Soldermask,Top*%
%TF.FilePolarity,Negative*%
%FSLAX46Y46*%
G04 Gerber Fmt 4.6, Leading zero omitted, Abs format (unit mm)*
G04 Created by KiCad (PCBNEW 8.0.5) date 2024-10-29 23:06:17*
%MOMM*%
%LPD*%
G01*
G04 APERTURE LIST*
G04 Aperture macros list*
%AMRoundRect*
0 Rectangle with rounded corners*
0 $1 Rounding radius*
0 $2 $3 $4 $5 $6 $7 $8 $9 X,Y pos of 4 corners*
0 Add a 4 corners polygon primitive as box body*
4,1,4,$2,$3,$4,$5,$6,$7,$8,$9,$2,$3,0*
0 Add four circle primitives for the rounded corners*
1,1,$1+$1,$2,$3*
1,1,$1+$1,$4,$5*
1,1,$1+$1,$6,$7*
1,1,$1+$1,$8,$9*
0 Add four rect primitives between the rounded corners*
20,1,$1+$1,$2,$3,$4,$5,0*
20,1,$1+$1,$4,$5,$6,$7,0*
20,1,$1+$1,$6,$7,$8,$9,0*
20,1,$1+$1,$8,$9,$2,$3,0*%
G04 Aperture macros list end*
%ADD10RoundRect,0.250000X-0.350000X-0.450000X0.350000X-0.450000X0.350000X0.450000X-0.350000X0.450000X0*%
%ADD11RoundRect,0.250000X-0.600000X-0.725000X0.600000X-0.725000X0.600000X0.725000X-0.600000X0.725000X0*%
%ADD12O,1.700000X1.950000*%
%ADD13R,1.700000X1.700000*%
%ADD14O,1.700000X1.700000*%
%ADD15RoundRect,0.250000X-0.475000X0.337500X-0.475000X-0.337500X0.475000X-0.337500X0.475000X0.337500X0*%
%ADD16RoundRect,0.250000X-0.337500X-0.475000X0.337500X-0.475000X0.337500X0.475000X-0.337500X0.475000X0*%
%ADD17RoundRect,0.250001X-1.099999X-1.099999X1.099999X-1.099999X1.099999X1.099999X-1.099999X1.099999X0*%
%ADD18C,2.700000*%
%ADD19RoundRect,0.250000X0.475000X-0.337500X0.475000X0.337500X-0.475000X0.337500X-0.475000X-0.337500X0*%
%ADD20RoundRect,0.249999X-1.550001X0.790001X-1.550001X-0.790001X1.550001X-0.790001X1.550001X0.790001X0*%
%ADD21O,3.600000X2.080000*%
%ADD22RoundRect,0.250000X0.350000X0.450000X-0.350000X0.450000X-0.350000X-0.450000X0.350000X-0.450000X0*%
%ADD23RoundRect,0.250000X0.450000X-0.350000X0.450000X0.350000X-0.450000X0.350000X-0.450000X-0.350000X0*%
%ADD24RoundRect,0.075000X-0.662500X-0.075000X0.662500X-0.075000X0.662500X0.075000X-0.662500X0.075000X0*%
%ADD25RoundRect,0.075000X-0.075000X-0.662500X0.075000X-0.662500X0.075000X0.662500X-0.075000X0.662500X0*%
%ADD26RoundRect,0.250000X-0.325000X-0.450000X0.325000X-0.450000X0.325000X0.450000X-0.325000X0.450000X0*%
%ADD27RoundRect,0.250000X-0.725000X0.600000X-0.725000X-0.600000X0.725000X-0.600000X0.725000X0.600000X0*%
%ADD28O,1.950000X1.700000*%
%ADD29RoundRect,0.150000X0.150000X-0.825000X0.150000X0.825000X-0.150000X0.825000X-0.150000X-0.825000X0*%
%ADD30C,3.200000*%
%ADD31RoundRect,0.250000X-0.450000X0.325000X-0.450000X-0.325000X0.450000X-0.325000X0.450000X0.325000X0*%
%ADD32C,4.000000*%
%ADD33R,1.600000X1.600000*%
%ADD34C,1.600000*%
%ADD35RoundRect,0.250000X0.337500X0.475000X-0.337500X0.475000X-0.337500X-0.475000X0.337500X-0.475000X0*%
%ADD36C,2.000000*%
%ADD37C,1.500000*%
%ADD38R,2.000000X1.500000*%
%ADD39R,2.000000X3.800000*%
%ADD40R,1.905000X2.000000*%
%ADD41O,1.905000X2.000000*%
%ADD42RoundRect,0.250000X0.600000X0.725000X-0.600000X0.725000X-0.600000X-0.725000X0.600000X-0.725000X0*%
G04 APERTURE END LIST*
D10*
%TO.C,R3*%
X147700000Y-92500000D03*
X149700000Y-92500000D03*
%TD*%
D11*
%TO.C,J16*%
X164675000Y-124300000D03*
D12*
X167175000Y-124300000D03*
X169675000Y-124300000D03*
X172175000Y-124300000D03*
X174675000Y-124300000D03*
X177175000Y-124300000D03*
X179675000Y-124300000D03*
%TD*%
D13*
%TO.C,J1*%
X155725000Y-80900000D03*
D14*
X153185000Y-80900000D03*
X150645000Y-80900000D03*
%TD*%
D15*
%TO.C,C8*%
X152200000Y-97737500D03*
X152200000Y-99812500D03*
%TD*%
D16*
%TO.C,C1*%
X135662500Y-95400000D03*
X137737500Y-95400000D03*
%TD*%
D13*
%TO.C,J8*%
X158200000Y-88000000D03*
D14*
X155660000Y-88000000D03*
X153120000Y-88000000D03*
X150580000Y-88000000D03*
%TD*%
D17*
%TO.C,J5*%
X131522500Y-121625000D03*
D18*
X136522500Y-121625000D03*
%TD*%
D19*
%TO.C,C3*%
X131800000Y-104837500D03*
X131800000Y-102762500D03*
%TD*%
D15*
%TO.C,C4*%
X149500000Y-97737500D03*
X149500000Y-99812500D03*
%TD*%
D20*
%TO.C,J13*%
X177877500Y-89960000D03*
D21*
X177877500Y-95040000D03*
%TD*%
D22*
%TO.C,R15*%
X131000000Y-100200000D03*
X129000000Y-100200000D03*
%TD*%
%TO.C,R10*%
X143200000Y-92600000D03*
X141200000Y-92600000D03*
%TD*%
D13*
%TO.C,J6*%
X133400000Y-87900000D03*
%TD*%
D23*
%TO.C,R4*%
X125550000Y-79150000D03*
X125550000Y-77150000D03*
%TD*%
D19*
%TO.C,C7*%
X129200000Y-104837500D03*
X129200000Y-102762500D03*
%TD*%
D24*
%TO.C,U1*%
X136737500Y-99950000D03*
X136737500Y-100450000D03*
X136737500Y-100950000D03*
X136737500Y-101450000D03*
X136737500Y-101950000D03*
X136737500Y-102450000D03*
X136737500Y-102950000D03*
X136737500Y-103450000D03*
X136737500Y-103950000D03*
X136737500Y-104450000D03*
X136737500Y-104950000D03*
X136737500Y-105450000D03*
D25*
X138150000Y-106862500D03*
X138650000Y-106862500D03*
X139150000Y-106862500D03*
X139650000Y-106862500D03*
X140150000Y-106862500D03*
X140650000Y-106862500D03*
X141150000Y-106862500D03*
X141650000Y-106862500D03*
X142150000Y-106862500D03*
X142650000Y-106862500D03*
X143150000Y-106862500D03*
X143650000Y-106862500D03*
D24*
X145062500Y-105450000D03*
X145062500Y-104950000D03*
X145062500Y-104450000D03*
X145062500Y-103950000D03*
X145062500Y-103450000D03*
X145062500Y-102950000D03*
X145062500Y-102450000D03*
X145062500Y-101950000D03*
X145062500Y-101450000D03*
X145062500Y-100950000D03*
X145062500Y-100450000D03*
X145062500Y-99950000D03*
D25*
X143650000Y-98537500D03*
X143150000Y-98537500D03*
X142650000Y-98537500D03*
X142150000Y-98537500D03*
X141650000Y-98537500D03*
X141150000Y-98537500D03*
X140650000Y-98537500D03*
X140150000Y-98537500D03*
X139650000Y-98537500D03*
X139150000Y-98537500D03*
X138650000Y-98537500D03*
X138150000Y-98537500D03*
%TD*%
D13*
%TO.C,J7*%
X144600000Y-87800000D03*
%TD*%
D10*
%TO.C,R16*%
X138300000Y-79700000D03*
X140300000Y-79700000D03*
%TD*%
D26*
%TO.C,5V*%
X162900000Y-76175000D03*
X164950000Y-76175000D03*
%TD*%
D10*
%TO.C,R17*%
X167650000Y-76175000D03*
X169650000Y-76175000D03*
%TD*%
D22*
%TO.C,R1*%
X131050000Y-107400000D03*
X129050000Y-107400000D03*
%TD*%
D13*
%TO.C,J10*%
X123325000Y-94800000D03*
D14*
X120785000Y-94800000D03*
%TD*%
D10*
%TO.C,R2*%
X147700000Y-94800000D03*
X149700000Y-94800000D03*
%TD*%
D17*
%TO.C,J3*%
X118725000Y-110925000D03*
D18*
X123725000Y-110925000D03*
%TD*%
D27*
%TO.C,J15*%
X180725000Y-102950000D03*
D28*
X180725000Y-105450000D03*
X180725000Y-107950000D03*
X180725000Y-110450000D03*
X180725000Y-112950000D03*
X180725000Y-115450000D03*
X180725000Y-117950000D03*
%TD*%
D29*
%TO.C,U2*%
X137395000Y-88475000D03*
X138665000Y-88475000D03*
X139935000Y-88475000D03*
X141205000Y-88475000D03*
X141205000Y-83525000D03*
X139935000Y-83525000D03*
X138665000Y-83525000D03*
X137395000Y-83525000D03*
%TD*%
D30*
%TO.C,REF\u002A\u002A*%
X119650000Y-69400000D03*
%TD*%
D10*
%TO.C,R18*%
X167900000Y-93400000D03*
X169900000Y-93400000D03*
%TD*%
D13*
%TO.C,J11*%
X129450000Y-114575000D03*
D14*
X131990000Y-114575000D03*
X134530000Y-114575000D03*
X137070000Y-114575000D03*
%TD*%
D17*
%TO.C,J4*%
X119275000Y-121625000D03*
D18*
X124275000Y-121625000D03*
%TD*%
D31*
%TO.C,D1*%
X121150000Y-77125000D03*
X121150000Y-79175000D03*
%TD*%
D32*
%TO.C,J12*%
X152110000Y-72005331D03*
X127110000Y-72005331D03*
D33*
X145150000Y-72305331D03*
D34*
X142380000Y-72305331D03*
X139610000Y-72305331D03*
X136840000Y-72305331D03*
X134070000Y-72305331D03*
X143765000Y-69465331D03*
X140995000Y-69465331D03*
X138225000Y-69465331D03*
X135455000Y-69465331D03*
%TD*%
D35*
%TO.C,C13*%
X169937500Y-80300000D03*
X167862500Y-80300000D03*
%TD*%
D15*
%TO.C,C10*%
X126275000Y-82100000D03*
X126275000Y-84175000D03*
%TD*%
D19*
%TO.C,C9*%
X126275000Y-89175000D03*
X126275000Y-87100000D03*
%TD*%
D13*
%TO.C,J14*%
X168900000Y-97000000D03*
D14*
X166360000Y-97000000D03*
X163820000Y-97000000D03*
%TD*%
D33*
%TO.C,C12*%
X170975000Y-70150000D03*
D34*
X168475000Y-70150000D03*
%TD*%
D26*
%TO.C,3v3*%
X162952500Y-93360000D03*
X165002500Y-93360000D03*
%TD*%
D30*
%TO.C,REF\u002A\u002A*%
X178950000Y-69775000D03*
%TD*%
D36*
%TO.C,SW1*%
X124250000Y-103700000D03*
X117750000Y-103700000D03*
X124250000Y-99200000D03*
X117750000Y-99200000D03*
%TD*%
D16*
%TO.C,C2*%
X129012500Y-110000000D03*
X131087500Y-110000000D03*
%TD*%
D33*
%TO.C,C15*%
X161480113Y-70025000D03*
D34*
X159480113Y-70025000D03*
%TD*%
D15*
%TO.C,C11*%
X134000000Y-81762500D03*
X134000000Y-83837500D03*
%TD*%
D37*
%TO.C,Y1*%
X122175000Y-89037500D03*
X122175000Y-84157500D03*
%TD*%
D38*
%TO.C,U4*%
X169650000Y-89200000D03*
X169650000Y-86900000D03*
D39*
X163350000Y-86900000D03*
D38*
X169650000Y-84600000D03*
%TD*%
D35*
%TO.C,C5*%
X146650000Y-109600000D03*
X144575000Y-109600000D03*
%TD*%
D13*
%TO.C,J9*%
X151400000Y-110725000D03*
D14*
X151400000Y-108185000D03*
X151400000Y-105645000D03*
%TD*%
D40*
%TO.C,U3*%
X180700000Y-80200000D03*
D41*
X178160000Y-80200000D03*
X175620000Y-80200000D03*
%TD*%
D42*
%TO.C,J2*%
X158125000Y-124925000D03*
D12*
X155625000Y-124925000D03*
X153125000Y-124925000D03*
X150625000Y-124925000D03*
X148125000Y-124925000D03*
X145625000Y-124925000D03*
X143125000Y-124925000D03*
%TD*%
D35*
%TO.C,C6*%
X146650000Y-112100000D03*
X144575000Y-112100000D03*
%TD*%
D16*
%TO.C,C14*%
X162985000Y-80340000D03*
X165060000Y-80340000D03*
%TD*%
D13*
%TO.C,J17*%
X175325000Y-101725000D03*
D14*
X175325000Y-104265000D03*
X175325000Y-106805000D03*
%TD*%
M02*
