M48
; DRILL file {KiCad 8.0.5} date 2024-10-29T23:06:21+0700
; FORMAT={-:-/ absolute / inch / decimal}
; #@! TF.CreationDate,2024-10-29T23:06:21+07:00
; #@! TF.GenerationSoftware,Kicad,Pcbnew,8.0.5
; #@! TF.FileFunction,Plated,1,2,PTH
FMAT,2
INCH
; #@! TA.AperFunction,Plated,PTH,ViaDrill
T1C0.0157
; #@! TA.AperFunction,Plated,PTH,ComponentDrill
T2C0.0315
; #@! TA.AperFunction,Plated,PTH,ComponentDrill
T3C0.0374
; #@! TA.AperFunction,Plated,PTH,ComponentDrill
T4C0.0394
; #@! TA.AperFunction,Plated,PTH,ComponentDrill
T5C0.0433
; #@! TA.AperFunction,Plated,PTH,ComponentDrill
T6C0.0551
; #@! TA.AperFunction,Plated,PTH,ComponentDrill
T7C0.0669
; #@! TA.AperFunction,Plated,PTH,ComponentDrill
T8C0.1260
%
G90
G05
T1
X4.7697Y-2.939
X4.9695Y-3.3711
X5.0197Y-3.1555
X5.0246Y-4.377
X5.2205Y-4.3346
X5.2717Y-4.3307
X5.2756Y-3.122
X5.3228Y-4.3307
X5.3819Y-4.3346
X5.4213Y-3.6496
X5.4488Y-2.5827
X5.4843Y-3.563
X5.4843Y-4.0236
X5.5876Y-4.3209
X5.5933Y-4.1193
X5.5945Y-4.4006
X5.5986Y-4.4585
X5.6102Y-3.7835
X5.6252Y-3.9992
X5.6654Y-4.5335
X5.6732Y-3.7579
X5.7244Y-3.7579
X5.7579Y-3.6909
X5.7972Y-3.3189
X5.7973Y-3.5551
X5.874Y-3.3622
X5.9606Y-3.5906
X6.0984Y-3.809
X6.1634Y-3.874
X6.3189Y-3.6811
X6.3435Y-4.6791
X6.5591Y-3.249
X6.6063Y-3.0866
X6.6476Y-4.5472
X6.6575Y-4.3691
X6.9213Y-4.4892
X6.997Y-4.5915
T2
X4.81Y-3.3133
X4.81Y-3.5054
X6.2787Y-2.7569
X6.3575Y-2.7569
X6.6329Y-2.7618
X6.7313Y-2.7618
T3
X5.6348Y-4.9183
X5.7333Y-4.9183
X5.8317Y-4.9183
X5.9301Y-4.9183
X6.0285Y-4.9183
X6.127Y-4.9183
X6.2254Y-4.9183
X6.4833Y-4.8937
X6.5817Y-4.8937
X6.6801Y-4.8937
X6.7785Y-4.8937
X6.877Y-4.8937
X6.9754Y-4.8937
X7.0738Y-4.8937
X7.1152Y-4.0531
X7.1152Y-4.1516
X7.1152Y-4.25
X7.1152Y-4.3484
X7.1152Y-4.4469
X7.1152Y-4.5453
X7.1152Y-4.6437
T4
X4.7553Y-3.7323
X4.8553Y-3.7323
X5.0965Y-4.5108
X5.1965Y-4.5108
X5.252Y-3.4606
X5.2783Y-2.8467
X5.2965Y-4.5108
X5.3329Y-2.7349
X5.3874Y-2.8467
X5.3965Y-4.5108
X5.4419Y-2.7349
X5.4965Y-2.8467
X5.551Y-2.7349
X5.6055Y-2.8467
X5.66Y-2.7349
X5.6929Y-3.4567
X5.7146Y-2.8467
X5.9283Y-3.4646
X5.9309Y-3.185
X5.9606Y-4.1593
X5.9606Y-4.2593
X5.9606Y-4.3593
X6.0283Y-3.4646
X6.0309Y-3.185
X6.1283Y-3.4646
X6.1309Y-3.185
X6.2283Y-3.4646
X6.4496Y-3.8189
X6.5496Y-3.8189
X6.6496Y-3.8189
X6.9026Y-4.0049
X6.9026Y-4.1049
X6.9026Y-4.2049
T5
X4.6358Y-3.9055
X4.6358Y-4.0827
X4.8917Y-3.9055
X4.8917Y-4.0827
X6.9142Y-3.1575
X7.0142Y-3.1575
X7.1142Y-3.1575
T6
X7.0031Y-3.5417
X7.0031Y-3.7417
T7
X4.6742Y-4.3671
X4.6959Y-4.7884
X4.8711Y-4.3671
X4.8927Y-4.7884
X5.1781Y-4.7884
X5.3749Y-4.7884
T8
X5.0043Y-2.8349
X5.9886Y-2.8349
M30
