%TF.GenerationSoftware,KiCad,Pcbnew,8.0.5*%
%TF.CreationDate,2024-10-29T23:06:17+07:00*%
%TF.ProjectId,inverter_vcu,696e7665-7274-4657-925f-7663752e6b69,rev?*%
%TF.SameCoordinates,Original*%
%TF.FileFunction,Legend,Bot*%
%TF.FilePolarity,Positive*%
%FSLAX46Y46*%
G04 Gerber Fmt 4.6, Leading zero omitted, Abs format (unit mm)*
G04 Created by KiCad (PCBNEW 8.0.5) date 2024-10-29 23:06:17*
%MOMM*%
%LPD*%
G01*
G04 APERTURE LIST*
%ADD10C,0.250000*%
G04 APERTURE END LIST*
D10*
X139414285Y-81673470D02*
X139414285Y-80173470D01*
X139414285Y-80173470D02*
X139057142Y-80173470D01*
X139057142Y-80173470D02*
X138842856Y-80244899D01*
X138842856Y-80244899D02*
X138699999Y-80387756D01*
X138699999Y-80387756D02*
X138628570Y-80530613D01*
X138628570Y-80530613D02*
X138557142Y-80816327D01*
X138557142Y-80816327D02*
X138557142Y-81030613D01*
X138557142Y-81030613D02*
X138628570Y-81316327D01*
X138628570Y-81316327D02*
X138699999Y-81459184D01*
X138699999Y-81459184D02*
X138842856Y-81602042D01*
X138842856Y-81602042D02*
X139057142Y-81673470D01*
X139057142Y-81673470D02*
X139414285Y-81673470D01*
X137342856Y-81602042D02*
X137485713Y-81673470D01*
X137485713Y-81673470D02*
X137771428Y-81673470D01*
X137771428Y-81673470D02*
X137914285Y-81602042D01*
X137914285Y-81602042D02*
X137985713Y-81459184D01*
X137985713Y-81459184D02*
X137985713Y-80887756D01*
X137985713Y-80887756D02*
X137914285Y-80744899D01*
X137914285Y-80744899D02*
X137771428Y-80673470D01*
X137771428Y-80673470D02*
X137485713Y-80673470D01*
X137485713Y-80673470D02*
X137342856Y-80744899D01*
X137342856Y-80744899D02*
X137271428Y-80887756D01*
X137271428Y-80887756D02*
X137271428Y-81030613D01*
X137271428Y-81030613D02*
X137985713Y-81173470D01*
X136699999Y-81602042D02*
X136557142Y-81673470D01*
X136557142Y-81673470D02*
X136271428Y-81673470D01*
X136271428Y-81673470D02*
X136128571Y-81602042D01*
X136128571Y-81602042D02*
X136057142Y-81459184D01*
X136057142Y-81459184D02*
X136057142Y-81387756D01*
X136057142Y-81387756D02*
X136128571Y-81244899D01*
X136128571Y-81244899D02*
X136271428Y-81173470D01*
X136271428Y-81173470D02*
X136485714Y-81173470D01*
X136485714Y-81173470D02*
X136628571Y-81102042D01*
X136628571Y-81102042D02*
X136699999Y-80959184D01*
X136699999Y-80959184D02*
X136699999Y-80887756D01*
X136699999Y-80887756D02*
X136628571Y-80744899D01*
X136628571Y-80744899D02*
X136485714Y-80673470D01*
X136485714Y-80673470D02*
X136271428Y-80673470D01*
X136271428Y-80673470D02*
X136128571Y-80744899D01*
X135414285Y-81673470D02*
X135414285Y-80673470D01*
X135414285Y-80173470D02*
X135485713Y-80244899D01*
X135485713Y-80244899D02*
X135414285Y-80316327D01*
X135414285Y-80316327D02*
X135342856Y-80244899D01*
X135342856Y-80244899D02*
X135414285Y-80173470D01*
X135414285Y-80173470D02*
X135414285Y-80316327D01*
X134057142Y-80673470D02*
X134057142Y-81887756D01*
X134057142Y-81887756D02*
X134128570Y-82030613D01*
X134128570Y-82030613D02*
X134199999Y-82102042D01*
X134199999Y-82102042D02*
X134342856Y-82173470D01*
X134342856Y-82173470D02*
X134557142Y-82173470D01*
X134557142Y-82173470D02*
X134699999Y-82102042D01*
X134057142Y-81602042D02*
X134199999Y-81673470D01*
X134199999Y-81673470D02*
X134485713Y-81673470D01*
X134485713Y-81673470D02*
X134628570Y-81602042D01*
X134628570Y-81602042D02*
X134699999Y-81530613D01*
X134699999Y-81530613D02*
X134771427Y-81387756D01*
X134771427Y-81387756D02*
X134771427Y-80959184D01*
X134771427Y-80959184D02*
X134699999Y-80816327D01*
X134699999Y-80816327D02*
X134628570Y-80744899D01*
X134628570Y-80744899D02*
X134485713Y-80673470D01*
X134485713Y-80673470D02*
X134199999Y-80673470D01*
X134199999Y-80673470D02*
X134057142Y-80744899D01*
X133342856Y-80673470D02*
X133342856Y-81673470D01*
X133342856Y-80816327D02*
X133271427Y-80744899D01*
X133271427Y-80744899D02*
X133128570Y-80673470D01*
X133128570Y-80673470D02*
X132914284Y-80673470D01*
X132914284Y-80673470D02*
X132771427Y-80744899D01*
X132771427Y-80744899D02*
X132699999Y-80887756D01*
X132699999Y-80887756D02*
X132699999Y-81673470D01*
X131414284Y-81602042D02*
X131557141Y-81673470D01*
X131557141Y-81673470D02*
X131842856Y-81673470D01*
X131842856Y-81673470D02*
X131985713Y-81602042D01*
X131985713Y-81602042D02*
X132057141Y-81459184D01*
X132057141Y-81459184D02*
X132057141Y-80887756D01*
X132057141Y-80887756D02*
X131985713Y-80744899D01*
X131985713Y-80744899D02*
X131842856Y-80673470D01*
X131842856Y-80673470D02*
X131557141Y-80673470D01*
X131557141Y-80673470D02*
X131414284Y-80744899D01*
X131414284Y-80744899D02*
X131342856Y-80887756D01*
X131342856Y-80887756D02*
X131342856Y-81030613D01*
X131342856Y-81030613D02*
X132057141Y-81173470D01*
X130057142Y-81673470D02*
X130057142Y-80173470D01*
X130057142Y-81602042D02*
X130199999Y-81673470D01*
X130199999Y-81673470D02*
X130485713Y-81673470D01*
X130485713Y-81673470D02*
X130628570Y-81602042D01*
X130628570Y-81602042D02*
X130699999Y-81530613D01*
X130699999Y-81530613D02*
X130771427Y-81387756D01*
X130771427Y-81387756D02*
X130771427Y-80959184D01*
X130771427Y-80959184D02*
X130699999Y-80816327D01*
X130699999Y-80816327D02*
X130628570Y-80744899D01*
X130628570Y-80744899D02*
X130485713Y-80673470D01*
X130485713Y-80673470D02*
X130199999Y-80673470D01*
X130199999Y-80673470D02*
X130057142Y-80744899D01*
X128199999Y-81673470D02*
X128199999Y-80173470D01*
X128199999Y-80744899D02*
X128057142Y-80673470D01*
X128057142Y-80673470D02*
X127771427Y-80673470D01*
X127771427Y-80673470D02*
X127628570Y-80744899D01*
X127628570Y-80744899D02*
X127557142Y-80816327D01*
X127557142Y-80816327D02*
X127485713Y-80959184D01*
X127485713Y-80959184D02*
X127485713Y-81387756D01*
X127485713Y-81387756D02*
X127557142Y-81530613D01*
X127557142Y-81530613D02*
X127628570Y-81602042D01*
X127628570Y-81602042D02*
X127771427Y-81673470D01*
X127771427Y-81673470D02*
X128057142Y-81673470D01*
X128057142Y-81673470D02*
X128199999Y-81602042D01*
X126985713Y-80673470D02*
X126628570Y-81673470D01*
X126271427Y-80673470D02*
X126628570Y-81673470D01*
X126628570Y-81673470D02*
X126771427Y-82030613D01*
X126771427Y-82030613D02*
X126842856Y-82102042D01*
X126842856Y-82102042D02*
X126985713Y-82173470D01*
X124771427Y-80173470D02*
X124271427Y-81673470D01*
X124271427Y-81673470D02*
X123771427Y-80173470D01*
X122628571Y-81673470D02*
X122628571Y-80887756D01*
X122628571Y-80887756D02*
X122699999Y-80744899D01*
X122699999Y-80744899D02*
X122842856Y-80673470D01*
X122842856Y-80673470D02*
X123128571Y-80673470D01*
X123128571Y-80673470D02*
X123271428Y-80744899D01*
X122628571Y-81602042D02*
X122771428Y-81673470D01*
X122771428Y-81673470D02*
X123128571Y-81673470D01*
X123128571Y-81673470D02*
X123271428Y-81602042D01*
X123271428Y-81602042D02*
X123342856Y-81459184D01*
X123342856Y-81459184D02*
X123342856Y-81316327D01*
X123342856Y-81316327D02*
X123271428Y-81173470D01*
X123271428Y-81173470D02*
X123128571Y-81102042D01*
X123128571Y-81102042D02*
X122771428Y-81102042D01*
X122771428Y-81102042D02*
X122628571Y-81030613D01*
X121914285Y-81673470D02*
X121914285Y-80673470D01*
X121914285Y-80959184D02*
X121842856Y-80816327D01*
X121842856Y-80816327D02*
X121771428Y-80744899D01*
X121771428Y-80744899D02*
X121628570Y-80673470D01*
X121628570Y-80673470D02*
X121485713Y-80673470D01*
X120342857Y-81673470D02*
X120342857Y-80887756D01*
X120342857Y-80887756D02*
X120414285Y-80744899D01*
X120414285Y-80744899D02*
X120557142Y-80673470D01*
X120557142Y-80673470D02*
X120842857Y-80673470D01*
X120842857Y-80673470D02*
X120985714Y-80744899D01*
X120342857Y-81602042D02*
X120485714Y-81673470D01*
X120485714Y-81673470D02*
X120842857Y-81673470D01*
X120842857Y-81673470D02*
X120985714Y-81602042D01*
X120985714Y-81602042D02*
X121057142Y-81459184D01*
X121057142Y-81459184D02*
X121057142Y-81316327D01*
X121057142Y-81316327D02*
X120985714Y-81173470D01*
X120985714Y-81173470D02*
X120842857Y-81102042D01*
X120842857Y-81102042D02*
X120485714Y-81102042D01*
X120485714Y-81102042D02*
X120342857Y-81030613D01*
X118985714Y-81673470D02*
X118985714Y-80173470D01*
X118985714Y-81602042D02*
X119128571Y-81673470D01*
X119128571Y-81673470D02*
X119414285Y-81673470D01*
X119414285Y-81673470D02*
X119557142Y-81602042D01*
X119557142Y-81602042D02*
X119628571Y-81530613D01*
X119628571Y-81530613D02*
X119699999Y-81387756D01*
X119699999Y-81387756D02*
X119699999Y-80959184D01*
X119699999Y-80959184D02*
X119628571Y-80816327D01*
X119628571Y-80816327D02*
X119557142Y-80744899D01*
X119557142Y-80744899D02*
X119414285Y-80673470D01*
X119414285Y-80673470D02*
X119128571Y-80673470D01*
X119128571Y-80673470D02*
X118985714Y-80744899D01*
X131485713Y-82588386D02*
X130985713Y-84088386D01*
X130985713Y-84088386D02*
X130485713Y-82588386D01*
X129199999Y-84088386D02*
X130057142Y-84088386D01*
X129628571Y-84088386D02*
X129628571Y-82588386D01*
X129628571Y-82588386D02*
X129771428Y-82802672D01*
X129771428Y-82802672D02*
X129914285Y-82945529D01*
X129914285Y-82945529D02*
X130057142Y-83016958D01*
X128557143Y-83945529D02*
X128485714Y-84016958D01*
X128485714Y-84016958D02*
X128557143Y-84088386D01*
X128557143Y-84088386D02*
X128628571Y-84016958D01*
X128628571Y-84016958D02*
X128557143Y-83945529D01*
X128557143Y-83945529D02*
X128557143Y-84088386D01*
X127914285Y-82731243D02*
X127842857Y-82659815D01*
X127842857Y-82659815D02*
X127700000Y-82588386D01*
X127700000Y-82588386D02*
X127342857Y-82588386D01*
X127342857Y-82588386D02*
X127200000Y-82659815D01*
X127200000Y-82659815D02*
X127128571Y-82731243D01*
X127128571Y-82731243D02*
X127057142Y-82874100D01*
X127057142Y-82874100D02*
X127057142Y-83016958D01*
X127057142Y-83016958D02*
X127128571Y-83231243D01*
X127128571Y-83231243D02*
X127985714Y-84088386D01*
X127985714Y-84088386D02*
X127057142Y-84088386D01*
M02*
