%TF.GenerationSoftware,KiCad,Pcbnew,8.0.5*%
%TF.CreationDate,2024-10-29T23:06:17+07:00*%
%TF.ProjectId,inverter_vcu,696e7665-7274-4657-925f-7663752e6b69,rev?*%
%TF.SameCoordinates,Original*%
%TF.FileFunction,Soldermask,Bot*%
%TF.FilePolarity,Negative*%
%FSLAX46Y46*%
G04 Gerber Fmt 4.6, Leading zero omitted, Abs format (unit mm)*
G04 Created by KiCad (PCBNEW 8.0.5) date 2024-10-29 23:06:17*
%MOMM*%
%LPD*%
G01*
G04 APERTURE LIST*
G04 Aperture macros list*
%AMRoundRect*
0 Rectangle with rounded corners*
0 $1 Rounding radius*
0 $2 $3 $4 $5 $6 $7 $8 $9 X,Y pos of 4 corners*
0 Add a 4 corners polygon primitive as box body*
4,1,4,$2,$3,$4,$5,$6,$7,$8,$9,$2,$3,0*
0 Add four circle primitives for the rounded corners*
1,1,$1+$1,$2,$3*
1,1,$1+$1,$4,$5*
1,1,$1+$1,$6,$7*
1,1,$1+$1,$8,$9*
0 Add four rect primitives between the rounded corners*
20,1,$1+$1,$2,$3,$4,$5,0*
20,1,$1+$1,$4,$5,$6,$7,0*
20,1,$1+$1,$6,$7,$8,$9,0*
20,1,$1+$1,$8,$9,$2,$3,0*%
G04 Aperture macros list end*
%ADD10RoundRect,0.250000X-0.600000X-0.725000X0.600000X-0.725000X0.600000X0.725000X-0.600000X0.725000X0*%
%ADD11O,1.700000X1.950000*%
%ADD12R,1.700000X1.700000*%
%ADD13O,1.700000X1.700000*%
%ADD14RoundRect,0.250001X-1.099999X-1.099999X1.099999X-1.099999X1.099999X1.099999X-1.099999X1.099999X0*%
%ADD15C,2.700000*%
%ADD16RoundRect,0.249999X-1.550001X0.790001X-1.550001X-0.790001X1.550001X-0.790001X1.550001X0.790001X0*%
%ADD17O,3.600000X2.080000*%
%ADD18RoundRect,0.250000X-0.725000X0.600000X-0.725000X-0.600000X0.725000X-0.600000X0.725000X0.600000X0*%
%ADD19O,1.950000X1.700000*%
%ADD20C,3.200000*%
%ADD21C,4.000000*%
%ADD22R,1.600000X1.600000*%
%ADD23C,1.600000*%
%ADD24C,2.000000*%
%ADD25C,1.500000*%
%ADD26R,1.905000X2.000000*%
%ADD27O,1.905000X2.000000*%
%ADD28RoundRect,0.250000X0.600000X0.725000X-0.600000X0.725000X-0.600000X-0.725000X0.600000X-0.725000X0*%
G04 APERTURE END LIST*
D10*
%TO.C,J16*%
X164675000Y-124300000D03*
D11*
X167175000Y-124300000D03*
X169675000Y-124300000D03*
X172175000Y-124300000D03*
X174675000Y-124300000D03*
X177175000Y-124300000D03*
X179675000Y-124300000D03*
%TD*%
D12*
%TO.C,J1*%
X155725000Y-80900000D03*
D13*
X153185000Y-80900000D03*
X150645000Y-80900000D03*
%TD*%
D12*
%TO.C,J8*%
X158200000Y-88000000D03*
D13*
X155660000Y-88000000D03*
X153120000Y-88000000D03*
X150580000Y-88000000D03*
%TD*%
D14*
%TO.C,J5*%
X131522500Y-121625000D03*
D15*
X136522500Y-121625000D03*
%TD*%
D16*
%TO.C,J13*%
X177877500Y-89960000D03*
D17*
X177877500Y-95040000D03*
%TD*%
D12*
%TO.C,J6*%
X133400000Y-87900000D03*
%TD*%
%TO.C,J7*%
X144600000Y-87800000D03*
%TD*%
%TO.C,J10*%
X123325000Y-94800000D03*
D13*
X120785000Y-94800000D03*
%TD*%
D14*
%TO.C,J3*%
X118725000Y-110925000D03*
D15*
X123725000Y-110925000D03*
%TD*%
D18*
%TO.C,J15*%
X180725000Y-102950000D03*
D19*
X180725000Y-105450000D03*
X180725000Y-107950000D03*
X180725000Y-110450000D03*
X180725000Y-112950000D03*
X180725000Y-115450000D03*
X180725000Y-117950000D03*
%TD*%
D20*
%TO.C,REF\u002A\u002A*%
X119650000Y-69400000D03*
%TD*%
D12*
%TO.C,J11*%
X129450000Y-114575000D03*
D13*
X131990000Y-114575000D03*
X134530000Y-114575000D03*
X137070000Y-114575000D03*
%TD*%
D14*
%TO.C,J4*%
X119275000Y-121625000D03*
D15*
X124275000Y-121625000D03*
%TD*%
D21*
%TO.C,J12*%
X152110000Y-72005331D03*
X127110000Y-72005331D03*
D22*
X145150000Y-72305331D03*
D23*
X142380000Y-72305331D03*
X139610000Y-72305331D03*
X136840000Y-72305331D03*
X134070000Y-72305331D03*
X143765000Y-69465331D03*
X140995000Y-69465331D03*
X138225000Y-69465331D03*
X135455000Y-69465331D03*
%TD*%
D12*
%TO.C,J14*%
X168900000Y-97000000D03*
D13*
X166360000Y-97000000D03*
X163820000Y-97000000D03*
%TD*%
D22*
%TO.C,C12*%
X170975000Y-70150000D03*
D23*
X168475000Y-70150000D03*
%TD*%
D20*
%TO.C,REF\u002A\u002A*%
X178950000Y-69775000D03*
%TD*%
D24*
%TO.C,SW1*%
X124250000Y-103700000D03*
X117750000Y-103700000D03*
X124250000Y-99200000D03*
X117750000Y-99200000D03*
%TD*%
D22*
%TO.C,C15*%
X161480113Y-70025000D03*
D23*
X159480113Y-70025000D03*
%TD*%
D25*
%TO.C,Y1*%
X122175000Y-89037500D03*
X122175000Y-84157500D03*
%TD*%
D12*
%TO.C,J9*%
X151400000Y-110725000D03*
D13*
X151400000Y-108185000D03*
X151400000Y-105645000D03*
%TD*%
D26*
%TO.C,U3*%
X180700000Y-80200000D03*
D27*
X178160000Y-80200000D03*
X175620000Y-80200000D03*
%TD*%
D28*
%TO.C,J2*%
X158125000Y-124925000D03*
D11*
X155625000Y-124925000D03*
X153125000Y-124925000D03*
X150625000Y-124925000D03*
X148125000Y-124925000D03*
X145625000Y-124925000D03*
X143125000Y-124925000D03*
%TD*%
D12*
%TO.C,J17*%
X175325000Y-101725000D03*
D13*
X175325000Y-104265000D03*
X175325000Y-106805000D03*
%TD*%
M02*
