%TF.GenerationSoftware,KiCad,Pcbnew,8.0.5*%
%TF.CreationDate,2024-10-29T23:06:17+07:00*%
%TF.ProjectId,inverter_vcu,696e7665-7274-4657-925f-7663752e6b69,rev?*%
%TF.SameCoordinates,Original*%
%TF.FileFunction,Copper,L2,Bot*%
%TF.FilePolarity,Positive*%
%FSLAX46Y46*%
G04 Gerber Fmt 4.6, Leading zero omitted, Abs format (unit mm)*
G04 Created by KiCad (PCBNEW 8.0.5) date 2024-10-29 23:06:17*
%MOMM*%
%LPD*%
G01*
G04 APERTURE LIST*
G04 Aperture macros list*
%AMRoundRect*
0 Rectangle with rounded corners*
0 $1 Rounding radius*
0 $2 $3 $4 $5 $6 $7 $8 $9 X,Y pos of 4 corners*
0 Add a 4 corners polygon primitive as box body*
4,1,4,$2,$3,$4,$5,$6,$7,$8,$9,$2,$3,0*
0 Add four circle primitives for the rounded corners*
1,1,$1+$1,$2,$3*
1,1,$1+$1,$4,$5*
1,1,$1+$1,$6,$7*
1,1,$1+$1,$8,$9*
0 Add four rect primitives between the rounded corners*
20,1,$1+$1,$2,$3,$4,$5,0*
20,1,$1+$1,$4,$5,$6,$7,0*
20,1,$1+$1,$6,$7,$8,$9,0*
20,1,$1+$1,$8,$9,$2,$3,0*%
G04 Aperture macros list end*
%TA.AperFunction,ComponentPad*%
%ADD10RoundRect,0.250000X-0.600000X-0.725000X0.600000X-0.725000X0.600000X0.725000X-0.600000X0.725000X0*%
%TD*%
%TA.AperFunction,ComponentPad*%
%ADD11O,1.700000X1.950000*%
%TD*%
%TA.AperFunction,ComponentPad*%
%ADD12R,1.700000X1.700000*%
%TD*%
%TA.AperFunction,ComponentPad*%
%ADD13O,1.700000X1.700000*%
%TD*%
%TA.AperFunction,ComponentPad*%
%ADD14RoundRect,0.250001X-1.099999X-1.099999X1.099999X-1.099999X1.099999X1.099999X-1.099999X1.099999X0*%
%TD*%
%TA.AperFunction,ComponentPad*%
%ADD15C,2.700000*%
%TD*%
%TA.AperFunction,ComponentPad*%
%ADD16RoundRect,0.249999X-1.550001X0.790001X-1.550001X-0.790001X1.550001X-0.790001X1.550001X0.790001X0*%
%TD*%
%TA.AperFunction,ComponentPad*%
%ADD17O,3.600000X2.080000*%
%TD*%
%TA.AperFunction,ComponentPad*%
%ADD18RoundRect,0.250000X-0.725000X0.600000X-0.725000X-0.600000X0.725000X-0.600000X0.725000X0.600000X0*%
%TD*%
%TA.AperFunction,ComponentPad*%
%ADD19O,1.950000X1.700000*%
%TD*%
%TA.AperFunction,ComponentPad*%
%ADD20C,4.000000*%
%TD*%
%TA.AperFunction,ComponentPad*%
%ADD21R,1.600000X1.600000*%
%TD*%
%TA.AperFunction,ComponentPad*%
%ADD22C,1.600000*%
%TD*%
%TA.AperFunction,ComponentPad*%
%ADD23C,2.000000*%
%TD*%
%TA.AperFunction,ComponentPad*%
%ADD24C,1.500000*%
%TD*%
%TA.AperFunction,ComponentPad*%
%ADD25R,1.905000X2.000000*%
%TD*%
%TA.AperFunction,ComponentPad*%
%ADD26O,1.905000X2.000000*%
%TD*%
%TA.AperFunction,ComponentPad*%
%ADD27RoundRect,0.250000X0.600000X0.725000X-0.600000X0.725000X-0.600000X-0.725000X0.600000X-0.725000X0*%
%TD*%
%TA.AperFunction,ViaPad*%
%ADD28C,0.800000*%
%TD*%
%TA.AperFunction,Conductor*%
%ADD29C,0.300000*%
%TD*%
%TA.AperFunction,Conductor*%
%ADD30C,0.250000*%
%TD*%
G04 APERTURE END LIST*
D10*
%TO.P,J16,1,Pin_1*%
%TO.N,GND*%
X164675000Y-124300000D03*
D11*
%TO.P,J16,2,Pin_2*%
%TO.N,unconnected-(J16-Pad2)*%
X167175000Y-124300000D03*
%TO.P,J16,3,Pin_3*%
%TO.N,/fault1*%
X169675000Y-124300000D03*
%TO.P,J16,4,Pin_4*%
%TO.N,/rdy1*%
X172175000Y-124300000D03*
%TO.P,J16,5,Pin_5*%
%TO.N,/a11*%
X174675000Y-124300000D03*
%TO.P,J16,6,Pin_6*%
%TO.N,/a9*%
X177175000Y-124300000D03*
%TO.P,J16,7,Pin_7*%
%TO.N,/b0*%
X179675000Y-124300000D03*
%TD*%
D12*
%TO.P,J1,1,Pin_1*%
%TO.N,+3.3V*%
X155725000Y-80900000D03*
D13*
%TO.P,J1,2,Pin_2*%
%TO.N,Net-(J1-Pad2)*%
X153185000Y-80900000D03*
%TO.P,J1,3,Pin_3*%
%TO.N,GND*%
X150645000Y-80900000D03*
%TD*%
D12*
%TO.P,J8,1,Pin_1*%
%TO.N,+3.3V*%
X158200000Y-88000000D03*
D13*
%TO.P,J8,2,Pin_2*%
%TO.N,/SWDIO*%
X155660000Y-88000000D03*
%TO.P,J8,3,Pin_3*%
%TO.N,/SWCLK*%
X153120000Y-88000000D03*
%TO.P,J8,4,Pin_4*%
%TO.N,GND*%
X150580000Y-88000000D03*
%TD*%
D14*
%TO.P,J5,1,Pin_1*%
%TO.N,GND*%
X131522500Y-121625000D03*
D15*
%TO.P,J5,2,Pin_2*%
%TO.N,/adc3*%
X136522500Y-121625000D03*
%TD*%
D16*
%TO.P,J13,1,Pin_1*%
%TO.N,+BATT*%
X177877500Y-89960000D03*
D17*
%TO.P,J13,2,Pin_2*%
%TO.N,GND*%
X177877500Y-95040000D03*
%TD*%
D12*
%TO.P,J6,1,Pin_1*%
%TO.N,/CAN_Tx*%
X133400000Y-87900000D03*
%TD*%
%TO.P,J7,1,Pin_1*%
%TO.N,/CAN_Rx*%
X144600000Y-87800000D03*
%TD*%
%TO.P,J10,1,Pin_1*%
%TO.N,/uart3_tx*%
X123325000Y-94800000D03*
D13*
%TO.P,J10,2,Pin_2*%
%TO.N,/uart3_rx*%
X120785000Y-94800000D03*
%TD*%
D14*
%TO.P,J3,1,Pin_1*%
%TO.N,GND*%
X118725000Y-110925000D03*
D15*
%TO.P,J3,2,Pin_2*%
%TO.N,/adc1*%
X123725000Y-110925000D03*
%TD*%
D18*
%TO.P,J15,1,Pin_1*%
%TO.N,GND*%
X180725000Y-102950000D03*
D19*
%TO.P,J15,2,Pin_2*%
%TO.N,Net-(J15-Pad2)*%
X180725000Y-105450000D03*
%TO.P,J15,3,Pin_3*%
%TO.N,/a15*%
X180725000Y-107950000D03*
%TO.P,J15,4,Pin_4*%
%TO.N,/a12*%
X180725000Y-110450000D03*
%TO.P,J15,5,Pin_5*%
%TO.N,/a11*%
X180725000Y-112950000D03*
%TO.P,J15,6,Pin_6*%
%TO.N,/a8*%
X180725000Y-115450000D03*
%TO.P,J15,7,Pin_7*%
%TO.N,/a7*%
X180725000Y-117950000D03*
%TD*%
D12*
%TO.P,J11,1,Pin_1*%
%TO.N,/pwm_a0*%
X129450000Y-114575000D03*
D13*
%TO.P,J11,2,Pin_2*%
%TO.N,/pwm_a1*%
X131990000Y-114575000D03*
%TO.P,J11,3,Pin_3*%
%TO.N,/pmw_a2*%
X134530000Y-114575000D03*
%TO.P,J11,4,Pin_4*%
%TO.N,/pwm_a3*%
X137070000Y-114575000D03*
%TD*%
D14*
%TO.P,J4,1,Pin_1*%
%TO.N,GND*%
X119275000Y-121625000D03*
D15*
%TO.P,J4,2,Pin_2*%
%TO.N,/adc2*%
X124275000Y-121625000D03*
%TD*%
D20*
%TO.P,J12,0,PAD*%
%TO.N,GND*%
X152110000Y-72005331D03*
X127110000Y-72005331D03*
D21*
%TO.P,J12,1,1*%
%TO.N,/MVCU_HBT*%
X145150000Y-72305331D03*
D22*
%TO.P,J12,2,2*%
%TO.N,/CAN_L-*%
X142380000Y-72305331D03*
%TO.P,J12,3,3*%
%TO.N,GND*%
X139610000Y-72305331D03*
%TO.P,J12,4,4*%
%TO.N,/I2C_SCL*%
X136840000Y-72305331D03*
%TO.P,J12,5,5*%
%TO.N,GND*%
X134070000Y-72305331D03*
%TO.P,J12,6,6*%
%TO.N,/VCU_HBT*%
X143765000Y-69465331D03*
%TO.P,J12,7,7*%
%TO.N,/CAN_H+*%
X140995000Y-69465331D03*
%TO.P,J12,8,8*%
%TO.N,/I2C_SDA*%
X138225000Y-69465331D03*
%TO.P,J12,9,9*%
%TO.N,+5V*%
X135455000Y-69465331D03*
%TD*%
D12*
%TO.P,J14,1,Pin_1*%
%TO.N,Net-(C14-Pad1)*%
X168900000Y-97000000D03*
D13*
%TO.P,J14,2,Pin_2*%
%TO.N,+3.3V*%
X166360000Y-97000000D03*
%TO.P,J14,3,Pin_3*%
%TO.N,GND*%
X163820000Y-97000000D03*
%TD*%
D21*
%TO.P,C12,1*%
%TO.N,+BATT*%
X170975000Y-70150000D03*
D22*
%TO.P,C12,2*%
%TO.N,GND*%
X168475000Y-70150000D03*
%TD*%
D23*
%TO.P,SW1,1,1*%
%TO.N,GND*%
X124250000Y-103700000D03*
X117750000Y-103700000D03*
%TO.P,SW1,2,2*%
%TO.N,/RESET*%
X124250000Y-99200000D03*
X117750000Y-99200000D03*
%TD*%
D21*
%TO.P,C15,1*%
%TO.N,+5V*%
X161480113Y-70025000D03*
D22*
%TO.P,C15,2*%
%TO.N,GND*%
X159480113Y-70025000D03*
%TD*%
D24*
%TO.P,Y1,1,1*%
%TO.N,Net-(C9-Pad1)*%
X122175000Y-89037500D03*
%TO.P,Y1,2,2*%
%TO.N,/OSC_IN*%
X122175000Y-84157500D03*
%TD*%
D12*
%TO.P,J9,1,Pin_1*%
%TO.N,/sck*%
X151400000Y-110725000D03*
D13*
%TO.P,J9,2,Pin_2*%
%TO.N,/miso*%
X151400000Y-108185000D03*
%TO.P,J9,3,Pin_3*%
%TO.N,/mosi*%
X151400000Y-105645000D03*
%TD*%
D25*
%TO.P,U3,1,VI*%
%TO.N,+BATT*%
X180700000Y-80200000D03*
D26*
%TO.P,U3,2,GND*%
%TO.N,GND*%
X178160000Y-80200000D03*
%TO.P,U3,3,VO*%
%TO.N,+5V*%
X175620000Y-80200000D03*
%TD*%
D27*
%TO.P,J2,1,Pin_1*%
%TO.N,GND*%
X158125000Y-124925000D03*
D11*
%TO.P,J2,2,Pin_2*%
%TO.N,unconnected-(J2-Pad2)*%
X155625000Y-124925000D03*
%TO.P,J2,3,Pin_3*%
%TO.N,/fault2*%
X153125000Y-124925000D03*
%TO.P,J2,4,Pin_4*%
%TO.N,/rdy2*%
X150625000Y-124925000D03*
%TO.P,J2,5,Pin_5*%
%TO.N,/a11*%
X148125000Y-124925000D03*
%TO.P,J2,6,Pin_6*%
%TO.N,/a10*%
X145625000Y-124925000D03*
%TO.P,J2,7,Pin_7*%
%TO.N,/b1*%
X143125000Y-124925000D03*
%TD*%
D12*
%TO.P,J17,1,Pin_1*%
%TO.N,+5V*%
X175325000Y-101725000D03*
D13*
%TO.P,J17,2,Pin_2*%
%TO.N,Net-(J15-Pad2)*%
X175325000Y-104265000D03*
%TO.P,J17,3,Pin_3*%
%TO.N,unconnected-(J17-Pad3)*%
X175325000Y-106805000D03*
%TD*%
D28*
%TO.N,+3.3V*%
X154900000Y-96749500D03*
X156550500Y-98400000D03*
X151400000Y-91200000D03*
%TO.N,GND*%
X160500000Y-93500000D03*
X142879977Y-101579977D03*
X121150000Y-74650000D03*
X139300000Y-90500000D03*
X126225000Y-85625000D03*
X137700000Y-92700000D03*
X127625000Y-111175000D03*
X139300000Y-102200000D03*
X142070023Y-104629977D03*
X167800000Y-78400000D03*
X134000000Y-79300000D03*
X127500000Y-80150000D03*
%TO.N,+5V*%
X166600000Y-82525000D03*
X147249500Y-84300000D03*
%TO.N,Net-(J1-Pad2)*%
X147250500Y-90300000D03*
X149200000Y-85400000D03*
%TO.N,/a15*%
X145400000Y-95449500D03*
%TO.N,/a9*%
X175800000Y-114025000D03*
%TO.N,/b0*%
X177724500Y-116625000D03*
%TO.N,/a10*%
X161125000Y-118850000D03*
X169100000Y-110975000D03*
%TO.N,/b1*%
X143900000Y-115150000D03*
%TO.N,/pwm_a0*%
X132600000Y-110100000D03*
%TO.N,/pwm_a1*%
X133900000Y-110000000D03*
%TO.N,/pmw_a2*%
X135200000Y-110000000D03*
%TO.N,/pwm_a3*%
X136700000Y-110100000D03*
%TO.N,/I2C_SCL*%
X146250000Y-93750000D03*
%TO.N,/I2C_SDA*%
X138400000Y-65600000D03*
%TO.N,/uart3_tx*%
X142100000Y-111775000D03*
%TO.N,/uart3_rx*%
X142204977Y-113245023D03*
%TO.N,/fault2*%
X142500000Y-96100000D03*
%TO.N,/rdy2*%
X141925000Y-109750000D03*
%TO.N,/fault1*%
X144100000Y-95449500D03*
%TO.N,/rdy1*%
X168850000Y-115500000D03*
%TD*%
D29*
%TO.N,+3.3V*%
X156900000Y-91200000D02*
X158200000Y-89900000D01*
X151400000Y-91200000D02*
X156900000Y-91200000D01*
X154900000Y-96749500D02*
X156550500Y-98400000D01*
X158200000Y-89900000D02*
X158200000Y-88000000D01*
%TO.N,+5V*%
X164825000Y-84300000D02*
X147249500Y-84300000D01*
X166600000Y-82525000D02*
X164825000Y-84300000D01*
%TO.N,Net-(J1-Pad2)*%
X147250500Y-86049500D02*
X147250500Y-90300000D01*
X149200000Y-85400000D02*
X147900000Y-85400000D01*
X147900000Y-85400000D02*
X147600000Y-85700000D01*
X147600000Y-85700000D02*
X147250500Y-86049500D01*
%TO.N,/a15*%
X145950500Y-96000000D02*
X157900000Y-96000000D01*
X179675000Y-109000000D02*
X180725000Y-107950000D01*
X145400000Y-95449500D02*
X145950500Y-96000000D01*
X157900000Y-96000000D02*
X170900000Y-109000000D01*
X170900000Y-109000000D02*
X179675000Y-109000000D01*
%TO.N,/a9*%
X177175000Y-124300000D02*
X176775000Y-123900000D01*
X176775000Y-115000000D02*
X175800000Y-114025000D01*
X176775000Y-123900000D02*
X176775000Y-115000000D01*
%TO.N,/b0*%
X178500000Y-117400500D02*
X178500000Y-119800000D01*
X177724500Y-116625000D02*
X178500000Y-117400500D01*
X178500000Y-119800000D02*
X179675000Y-120975000D01*
X179675000Y-120975000D02*
X179675000Y-124300000D01*
%TO.N,/a10*%
X169100000Y-110975000D02*
X161225000Y-118850000D01*
X161225000Y-118850000D02*
X161125000Y-118850000D01*
%TO.N,/b1*%
X143125000Y-115925000D02*
X143125000Y-124925000D01*
X143900000Y-115150000D02*
X143125000Y-115925000D01*
%TO.N,/pwm_a0*%
X132600000Y-110100000D02*
X132600000Y-110900000D01*
X132600000Y-110900000D02*
X129700000Y-113800000D01*
%TO.N,/pwm_a1*%
X133900000Y-110000000D02*
X133900000Y-112650000D01*
X133875000Y-112700000D02*
X133800000Y-112775000D01*
X133850000Y-112715000D02*
X131990000Y-114575000D01*
X133900000Y-112650000D02*
X133750000Y-112800000D01*
%TO.N,/pmw_a2*%
X134580000Y-110620000D02*
X134580000Y-113800000D01*
X135200000Y-110000000D02*
X134580000Y-110620000D01*
%TO.N,/pwm_a3*%
X137120000Y-110520000D02*
X137120000Y-113800000D01*
X136700000Y-110100000D02*
X137120000Y-110520000D01*
%TO.N,/I2C_SCL*%
X136840000Y-74940000D02*
X136840000Y-72305331D01*
X137700000Y-75800000D02*
X136840000Y-74940000D01*
X146250000Y-93750000D02*
X146500000Y-93500000D01*
X146500000Y-93500000D02*
X146500000Y-76800000D01*
X145500000Y-75800000D02*
X137700000Y-75800000D01*
X146500000Y-76800000D02*
X145500000Y-75800000D01*
%TO.N,/I2C_SDA*%
X138225000Y-65775000D02*
X138225000Y-69465331D01*
X138400000Y-65600000D02*
X138225000Y-65775000D01*
D30*
%TO.N,/uart3_tx*%
X140086396Y-111775000D02*
X136311396Y-108000000D01*
X126800000Y-107225000D02*
X126800000Y-95775000D01*
X127575000Y-108000000D02*
X126800000Y-107225000D01*
X125825000Y-94800000D02*
X123325000Y-94800000D01*
X142100000Y-111775000D02*
X140086396Y-111775000D01*
X136311396Y-108000000D02*
X127575000Y-108000000D01*
X126800000Y-95775000D02*
X125825000Y-94800000D01*
%TO.N,/uart3_rx*%
X140920023Y-113245023D02*
X136375000Y-108700000D01*
X125150000Y-97125000D02*
X121500000Y-97125000D01*
X120785000Y-96410000D02*
X120785000Y-94800000D01*
X142204977Y-113245023D02*
X140920023Y-113245023D01*
X126200000Y-98175000D02*
X125150000Y-97125000D01*
X136375000Y-108700000D02*
X127200000Y-108700000D01*
X126200000Y-107700000D02*
X126200000Y-98175000D01*
X127200000Y-108700000D02*
X126200000Y-107700000D01*
X121500000Y-97125000D02*
X120785000Y-96410000D01*
D29*
%TO.N,/fault2*%
X155100000Y-101450000D02*
X150650000Y-97000000D01*
X153125000Y-124925000D02*
X155100000Y-122950000D01*
X150650000Y-97000000D02*
X144000000Y-97000000D01*
X144000000Y-97000000D02*
X143100000Y-96100000D01*
X155100000Y-122950000D02*
X155100000Y-101450000D01*
X143100000Y-96100000D02*
X142500000Y-96100000D01*
D30*
%TO.N,/rdy2*%
X142929977Y-112729977D02*
X146125000Y-115925000D01*
X150625000Y-117600000D02*
X150625000Y-124925000D01*
X146125000Y-115925000D02*
X148950000Y-115925000D01*
X148950000Y-115925000D02*
X150625000Y-117600000D01*
X141925000Y-109750000D02*
X142929977Y-110754977D01*
X142929977Y-110754977D02*
X142929977Y-112729977D01*
D29*
%TO.N,/fault1*%
X157925000Y-120700000D02*
X166075000Y-120700000D01*
X145150500Y-96500000D02*
X151325000Y-96500000D01*
X151325000Y-96500000D02*
X156000000Y-101175000D01*
X166075000Y-120700000D02*
X169675000Y-124300000D01*
X156000000Y-118775000D02*
X157925000Y-120700000D01*
X156000000Y-101175000D02*
X156000000Y-118775000D01*
X144100000Y-95449500D02*
X145150500Y-96500000D01*
D30*
%TO.N,/rdy1*%
X168850000Y-115500000D02*
X172175000Y-118825000D01*
X172175000Y-118825000D02*
X172175000Y-124300000D01*
%TD*%
%TA.AperFunction,Conductor*%
%TO.N,GND*%
G36*
X181000733Y-63900008D02*
G01*
X181190997Y-63902342D01*
X181201771Y-63902939D01*
X181581133Y-63940302D01*
X181593321Y-63942110D01*
X181966443Y-64016328D01*
X181978435Y-64019333D01*
X182342451Y-64129756D01*
X182354078Y-64133916D01*
X182705543Y-64279497D01*
X182716704Y-64284776D01*
X183052199Y-64464103D01*
X183062790Y-64470451D01*
X183379092Y-64681797D01*
X183389020Y-64689161D01*
X183683071Y-64930481D01*
X183692233Y-64938785D01*
X183961214Y-65207766D01*
X183969518Y-65216928D01*
X184210836Y-65510976D01*
X184218202Y-65520907D01*
X184429544Y-65837202D01*
X184435901Y-65847808D01*
X184615219Y-66183287D01*
X184620506Y-66194465D01*
X184766080Y-66545914D01*
X184770245Y-66557556D01*
X184880666Y-66921565D01*
X184883671Y-66933559D01*
X184957885Y-67306654D01*
X184959699Y-67318886D01*
X184997059Y-67698212D01*
X184997657Y-67709016D01*
X184999991Y-67899265D01*
X185000000Y-67900811D01*
X185000000Y-125299188D01*
X184999991Y-125300734D01*
X184997657Y-125490983D01*
X184997059Y-125501787D01*
X184959699Y-125881113D01*
X184957885Y-125893345D01*
X184883671Y-126266440D01*
X184880666Y-126278434D01*
X184770245Y-126642443D01*
X184766080Y-126654085D01*
X184620506Y-127005534D01*
X184615219Y-127016712D01*
X184435901Y-127352191D01*
X184429544Y-127362797D01*
X184218202Y-127679092D01*
X184210836Y-127689023D01*
X183969518Y-127983071D01*
X183961214Y-127992233D01*
X183692233Y-128261214D01*
X183683071Y-128269518D01*
X183389023Y-128510836D01*
X183379092Y-128518202D01*
X183062797Y-128729544D01*
X183052191Y-128735901D01*
X182716712Y-128915219D01*
X182705534Y-128920506D01*
X182354085Y-129066080D01*
X182342443Y-129070245D01*
X181978434Y-129180666D01*
X181966440Y-129183671D01*
X181666864Y-129243260D01*
X181593341Y-129257885D01*
X181581113Y-129259699D01*
X181201787Y-129297059D01*
X181190983Y-129297657D01*
X181009920Y-129299878D01*
X181000732Y-129299991D01*
X180999189Y-129300000D01*
X119200811Y-129300000D01*
X119199267Y-129299991D01*
X119189782Y-129299874D01*
X119004106Y-129297597D01*
X118993302Y-129296999D01*
X118614591Y-129259699D01*
X118604202Y-129258675D01*
X118591976Y-129256862D01*
X118519195Y-129242385D01*
X118209247Y-129180733D01*
X118197252Y-129177728D01*
X117823847Y-129064457D01*
X117812205Y-129060292D01*
X117451684Y-128910959D01*
X117440506Y-128905672D01*
X117096367Y-128721725D01*
X117085761Y-128715368D01*
X116761307Y-128498576D01*
X116751375Y-128491210D01*
X116449727Y-128243654D01*
X116440566Y-128235350D01*
X116164649Y-127959433D01*
X116156345Y-127950272D01*
X115933793Y-127679092D01*
X115908787Y-127648622D01*
X115901423Y-127638692D01*
X115684631Y-127314238D01*
X115678274Y-127303632D01*
X115586300Y-127131562D01*
X115494323Y-126959485D01*
X115489044Y-126948323D01*
X115339704Y-126587786D01*
X115335542Y-126576152D01*
X115284533Y-126407999D01*
X115222271Y-126202747D01*
X115219266Y-126190752D01*
X115175858Y-125972525D01*
X115143134Y-125808006D01*
X115141325Y-125795814D01*
X115102999Y-125406681D01*
X115102402Y-125395907D01*
X115100009Y-125200782D01*
X115100001Y-125199181D01*
X115108247Y-120474484D01*
X117417000Y-120474484D01*
X117417000Y-121371000D01*
X118460177Y-121371000D01*
X118457665Y-121377064D01*
X118425000Y-121541282D01*
X118425000Y-121708718D01*
X118457665Y-121872936D01*
X118460177Y-121879000D01*
X117417001Y-121879000D01*
X117417001Y-122775507D01*
X117427605Y-122879318D01*
X117483342Y-123047525D01*
X117576366Y-123198339D01*
X117576371Y-123198345D01*
X117701654Y-123323628D01*
X117701660Y-123323633D01*
X117852474Y-123416657D01*
X118020678Y-123472393D01*
X118020681Y-123472394D01*
X118124484Y-123482999D01*
X119021000Y-123482999D01*
X119021000Y-122439823D01*
X119027064Y-122442335D01*
X119191282Y-122475000D01*
X119358718Y-122475000D01*
X119522936Y-122442335D01*
X119529000Y-122439823D01*
X119529000Y-123482999D01*
X120425507Y-123482999D01*
X120529318Y-123472394D01*
X120697525Y-123416657D01*
X120848339Y-123323633D01*
X120848345Y-123323628D01*
X120973628Y-123198345D01*
X120973633Y-123198339D01*
X121066657Y-123047525D01*
X121122393Y-122879321D01*
X121122394Y-122879318D01*
X121132999Y-122775515D01*
X121133000Y-122775515D01*
X121133000Y-121879000D01*
X120089823Y-121879000D01*
X120092335Y-121872936D01*
X120125000Y-121708718D01*
X120125000Y-121625000D01*
X122494521Y-121625000D01*
X122514407Y-121890369D01*
X122514408Y-121890373D01*
X122573623Y-122149806D01*
X122573624Y-122149808D01*
X122670844Y-122397523D01*
X122803896Y-122627976D01*
X122803902Y-122627984D01*
X122969815Y-122836031D01*
X122969819Y-122836036D01*
X123164883Y-123017029D01*
X123164886Y-123017031D01*
X123164890Y-123017035D01*
X123164896Y-123017039D01*
X123384751Y-123166934D01*
X123384758Y-123166938D01*
X123384761Y-123166940D01*
X123624518Y-123282401D01*
X123824443Y-123344070D01*
X123878799Y-123360837D01*
X123878806Y-123360839D01*
X124141945Y-123400500D01*
X124141949Y-123400500D01*
X124408051Y-123400500D01*
X124408055Y-123400500D01*
X124671194Y-123360839D01*
X124925482Y-123282401D01*
X125154444Y-123172139D01*
X125165234Y-123166943D01*
X125165234Y-123166942D01*
X125165240Y-123166940D01*
X125385110Y-123017035D01*
X125580183Y-122836033D01*
X125746101Y-122627980D01*
X125879156Y-122397521D01*
X125976377Y-122149805D01*
X126035593Y-121890367D01*
X126055479Y-121625000D01*
X126035593Y-121359633D01*
X125976377Y-121100195D01*
X125879156Y-120852479D01*
X125879155Y-120852476D01*
X125746103Y-120622023D01*
X125746097Y-120622015D01*
X125628444Y-120474484D01*
X129664500Y-120474484D01*
X129664500Y-121371000D01*
X130707677Y-121371000D01*
X130705165Y-121377064D01*
X130672500Y-121541282D01*
X130672500Y-121708718D01*
X130705165Y-121872936D01*
X130707677Y-121879000D01*
X129664501Y-121879000D01*
X129664501Y-122775507D01*
X129675105Y-122879318D01*
X129730842Y-123047525D01*
X129823866Y-123198339D01*
X129823871Y-123198345D01*
X129949154Y-123323628D01*
X129949160Y-123323633D01*
X130099974Y-123416657D01*
X130268178Y-123472393D01*
X130268181Y-123472394D01*
X130371984Y-123482999D01*
X131268500Y-123482999D01*
X131268500Y-122439823D01*
X131274564Y-122442335D01*
X131438782Y-122475000D01*
X131606218Y-122475000D01*
X131770436Y-122442335D01*
X131776500Y-122439823D01*
X131776500Y-123482999D01*
X132673007Y-123482999D01*
X132776818Y-123472394D01*
X132945025Y-123416657D01*
X133095839Y-123323633D01*
X133095845Y-123323628D01*
X133221128Y-123198345D01*
X133221133Y-123198339D01*
X133314157Y-123047525D01*
X133369893Y-122879321D01*
X133369894Y-122879318D01*
X133380499Y-122775515D01*
X133380500Y-122775515D01*
X133380500Y-121879000D01*
X132337323Y-121879000D01*
X132339835Y-121872936D01*
X132372500Y-121708718D01*
X132372500Y-121625000D01*
X134742021Y-121625000D01*
X134761907Y-121890369D01*
X134761908Y-121890373D01*
X134821123Y-122149806D01*
X134821124Y-122149808D01*
X134918344Y-122397523D01*
X135051396Y-122627976D01*
X135051402Y-122627984D01*
X135217315Y-122836031D01*
X135217319Y-122836036D01*
X135412383Y-123017029D01*
X135412386Y-123017031D01*
X135412390Y-123017035D01*
X135412396Y-123017039D01*
X135632251Y-123166934D01*
X135632258Y-123166938D01*
X135632261Y-123166940D01*
X135872018Y-123282401D01*
X136071943Y-123344070D01*
X136126299Y-123360837D01*
X136126306Y-123360839D01*
X136389445Y-123400500D01*
X136389449Y-123400500D01*
X136655551Y-123400500D01*
X136655555Y-123400500D01*
X136918694Y-123360839D01*
X137172982Y-123282401D01*
X137401944Y-123172139D01*
X137412734Y-123166943D01*
X137412734Y-123166942D01*
X137412740Y-123166940D01*
X137632610Y-123017035D01*
X137827683Y-122836033D01*
X137993601Y-122627980D01*
X138126656Y-122397521D01*
X138223877Y-122149805D01*
X138283093Y-121890367D01*
X138302979Y-121625000D01*
X138283093Y-121359633D01*
X138223877Y-121100195D01*
X138126656Y-120852479D01*
X138126655Y-120852476D01*
X137993603Y-120622023D01*
X137993597Y-120622015D01*
X137827684Y-120413968D01*
X137827680Y-120413963D01*
X137632616Y-120232970D01*
X137632603Y-120232960D01*
X137412742Y-120083061D01*
X137412734Y-120083056D01*
X137172990Y-119967602D01*
X137172985Y-119967600D01*
X137172982Y-119967599D01*
X137075120Y-119937412D01*
X136918700Y-119889162D01*
X136918695Y-119889161D01*
X136918694Y-119889161D01*
X136655555Y-119849500D01*
X136389445Y-119849500D01*
X136126306Y-119889161D01*
X136126305Y-119889161D01*
X136126299Y-119889162D01*
X135872012Y-119967601D01*
X135632258Y-120083061D01*
X135632251Y-120083065D01*
X135412396Y-120232960D01*
X135412383Y-120232970D01*
X135217319Y-120413963D01*
X135217315Y-120413968D01*
X135051402Y-120622015D01*
X135051396Y-120622023D01*
X134918344Y-120852476D01*
X134821124Y-121100191D01*
X134821123Y-121100193D01*
X134761908Y-121359626D01*
X134761907Y-121359630D01*
X134742021Y-121625000D01*
X132372500Y-121625000D01*
X132372500Y-121541282D01*
X132339835Y-121377064D01*
X132337323Y-121371000D01*
X133380499Y-121371000D01*
X133380499Y-120474492D01*
X133369894Y-120370681D01*
X133314157Y-120202474D01*
X133221133Y-120051660D01*
X133221128Y-120051654D01*
X133095845Y-119926371D01*
X133095839Y-119926366D01*
X132945025Y-119833342D01*
X132776821Y-119777606D01*
X132776818Y-119777605D01*
X132673015Y-119767000D01*
X131776500Y-119767000D01*
X131776500Y-120810176D01*
X131770436Y-120807665D01*
X131606218Y-120775000D01*
X131438782Y-120775000D01*
X131274564Y-120807665D01*
X131268500Y-120810176D01*
X131268500Y-119767000D01*
X130371992Y-119767000D01*
X130268181Y-119777605D01*
X130099974Y-119833342D01*
X129949160Y-119926366D01*
X129949154Y-119926371D01*
X129823871Y-120051654D01*
X129823866Y-120051660D01*
X129730842Y-120202474D01*
X129675106Y-120370678D01*
X129675105Y-120370681D01*
X129664500Y-120474484D01*
X125628444Y-120474484D01*
X125580184Y-120413968D01*
X125580180Y-120413963D01*
X125385116Y-120232970D01*
X125385103Y-120232960D01*
X125165242Y-120083061D01*
X125165234Y-120083056D01*
X124925490Y-119967602D01*
X124925485Y-119967600D01*
X124925482Y-119967599D01*
X124827620Y-119937412D01*
X124671200Y-119889162D01*
X124671195Y-119889161D01*
X124671194Y-119889161D01*
X124408055Y-119849500D01*
X124141945Y-119849500D01*
X123878806Y-119889161D01*
X123878805Y-119889161D01*
X123878799Y-119889162D01*
X123624512Y-119967601D01*
X123384758Y-120083061D01*
X123384751Y-120083065D01*
X123164896Y-120232960D01*
X123164883Y-120232970D01*
X122969819Y-120413963D01*
X122969815Y-120413968D01*
X122803902Y-120622015D01*
X122803896Y-120622023D01*
X122670844Y-120852476D01*
X122573624Y-121100191D01*
X122573623Y-121100193D01*
X122514408Y-121359626D01*
X122514407Y-121359630D01*
X122494521Y-121625000D01*
X120125000Y-121625000D01*
X120125000Y-121541282D01*
X120092335Y-121377064D01*
X120089823Y-121371000D01*
X121132999Y-121371000D01*
X121132999Y-120474492D01*
X121122394Y-120370681D01*
X121066657Y-120202474D01*
X120973633Y-120051660D01*
X120973628Y-120051654D01*
X120848345Y-119926371D01*
X120848339Y-119926366D01*
X120697525Y-119833342D01*
X120529321Y-119777606D01*
X120529318Y-119777605D01*
X120425515Y-119767000D01*
X119529000Y-119767000D01*
X119529000Y-120810176D01*
X119522936Y-120807665D01*
X119358718Y-120775000D01*
X119191282Y-120775000D01*
X119027064Y-120807665D01*
X119021000Y-120810176D01*
X119021000Y-119767000D01*
X118124492Y-119767000D01*
X118020681Y-119777605D01*
X117852474Y-119833342D01*
X117701660Y-119926366D01*
X117701654Y-119926371D01*
X117576371Y-120051654D01*
X117576366Y-120051660D01*
X117483342Y-120202474D01*
X117427606Y-120370678D01*
X117427605Y-120370681D01*
X117417000Y-120474484D01*
X115108247Y-120474484D01*
X115126921Y-109774484D01*
X116867000Y-109774484D01*
X116867000Y-110671000D01*
X117910177Y-110671000D01*
X117907665Y-110677064D01*
X117875000Y-110841282D01*
X117875000Y-111008718D01*
X117907665Y-111172936D01*
X117910177Y-111179000D01*
X116867001Y-111179000D01*
X116867001Y-112075507D01*
X116877605Y-112179318D01*
X116933342Y-112347525D01*
X117026366Y-112498339D01*
X117026371Y-112498345D01*
X117151654Y-112623628D01*
X117151660Y-112623633D01*
X117302474Y-112716657D01*
X117470678Y-112772393D01*
X117470681Y-112772394D01*
X117574484Y-112782999D01*
X118471000Y-112782999D01*
X118471000Y-111739823D01*
X118477064Y-111742335D01*
X118641282Y-111775000D01*
X118808718Y-111775000D01*
X118972936Y-111742335D01*
X118979000Y-111739823D01*
X118979000Y-112782999D01*
X119875507Y-112782999D01*
X119979318Y-112772394D01*
X120147525Y-112716657D01*
X120298339Y-112623633D01*
X120298345Y-112623628D01*
X120423628Y-112498345D01*
X120423633Y-112498339D01*
X120516657Y-112347525D01*
X120572393Y-112179321D01*
X120572394Y-112179318D01*
X120582999Y-112075515D01*
X120583000Y-112075515D01*
X120583000Y-111179000D01*
X119539823Y-111179000D01*
X119542335Y-111172936D01*
X119575000Y-111008718D01*
X119575000Y-110925000D01*
X121944521Y-110925000D01*
X121964407Y-111190369D01*
X121964408Y-111190373D01*
X122023623Y-111449806D01*
X122023624Y-111449808D01*
X122120844Y-111697523D01*
X122253896Y-111927976D01*
X122253902Y-111927984D01*
X122419815Y-112136031D01*
X122419819Y-112136036D01*
X122614883Y-112317029D01*
X122614886Y-112317031D01*
X122614890Y-112317035D01*
X122614896Y-112317039D01*
X122834751Y-112466934D01*
X122834758Y-112466938D01*
X122834761Y-112466940D01*
X123074518Y-112582401D01*
X123297854Y-112651291D01*
X123328799Y-112660837D01*
X123328806Y-112660839D01*
X123591945Y-112700500D01*
X123591949Y-112700500D01*
X123858051Y-112700500D01*
X123858055Y-112700500D01*
X124121194Y-112660839D01*
X124375482Y-112582401D01*
X124615240Y-112466940D01*
X124835110Y-112317035D01*
X125030183Y-112136033D01*
X125196101Y-111927980D01*
X125324314Y-111705907D01*
X125329155Y-111697523D01*
X125353112Y-111636481D01*
X125426377Y-111449805D01*
X125485593Y-111190367D01*
X125505479Y-110925000D01*
X125485593Y-110659633D01*
X125426377Y-110400195D01*
X125329156Y-110152479D01*
X125329155Y-110152476D01*
X125196103Y-109922023D01*
X125196097Y-109922015D01*
X125030184Y-109713968D01*
X125030180Y-109713963D01*
X124835116Y-109532970D01*
X124835103Y-109532960D01*
X124615242Y-109383061D01*
X124615234Y-109383056D01*
X124375490Y-109267602D01*
X124375485Y-109267600D01*
X124375482Y-109267599D01*
X124277620Y-109237412D01*
X124121200Y-109189162D01*
X124121195Y-109189161D01*
X124121194Y-109189161D01*
X123858055Y-109149500D01*
X123591945Y-109149500D01*
X123328806Y-109189161D01*
X123328805Y-109189161D01*
X123328799Y-109189162D01*
X123074512Y-109267601D01*
X122834758Y-109383061D01*
X122834751Y-109383065D01*
X122614896Y-109532960D01*
X122614883Y-109532970D01*
X122419819Y-109713963D01*
X122419815Y-109713968D01*
X122253902Y-109922015D01*
X122253896Y-109922023D01*
X122120844Y-110152476D01*
X122023624Y-110400191D01*
X122023623Y-110400193D01*
X121964408Y-110659626D01*
X121964407Y-110659630D01*
X121944521Y-110925000D01*
X119575000Y-110925000D01*
X119575000Y-110841282D01*
X119542335Y-110677064D01*
X119539823Y-110671000D01*
X120582999Y-110671000D01*
X120582999Y-109774492D01*
X120572394Y-109670681D01*
X120516657Y-109502474D01*
X120423633Y-109351660D01*
X120423628Y-109351654D01*
X120298345Y-109226371D01*
X120298339Y-109226366D01*
X120147525Y-109133342D01*
X119979321Y-109077606D01*
X119979318Y-109077605D01*
X119875515Y-109067000D01*
X118979000Y-109067000D01*
X118979000Y-110110176D01*
X118972936Y-110107665D01*
X118808718Y-110075000D01*
X118641282Y-110075000D01*
X118477064Y-110107665D01*
X118471000Y-110110176D01*
X118471000Y-109067000D01*
X117574492Y-109067000D01*
X117470681Y-109077605D01*
X117302474Y-109133342D01*
X117151660Y-109226366D01*
X117151654Y-109226371D01*
X117026371Y-109351654D01*
X117026366Y-109351660D01*
X116933342Y-109502474D01*
X116877606Y-109670678D01*
X116877605Y-109670681D01*
X116867000Y-109774484D01*
X115126921Y-109774484D01*
X115137522Y-103700000D01*
X116237337Y-103700000D01*
X116255960Y-103936632D01*
X116311371Y-104167437D01*
X116402208Y-104386738D01*
X116516896Y-104573890D01*
X116516897Y-104573890D01*
X117225016Y-103865771D01*
X117237482Y-103912292D01*
X117309890Y-104037708D01*
X117412292Y-104140110D01*
X117537708Y-104212518D01*
X117584226Y-104224982D01*
X116876107Y-104933101D01*
X116876108Y-104933102D01*
X117063261Y-105047791D01*
X117282562Y-105138628D01*
X117513367Y-105194039D01*
X117750000Y-105212662D01*
X117986632Y-105194039D01*
X118217437Y-105138628D01*
X118436738Y-105047791D01*
X118623890Y-104933102D01*
X118623891Y-104933102D01*
X117915772Y-104224982D01*
X117962292Y-104212518D01*
X118087708Y-104140110D01*
X118190110Y-104037708D01*
X118262518Y-103912292D01*
X118274983Y-103865772D01*
X118983102Y-104573891D01*
X118983102Y-104573890D01*
X119097791Y-104386738D01*
X119188628Y-104167437D01*
X119244039Y-103936632D01*
X119262662Y-103700000D01*
X119244039Y-103463367D01*
X119188628Y-103232562D01*
X119097791Y-103013261D01*
X118983102Y-102826108D01*
X118983101Y-102826107D01*
X118274982Y-103534226D01*
X118262518Y-103487708D01*
X118190110Y-103362292D01*
X118087708Y-103259890D01*
X117962292Y-103187482D01*
X117915771Y-103175016D01*
X118623890Y-102466897D01*
X118623890Y-102466896D01*
X118436738Y-102352208D01*
X118217437Y-102261371D01*
X117986632Y-102205960D01*
X117750000Y-102187337D01*
X117513367Y-102205960D01*
X117282562Y-102261371D01*
X117063266Y-102352206D01*
X116876108Y-102466897D01*
X116876108Y-102466898D01*
X117584227Y-103175017D01*
X117537708Y-103187482D01*
X117412292Y-103259890D01*
X117309890Y-103362292D01*
X117237482Y-103487708D01*
X117225017Y-103534227D01*
X116516898Y-102826108D01*
X116516897Y-102826108D01*
X116402206Y-103013266D01*
X116311371Y-103232562D01*
X116255960Y-103463367D01*
X116237337Y-103700000D01*
X115137522Y-103700000D01*
X115145375Y-99200000D01*
X116319615Y-99200000D01*
X116339125Y-99435441D01*
X116397115Y-99664441D01*
X116397118Y-99664448D01*
X116492013Y-99880787D01*
X116621222Y-100078558D01*
X116621225Y-100078561D01*
X116781227Y-100252368D01*
X116967654Y-100397470D01*
X117175421Y-100509908D01*
X117398861Y-100586616D01*
X117631880Y-100625500D01*
X117631884Y-100625500D01*
X117868116Y-100625500D01*
X117868120Y-100625500D01*
X118101139Y-100586616D01*
X118324579Y-100509908D01*
X118532346Y-100397470D01*
X118718773Y-100252368D01*
X118878775Y-100078561D01*
X119007986Y-99880788D01*
X119102883Y-99664445D01*
X119160876Y-99435434D01*
X119180385Y-99200000D01*
X119160876Y-98964566D01*
X119102883Y-98735555D01*
X119007986Y-98519212D01*
X118947288Y-98426306D01*
X118878777Y-98321441D01*
X118878772Y-98321436D01*
X118878329Y-98320955D01*
X118718773Y-98147632D01*
X118532346Y-98002530D01*
X118532345Y-98002529D01*
X118324578Y-97890091D01*
X118324572Y-97890089D01*
X118101143Y-97813385D01*
X118101136Y-97813383D01*
X118001409Y-97796742D01*
X117868120Y-97774500D01*
X117631880Y-97774500D01*
X117515266Y-97793959D01*
X117398863Y-97813383D01*
X117398856Y-97813385D01*
X117175427Y-97890089D01*
X117175421Y-97890091D01*
X116967654Y-98002529D01*
X116967653Y-98002530D01*
X116781227Y-98147632D01*
X116621227Y-98321436D01*
X116621222Y-98321441D01*
X116492013Y-98519212D01*
X116397118Y-98735551D01*
X116397115Y-98735558D01*
X116339125Y-98964558D01*
X116319615Y-99200000D01*
X115145375Y-99200000D01*
X115153054Y-94800000D01*
X119504628Y-94800000D01*
X119524080Y-95022334D01*
X119547287Y-95108944D01*
X119581843Y-95237911D01*
X119581845Y-95237916D01*
X119676165Y-95440186D01*
X119796548Y-95612111D01*
X119804178Y-95623007D01*
X119961993Y-95780822D01*
X119965285Y-95783127D01*
X120144812Y-95908834D01*
X120144813Y-95908834D01*
X120144814Y-95908835D01*
X120161748Y-95916731D01*
X120215034Y-95963648D01*
X120234500Y-96030927D01*
X120234500Y-96482475D01*
X120249775Y-96539484D01*
X120272016Y-96622487D01*
X120344487Y-96748011D01*
X120344495Y-96748021D01*
X121161978Y-97565504D01*
X121161983Y-97565508D01*
X121161985Y-97565510D01*
X121161986Y-97565511D01*
X121161988Y-97565512D01*
X121213067Y-97595002D01*
X121264160Y-97624500D01*
X121287515Y-97637984D01*
X121427525Y-97675500D01*
X121427526Y-97675500D01*
X121572474Y-97675500D01*
X123574390Y-97675500D01*
X123642511Y-97695502D01*
X123689004Y-97749158D01*
X123699108Y-97819432D01*
X123669614Y-97884012D01*
X123634360Y-97912312D01*
X123592744Y-97934834D01*
X123467654Y-98002529D01*
X123467653Y-98002530D01*
X123281227Y-98147632D01*
X123121227Y-98321436D01*
X123121222Y-98321441D01*
X122992013Y-98519212D01*
X122897118Y-98735551D01*
X122897115Y-98735558D01*
X122839125Y-98964558D01*
X122819615Y-99200000D01*
X122839125Y-99435441D01*
X122897115Y-99664441D01*
X122897118Y-99664448D01*
X122992013Y-99880787D01*
X123121222Y-100078558D01*
X123121225Y-100078561D01*
X123281227Y-100252368D01*
X123467654Y-100397470D01*
X123675421Y-100509908D01*
X123898861Y-100586616D01*
X124131880Y-100625500D01*
X124131884Y-100625500D01*
X124368116Y-100625500D01*
X124368120Y-100625500D01*
X124601139Y-100586616D01*
X124824579Y-100509908D01*
X125032346Y-100397470D01*
X125218773Y-100252368D01*
X125378775Y-100078561D01*
X125418017Y-100018495D01*
X125472019Y-99972408D01*
X125542367Y-99962832D01*
X125606725Y-99992809D01*
X125644659Y-100052821D01*
X125649500Y-100087411D01*
X125649500Y-102704009D01*
X125629498Y-102772130D01*
X125575842Y-102818623D01*
X125508691Y-102829136D01*
X125483101Y-102826107D01*
X124774982Y-103534225D01*
X124762518Y-103487708D01*
X124690110Y-103362292D01*
X124587708Y-103259890D01*
X124462292Y-103187482D01*
X124415771Y-103175016D01*
X125123890Y-102466897D01*
X125123890Y-102466896D01*
X124936738Y-102352208D01*
X124717437Y-102261371D01*
X124486632Y-102205960D01*
X124250000Y-102187337D01*
X124013367Y-102205960D01*
X123782562Y-102261371D01*
X123563266Y-102352206D01*
X123376108Y-102466897D01*
X123376108Y-102466898D01*
X124084227Y-103175017D01*
X124037708Y-103187482D01*
X123912292Y-103259890D01*
X123809890Y-103362292D01*
X123737482Y-103487708D01*
X123725017Y-103534227D01*
X123016898Y-102826108D01*
X123016897Y-102826108D01*
X122902206Y-103013266D01*
X122811371Y-103232562D01*
X122755960Y-103463367D01*
X122737337Y-103700000D01*
X122755960Y-103936632D01*
X122811371Y-104167437D01*
X122902208Y-104386738D01*
X123016896Y-104573890D01*
X123016897Y-104573890D01*
X123725016Y-103865771D01*
X123737482Y-103912292D01*
X123809890Y-104037708D01*
X123912292Y-104140110D01*
X124037708Y-104212518D01*
X124084226Y-104224982D01*
X123376107Y-104933101D01*
X123376108Y-104933102D01*
X123563261Y-105047791D01*
X123782562Y-105138628D01*
X124013367Y-105194039D01*
X124250000Y-105212662D01*
X124486632Y-105194039D01*
X124717437Y-105138628D01*
X124936738Y-105047791D01*
X125123890Y-104933102D01*
X125123891Y-104933102D01*
X124415772Y-104224982D01*
X124462292Y-104212518D01*
X124587708Y-104140110D01*
X124690110Y-104037708D01*
X124762518Y-103912292D01*
X124774982Y-103865772D01*
X125483101Y-104573890D01*
X125508690Y-104570862D01*
X125578690Y-104582719D01*
X125631167Y-104630538D01*
X125649500Y-104695989D01*
X125649500Y-107772475D01*
X125653530Y-107787515D01*
X125653531Y-107787519D01*
X125653530Y-107787519D01*
X125687016Y-107912486D01*
X125759487Y-108038011D01*
X125759495Y-108038021D01*
X126861979Y-109140504D01*
X126861982Y-109140506D01*
X126861986Y-109140510D01*
X126905828Y-109165822D01*
X126987515Y-109212984D01*
X127127525Y-109250500D01*
X127127526Y-109250500D01*
X127272475Y-109250500D01*
X131977024Y-109250500D01*
X132045145Y-109270502D01*
X132091638Y-109324158D01*
X132101742Y-109394432D01*
X132072248Y-109459012D01*
X132051084Y-109478436D01*
X132044591Y-109483152D01*
X131928479Y-109612109D01*
X131928478Y-109612111D01*
X131922896Y-109621780D01*
X131841712Y-109762391D01*
X131788094Y-109927416D01*
X131788093Y-109927420D01*
X131788092Y-109927424D01*
X131769953Y-110100000D01*
X131788092Y-110272576D01*
X131788093Y-110272579D01*
X131788094Y-110272583D01*
X131841712Y-110437608D01*
X131841714Y-110437611D01*
X131928478Y-110587889D01*
X131928480Y-110587891D01*
X131928896Y-110588353D01*
X131929052Y-110588678D01*
X131932361Y-110593233D01*
X131931528Y-110593837D01*
X131959615Y-110652360D01*
X131950853Y-110722814D01*
X131924357Y-110761761D01*
X129423525Y-113262595D01*
X129361213Y-113296620D01*
X129334430Y-113299500D01*
X128566512Y-113299500D01*
X128466874Y-113315281D01*
X128466872Y-113315281D01*
X128466872Y-113315282D01*
X128346780Y-113376471D01*
X128251471Y-113471780D01*
X128208008Y-113557082D01*
X128190281Y-113591874D01*
X128174500Y-113691512D01*
X128174500Y-115458488D01*
X128190281Y-115558126D01*
X128197166Y-115571638D01*
X128248599Y-115672583D01*
X128251472Y-115678220D01*
X128346780Y-115773528D01*
X128466874Y-115834719D01*
X128566512Y-115850500D01*
X128566515Y-115850500D01*
X130333485Y-115850500D01*
X130333488Y-115850500D01*
X130433126Y-115834719D01*
X130553220Y-115773528D01*
X130648528Y-115678220D01*
X130709719Y-115558126D01*
X130725500Y-115458488D01*
X130725500Y-115392494D01*
X130745502Y-115324373D01*
X130799158Y-115277880D01*
X130869432Y-115267776D01*
X130934012Y-115297270D01*
X130954712Y-115320222D01*
X131009178Y-115398007D01*
X131166993Y-115555822D01*
X131349814Y-115683835D01*
X131552087Y-115778156D01*
X131767666Y-115835920D01*
X131990000Y-115855372D01*
X132212334Y-115835920D01*
X132427913Y-115778156D01*
X132630186Y-115683835D01*
X132813007Y-115555822D01*
X132970822Y-115398007D01*
X133098835Y-115215186D01*
X133145805Y-115114457D01*
X133192722Y-115061173D01*
X133260999Y-115041712D01*
X133328959Y-115062254D01*
X133374195Y-115114458D01*
X133421165Y-115215186D01*
X133518712Y-115354498D01*
X133549178Y-115398007D01*
X133706993Y-115555822D01*
X133889814Y-115683835D01*
X134092087Y-115778156D01*
X134307666Y-115835920D01*
X134530000Y-115855372D01*
X134752334Y-115835920D01*
X134967913Y-115778156D01*
X135170186Y-115683835D01*
X135353007Y-115555822D01*
X135510822Y-115398007D01*
X135638835Y-115215186D01*
X135685805Y-115114457D01*
X135732722Y-115061173D01*
X135800999Y-115041712D01*
X135868959Y-115062254D01*
X135914195Y-115114458D01*
X135961165Y-115215186D01*
X136058712Y-115354498D01*
X136089178Y-115398007D01*
X136246993Y-115555822D01*
X136429814Y-115683835D01*
X136632087Y-115778156D01*
X136847666Y-115835920D01*
X137070000Y-115855372D01*
X137292334Y-115835920D01*
X137507913Y-115778156D01*
X137710186Y-115683835D01*
X137893007Y-115555822D01*
X138050822Y-115398007D01*
X138178835Y-115215186D01*
X138273156Y-115012913D01*
X138330920Y-114797334D01*
X138350372Y-114575000D01*
X138330920Y-114352666D01*
X138273156Y-114137087D01*
X138178835Y-113934814D01*
X138050822Y-113751993D01*
X137893007Y-113594178D01*
X137840029Y-113557082D01*
X137749229Y-113493502D01*
X137704901Y-113438044D01*
X137695500Y-113390289D01*
X137695500Y-111103215D01*
X137715502Y-111035094D01*
X137769158Y-110988601D01*
X137839432Y-110978497D01*
X137904012Y-111007991D01*
X137910595Y-111014120D01*
X140582001Y-113685527D01*
X140582006Y-113685531D01*
X140582008Y-113685533D01*
X140582009Y-113685534D01*
X140582011Y-113685535D01*
X140638794Y-113718318D01*
X140662806Y-113732181D01*
X140707538Y-113758007D01*
X140847548Y-113795523D01*
X141533731Y-113795523D01*
X141601852Y-113815525D01*
X141627365Y-113837211D01*
X141641060Y-113852420D01*
X141649568Y-113861869D01*
X141649569Y-113861870D01*
X141666408Y-113874104D01*
X141789953Y-113963865D01*
X141948478Y-114034445D01*
X142118213Y-114070523D01*
X142291741Y-114070523D01*
X142461476Y-114034445D01*
X142620001Y-113963865D01*
X142760387Y-113861868D01*
X142876499Y-113732912D01*
X142896111Y-113698942D01*
X142947492Y-113649951D01*
X143017205Y-113636514D01*
X143083116Y-113662901D01*
X143094324Y-113672849D01*
X143609735Y-114188260D01*
X143643761Y-114250572D01*
X143638696Y-114321387D01*
X143596149Y-114378223D01*
X143571889Y-114392462D01*
X143484978Y-114431157D01*
X143484976Y-114431158D01*
X143344590Y-114533154D01*
X143228479Y-114662109D01*
X143228478Y-114662111D01*
X143200496Y-114710577D01*
X143141712Y-114812391D01*
X143088094Y-114977416D01*
X143088093Y-114977419D01*
X143088092Y-114977421D01*
X143088092Y-114977424D01*
X143084446Y-115012111D01*
X143072718Y-115123691D01*
X143045704Y-115189347D01*
X143036504Y-115199614D01*
X142771635Y-115464485D01*
X142771634Y-115464485D01*
X142664490Y-115571628D01*
X142664482Y-115571638D01*
X142588721Y-115702860D01*
X142588718Y-115702867D01*
X142576443Y-115748680D01*
X142552615Y-115837611D01*
X142549500Y-115849235D01*
X142549500Y-123584492D01*
X142529498Y-123652613D01*
X142480704Y-123696758D01*
X142456491Y-123709095D01*
X142294065Y-123827105D01*
X142294062Y-123827107D01*
X142152107Y-123969062D01*
X142152105Y-123969065D01*
X142034097Y-124131488D01*
X141942949Y-124310376D01*
X141942948Y-124310378D01*
X141889738Y-124474142D01*
X141880907Y-124501320D01*
X141849500Y-124699616D01*
X141849500Y-125150384D01*
X141880907Y-125348680D01*
X141942948Y-125539622D01*
X142034095Y-125718508D01*
X142152103Y-125880932D01*
X142152105Y-125880934D01*
X142152107Y-125880937D01*
X142294062Y-126022892D01*
X142294065Y-126022894D01*
X142294068Y-126022897D01*
X142456492Y-126140905D01*
X142635378Y-126232052D01*
X142826320Y-126294093D01*
X143024616Y-126325500D01*
X143024619Y-126325500D01*
X143225381Y-126325500D01*
X143225384Y-126325500D01*
X143423680Y-126294093D01*
X143614622Y-126232052D01*
X143793508Y-126140905D01*
X143955932Y-126022897D01*
X144097897Y-125880932D01*
X144215905Y-125718508D01*
X144262734Y-125626600D01*
X144311481Y-125574986D01*
X144380396Y-125557920D01*
X144447597Y-125580820D01*
X144487265Y-125626600D01*
X144534095Y-125718508D01*
X144652103Y-125880932D01*
X144652105Y-125880934D01*
X144652107Y-125880937D01*
X144794062Y-126022892D01*
X144794065Y-126022894D01*
X144794068Y-126022897D01*
X144956492Y-126140905D01*
X145135378Y-126232052D01*
X145326320Y-126294093D01*
X145524616Y-126325500D01*
X145524619Y-126325500D01*
X145725381Y-126325500D01*
X145725384Y-126325500D01*
X145923680Y-126294093D01*
X146114622Y-126232052D01*
X146293508Y-126140905D01*
X146455932Y-126022897D01*
X146597897Y-125880932D01*
X146715905Y-125718508D01*
X146762734Y-125626600D01*
X146811481Y-125574986D01*
X146880396Y-125557920D01*
X146947597Y-125580820D01*
X146987265Y-125626600D01*
X147034095Y-125718508D01*
X147152103Y-125880932D01*
X147152105Y-125880934D01*
X147152107Y-125880937D01*
X147294062Y-126022892D01*
X147294065Y-126022894D01*
X147294068Y-126022897D01*
X147456492Y-126140905D01*
X147635378Y-126232052D01*
X147826320Y-126294093D01*
X148024616Y-126325500D01*
X148024619Y-126325500D01*
X148225381Y-126325500D01*
X148225384Y-126325500D01*
X148423680Y-126294093D01*
X148614622Y-126232052D01*
X148793508Y-126140905D01*
X148955932Y-126022897D01*
X149097897Y-125880932D01*
X149215905Y-125718508D01*
X149262734Y-125626600D01*
X149311481Y-125574986D01*
X149380396Y-125557920D01*
X149447597Y-125580820D01*
X149487265Y-125626600D01*
X149534095Y-125718508D01*
X149652103Y-125880932D01*
X149652105Y-125880934D01*
X149652107Y-125880937D01*
X149794062Y-126022892D01*
X149794065Y-126022894D01*
X149794068Y-126022897D01*
X149956492Y-126140905D01*
X150135378Y-126232052D01*
X150326320Y-126294093D01*
X150524616Y-126325500D01*
X150524619Y-126325500D01*
X150725381Y-126325500D01*
X150725384Y-126325500D01*
X150923680Y-126294093D01*
X151114622Y-126232052D01*
X151293508Y-126140905D01*
X151455932Y-126022897D01*
X151597897Y-125880932D01*
X151715905Y-125718508D01*
X151762734Y-125626600D01*
X151811481Y-125574986D01*
X151880396Y-125557920D01*
X151947597Y-125580820D01*
X151987265Y-125626600D01*
X152034095Y-125718508D01*
X152152103Y-125880932D01*
X152152105Y-125880934D01*
X152152107Y-125880937D01*
X152294062Y-126022892D01*
X152294065Y-126022894D01*
X152294068Y-126022897D01*
X152456492Y-126140905D01*
X152635378Y-126232052D01*
X152826320Y-126294093D01*
X153024616Y-126325500D01*
X153024619Y-126325500D01*
X153225381Y-126325500D01*
X153225384Y-126325500D01*
X153423680Y-126294093D01*
X153614622Y-126232052D01*
X153793508Y-126140905D01*
X153955932Y-126022897D01*
X154097897Y-125880932D01*
X154215905Y-125718508D01*
X154262734Y-125626600D01*
X154311481Y-125574986D01*
X154380396Y-125557920D01*
X154447597Y-125580820D01*
X154487265Y-125626600D01*
X154534095Y-125718508D01*
X154652103Y-125880932D01*
X154652105Y-125880934D01*
X154652107Y-125880937D01*
X154794062Y-126022892D01*
X154794065Y-126022894D01*
X154794068Y-126022897D01*
X154956492Y-126140905D01*
X155135378Y-126232052D01*
X155326320Y-126294093D01*
X155524616Y-126325500D01*
X155524619Y-126325500D01*
X155725381Y-126325500D01*
X155725384Y-126325500D01*
X155923680Y-126294093D01*
X156114622Y-126232052D01*
X156293508Y-126140905D01*
X156455932Y-126022897D01*
X156597897Y-125880932D01*
X156597901Y-125880925D01*
X156600529Y-125877850D01*
X156659977Y-125839036D01*
X156730971Y-125838524D01*
X156790973Y-125876476D01*
X156815951Y-125920040D01*
X156833342Y-125972525D01*
X156926365Y-126123339D01*
X156926370Y-126123345D01*
X157051654Y-126248629D01*
X157051660Y-126248634D01*
X157202474Y-126341657D01*
X157370678Y-126397393D01*
X157370681Y-126397394D01*
X157474483Y-126407999D01*
X157474483Y-126408000D01*
X157871000Y-126408000D01*
X157871000Y-125326836D01*
X157941657Y-125367630D01*
X158062465Y-125400000D01*
X158187535Y-125400000D01*
X158308343Y-125367630D01*
X158379000Y-125326836D01*
X158379000Y-126408000D01*
X158775517Y-126408000D01*
X158775516Y-126407999D01*
X158879318Y-126397394D01*
X158879321Y-126397393D01*
X159047525Y-126341657D01*
X159198339Y-126248634D01*
X159198345Y-126248629D01*
X159323629Y-126123345D01*
X159323634Y-126123339D01*
X159416657Y-125972525D01*
X159472393Y-125804321D01*
X159472394Y-125804318D01*
X159482999Y-125700516D01*
X159483000Y-125700516D01*
X159483000Y-125179000D01*
X158526836Y-125179000D01*
X158567630Y-125108343D01*
X158600000Y-124987535D01*
X158600000Y-124862465D01*
X158567630Y-124741657D01*
X158526836Y-124671000D01*
X159483000Y-124671000D01*
X159483000Y-124149483D01*
X159472394Y-124045681D01*
X159472393Y-124045678D01*
X159416657Y-123877474D01*
X159323634Y-123726660D01*
X159323629Y-123726654D01*
X159198345Y-123601370D01*
X159198339Y-123601365D01*
X159047525Y-123508342D01*
X158879321Y-123452606D01*
X158879318Y-123452605D01*
X158775516Y-123442000D01*
X158379000Y-123442000D01*
X158379000Y-124523163D01*
X158308343Y-124482370D01*
X158187535Y-124450000D01*
X158062465Y-124450000D01*
X157941657Y-124482370D01*
X157871000Y-124523163D01*
X157871000Y-123442000D01*
X157474483Y-123442000D01*
X157370681Y-123452605D01*
X157370678Y-123452606D01*
X157202474Y-123508342D01*
X157051660Y-123601365D01*
X157051654Y-123601370D01*
X156926370Y-123726654D01*
X156926365Y-123726660D01*
X156833340Y-123877478D01*
X156815950Y-123929959D01*
X156775536Y-123988331D01*
X156709980Y-124015586D01*
X156640095Y-124003073D01*
X156600535Y-123972156D01*
X156597895Y-123969065D01*
X156455937Y-123827107D01*
X156455934Y-123827105D01*
X156455932Y-123827103D01*
X156293508Y-123709095D01*
X156114622Y-123617948D01*
X155923680Y-123555907D01*
X155725384Y-123524500D01*
X155643571Y-123524500D01*
X155575450Y-123504498D01*
X155528957Y-123450842D01*
X155518853Y-123380568D01*
X155548347Y-123315988D01*
X155554476Y-123309405D01*
X155560509Y-123303371D01*
X155560509Y-123303370D01*
X155560515Y-123303365D01*
X155636281Y-123172135D01*
X155675500Y-123025766D01*
X155675500Y-122874233D01*
X155675500Y-119568570D01*
X155695502Y-119500449D01*
X155749158Y-119453956D01*
X155819432Y-119443852D01*
X155884012Y-119473346D01*
X155890595Y-119479475D01*
X157571628Y-121160509D01*
X157571633Y-121160513D01*
X157571635Y-121160515D01*
X157702865Y-121236281D01*
X157849233Y-121275500D01*
X157849234Y-121275500D01*
X165784430Y-121275500D01*
X165852551Y-121295502D01*
X165873525Y-121312405D01*
X167245525Y-122684405D01*
X167279551Y-122746717D01*
X167274486Y-122817532D01*
X167231939Y-122874368D01*
X167165419Y-122899179D01*
X167156430Y-122899500D01*
X167074616Y-122899500D01*
X166876320Y-122930907D01*
X166876317Y-122930907D01*
X166876316Y-122930908D01*
X166685378Y-122992948D01*
X166685376Y-122992949D01*
X166506488Y-123084097D01*
X166344065Y-123202105D01*
X166344062Y-123202107D01*
X166202099Y-123344070D01*
X166199457Y-123347164D01*
X166140004Y-123385969D01*
X166069009Y-123386470D01*
X166009013Y-123348508D01*
X165984048Y-123304958D01*
X165966657Y-123252475D01*
X165873634Y-123101660D01*
X165873629Y-123101654D01*
X165748345Y-122976370D01*
X165748339Y-122976365D01*
X165597525Y-122883342D01*
X165429321Y-122827606D01*
X165429318Y-122827605D01*
X165325516Y-122817000D01*
X164929000Y-122817000D01*
X164929000Y-123898163D01*
X164858343Y-123857370D01*
X164737535Y-123825000D01*
X164612465Y-123825000D01*
X164491657Y-123857370D01*
X164421000Y-123898163D01*
X164421000Y-122817000D01*
X164024483Y-122817000D01*
X163920681Y-122827605D01*
X163920678Y-122827606D01*
X163752474Y-122883342D01*
X163601660Y-122976365D01*
X163601654Y-122976370D01*
X163476370Y-123101654D01*
X163476365Y-123101660D01*
X163383342Y-123252474D01*
X163327606Y-123420678D01*
X163327605Y-123420681D01*
X163317000Y-123524483D01*
X163317000Y-124046000D01*
X164273164Y-124046000D01*
X164232370Y-124116657D01*
X164200000Y-124237465D01*
X164200000Y-124362535D01*
X164232370Y-124483343D01*
X164273164Y-124554000D01*
X163317000Y-124554000D01*
X163317000Y-125075516D01*
X163327605Y-125179318D01*
X163327606Y-125179321D01*
X163383342Y-125347525D01*
X163476365Y-125498339D01*
X163476370Y-125498345D01*
X163601654Y-125623629D01*
X163601660Y-125623634D01*
X163752474Y-125716657D01*
X163920678Y-125772393D01*
X163920681Y-125772394D01*
X164024483Y-125782999D01*
X164024483Y-125783000D01*
X164421000Y-125783000D01*
X164421000Y-124701836D01*
X164491657Y-124742630D01*
X164612465Y-124775000D01*
X164737535Y-124775000D01*
X164858343Y-124742630D01*
X164929000Y-124701836D01*
X164929000Y-125783000D01*
X165325517Y-125783000D01*
X165325516Y-125782999D01*
X165429318Y-125772394D01*
X165429321Y-125772393D01*
X165597525Y-125716657D01*
X165748339Y-125623634D01*
X165748345Y-125623629D01*
X165873629Y-125498345D01*
X165873634Y-125498339D01*
X165966658Y-125347523D01*
X165984048Y-125295042D01*
X166024461Y-125236670D01*
X166090017Y-125209413D01*
X166159902Y-125221925D01*
X166199463Y-125252841D01*
X166202109Y-125255939D01*
X166344062Y-125397892D01*
X166344065Y-125397894D01*
X166344068Y-125397897D01*
X166506492Y-125515905D01*
X166685378Y-125607052D01*
X166876320Y-125669093D01*
X167074616Y-125700500D01*
X167074619Y-125700500D01*
X167275381Y-125700500D01*
X167275384Y-125700500D01*
X167473680Y-125669093D01*
X167664622Y-125607052D01*
X167843508Y-125515905D01*
X168005932Y-125397897D01*
X168147897Y-125255932D01*
X168265905Y-125093508D01*
X168312734Y-125001600D01*
X168361481Y-124949986D01*
X168430396Y-124932920D01*
X168497597Y-124955820D01*
X168537265Y-125001600D01*
X168584095Y-125093508D01*
X168702103Y-125255932D01*
X168702105Y-125255934D01*
X168702107Y-125255937D01*
X168844062Y-125397892D01*
X168844065Y-125397894D01*
X168844068Y-125397897D01*
X169006492Y-125515905D01*
X169185378Y-125607052D01*
X169376320Y-125669093D01*
X169574616Y-125700500D01*
X169574619Y-125700500D01*
X169775381Y-125700500D01*
X169775384Y-125700500D01*
X169973680Y-125669093D01*
X170164622Y-125607052D01*
X170343508Y-125515905D01*
X170505932Y-125397897D01*
X170647897Y-125255932D01*
X170765905Y-125093508D01*
X170812734Y-125001600D01*
X170861481Y-124949986D01*
X170930396Y-124932920D01*
X170997597Y-124955820D01*
X171037265Y-125001600D01*
X171084095Y-125093508D01*
X171202103Y-125255932D01*
X171202105Y-125255934D01*
X171202107Y-125255937D01*
X171344062Y-125397892D01*
X171344065Y-125397894D01*
X171344068Y-125397897D01*
X171506492Y-125515905D01*
X171685378Y-125607052D01*
X171876320Y-125669093D01*
X172074616Y-125700500D01*
X172074619Y-125700500D01*
X172275381Y-125700500D01*
X172275384Y-125700500D01*
X172473680Y-125669093D01*
X172664622Y-125607052D01*
X172843508Y-125515905D01*
X173005932Y-125397897D01*
X173147897Y-125255932D01*
X173265905Y-125093508D01*
X173312734Y-125001600D01*
X173361481Y-124949986D01*
X173430396Y-124932920D01*
X173497597Y-124955820D01*
X173537265Y-125001600D01*
X173584095Y-125093508D01*
X173702103Y-125255932D01*
X173702105Y-125255934D01*
X173702107Y-125255937D01*
X173844062Y-125397892D01*
X173844065Y-125397894D01*
X173844068Y-125397897D01*
X174006492Y-125515905D01*
X174185378Y-125607052D01*
X174376320Y-125669093D01*
X174574616Y-125700500D01*
X174574619Y-125700500D01*
X174775381Y-125700500D01*
X174775384Y-125700500D01*
X174973680Y-125669093D01*
X175164622Y-125607052D01*
X175343508Y-125515905D01*
X175505932Y-125397897D01*
X175647897Y-125255932D01*
X175765905Y-125093508D01*
X175812734Y-125001600D01*
X175861481Y-124949986D01*
X175930396Y-124932920D01*
X175997597Y-124955820D01*
X176037265Y-125001600D01*
X176084095Y-125093508D01*
X176202103Y-125255932D01*
X176202105Y-125255934D01*
X176202107Y-125255937D01*
X176344062Y-125397892D01*
X176344065Y-125397894D01*
X176344068Y-125397897D01*
X176506492Y-125515905D01*
X176685378Y-125607052D01*
X176876320Y-125669093D01*
X177074616Y-125700500D01*
X177074619Y-125700500D01*
X177275381Y-125700500D01*
X177275384Y-125700500D01*
X177473680Y-125669093D01*
X177664622Y-125607052D01*
X177843508Y-125515905D01*
X178005932Y-125397897D01*
X178147897Y-125255932D01*
X178265905Y-125093508D01*
X178312734Y-125001600D01*
X178361481Y-124949986D01*
X178430396Y-124932920D01*
X178497597Y-124955820D01*
X178537265Y-125001600D01*
X178584095Y-125093508D01*
X178702103Y-125255932D01*
X178702105Y-125255934D01*
X178702107Y-125255937D01*
X178844062Y-125397892D01*
X178844065Y-125397894D01*
X178844068Y-125397897D01*
X179006492Y-125515905D01*
X179185378Y-125607052D01*
X179376320Y-125669093D01*
X179574616Y-125700500D01*
X179574619Y-125700500D01*
X179775381Y-125700500D01*
X179775384Y-125700500D01*
X179973680Y-125669093D01*
X180164622Y-125607052D01*
X180343508Y-125515905D01*
X180505932Y-125397897D01*
X180647897Y-125255932D01*
X180765905Y-125093508D01*
X180857052Y-124914622D01*
X180919093Y-124723680D01*
X180950500Y-124525384D01*
X180950500Y-124074616D01*
X180919093Y-123876320D01*
X180857052Y-123685378D01*
X180765905Y-123506492D01*
X180647897Y-123344068D01*
X180647894Y-123344065D01*
X180647892Y-123344062D01*
X180505937Y-123202107D01*
X180505934Y-123202105D01*
X180505932Y-123202103D01*
X180343508Y-123084095D01*
X180319296Y-123071758D01*
X180267681Y-123023010D01*
X180250500Y-122959492D01*
X180250500Y-120899235D01*
X180225964Y-120807665D01*
X180211281Y-120752865D01*
X180135739Y-120622023D01*
X180135517Y-120621638D01*
X180135513Y-120621633D01*
X180028365Y-120514485D01*
X179112405Y-119598525D01*
X179078379Y-119536213D01*
X179075500Y-119509430D01*
X179075500Y-118079240D01*
X179095502Y-118011119D01*
X179149158Y-117964626D01*
X179219432Y-117954522D01*
X179284012Y-117984016D01*
X179322396Y-118043742D01*
X179325947Y-118059520D01*
X179355907Y-118248680D01*
X179417948Y-118439622D01*
X179509095Y-118618508D01*
X179627103Y-118780932D01*
X179627105Y-118780934D01*
X179627107Y-118780937D01*
X179769062Y-118922892D01*
X179769065Y-118922894D01*
X179769068Y-118922897D01*
X179931492Y-119040905D01*
X180110378Y-119132052D01*
X180301320Y-119194093D01*
X180499616Y-119225500D01*
X180499619Y-119225500D01*
X180950381Y-119225500D01*
X180950384Y-119225500D01*
X181148680Y-119194093D01*
X181339622Y-119132052D01*
X181518508Y-119040905D01*
X181680932Y-118922897D01*
X181822897Y-118780932D01*
X181940905Y-118618508D01*
X182032052Y-118439622D01*
X182094093Y-118248680D01*
X182125500Y-118050384D01*
X182125500Y-117849616D01*
X182094093Y-117651320D01*
X182032052Y-117460378D01*
X181940905Y-117281492D01*
X181822897Y-117119068D01*
X181822894Y-117119065D01*
X181822892Y-117119062D01*
X181680937Y-116977107D01*
X181680934Y-116977105D01*
X181680932Y-116977103D01*
X181518508Y-116859095D01*
X181426600Y-116812265D01*
X181374986Y-116763519D01*
X181357920Y-116694604D01*
X181380820Y-116627403D01*
X181426600Y-116587734D01*
X181518508Y-116540905D01*
X181680932Y-116422897D01*
X181822897Y-116280932D01*
X181940905Y-116118508D01*
X182032052Y-115939622D01*
X182094093Y-115748680D01*
X182125500Y-115550384D01*
X182125500Y-115349616D01*
X182094093Y-115151320D01*
X182032052Y-114960378D01*
X181940905Y-114781492D01*
X181822897Y-114619068D01*
X181822894Y-114619065D01*
X181822892Y-114619062D01*
X181680937Y-114477107D01*
X181680934Y-114477105D01*
X181680932Y-114477103D01*
X181518508Y-114359095D01*
X181426600Y-114312265D01*
X181374986Y-114263519D01*
X181357920Y-114194604D01*
X181380820Y-114127403D01*
X181426600Y-114087734D01*
X181518508Y-114040905D01*
X181680932Y-113922897D01*
X181822897Y-113780932D01*
X181940905Y-113618508D01*
X182032052Y-113439622D01*
X182094093Y-113248680D01*
X182125500Y-113050384D01*
X182125500Y-112849616D01*
X182094093Y-112651320D01*
X182032052Y-112460378D01*
X181940905Y-112281492D01*
X181822897Y-112119068D01*
X181822894Y-112119065D01*
X181822892Y-112119062D01*
X181680937Y-111977107D01*
X181680934Y-111977105D01*
X181680932Y-111977103D01*
X181518508Y-111859095D01*
X181426600Y-111812265D01*
X181374986Y-111763519D01*
X181357920Y-111694604D01*
X181380820Y-111627403D01*
X181426600Y-111587734D01*
X181518508Y-111540905D01*
X181680932Y-111422897D01*
X181822897Y-111280932D01*
X181940905Y-111118508D01*
X182032052Y-110939622D01*
X182094093Y-110748680D01*
X182125500Y-110550384D01*
X182125500Y-110349616D01*
X182094093Y-110151320D01*
X182032052Y-109960378D01*
X181940905Y-109781492D01*
X181822897Y-109619068D01*
X181822894Y-109619065D01*
X181822892Y-109619062D01*
X181680937Y-109477107D01*
X181680934Y-109477105D01*
X181680932Y-109477103D01*
X181518508Y-109359095D01*
X181426600Y-109312265D01*
X181374986Y-109263519D01*
X181357920Y-109194604D01*
X181380820Y-109127403D01*
X181426600Y-109087734D01*
X181518508Y-109040905D01*
X181680932Y-108922897D01*
X181822897Y-108780932D01*
X181940905Y-108618508D01*
X182032052Y-108439622D01*
X182094093Y-108248680D01*
X182125500Y-108050384D01*
X182125500Y-107849616D01*
X182094093Y-107651320D01*
X182032052Y-107460378D01*
X181940905Y-107281492D01*
X181822897Y-107119068D01*
X181822894Y-107119065D01*
X181822892Y-107119062D01*
X181680937Y-106977107D01*
X181680934Y-106977105D01*
X181680932Y-106977103D01*
X181518508Y-106859095D01*
X181426600Y-106812265D01*
X181374986Y-106763519D01*
X181357920Y-106694604D01*
X181380820Y-106627403D01*
X181426600Y-106587734D01*
X181518508Y-106540905D01*
X181680932Y-106422897D01*
X181822897Y-106280932D01*
X181940905Y-106118508D01*
X182032052Y-105939622D01*
X182094093Y-105748680D01*
X182125500Y-105550384D01*
X182125500Y-105349616D01*
X182094093Y-105151320D01*
X182032052Y-104960378D01*
X181940905Y-104781492D01*
X181822897Y-104619068D01*
X181822894Y-104619065D01*
X181822892Y-104619062D01*
X181680939Y-104477109D01*
X181677841Y-104474463D01*
X181639033Y-104415012D01*
X181638527Y-104344017D01*
X181676484Y-104284019D01*
X181720042Y-104259048D01*
X181772523Y-104241658D01*
X181923339Y-104148634D01*
X181923345Y-104148629D01*
X182048629Y-104023345D01*
X182048634Y-104023339D01*
X182141657Y-103872525D01*
X182197393Y-103704321D01*
X182197394Y-103704318D01*
X182207999Y-103600516D01*
X182208000Y-103600516D01*
X182208000Y-103204000D01*
X181126836Y-103204000D01*
X181167630Y-103133343D01*
X181200000Y-103012535D01*
X181200000Y-102887465D01*
X181167630Y-102766657D01*
X181126836Y-102696000D01*
X182208000Y-102696000D01*
X182208000Y-102299483D01*
X182197394Y-102195681D01*
X182197393Y-102195678D01*
X182141657Y-102027474D01*
X182048634Y-101876660D01*
X182048629Y-101876654D01*
X181923345Y-101751370D01*
X181923339Y-101751365D01*
X181772525Y-101658342D01*
X181604321Y-101602606D01*
X181604318Y-101602605D01*
X181500516Y-101592000D01*
X180979000Y-101592000D01*
X180979000Y-102548163D01*
X180908343Y-102507370D01*
X180787535Y-102475000D01*
X180662465Y-102475000D01*
X180541657Y-102507370D01*
X180471000Y-102548163D01*
X180471000Y-101592000D01*
X179949483Y-101592000D01*
X179845681Y-101602605D01*
X179845678Y-101602606D01*
X179677474Y-101658342D01*
X179526660Y-101751365D01*
X179526654Y-101751370D01*
X179401370Y-101876654D01*
X179401365Y-101876660D01*
X179308342Y-102027474D01*
X179252606Y-102195678D01*
X179252605Y-102195681D01*
X179242000Y-102299483D01*
X179242000Y-102696000D01*
X180323164Y-102696000D01*
X180282370Y-102766657D01*
X180250000Y-102887465D01*
X180250000Y-103012535D01*
X180282370Y-103133343D01*
X180323164Y-103204000D01*
X179242000Y-103204000D01*
X179242000Y-103600516D01*
X179252605Y-103704318D01*
X179252606Y-103704321D01*
X179308342Y-103872525D01*
X179401365Y-104023339D01*
X179401370Y-104023345D01*
X179526654Y-104148629D01*
X179526660Y-104148634D01*
X179677475Y-104241657D01*
X179729958Y-104259048D01*
X179788330Y-104299461D01*
X179815586Y-104365017D01*
X179803073Y-104434903D01*
X179772164Y-104474457D01*
X179769070Y-104477099D01*
X179627107Y-104619062D01*
X179627105Y-104619065D01*
X179509097Y-104781488D01*
X179509095Y-104781492D01*
X179417948Y-104960378D01*
X179355907Y-105151320D01*
X179324500Y-105349616D01*
X179324500Y-105550384D01*
X179355907Y-105748680D01*
X179417948Y-105939622D01*
X179509095Y-106118508D01*
X179627103Y-106280932D01*
X179627105Y-106280934D01*
X179627107Y-106280937D01*
X179769062Y-106422892D01*
X179769065Y-106422894D01*
X179769068Y-106422897D01*
X179931492Y-106540905D01*
X180023399Y-106587734D01*
X180075013Y-106636481D01*
X180092079Y-106705396D01*
X180069178Y-106772598D01*
X180023399Y-106812265D01*
X179957112Y-106846041D01*
X179931488Y-106859097D01*
X179769065Y-106977105D01*
X179769062Y-106977107D01*
X179627107Y-107119062D01*
X179627105Y-107119065D01*
X179509097Y-107281488D01*
X179509095Y-107281492D01*
X179417948Y-107460378D01*
X179355907Y-107651320D01*
X179324500Y-107849616D01*
X179324500Y-108050384D01*
X179330042Y-108085372D01*
X179355908Y-108248687D01*
X179355909Y-108248688D01*
X179359443Y-108259565D01*
X179361470Y-108330533D01*
X179324807Y-108391330D01*
X179261095Y-108422655D01*
X179239610Y-108424500D01*
X171190570Y-108424500D01*
X171122449Y-108404498D01*
X171101475Y-108387595D01*
X166978880Y-104265000D01*
X174044628Y-104265000D01*
X174064080Y-104487334D01*
X174077164Y-104536165D01*
X174121843Y-104702911D01*
X174121845Y-104702916D01*
X174177373Y-104821996D01*
X174216165Y-104905186D01*
X174344178Y-105088007D01*
X174501993Y-105245822D01*
X174684814Y-105373835D01*
X174739346Y-105399263D01*
X174785541Y-105420805D01*
X174838826Y-105467722D01*
X174858287Y-105536000D01*
X174837745Y-105603960D01*
X174785541Y-105649195D01*
X174684813Y-105696165D01*
X174501996Y-105824175D01*
X174501990Y-105824180D01*
X174344180Y-105981990D01*
X174344175Y-105981996D01*
X174216165Y-106164813D01*
X174121845Y-106367083D01*
X174121843Y-106367088D01*
X174094802Y-106468009D01*
X174064080Y-106582666D01*
X174044628Y-106805000D01*
X174064080Y-107027334D01*
X174064579Y-107029195D01*
X174121843Y-107242911D01*
X174121845Y-107242916D01*
X174177373Y-107361996D01*
X174216165Y-107445186D01*
X174344178Y-107628007D01*
X174501993Y-107785822D01*
X174684814Y-107913835D01*
X174887087Y-108008156D01*
X175102666Y-108065920D01*
X175325000Y-108085372D01*
X175547334Y-108065920D01*
X175762913Y-108008156D01*
X175965186Y-107913835D01*
X176148007Y-107785822D01*
X176305822Y-107628007D01*
X176433835Y-107445186D01*
X176528156Y-107242913D01*
X176585920Y-107027334D01*
X176605372Y-106805000D01*
X176585920Y-106582666D01*
X176528156Y-106367087D01*
X176433835Y-106164814D01*
X176305822Y-105981993D01*
X176148007Y-105824178D01*
X175965186Y-105696165D01*
X175864457Y-105649194D01*
X175811173Y-105602278D01*
X175791712Y-105534001D01*
X175812254Y-105466041D01*
X175864458Y-105420805D01*
X175965186Y-105373835D01*
X176148007Y-105245822D01*
X176305822Y-105088007D01*
X176433835Y-104905186D01*
X176528156Y-104702913D01*
X176585920Y-104487334D01*
X176605372Y-104265000D01*
X176585920Y-104042666D01*
X176528156Y-103827087D01*
X176433835Y-103624814D01*
X176305822Y-103441993D01*
X176148007Y-103284178D01*
X176070222Y-103229712D01*
X176025895Y-103174256D01*
X176018586Y-103103637D01*
X176050617Y-103040276D01*
X176111818Y-103004291D01*
X176142494Y-103000500D01*
X176208485Y-103000500D01*
X176208488Y-103000500D01*
X176308126Y-102984719D01*
X176428220Y-102923528D01*
X176523528Y-102828220D01*
X176584719Y-102708126D01*
X176600500Y-102608488D01*
X176600500Y-100841512D01*
X176584719Y-100741874D01*
X176523528Y-100621780D01*
X176428220Y-100526472D01*
X176428219Y-100526471D01*
X176368173Y-100495876D01*
X176308126Y-100465281D01*
X176208488Y-100449500D01*
X174441512Y-100449500D01*
X174341874Y-100465281D01*
X174341872Y-100465281D01*
X174341872Y-100465282D01*
X174221780Y-100526471D01*
X174126471Y-100621780D01*
X174079236Y-100714485D01*
X174065281Y-100741874D01*
X174049500Y-100841512D01*
X174049500Y-102608488D01*
X174065281Y-102708126D01*
X174065282Y-102708127D01*
X174125395Y-102826108D01*
X174126472Y-102828220D01*
X174221780Y-102923528D01*
X174341874Y-102984719D01*
X174441512Y-103000500D01*
X174507506Y-103000500D01*
X174575627Y-103020502D01*
X174622120Y-103074158D01*
X174632224Y-103144432D01*
X174602730Y-103209012D01*
X174579777Y-103229713D01*
X174501996Y-103284175D01*
X174501990Y-103284180D01*
X174344180Y-103441990D01*
X174344175Y-103441996D01*
X174216165Y-103624813D01*
X174121845Y-103827083D01*
X174121843Y-103827088D01*
X174079557Y-103984903D01*
X174064080Y-104042666D01*
X174044628Y-104265000D01*
X166978880Y-104265000D01*
X159459880Y-96745999D01*
X162483455Y-96745999D01*
X162483456Y-96746000D01*
X163389297Y-96746000D01*
X163354075Y-96807007D01*
X163320000Y-96934174D01*
X163320000Y-97065826D01*
X163354075Y-97192993D01*
X163389297Y-97254000D01*
X162483455Y-97254000D01*
X162531176Y-97442449D01*
X162531179Y-97442456D01*
X162621580Y-97648548D01*
X162744674Y-97836958D01*
X162897097Y-98002534D01*
X163074698Y-98140767D01*
X163074699Y-98140768D01*
X163272628Y-98247882D01*
X163272630Y-98247883D01*
X163485483Y-98320955D01*
X163485492Y-98320957D01*
X163566000Y-98334391D01*
X163566000Y-97430702D01*
X163627007Y-97465925D01*
X163754174Y-97500000D01*
X163885826Y-97500000D01*
X164012993Y-97465925D01*
X164074000Y-97430702D01*
X164074000Y-98334390D01*
X164154507Y-98320957D01*
X164154516Y-98320955D01*
X164367369Y-98247883D01*
X164367371Y-98247882D01*
X164565300Y-98140768D01*
X164565301Y-98140767D01*
X164742902Y-98002534D01*
X164895325Y-97836958D01*
X165018418Y-97648550D01*
X165021245Y-97642106D01*
X165066924Y-97587756D01*
X165134736Y-97566730D01*
X165203150Y-97585704D01*
X165247850Y-97635747D01*
X165248414Y-97635422D01*
X165249974Y-97638125D01*
X165250446Y-97638653D01*
X165250827Y-97639462D01*
X165251164Y-97640185D01*
X165375318Y-97817494D01*
X165379178Y-97823007D01*
X165536993Y-97980822D01*
X165719814Y-98108835D01*
X165922087Y-98203156D01*
X166137666Y-98260920D01*
X166360000Y-98280372D01*
X166582334Y-98260920D01*
X166797913Y-98203156D01*
X167000186Y-98108835D01*
X167183007Y-97980822D01*
X167340822Y-97823007D01*
X167395287Y-97745222D01*
X167450744Y-97700895D01*
X167521363Y-97693586D01*
X167584724Y-97725617D01*
X167620709Y-97786818D01*
X167624500Y-97817494D01*
X167624500Y-97883488D01*
X167640281Y-97983126D01*
X167650168Y-98002530D01*
X167680668Y-98062391D01*
X167701472Y-98103220D01*
X167796780Y-98198528D01*
X167916874Y-98259719D01*
X168016512Y-98275500D01*
X168016515Y-98275500D01*
X169783485Y-98275500D01*
X169783488Y-98275500D01*
X169883126Y-98259719D01*
X170003220Y-98198528D01*
X170098528Y-98103220D01*
X170159719Y-97983126D01*
X170175500Y-97883488D01*
X170175500Y-96116512D01*
X170159719Y-96016874D01*
X170098528Y-95896780D01*
X170003220Y-95801472D01*
X170003219Y-95801471D01*
X169906353Y-95752116D01*
X169883126Y-95740281D01*
X169783488Y-95724500D01*
X168016512Y-95724500D01*
X167916874Y-95740281D01*
X167916872Y-95740281D01*
X167916872Y-95740282D01*
X167796780Y-95801471D01*
X167701471Y-95896780D01*
X167667830Y-95962806D01*
X167640281Y-96016874D01*
X167624500Y-96116512D01*
X167624500Y-96116515D01*
X167624500Y-96182505D01*
X167604498Y-96250626D01*
X167550842Y-96297119D01*
X167480568Y-96307223D01*
X167415988Y-96277729D01*
X167395287Y-96254776D01*
X167340824Y-96176996D01*
X167340819Y-96176990D01*
X167183009Y-96019180D01*
X167183003Y-96019175D01*
X167000186Y-95891165D01*
X166797916Y-95796845D01*
X166797911Y-95796843D01*
X166669332Y-95762391D01*
X166582334Y-95739080D01*
X166360000Y-95719628D01*
X166137666Y-95739080D01*
X166089015Y-95752116D01*
X165922088Y-95796843D01*
X165922083Y-95796845D01*
X165719813Y-95891165D01*
X165536996Y-96019175D01*
X165536990Y-96019180D01*
X165379180Y-96176990D01*
X165379175Y-96176996D01*
X165251162Y-96359816D01*
X165251161Y-96359818D01*
X165250823Y-96360545D01*
X165250589Y-96360810D01*
X165248414Y-96364578D01*
X165247656Y-96364140D01*
X165203901Y-96413825D01*
X165135621Y-96433279D01*
X165067664Y-96412730D01*
X165021603Y-96358703D01*
X165021247Y-96357897D01*
X165018419Y-96351451D01*
X164895325Y-96163041D01*
X164742902Y-95997465D01*
X164565301Y-95859232D01*
X164565300Y-95859231D01*
X164367371Y-95752117D01*
X164367369Y-95752116D01*
X164154512Y-95679043D01*
X164154501Y-95679040D01*
X164074000Y-95665606D01*
X164074000Y-96569297D01*
X164012993Y-96534075D01*
X163885826Y-96500000D01*
X163754174Y-96500000D01*
X163627007Y-96534075D01*
X163566000Y-96569297D01*
X163566000Y-95665607D01*
X163565999Y-95665606D01*
X163485498Y-95679040D01*
X163485487Y-95679043D01*
X163272630Y-95752116D01*
X163272628Y-95752117D01*
X163074699Y-95859231D01*
X163074698Y-95859232D01*
X162897097Y-95997465D01*
X162744674Y-96163041D01*
X162621580Y-96351451D01*
X162531179Y-96557543D01*
X162531176Y-96557550D01*
X162483455Y-96745999D01*
X159459880Y-96745999D01*
X158253371Y-95539490D01*
X158253361Y-95539482D01*
X158122139Y-95463721D01*
X158122136Y-95463720D01*
X158122135Y-95463719D01*
X158122133Y-95463718D01*
X158122132Y-95463718D01*
X158069068Y-95449500D01*
X157975766Y-95424500D01*
X157975764Y-95424500D01*
X146340870Y-95424500D01*
X146272749Y-95404498D01*
X146226256Y-95350842D01*
X146215560Y-95311670D01*
X146211908Y-95276926D01*
X146211907Y-95276919D01*
X146158287Y-95111891D01*
X146156586Y-95108944D01*
X146071522Y-94961611D01*
X145955410Y-94832655D01*
X145891195Y-94786000D01*
X175590435Y-94786000D01*
X177225036Y-94786000D01*
X177204401Y-94835818D01*
X177177500Y-94971056D01*
X177177500Y-95108944D01*
X177204401Y-95244182D01*
X177225036Y-95294000D01*
X175590435Y-95294000D01*
X175607618Y-95402495D01*
X175682910Y-95634221D01*
X175682913Y-95634227D01*
X175793533Y-95851332D01*
X175936753Y-96048456D01*
X176109043Y-96220746D01*
X176306167Y-96363966D01*
X176523272Y-96474586D01*
X176523278Y-96474589D01*
X176755003Y-96549881D01*
X176995673Y-96588000D01*
X177623500Y-96588000D01*
X177623500Y-95692463D01*
X177673318Y-95713099D01*
X177808556Y-95740000D01*
X177946444Y-95740000D01*
X178081682Y-95713099D01*
X178131500Y-95692463D01*
X178131500Y-96588000D01*
X178759327Y-96588000D01*
X178999996Y-96549881D01*
X179231721Y-96474589D01*
X179231727Y-96474586D01*
X179448832Y-96363966D01*
X179645956Y-96220746D01*
X179818246Y-96048456D01*
X179961466Y-95851332D01*
X180072086Y-95634227D01*
X180072089Y-95634221D01*
X180147381Y-95402495D01*
X180164565Y-95294000D01*
X178529964Y-95294000D01*
X178550599Y-95244182D01*
X178577500Y-95108944D01*
X178577500Y-94971056D01*
X178550599Y-94835818D01*
X178529964Y-94786000D01*
X180164565Y-94786000D01*
X180147381Y-94677504D01*
X180072089Y-94445778D01*
X180072086Y-94445772D01*
X179961466Y-94228667D01*
X179818246Y-94031543D01*
X179645956Y-93859253D01*
X179448832Y-93716033D01*
X179231727Y-93605413D01*
X179231721Y-93605410D01*
X178999996Y-93530118D01*
X178759327Y-93492000D01*
X178131500Y-93492000D01*
X178131500Y-94387536D01*
X178081682Y-94366901D01*
X177946444Y-94340000D01*
X177808556Y-94340000D01*
X177673318Y-94366901D01*
X177623500Y-94387536D01*
X177623500Y-93492000D01*
X176995673Y-93492000D01*
X176755003Y-93530118D01*
X176523278Y-93605410D01*
X176523272Y-93605413D01*
X176306167Y-93716033D01*
X176109043Y-93859253D01*
X175936753Y-94031543D01*
X175793533Y-94228667D01*
X175682913Y-94445772D01*
X175682910Y-94445778D01*
X175607618Y-94677504D01*
X175590435Y-94786000D01*
X145891195Y-94786000D01*
X145822612Y-94736171D01*
X145784367Y-94686574D01*
X145781864Y-94687988D01*
X145710983Y-94683935D01*
X145702077Y-94680370D01*
X145656501Y-94660078D01*
X145486764Y-94624000D01*
X145313236Y-94624000D01*
X145143503Y-94660077D01*
X144984978Y-94730657D01*
X144984976Y-94730658D01*
X144844588Y-94832655D01*
X144843635Y-94833715D01*
X144842928Y-94834150D01*
X144839680Y-94837075D01*
X144839145Y-94836480D01*
X144783188Y-94870954D01*
X144712204Y-94869601D01*
X144660786Y-94836556D01*
X144660320Y-94837075D01*
X144657144Y-94834216D01*
X144656365Y-94833715D01*
X144655411Y-94832655D01*
X144515024Y-94730658D01*
X144356499Y-94660078D01*
X144186764Y-94624000D01*
X144013236Y-94624000D01*
X143843503Y-94660077D01*
X143684978Y-94730657D01*
X143684976Y-94730658D01*
X143544590Y-94832654D01*
X143428479Y-94961609D01*
X143428479Y-94961610D01*
X143341712Y-95111891D01*
X143288094Y-95276916D01*
X143288093Y-95276919D01*
X143288092Y-95276921D01*
X143288092Y-95276924D01*
X143284555Y-95310577D01*
X143273941Y-95411556D01*
X143246927Y-95477212D01*
X143188705Y-95517841D01*
X143117760Y-95520544D01*
X143060860Y-95486965D01*
X143060315Y-95487572D01*
X143057324Y-95484878D01*
X143056616Y-95484461D01*
X143055456Y-95483196D01*
X143055407Y-95483152D01*
X142915024Y-95381158D01*
X142756499Y-95310578D01*
X142586764Y-95274500D01*
X142413236Y-95274500D01*
X142243503Y-95310577D01*
X142084978Y-95381157D01*
X142084976Y-95381158D01*
X141944590Y-95483154D01*
X141828479Y-95612109D01*
X141828478Y-95612111D01*
X141822187Y-95623007D01*
X141741712Y-95762391D01*
X141688094Y-95927416D01*
X141688093Y-95927420D01*
X141688092Y-95927424D01*
X141669953Y-96100000D01*
X141688092Y-96272576D01*
X141688093Y-96272579D01*
X141688094Y-96272583D01*
X141741712Y-96437608D01*
X141741714Y-96437611D01*
X141828478Y-96587889D01*
X141944590Y-96716845D01*
X142084976Y-96818842D01*
X142243501Y-96889422D01*
X142413236Y-96925500D01*
X142586764Y-96925500D01*
X142756499Y-96889422D01*
X142898145Y-96826356D01*
X142968511Y-96816923D01*
X143032808Y-96847029D01*
X143038488Y-96852368D01*
X143535079Y-97348958D01*
X143535100Y-97348981D01*
X143646628Y-97460509D01*
X143646633Y-97460513D01*
X143646635Y-97460515D01*
X143646636Y-97460516D01*
X143646638Y-97460517D01*
X143715025Y-97500000D01*
X143777865Y-97536281D01*
X143924233Y-97575500D01*
X143924234Y-97575500D01*
X150359430Y-97575500D01*
X150427551Y-97595502D01*
X150448525Y-97612405D01*
X154487595Y-101651475D01*
X154521621Y-101713787D01*
X154524500Y-101740570D01*
X154524500Y-122659428D01*
X154504498Y-122727549D01*
X154487595Y-122748524D01*
X153671898Y-123564220D01*
X153609586Y-123598245D01*
X153543868Y-123594957D01*
X153423688Y-123555909D01*
X153423687Y-123555908D01*
X153386769Y-123550060D01*
X153225384Y-123524500D01*
X153024616Y-123524500D01*
X152826320Y-123555907D01*
X152826317Y-123555907D01*
X152826316Y-123555908D01*
X152635378Y-123617948D01*
X152635376Y-123617949D01*
X152456488Y-123709097D01*
X152294065Y-123827105D01*
X152294062Y-123827107D01*
X152152107Y-123969062D01*
X152152105Y-123969065D01*
X152034097Y-124131488D01*
X151987267Y-124223398D01*
X151938519Y-124275013D01*
X151869604Y-124292079D01*
X151802402Y-124269178D01*
X151762733Y-124223398D01*
X151715905Y-124131492D01*
X151597897Y-123969068D01*
X151597894Y-123969065D01*
X151597892Y-123969062D01*
X151455937Y-123827107D01*
X151455934Y-123827105D01*
X151455932Y-123827103D01*
X151404483Y-123789723D01*
X151293511Y-123709096D01*
X151269296Y-123696758D01*
X151244295Y-123684019D01*
X151192682Y-123635272D01*
X151175500Y-123571754D01*
X151175500Y-117527527D01*
X151175500Y-117527525D01*
X151137984Y-117387515D01*
X151131316Y-117375965D01*
X151101738Y-117324734D01*
X151065514Y-117261991D01*
X151065511Y-117261988D01*
X151065510Y-117261985D01*
X151065507Y-117261982D01*
X151065504Y-117261978D01*
X149288021Y-115484495D01*
X149288011Y-115484487D01*
X149162486Y-115412016D01*
X149075539Y-115388718D01*
X149075538Y-115388718D01*
X149022478Y-115374500D01*
X149022475Y-115374500D01*
X146405215Y-115374500D01*
X146337094Y-115354498D01*
X146316120Y-115337595D01*
X143517382Y-112538857D01*
X143483356Y-112476545D01*
X143480477Y-112449762D01*
X143480477Y-110682503D01*
X143462884Y-110616845D01*
X143442961Y-110542492D01*
X143442956Y-110542483D01*
X143441193Y-110539428D01*
X143370489Y-110416965D01*
X143370481Y-110416955D01*
X142791952Y-109838426D01*
X142757926Y-109776114D01*
X142755823Y-109756558D01*
X142755737Y-109756568D01*
X142755047Y-109750000D01*
X142736908Y-109577424D01*
X142700471Y-109465281D01*
X142683287Y-109412391D01*
X142669295Y-109388156D01*
X142596522Y-109262111D01*
X142480410Y-109133155D01*
X142417892Y-109087733D01*
X142340024Y-109031158D01*
X142181499Y-108960578D01*
X142011764Y-108924500D01*
X141838236Y-108924500D01*
X141668503Y-108960577D01*
X141509978Y-109031157D01*
X141509976Y-109031158D01*
X141369590Y-109133154D01*
X141253479Y-109262109D01*
X141253478Y-109262111D01*
X141246325Y-109274500D01*
X141166712Y-109412391D01*
X141113094Y-109577416D01*
X141113093Y-109577420D01*
X141113092Y-109577424D01*
X141094953Y-109750000D01*
X141113092Y-109922576D01*
X141113093Y-109922579D01*
X141113094Y-109922583D01*
X141166712Y-110087608D01*
X141166714Y-110087611D01*
X141253478Y-110237889D01*
X141369590Y-110366845D01*
X141509976Y-110468842D01*
X141668501Y-110539422D01*
X141838236Y-110575500D01*
X141919785Y-110575500D01*
X141987906Y-110595502D01*
X142008880Y-110612405D01*
X142130880Y-110734405D01*
X142164906Y-110796717D01*
X142159841Y-110867532D01*
X142117294Y-110924368D01*
X142050774Y-110949179D01*
X142041785Y-110949500D01*
X142013236Y-110949500D01*
X141843503Y-110985577D01*
X141684978Y-111056157D01*
X141684976Y-111056158D01*
X141544587Y-111158156D01*
X141522391Y-111182809D01*
X141461946Y-111220050D01*
X141428754Y-111224500D01*
X140366611Y-111224500D01*
X140298490Y-111204498D01*
X140277516Y-111187595D01*
X136649417Y-107559495D01*
X136649407Y-107559487D01*
X136523886Y-107487018D01*
X136523883Y-107487017D01*
X136523881Y-107487016D01*
X136383871Y-107449500D01*
X136383868Y-107449500D01*
X127855215Y-107449500D01*
X127787094Y-107429498D01*
X127766119Y-107412595D01*
X127387404Y-107033879D01*
X127353379Y-106971567D01*
X127350500Y-106944784D01*
X127350500Y-105645000D01*
X150119628Y-105645000D01*
X150139080Y-105867334D01*
X150158450Y-105939623D01*
X150196843Y-106082911D01*
X150196845Y-106082916D01*
X150291165Y-106285186D01*
X150387591Y-106422897D01*
X150419178Y-106468007D01*
X150576993Y-106625822D01*
X150759814Y-106753835D01*
X150780582Y-106763519D01*
X150860541Y-106800805D01*
X150913826Y-106847722D01*
X150933287Y-106916000D01*
X150912745Y-106983960D01*
X150860541Y-107029195D01*
X150759813Y-107076165D01*
X150576996Y-107204175D01*
X150576990Y-107204180D01*
X150419180Y-107361990D01*
X150419175Y-107361996D01*
X150291165Y-107544813D01*
X150196845Y-107747083D01*
X150196843Y-107747088D01*
X150154557Y-107904903D01*
X150139080Y-107962666D01*
X150119628Y-108185000D01*
X150139080Y-108407334D01*
X150147732Y-108439622D01*
X150196843Y-108622911D01*
X150196845Y-108622916D01*
X150291165Y-108825186D01*
X150360705Y-108924500D01*
X150419178Y-109008007D01*
X150576993Y-109165822D01*
X150610324Y-109189161D01*
X150654777Y-109220287D01*
X150699105Y-109275744D01*
X150706414Y-109346363D01*
X150674383Y-109409724D01*
X150613182Y-109445709D01*
X150582506Y-109449500D01*
X150516512Y-109449500D01*
X150416874Y-109465281D01*
X150416872Y-109465281D01*
X150416872Y-109465282D01*
X150296780Y-109526471D01*
X150201471Y-109621780D01*
X150157535Y-109708011D01*
X150140281Y-109741874D01*
X150124500Y-109841512D01*
X150124500Y-111608488D01*
X150140281Y-111708126D01*
X150168505Y-111763519D01*
X150193343Y-111812267D01*
X150201472Y-111828220D01*
X150296780Y-111923528D01*
X150416874Y-111984719D01*
X150516512Y-112000500D01*
X150516515Y-112000500D01*
X152283485Y-112000500D01*
X152283488Y-112000500D01*
X152383126Y-111984719D01*
X152503220Y-111923528D01*
X152598528Y-111828220D01*
X152659719Y-111708126D01*
X152675500Y-111608488D01*
X152675500Y-109841512D01*
X152659719Y-109741874D01*
X152598528Y-109621780D01*
X152503220Y-109526472D01*
X152503219Y-109526471D01*
X152443173Y-109495876D01*
X152383126Y-109465281D01*
X152283488Y-109449500D01*
X152283485Y-109449500D01*
X152217494Y-109449500D01*
X152149373Y-109429498D01*
X152102880Y-109375842D01*
X152092776Y-109305568D01*
X152122270Y-109240988D01*
X152145223Y-109220287D01*
X152189676Y-109189161D01*
X152223007Y-109165822D01*
X152380822Y-109008007D01*
X152508835Y-108825186D01*
X152603156Y-108622913D01*
X152660920Y-108407334D01*
X152680372Y-108185000D01*
X152660920Y-107962666D01*
X152603156Y-107747087D01*
X152508835Y-107544814D01*
X152380822Y-107361993D01*
X152223007Y-107204178D01*
X152040186Y-107076165D01*
X151939457Y-107029194D01*
X151886173Y-106982278D01*
X151866712Y-106914001D01*
X151887254Y-106846041D01*
X151939458Y-106800805D01*
X152040186Y-106753835D01*
X152223007Y-106625822D01*
X152380822Y-106468007D01*
X152508835Y-106285186D01*
X152603156Y-106082913D01*
X152660920Y-105867334D01*
X152680372Y-105645000D01*
X152660920Y-105422666D01*
X152603156Y-105207087D01*
X152508835Y-105004814D01*
X152380822Y-104821993D01*
X152223007Y-104664178D01*
X152158583Y-104619068D01*
X152040186Y-104536165D01*
X151837916Y-104441845D01*
X151837911Y-104441843D01*
X151737774Y-104415012D01*
X151622334Y-104384080D01*
X151400000Y-104364628D01*
X151177666Y-104384080D01*
X151119903Y-104399557D01*
X150962088Y-104441843D01*
X150962083Y-104441845D01*
X150759813Y-104536165D01*
X150576996Y-104664175D01*
X150576990Y-104664180D01*
X150419180Y-104821990D01*
X150419175Y-104821996D01*
X150291165Y-105004813D01*
X150196845Y-105207083D01*
X150196843Y-105207088D01*
X150186464Y-105245824D01*
X150139080Y-105422666D01*
X150119628Y-105645000D01*
X127350500Y-105645000D01*
X127350500Y-95702527D01*
X127350500Y-95702525D01*
X127312984Y-95562515D01*
X127312982Y-95562512D01*
X127312982Y-95562510D01*
X127299689Y-95539486D01*
X127240512Y-95436988D01*
X127240504Y-95436978D01*
X126163021Y-94359495D01*
X126163011Y-94359487D01*
X126037487Y-94287016D01*
X126037484Y-94287015D01*
X126034743Y-94286280D01*
X126034743Y-94286281D01*
X125988986Y-94274020D01*
X125897475Y-94249500D01*
X125897473Y-94249500D01*
X124726500Y-94249500D01*
X124658379Y-94229498D01*
X124611886Y-94175842D01*
X124600500Y-94123500D01*
X124600500Y-93916515D01*
X124600500Y-93916512D01*
X124584719Y-93816874D01*
X124523528Y-93696780D01*
X124428220Y-93601472D01*
X124428219Y-93601471D01*
X124368173Y-93570876D01*
X124308126Y-93540281D01*
X124208488Y-93524500D01*
X122441512Y-93524500D01*
X122341874Y-93540281D01*
X122341872Y-93540281D01*
X122341872Y-93540282D01*
X122221780Y-93601471D01*
X122126471Y-93696780D01*
X122065282Y-93816872D01*
X122065281Y-93816874D01*
X122064916Y-93819180D01*
X122049500Y-93916515D01*
X122049500Y-93982505D01*
X122029498Y-94050626D01*
X121975842Y-94097119D01*
X121905568Y-94107223D01*
X121840988Y-94077729D01*
X121820287Y-94054776D01*
X121765824Y-93976996D01*
X121765819Y-93976990D01*
X121608009Y-93819180D01*
X121608003Y-93819175D01*
X121425186Y-93691165D01*
X121222916Y-93596845D01*
X121222911Y-93596843D01*
X121122860Y-93570034D01*
X121007334Y-93539080D01*
X120785000Y-93519628D01*
X120562666Y-93539080D01*
X120504903Y-93554557D01*
X120347088Y-93596843D01*
X120347083Y-93596845D01*
X120144813Y-93691165D01*
X119961996Y-93819175D01*
X119961990Y-93819180D01*
X119804180Y-93976990D01*
X119804175Y-93976996D01*
X119676165Y-94159813D01*
X119581845Y-94362083D01*
X119581843Y-94362088D01*
X119559419Y-94445778D01*
X119524080Y-94577666D01*
X119504628Y-94800000D01*
X115153054Y-94800000D01*
X115163111Y-89037495D01*
X120994464Y-89037495D01*
X120994464Y-89037504D01*
X121014564Y-89254421D01*
X121056411Y-89401500D01*
X121074183Y-89463959D01*
X121171288Y-89658972D01*
X121171289Y-89658973D01*
X121302571Y-89832821D01*
X121463568Y-89979588D01*
X121463569Y-89979589D01*
X121648780Y-90094267D01*
X121648787Y-90094270D01*
X121648790Y-90094272D01*
X121648794Y-90094273D01*
X121648795Y-90094274D01*
X121851926Y-90172968D01*
X121851931Y-90172970D01*
X122066074Y-90213000D01*
X122066076Y-90213000D01*
X122283924Y-90213000D01*
X122283926Y-90213000D01*
X122498069Y-90172970D01*
X122701210Y-90094272D01*
X122701215Y-90094268D01*
X122701219Y-90094267D01*
X122886430Y-89979589D01*
X122886429Y-89979589D01*
X122886432Y-89979588D01*
X123047427Y-89832822D01*
X123178712Y-89658972D01*
X123275817Y-89463959D01*
X123335435Y-89254423D01*
X123352015Y-89075500D01*
X123355536Y-89037504D01*
X123355536Y-89037495D01*
X123335435Y-88820578D01*
X123325829Y-88786818D01*
X123275817Y-88611041D01*
X123178712Y-88416028D01*
X123135555Y-88358879D01*
X123047428Y-88242178D01*
X122886431Y-88095411D01*
X122886430Y-88095410D01*
X122701219Y-87980732D01*
X122701204Y-87980725D01*
X122498073Y-87902031D01*
X122498074Y-87902031D01*
X122498069Y-87902030D01*
X122283926Y-87862000D01*
X122066074Y-87862000D01*
X121904479Y-87892207D01*
X121851925Y-87902031D01*
X121648795Y-87980725D01*
X121648780Y-87980732D01*
X121463569Y-88095410D01*
X121463568Y-88095411D01*
X121302571Y-88242178D01*
X121171289Y-88416026D01*
X121074183Y-88611041D01*
X121074180Y-88611049D01*
X121014564Y-88820578D01*
X120994464Y-89037495D01*
X115163111Y-89037495D01*
X115166638Y-87016512D01*
X132124500Y-87016512D01*
X132124500Y-88783488D01*
X132140281Y-88883126D01*
X132170876Y-88943173D01*
X132195929Y-88992343D01*
X132201472Y-89003220D01*
X132296780Y-89098528D01*
X132416874Y-89159719D01*
X132516512Y-89175500D01*
X132516515Y-89175500D01*
X134283485Y-89175500D01*
X134283488Y-89175500D01*
X134383126Y-89159719D01*
X134503220Y-89098528D01*
X134598528Y-89003220D01*
X134659719Y-88883126D01*
X134675500Y-88783488D01*
X134675500Y-87016512D01*
X134659719Y-86916874D01*
X134598528Y-86796780D01*
X134503220Y-86701472D01*
X134503219Y-86701471D01*
X134432829Y-86665606D01*
X134383126Y-86640281D01*
X134283488Y-86624500D01*
X132516512Y-86624500D01*
X132416874Y-86640281D01*
X132416872Y-86640281D01*
X132416872Y-86640282D01*
X132296780Y-86701471D01*
X132201471Y-86796780D01*
X132169651Y-86859232D01*
X132140281Y-86916874D01*
X132124500Y-87016512D01*
X115166638Y-87016512D01*
X115171627Y-84157495D01*
X120994464Y-84157495D01*
X120994464Y-84157504D01*
X121014564Y-84374421D01*
X121014565Y-84374423D01*
X121074183Y-84583959D01*
X121171288Y-84778972D01*
X121171289Y-84778973D01*
X121302571Y-84952821D01*
X121463568Y-85099588D01*
X121463569Y-85099589D01*
X121648780Y-85214267D01*
X121648787Y-85214270D01*
X121648790Y-85214272D01*
X121648794Y-85214273D01*
X121648795Y-85214274D01*
X121851926Y-85292968D01*
X121851931Y-85292970D01*
X122066074Y-85333000D01*
X122066076Y-85333000D01*
X122283924Y-85333000D01*
X122283926Y-85333000D01*
X122498069Y-85292970D01*
X122701210Y-85214272D01*
X122701215Y-85214268D01*
X122701219Y-85214267D01*
X122844582Y-85125500D01*
X122886432Y-85099588D01*
X123047427Y-84952822D01*
X123178712Y-84778972D01*
X123275817Y-84583959D01*
X123335435Y-84374423D01*
X123355536Y-84157500D01*
X123335435Y-83940577D01*
X123275817Y-83731041D01*
X123178712Y-83536028D01*
X123076625Y-83400842D01*
X123047428Y-83362178D01*
X122886431Y-83215411D01*
X122886430Y-83215410D01*
X122701219Y-83100732D01*
X122701204Y-83100725D01*
X122498073Y-83022031D01*
X122498074Y-83022031D01*
X122498069Y-83022030D01*
X122283926Y-82982000D01*
X122066074Y-82982000D01*
X121904479Y-83012207D01*
X121851925Y-83022031D01*
X121648795Y-83100725D01*
X121648780Y-83100732D01*
X121463569Y-83215410D01*
X121463568Y-83215411D01*
X121302571Y-83362178D01*
X121171289Y-83536026D01*
X121074183Y-83731041D01*
X121074180Y-83731049D01*
X121014564Y-83940578D01*
X120994464Y-84157495D01*
X115171627Y-84157495D01*
X115192835Y-72005324D01*
X124597041Y-72005324D01*
X124597041Y-72005337D01*
X124616854Y-72320275D01*
X124616856Y-72320292D01*
X124675989Y-72630273D01*
X124675992Y-72630286D01*
X124773509Y-72930410D01*
X124773513Y-72930419D01*
X124907875Y-73215953D01*
X124907882Y-73215967D01*
X125076969Y-73482406D01*
X125076971Y-73482409D01*
X125166042Y-73590077D01*
X125813367Y-72942752D01*
X125889588Y-73047661D01*
X126067670Y-73225743D01*
X126172576Y-73301962D01*
X125522522Y-73952017D01*
X125522522Y-73952019D01*
X125763482Y-74127087D01*
X126040034Y-74279123D01*
X126333460Y-74395299D01*
X126333466Y-74395301D01*
X126639103Y-74473775D01*
X126639130Y-74473780D01*
X126952195Y-74513329D01*
X126952214Y-74513331D01*
X127267786Y-74513331D01*
X127267804Y-74513329D01*
X127580869Y-74473780D01*
X127580896Y-74473775D01*
X127886533Y-74395301D01*
X127886539Y-74395299D01*
X128179965Y-74279123D01*
X128456512Y-74127090D01*
X128697476Y-73952019D01*
X128697476Y-73952017D01*
X128047422Y-73301962D01*
X128152330Y-73225743D01*
X128330412Y-73047661D01*
X128406632Y-72942753D01*
X129053956Y-73590077D01*
X129143030Y-73482406D01*
X129143033Y-73482402D01*
X129312117Y-73215967D01*
X129312124Y-73215953D01*
X129446486Y-72930419D01*
X129446490Y-72930410D01*
X129544007Y-72630286D01*
X129544010Y-72630273D01*
X129603143Y-72320292D01*
X129603145Y-72320275D01*
X129604085Y-72305331D01*
X132757004Y-72305331D01*
X132776951Y-72533333D01*
X132836186Y-72754399D01*
X132836188Y-72754404D01*
X132932913Y-72961832D01*
X132982899Y-73033219D01*
X133585841Y-72430277D01*
X133604075Y-72498324D01*
X133669901Y-72612338D01*
X133762993Y-72705430D01*
X133877007Y-72771256D01*
X133945051Y-72789488D01*
X133342110Y-73392429D01*
X133342110Y-73392431D01*
X133413498Y-73442417D01*
X133620926Y-73539142D01*
X133620931Y-73539144D01*
X133841999Y-73598379D01*
X133841995Y-73598379D01*
X134070000Y-73618326D01*
X134298002Y-73598379D01*
X134519068Y-73539144D01*
X134519073Y-73539142D01*
X134726497Y-73442419D01*
X134797888Y-73392430D01*
X134797888Y-73392428D01*
X134194948Y-72789488D01*
X134262993Y-72771256D01*
X134377007Y-72705430D01*
X134470099Y-72612338D01*
X134535925Y-72498324D01*
X134554157Y-72430279D01*
X135157097Y-73033219D01*
X135157099Y-73033219D01*
X135207088Y-72961828D01*
X135303811Y-72754404D01*
X135303813Y-72754399D01*
X135363048Y-72533333D01*
X135370886Y-72443739D01*
X135396749Y-72377621D01*
X135454252Y-72335981D01*
X135525139Y-72332040D01*
X135586904Y-72367049D01*
X135619937Y-72429893D01*
X135621927Y-72443738D01*
X135628506Y-72518939D01*
X135628507Y-72518945D01*
X135684007Y-72726076D01*
X135684009Y-72726081D01*
X135720964Y-72805331D01*
X135774632Y-72920422D01*
X135803628Y-72961832D01*
X135897627Y-73096076D01*
X135897630Y-73096080D01*
X136049250Y-73247700D01*
X136049254Y-73247703D01*
X136049255Y-73247704D01*
X136210771Y-73360799D01*
X136255099Y-73416256D01*
X136264500Y-73464012D01*
X136264500Y-74864234D01*
X136264500Y-75015766D01*
X136293209Y-75122911D01*
X136303718Y-75162132D01*
X136303721Y-75162139D01*
X136379482Y-75293361D01*
X136379484Y-75293363D01*
X136379485Y-75293365D01*
X137239485Y-76153365D01*
X137346635Y-76260515D01*
X137477865Y-76336281D01*
X137624234Y-76375500D01*
X145209430Y-76375500D01*
X145277551Y-76395502D01*
X145298525Y-76412405D01*
X145887595Y-77001475D01*
X145921621Y-77063787D01*
X145924500Y-77090570D01*
X145924500Y-86518562D01*
X145904498Y-86586683D01*
X145850842Y-86633176D01*
X145780568Y-86643280D01*
X145715988Y-86613786D01*
X145709405Y-86607657D01*
X145703219Y-86601471D01*
X145643173Y-86570876D01*
X145583126Y-86540281D01*
X145483488Y-86524500D01*
X143716512Y-86524500D01*
X143616874Y-86540281D01*
X143616872Y-86540281D01*
X143616872Y-86540282D01*
X143496780Y-86601471D01*
X143401471Y-86696780D01*
X143373276Y-86752117D01*
X143340281Y-86816874D01*
X143324500Y-86916512D01*
X143324500Y-88683488D01*
X143340281Y-88783126D01*
X143367710Y-88836958D01*
X143391233Y-88883126D01*
X143401472Y-88903220D01*
X143496780Y-88998528D01*
X143616874Y-89059719D01*
X143716512Y-89075500D01*
X143716515Y-89075500D01*
X145483485Y-89075500D01*
X145483488Y-89075500D01*
X145583126Y-89059719D01*
X145703220Y-88998528D01*
X145709405Y-88992343D01*
X145771717Y-88958317D01*
X145842532Y-88963382D01*
X145899368Y-89005929D01*
X145924179Y-89072449D01*
X145924500Y-89081438D01*
X145924500Y-92909473D01*
X145904498Y-92977594D01*
X145850842Y-93024087D01*
X145849754Y-93024578D01*
X145834979Y-93031156D01*
X145834976Y-93031158D01*
X145694590Y-93133154D01*
X145578479Y-93262109D01*
X145578479Y-93262110D01*
X145491712Y-93412391D01*
X145438094Y-93577416D01*
X145438093Y-93577420D01*
X145438092Y-93577424D01*
X145419953Y-93750000D01*
X145438092Y-93922576D01*
X145438093Y-93922579D01*
X145438094Y-93922583D01*
X145491712Y-94087608D01*
X145503037Y-94107223D01*
X145578478Y-94237889D01*
X145694590Y-94366845D01*
X145827386Y-94463328D01*
X145865631Y-94512923D01*
X145868135Y-94511510D01*
X145939016Y-94515564D01*
X145947923Y-94519130D01*
X145993496Y-94539420D01*
X145993501Y-94539422D01*
X146163236Y-94575500D01*
X146336764Y-94575500D01*
X146506499Y-94539422D01*
X146665024Y-94468842D01*
X146805410Y-94366845D01*
X146921522Y-94237889D01*
X147008286Y-94087611D01*
X147061908Y-93922576D01*
X147080047Y-93750000D01*
X147068053Y-93635891D01*
X147071657Y-93590107D01*
X147075500Y-93575766D01*
X147075500Y-91251500D01*
X147095502Y-91183379D01*
X147149158Y-91136886D01*
X147201500Y-91125500D01*
X147337264Y-91125500D01*
X147506999Y-91089422D01*
X147665524Y-91018842D01*
X147805910Y-90916845D01*
X147922022Y-90787889D01*
X148008786Y-90637611D01*
X148062408Y-90472576D01*
X148080547Y-90300000D01*
X148062408Y-90127424D01*
X148014374Y-89979588D01*
X148008787Y-89962391D01*
X148008786Y-89962389D01*
X147922022Y-89812111D01*
X147858363Y-89741410D01*
X147827646Y-89677402D01*
X147826000Y-89657100D01*
X147826000Y-87745999D01*
X149243455Y-87745999D01*
X149243456Y-87746000D01*
X150149297Y-87746000D01*
X150114075Y-87807007D01*
X150080000Y-87934174D01*
X150080000Y-88065826D01*
X150114075Y-88192993D01*
X150149297Y-88254000D01*
X149243455Y-88254000D01*
X149291176Y-88442449D01*
X149291179Y-88442456D01*
X149381580Y-88648548D01*
X149504674Y-88836958D01*
X149657097Y-89002534D01*
X149834698Y-89140767D01*
X149834699Y-89140768D01*
X150032628Y-89247882D01*
X150032630Y-89247883D01*
X150245483Y-89320955D01*
X150245492Y-89320957D01*
X150326000Y-89334391D01*
X150326000Y-88430702D01*
X150387007Y-88465925D01*
X150514174Y-88500000D01*
X150645826Y-88500000D01*
X150772993Y-88465925D01*
X150834000Y-88430702D01*
X150834000Y-89334390D01*
X150914507Y-89320957D01*
X150914516Y-89320955D01*
X151127369Y-89247883D01*
X151127371Y-89247882D01*
X151325300Y-89140768D01*
X151325301Y-89140767D01*
X151502902Y-89002534D01*
X151655325Y-88836958D01*
X151778418Y-88648550D01*
X151781245Y-88642106D01*
X151826924Y-88587756D01*
X151894736Y-88566730D01*
X151963150Y-88585704D01*
X152007850Y-88635747D01*
X152008414Y-88635422D01*
X152009974Y-88638125D01*
X152010446Y-88638653D01*
X152010827Y-88639462D01*
X152011164Y-88640185D01*
X152111506Y-88783488D01*
X152139178Y-88823007D01*
X152296993Y-88980822D01*
X152479814Y-89108835D01*
X152682087Y-89203156D01*
X152897666Y-89260920D01*
X153120000Y-89280372D01*
X153342334Y-89260920D01*
X153557913Y-89203156D01*
X153760186Y-89108835D01*
X153943007Y-88980822D01*
X154100822Y-88823007D01*
X154228835Y-88640186D01*
X154275805Y-88539457D01*
X154322722Y-88486173D01*
X154390999Y-88466712D01*
X154458959Y-88487254D01*
X154504194Y-88539457D01*
X154516912Y-88566730D01*
X154551165Y-88640186D01*
X154651503Y-88783484D01*
X154679178Y-88823007D01*
X154836993Y-88980822D01*
X155019814Y-89108835D01*
X155222087Y-89203156D01*
X155437666Y-89260920D01*
X155660000Y-89280372D01*
X155882334Y-89260920D01*
X156097913Y-89203156D01*
X156300186Y-89108835D01*
X156483007Y-88980822D01*
X156640822Y-88823007D01*
X156695287Y-88745222D01*
X156750744Y-88700895D01*
X156821363Y-88693586D01*
X156884724Y-88725617D01*
X156920709Y-88786818D01*
X156924500Y-88817494D01*
X156924500Y-88883488D01*
X156940281Y-88983126D01*
X156951900Y-89005929D01*
X156990373Y-89081438D01*
X157001472Y-89103220D01*
X157096780Y-89198528D01*
X157216874Y-89259719D01*
X157316512Y-89275500D01*
X157498500Y-89275500D01*
X157566621Y-89295502D01*
X157613114Y-89349158D01*
X157624500Y-89401500D01*
X157624500Y-89609430D01*
X157604498Y-89677551D01*
X157587595Y-89698525D01*
X156698525Y-90587595D01*
X156636213Y-90621621D01*
X156609430Y-90624500D01*
X152048736Y-90624500D01*
X151980615Y-90604498D01*
X151960481Y-90587386D01*
X151960315Y-90587572D01*
X151955407Y-90583152D01*
X151815024Y-90481158D01*
X151656499Y-90410578D01*
X151486764Y-90374500D01*
X151313236Y-90374500D01*
X151143503Y-90410577D01*
X150984978Y-90481157D01*
X150984976Y-90481158D01*
X150844590Y-90583154D01*
X150728479Y-90712109D01*
X150728479Y-90712110D01*
X150641712Y-90862391D01*
X150588094Y-91027416D01*
X150588093Y-91027420D01*
X150588092Y-91027424D01*
X150569953Y-91200000D01*
X150588092Y-91372576D01*
X150588093Y-91372579D01*
X150588094Y-91372583D01*
X150641712Y-91537608D01*
X150641714Y-91537611D01*
X150728478Y-91687889D01*
X150844590Y-91816845D01*
X150984976Y-91918842D01*
X151143501Y-91989422D01*
X151313236Y-92025500D01*
X151486764Y-92025500D01*
X151656499Y-91989422D01*
X151815024Y-91918842D01*
X151955410Y-91816845D01*
X151955413Y-91816841D01*
X151960315Y-91812428D01*
X151961210Y-91813422D01*
X152015551Y-91779949D01*
X152048736Y-91775500D01*
X156975764Y-91775500D01*
X156975766Y-91775500D01*
X157122135Y-91736281D01*
X157253365Y-91660515D01*
X158660515Y-90253365D01*
X158736281Y-90122135D01*
X158775500Y-89975766D01*
X158775500Y-89824233D01*
X158775500Y-89401500D01*
X158795502Y-89333379D01*
X158849158Y-89286886D01*
X158901500Y-89275500D01*
X159083485Y-89275500D01*
X159083488Y-89275500D01*
X159183126Y-89259719D01*
X159303220Y-89198528D01*
X159386342Y-89115406D01*
X175652000Y-89115406D01*
X175652000Y-90804594D01*
X175658185Y-90872657D01*
X175706410Y-91027416D01*
X175706989Y-91029273D01*
X175791849Y-91169650D01*
X175791857Y-91169660D01*
X175907839Y-91285642D01*
X175907844Y-91285646D01*
X175907846Y-91285648D01*
X175907848Y-91285649D01*
X175907849Y-91285650D01*
X176048226Y-91370510D01*
X176048227Y-91370510D01*
X176048230Y-91370512D01*
X176204843Y-91419315D01*
X176272906Y-91425500D01*
X176272909Y-91425500D01*
X179482091Y-91425500D01*
X179482094Y-91425500D01*
X179550157Y-91419315D01*
X179706770Y-91370512D01*
X179847154Y-91285648D01*
X179963148Y-91169654D01*
X180048012Y-91029270D01*
X180096815Y-90872657D01*
X180103000Y-90804594D01*
X180103000Y-89115406D01*
X180096815Y-89047343D01*
X180048012Y-88890730D01*
X180043634Y-88883488D01*
X179963150Y-88750349D01*
X179963142Y-88750339D01*
X179847160Y-88634357D01*
X179847150Y-88634349D01*
X179706773Y-88549489D01*
X179706770Y-88549488D01*
X179550157Y-88500685D01*
X179550153Y-88500684D01*
X179550151Y-88500684D01*
X179507599Y-88496817D01*
X179482094Y-88494500D01*
X176272906Y-88494500D01*
X176250233Y-88496560D01*
X176204848Y-88500684D01*
X176204845Y-88500684D01*
X176204843Y-88500685D01*
X176096205Y-88534538D01*
X176048226Y-88549489D01*
X175907849Y-88634349D01*
X175907839Y-88634357D01*
X175791857Y-88750339D01*
X175791849Y-88750349D01*
X175706989Y-88890726D01*
X175706988Y-88890730D01*
X175658185Y-89047343D01*
X175658184Y-89047345D01*
X175658184Y-89047348D01*
X175655626Y-89075500D01*
X175652000Y-89115406D01*
X159386342Y-89115406D01*
X159398528Y-89103220D01*
X159459719Y-88983126D01*
X159475500Y-88883488D01*
X159475500Y-87116512D01*
X159459719Y-87016874D01*
X159398528Y-86896780D01*
X159303220Y-86801472D01*
X159303219Y-86801471D01*
X159206353Y-86752116D01*
X159183126Y-86740281D01*
X159083488Y-86724500D01*
X157316512Y-86724500D01*
X157216874Y-86740281D01*
X157216872Y-86740281D01*
X157216872Y-86740282D01*
X157096780Y-86801471D01*
X157001471Y-86896780D01*
X156950170Y-86997465D01*
X156940281Y-87016874D01*
X156939916Y-87019180D01*
X156924500Y-87116515D01*
X156924500Y-87182505D01*
X156904498Y-87250626D01*
X156850842Y-87297119D01*
X156780568Y-87307223D01*
X156715988Y-87277729D01*
X156695287Y-87254776D01*
X156640824Y-87176996D01*
X156640819Y-87176990D01*
X156483009Y-87019180D01*
X156483003Y-87019175D01*
X156300186Y-86891165D01*
X156097916Y-86796845D01*
X156097911Y-86796843D01*
X155997860Y-86770034D01*
X155882334Y-86739080D01*
X155660000Y-86719628D01*
X155437666Y-86739080D01*
X155389015Y-86752116D01*
X155222088Y-86796843D01*
X155222083Y-86796845D01*
X155019813Y-86891165D01*
X154836996Y-87019175D01*
X154836990Y-87019180D01*
X154679180Y-87176990D01*
X154679175Y-87176996D01*
X154551165Y-87359813D01*
X154504195Y-87460541D01*
X154457278Y-87513826D01*
X154389000Y-87533287D01*
X154321040Y-87512745D01*
X154275805Y-87460541D01*
X154229299Y-87360810D01*
X154228835Y-87359814D01*
X154100822Y-87176993D01*
X153943007Y-87019178D01*
X153796389Y-86916515D01*
X153760186Y-86891165D01*
X153557916Y-86796845D01*
X153557911Y-86796843D01*
X153457860Y-86770034D01*
X153342334Y-86739080D01*
X153120000Y-86719628D01*
X152897666Y-86739080D01*
X152849015Y-86752116D01*
X152682088Y-86796843D01*
X152682083Y-86796845D01*
X152479813Y-86891165D01*
X152296996Y-87019175D01*
X152296990Y-87019180D01*
X152139180Y-87176990D01*
X152139175Y-87176996D01*
X152011162Y-87359816D01*
X152011161Y-87359818D01*
X152010823Y-87360545D01*
X152010589Y-87360810D01*
X152008414Y-87364578D01*
X152007656Y-87364140D01*
X151963901Y-87413825D01*
X151895621Y-87433279D01*
X151827664Y-87412730D01*
X151781603Y-87358703D01*
X151781247Y-87357897D01*
X151778419Y-87351451D01*
X151655325Y-87163041D01*
X151502902Y-86997465D01*
X151325301Y-86859232D01*
X151325300Y-86859231D01*
X151127371Y-86752117D01*
X151127369Y-86752116D01*
X150914512Y-86679043D01*
X150914501Y-86679040D01*
X150834000Y-86665606D01*
X150834000Y-87569297D01*
X150772993Y-87534075D01*
X150645826Y-87500000D01*
X150514174Y-87500000D01*
X150387007Y-87534075D01*
X150326000Y-87569297D01*
X150326000Y-86665607D01*
X150325999Y-86665606D01*
X150245498Y-86679040D01*
X150245487Y-86679043D01*
X150032630Y-86752116D01*
X150032628Y-86752117D01*
X149834699Y-86859231D01*
X149834698Y-86859232D01*
X149657097Y-86997465D01*
X149504674Y-87163041D01*
X149381580Y-87351451D01*
X149291179Y-87557543D01*
X149291176Y-87557550D01*
X149243455Y-87745999D01*
X147826000Y-87745999D01*
X147826000Y-86340070D01*
X147846002Y-86271949D01*
X147862905Y-86250975D01*
X148101475Y-86012405D01*
X148163787Y-85978379D01*
X148190570Y-85975500D01*
X148551264Y-85975500D01*
X148619385Y-85995502D01*
X148639518Y-86012613D01*
X148639685Y-86012428D01*
X148644592Y-86016847D01*
X148694855Y-86053365D01*
X148784976Y-86118842D01*
X148943501Y-86189422D01*
X149113236Y-86225500D01*
X149286764Y-86225500D01*
X149456499Y-86189422D01*
X149615024Y-86118842D01*
X149755410Y-86016845D01*
X149871522Y-85887889D01*
X149958286Y-85737611D01*
X150011908Y-85572576D01*
X150030047Y-85400000D01*
X150011908Y-85227424D01*
X149970373Y-85099589D01*
X149958287Y-85062391D01*
X149955600Y-85056355D01*
X149957343Y-85055578D01*
X149942766Y-84995518D01*
X149965980Y-84928423D01*
X150021782Y-84884530D01*
X150068624Y-84875500D01*
X164900764Y-84875500D01*
X164900766Y-84875500D01*
X165047135Y-84836281D01*
X165178365Y-84760515D01*
X166551475Y-83387405D01*
X166613787Y-83353380D01*
X166640570Y-83350500D01*
X166686764Y-83350500D01*
X166856499Y-83314422D01*
X167015024Y-83243842D01*
X167155410Y-83141845D01*
X167271522Y-83012889D01*
X167358286Y-82862611D01*
X167411908Y-82697576D01*
X167430047Y-82525000D01*
X167411908Y-82352424D01*
X167358286Y-82187389D01*
X167271522Y-82037111D01*
X167155410Y-81908155D01*
X167147673Y-81902534D01*
X167015024Y-81806158D01*
X166856499Y-81735578D01*
X166686764Y-81699500D01*
X166513236Y-81699500D01*
X166343503Y-81735577D01*
X166184978Y-81806157D01*
X166184976Y-81806158D01*
X166044590Y-81908154D01*
X165928479Y-82037109D01*
X165928478Y-82037111D01*
X165926367Y-82040768D01*
X165841712Y-82187391D01*
X165788094Y-82352416D01*
X165788093Y-82352419D01*
X165772718Y-82498692D01*
X165745704Y-82564348D01*
X165736503Y-82574615D01*
X164623523Y-83687596D01*
X164561213Y-83721620D01*
X164534430Y-83724500D01*
X147898236Y-83724500D01*
X147830115Y-83704498D01*
X147809981Y-83687386D01*
X147809815Y-83687572D01*
X147804907Y-83683152D01*
X147664524Y-83581158D01*
X147505999Y-83510578D01*
X147336264Y-83474500D01*
X147201500Y-83474500D01*
X147133379Y-83454498D01*
X147086886Y-83400842D01*
X147075500Y-83348500D01*
X147075500Y-80645999D01*
X149308455Y-80645999D01*
X149308456Y-80646000D01*
X150214297Y-80646000D01*
X150179075Y-80707007D01*
X150145000Y-80834174D01*
X150145000Y-80965826D01*
X150179075Y-81092993D01*
X150214297Y-81154000D01*
X149308455Y-81154000D01*
X149356176Y-81342449D01*
X149356179Y-81342456D01*
X149446580Y-81548548D01*
X149569674Y-81736958D01*
X149722097Y-81902534D01*
X149899698Y-82040767D01*
X149899699Y-82040768D01*
X150097628Y-82147882D01*
X150097630Y-82147883D01*
X150310483Y-82220955D01*
X150310492Y-82220957D01*
X150391000Y-82234391D01*
X150391000Y-81330702D01*
X150452007Y-81365925D01*
X150579174Y-81400000D01*
X150710826Y-81400000D01*
X150837993Y-81365925D01*
X150899000Y-81330702D01*
X150899000Y-82234390D01*
X150979507Y-82220957D01*
X150979516Y-82220955D01*
X151192369Y-82147883D01*
X151192371Y-82147882D01*
X151390300Y-82040768D01*
X151390301Y-82040767D01*
X151567902Y-81902534D01*
X151720325Y-81736958D01*
X151843418Y-81548550D01*
X151846245Y-81542106D01*
X151891924Y-81487756D01*
X151959736Y-81466730D01*
X152028150Y-81485704D01*
X152072850Y-81535747D01*
X152073414Y-81535422D01*
X152074974Y-81538125D01*
X152075446Y-81538653D01*
X152075827Y-81539462D01*
X152076164Y-81540185D01*
X152149713Y-81645223D01*
X152204178Y-81723007D01*
X152361993Y-81880822D01*
X152544814Y-82008835D01*
X152747087Y-82103156D01*
X152962666Y-82160920D01*
X153185000Y-82180372D01*
X153407334Y-82160920D01*
X153622913Y-82103156D01*
X153825186Y-82008835D01*
X154008007Y-81880822D01*
X154165822Y-81723007D01*
X154220287Y-81645222D01*
X154275744Y-81600895D01*
X154346363Y-81593586D01*
X154409724Y-81625617D01*
X154445709Y-81686818D01*
X154449500Y-81717494D01*
X154449500Y-81783488D01*
X154465281Y-81883126D01*
X154526472Y-82003220D01*
X154621780Y-82098528D01*
X154741874Y-82159719D01*
X154841512Y-82175500D01*
X154841515Y-82175500D01*
X156608485Y-82175500D01*
X156608488Y-82175500D01*
X156708126Y-82159719D01*
X156828220Y-82098528D01*
X156923528Y-82003220D01*
X156984719Y-81883126D01*
X157000500Y-81783488D01*
X157000500Y-80044049D01*
X174242000Y-80044049D01*
X174242000Y-80355951D01*
X174264800Y-80499901D01*
X174275932Y-80570187D01*
X174324149Y-80718584D01*
X174342957Y-80776468D01*
X174342958Y-80776469D01*
X174441430Y-80969731D01*
X174568920Y-81145208D01*
X174722291Y-81298579D01*
X174808901Y-81361504D01*
X174897771Y-81426071D01*
X175091032Y-81524543D01*
X175297312Y-81591567D01*
X175297313Y-81591567D01*
X175297318Y-81591569D01*
X175511549Y-81625500D01*
X175511552Y-81625500D01*
X175728448Y-81625500D01*
X175728451Y-81625500D01*
X175942682Y-81591569D01*
X176148968Y-81524543D01*
X176342229Y-81426071D01*
X176517707Y-81298580D01*
X176671080Y-81145207D01*
X176737076Y-81054369D01*
X176793297Y-81011017D01*
X176864033Y-81004940D01*
X176926825Y-81038071D01*
X176940948Y-81054370D01*
X177045995Y-81198954D01*
X177045997Y-81198957D01*
X177208542Y-81361502D01*
X177208545Y-81361504D01*
X177394527Y-81496628D01*
X177599361Y-81600996D01*
X177599367Y-81600999D01*
X177817993Y-81672035D01*
X177906000Y-81685974D01*
X177906000Y-80688438D01*
X177947708Y-80712518D01*
X178087591Y-80750000D01*
X178232409Y-80750000D01*
X178372292Y-80712518D01*
X178414000Y-80688438D01*
X178414000Y-81685974D01*
X178502006Y-81672035D01*
X178720632Y-81600999D01*
X178720638Y-81600996D01*
X178925472Y-81496628D01*
X179111452Y-81361506D01*
X179148334Y-81324624D01*
X179210646Y-81290598D01*
X179281462Y-81295662D01*
X179338298Y-81338208D01*
X179349698Y-81356515D01*
X179398972Y-81453220D01*
X179494280Y-81548528D01*
X179614374Y-81609719D01*
X179714012Y-81625500D01*
X179714015Y-81625500D01*
X181685985Y-81625500D01*
X181685988Y-81625500D01*
X181785626Y-81609719D01*
X181905720Y-81548528D01*
X182001028Y-81453220D01*
X182062219Y-81333126D01*
X182078000Y-81233488D01*
X182078000Y-79166512D01*
X182062219Y-79066874D01*
X182001028Y-78946780D01*
X181905720Y-78851472D01*
X181905719Y-78851471D01*
X181821247Y-78808431D01*
X181785626Y-78790281D01*
X181685988Y-78774500D01*
X179714012Y-78774500D01*
X179614374Y-78790281D01*
X179614372Y-78790281D01*
X179614372Y-78790282D01*
X179494280Y-78851471D01*
X179398973Y-78946778D01*
X179398969Y-78946783D01*
X179349697Y-79043485D01*
X179300949Y-79095100D01*
X179232034Y-79112165D01*
X179164832Y-79089264D01*
X179148336Y-79075376D01*
X179111457Y-79038497D01*
X179111454Y-79038495D01*
X178925472Y-78903371D01*
X178720638Y-78799003D01*
X178720632Y-78799000D01*
X178502000Y-78727962D01*
X178414000Y-78714023D01*
X178414000Y-79711561D01*
X178372292Y-79687482D01*
X178232409Y-79650000D01*
X178087591Y-79650000D01*
X177947708Y-79687482D01*
X177906000Y-79711561D01*
X177906000Y-78714023D01*
X177817999Y-78727962D01*
X177599367Y-78799000D01*
X177599361Y-78799003D01*
X177394527Y-78903371D01*
X177208545Y-79038495D01*
X177208542Y-79038497D01*
X177045994Y-79201045D01*
X176940948Y-79345629D01*
X176884725Y-79388983D01*
X176813989Y-79395058D01*
X176751197Y-79361926D01*
X176737075Y-79345628D01*
X176671079Y-79254791D01*
X176517708Y-79101420D01*
X176342231Y-78973930D01*
X176288942Y-78946778D01*
X176148968Y-78875457D01*
X176148965Y-78875456D01*
X176148963Y-78875455D01*
X175942685Y-78808432D01*
X175942689Y-78808432D01*
X175883137Y-78799000D01*
X175728451Y-78774500D01*
X175511549Y-78774500D01*
X175297318Y-78808431D01*
X175297312Y-78808432D01*
X175091036Y-78875455D01*
X175091030Y-78875458D01*
X174897768Y-78973930D01*
X174722291Y-79101420D01*
X174568920Y-79254791D01*
X174441430Y-79430268D01*
X174342958Y-79623530D01*
X174342955Y-79623536D01*
X174275932Y-79829812D01*
X174275931Y-79829817D01*
X174275931Y-79829818D01*
X174242000Y-80044049D01*
X157000500Y-80044049D01*
X157000500Y-80016512D01*
X156984719Y-79916874D01*
X156923528Y-79796780D01*
X156828220Y-79701472D01*
X156828219Y-79701471D01*
X156731353Y-79652116D01*
X156708126Y-79640281D01*
X156608488Y-79624500D01*
X154841512Y-79624500D01*
X154741874Y-79640281D01*
X154741872Y-79640281D01*
X154741872Y-79640282D01*
X154621780Y-79701471D01*
X154526471Y-79796780D01*
X154475170Y-79897465D01*
X154465281Y-79916874D01*
X154449500Y-80016512D01*
X154449500Y-80016515D01*
X154449500Y-80082505D01*
X154429498Y-80150626D01*
X154375842Y-80197119D01*
X154305568Y-80207223D01*
X154240988Y-80177729D01*
X154220287Y-80154776D01*
X154165824Y-80076996D01*
X154165819Y-80076990D01*
X154008009Y-79919180D01*
X154008003Y-79919175D01*
X153825186Y-79791165D01*
X153622916Y-79696845D01*
X153622911Y-79696843D01*
X153522860Y-79670034D01*
X153407334Y-79639080D01*
X153185000Y-79619628D01*
X152962666Y-79639080D01*
X152921912Y-79650000D01*
X152747088Y-79696843D01*
X152747083Y-79696845D01*
X152544813Y-79791165D01*
X152361996Y-79919175D01*
X152361990Y-79919180D01*
X152204180Y-80076990D01*
X152204175Y-80076996D01*
X152076162Y-80259816D01*
X152076161Y-80259818D01*
X152075823Y-80260545D01*
X152075589Y-80260810D01*
X152073414Y-80264578D01*
X152072656Y-80264140D01*
X152028901Y-80313825D01*
X151960621Y-80333279D01*
X151892664Y-80312730D01*
X151846603Y-80258703D01*
X151846247Y-80257897D01*
X151843419Y-80251451D01*
X151720325Y-80063041D01*
X151567902Y-79897465D01*
X151390301Y-79759232D01*
X151390300Y-79759231D01*
X151192371Y-79652117D01*
X151192369Y-79652116D01*
X150979512Y-79579043D01*
X150979501Y-79579040D01*
X150899000Y-79565606D01*
X150899000Y-80469297D01*
X150837993Y-80434075D01*
X150710826Y-80400000D01*
X150579174Y-80400000D01*
X150452007Y-80434075D01*
X150391000Y-80469297D01*
X150391000Y-79565607D01*
X150390999Y-79565606D01*
X150310498Y-79579040D01*
X150310487Y-79579043D01*
X150097630Y-79652116D01*
X150097628Y-79652117D01*
X149899699Y-79759231D01*
X149899698Y-79759232D01*
X149722097Y-79897465D01*
X149569674Y-80063041D01*
X149446580Y-80251451D01*
X149356179Y-80457543D01*
X149356176Y-80457550D01*
X149308455Y-80645999D01*
X147075500Y-80645999D01*
X147075500Y-76724235D01*
X147075500Y-76724234D01*
X147036281Y-76577865D01*
X146960515Y-76446635D01*
X146853365Y-76339485D01*
X146667244Y-76153364D01*
X145853371Y-75339490D01*
X145853361Y-75339482D01*
X145722139Y-75263721D01*
X145722136Y-75263720D01*
X145722135Y-75263719D01*
X145722133Y-75263718D01*
X145722132Y-75263718D01*
X145682911Y-75253209D01*
X145575766Y-75224500D01*
X145575764Y-75224500D01*
X137990570Y-75224500D01*
X137922449Y-75204498D01*
X137901475Y-75187595D01*
X137452405Y-74738525D01*
X137418379Y-74676213D01*
X137415500Y-74649430D01*
X137415500Y-73464012D01*
X137435502Y-73395891D01*
X137469227Y-73360800D01*
X137630745Y-73247704D01*
X137782373Y-73096076D01*
X137905368Y-72920422D01*
X137995992Y-72726078D01*
X138051492Y-72518950D01*
X138058072Y-72443735D01*
X138083934Y-72377621D01*
X138141437Y-72335981D01*
X138212324Y-72332040D01*
X138274089Y-72367049D01*
X138307122Y-72429893D01*
X138309113Y-72443738D01*
X138316951Y-72533333D01*
X138376186Y-72754399D01*
X138376188Y-72754404D01*
X138472913Y-72961832D01*
X138522899Y-73033219D01*
X139125841Y-72430277D01*
X139144075Y-72498324D01*
X139209901Y-72612338D01*
X139302993Y-72705430D01*
X139417007Y-72771256D01*
X139485051Y-72789488D01*
X138882110Y-73392429D01*
X138882110Y-73392431D01*
X138953498Y-73442417D01*
X139160926Y-73539142D01*
X139160931Y-73539144D01*
X139381999Y-73598379D01*
X139381995Y-73598379D01*
X139610000Y-73618326D01*
X139838002Y-73598379D01*
X140059068Y-73539144D01*
X140059073Y-73539142D01*
X140266497Y-73442419D01*
X140337888Y-73392430D01*
X140337888Y-73392428D01*
X139734948Y-72789488D01*
X139802993Y-72771256D01*
X139917007Y-72705430D01*
X140010099Y-72612338D01*
X140075925Y-72498324D01*
X140094157Y-72430279D01*
X140697097Y-73033219D01*
X140697099Y-73033219D01*
X140747088Y-72961828D01*
X140843811Y-72754404D01*
X140843813Y-72754399D01*
X140903048Y-72533333D01*
X140910886Y-72443739D01*
X140936749Y-72377621D01*
X140994252Y-72335981D01*
X141065139Y-72332040D01*
X141126904Y-72367049D01*
X141159937Y-72429893D01*
X141161927Y-72443738D01*
X141168506Y-72518939D01*
X141168507Y-72518945D01*
X141224007Y-72726076D01*
X141224009Y-72726081D01*
X141260964Y-72805331D01*
X141314632Y-72920422D01*
X141343628Y-72961832D01*
X141437627Y-73096076D01*
X141437630Y-73096080D01*
X141589250Y-73247700D01*
X141589254Y-73247703D01*
X141589255Y-73247704D01*
X141764909Y-73370699D01*
X141959253Y-73461323D01*
X142166381Y-73516823D01*
X142380000Y-73535512D01*
X142593619Y-73516823D01*
X142800747Y-73461323D01*
X142995091Y-73370699D01*
X143170745Y-73247704D01*
X143322373Y-73096076D01*
X143445368Y-72920422D01*
X143535992Y-72726078D01*
X143591492Y-72518950D01*
X143610181Y-72305331D01*
X143591492Y-72091712D01*
X143535992Y-71884584D01*
X143445368Y-71690241D01*
X143322373Y-71514586D01*
X143279630Y-71471843D01*
X143924500Y-71471843D01*
X143924500Y-73138819D01*
X143940281Y-73238457D01*
X144001472Y-73358551D01*
X144096780Y-73453859D01*
X144216874Y-73515050D01*
X144316512Y-73530831D01*
X144316515Y-73530831D01*
X145983485Y-73530831D01*
X145983488Y-73530831D01*
X146083126Y-73515050D01*
X146203220Y-73453859D01*
X146298528Y-73358551D01*
X146359719Y-73238457D01*
X146375500Y-73138819D01*
X146375500Y-72005324D01*
X149597041Y-72005324D01*
X149597041Y-72005337D01*
X149616854Y-72320275D01*
X149616856Y-72320292D01*
X149675989Y-72630273D01*
X149675992Y-72630286D01*
X149773509Y-72930410D01*
X149773513Y-72930419D01*
X149907875Y-73215953D01*
X149907882Y-73215967D01*
X150076969Y-73482406D01*
X150076971Y-73482409D01*
X150166042Y-73590077D01*
X150813367Y-72942752D01*
X150889588Y-73047661D01*
X151067670Y-73225743D01*
X151172576Y-73301962D01*
X150522522Y-73952017D01*
X150522522Y-73952019D01*
X150763482Y-74127087D01*
X151040034Y-74279123D01*
X151333460Y-74395299D01*
X151333466Y-74395301D01*
X151639103Y-74473775D01*
X151639130Y-74473780D01*
X151952195Y-74513329D01*
X151952214Y-74513331D01*
X152267786Y-74513331D01*
X152267804Y-74513329D01*
X152580869Y-74473780D01*
X152580896Y-74473775D01*
X152886533Y-74395301D01*
X152886539Y-74395299D01*
X153179965Y-74279123D01*
X153456512Y-74127090D01*
X153697476Y-73952019D01*
X153697476Y-73952017D01*
X153047422Y-73301962D01*
X153152330Y-73225743D01*
X153330412Y-73047661D01*
X153406632Y-72942753D01*
X154053956Y-73590077D01*
X154143030Y-73482406D01*
X154143033Y-73482402D01*
X154312117Y-73215967D01*
X154312124Y-73215953D01*
X154446486Y-72930419D01*
X154446490Y-72930410D01*
X154544007Y-72630286D01*
X154544010Y-72630273D01*
X154603143Y-72320292D01*
X154603145Y-72320275D01*
X154622959Y-72005337D01*
X154622959Y-72005324D01*
X154603145Y-71690386D01*
X154603143Y-71690369D01*
X154544010Y-71380388D01*
X154544007Y-71380375D01*
X154446490Y-71080251D01*
X154446486Y-71080242D01*
X154312124Y-70794708D01*
X154312117Y-70794694D01*
X154143030Y-70528255D01*
X154143028Y-70528252D01*
X154053956Y-70420583D01*
X153406631Y-71067907D01*
X153330412Y-70963001D01*
X153152330Y-70784919D01*
X153047421Y-70708698D01*
X153697476Y-70058643D01*
X153697476Y-70058641D01*
X153651173Y-70025000D01*
X158167117Y-70025000D01*
X158187064Y-70253002D01*
X158246299Y-70474068D01*
X158246301Y-70474073D01*
X158343026Y-70681501D01*
X158393012Y-70752888D01*
X159080113Y-70065788D01*
X159080113Y-70077661D01*
X159107372Y-70179394D01*
X159160033Y-70270606D01*
X159234507Y-70345080D01*
X159325719Y-70397741D01*
X159427452Y-70425000D01*
X159439321Y-70425000D01*
X158752223Y-71112097D01*
X158752223Y-71112100D01*
X158823611Y-71162086D01*
X159031039Y-71258811D01*
X159031044Y-71258813D01*
X159252112Y-71318048D01*
X159252108Y-71318048D01*
X159480113Y-71337995D01*
X159708115Y-71318048D01*
X159929181Y-71258813D01*
X159929186Y-71258811D01*
X160136607Y-71162089D01*
X160214009Y-71107892D01*
X160281283Y-71085204D01*
X160350143Y-71102489D01*
X160375375Y-71122010D01*
X160426893Y-71173528D01*
X160546987Y-71234719D01*
X160646625Y-71250500D01*
X160646628Y-71250500D01*
X162313598Y-71250500D01*
X162313601Y-71250500D01*
X162413239Y-71234719D01*
X162533333Y-71173528D01*
X162628641Y-71078220D01*
X162689832Y-70958126D01*
X162705613Y-70858488D01*
X162705613Y-70150000D01*
X167162004Y-70150000D01*
X167181951Y-70378002D01*
X167241186Y-70599068D01*
X167241188Y-70599073D01*
X167337913Y-70806501D01*
X167387899Y-70877888D01*
X168075000Y-70190788D01*
X168075000Y-70202661D01*
X168102259Y-70304394D01*
X168154920Y-70395606D01*
X168229394Y-70470080D01*
X168320606Y-70522741D01*
X168422339Y-70550000D01*
X168434210Y-70550000D01*
X167747110Y-71237098D01*
X167747110Y-71237100D01*
X167818498Y-71287086D01*
X168025926Y-71383811D01*
X168025931Y-71383813D01*
X168246999Y-71443048D01*
X168246995Y-71443048D01*
X168475000Y-71462995D01*
X168703002Y-71443048D01*
X168924068Y-71383813D01*
X168924073Y-71383811D01*
X169131497Y-71287088D01*
X169202888Y-71237099D01*
X169202888Y-71237097D01*
X168515791Y-70550000D01*
X168527661Y-70550000D01*
X168629394Y-70522741D01*
X168720606Y-70470080D01*
X168795080Y-70395606D01*
X168847741Y-70304394D01*
X168875000Y-70202661D01*
X168875000Y-70190791D01*
X169562097Y-70877888D01*
X169613393Y-70873401D01*
X169682998Y-70887391D01*
X169733990Y-70936790D01*
X169748823Y-70979211D01*
X169749500Y-70983484D01*
X169749500Y-70983488D01*
X169765281Y-71083126D01*
X169795876Y-71143173D01*
X169809170Y-71169264D01*
X169826472Y-71203220D01*
X169921780Y-71298528D01*
X170041874Y-71359719D01*
X170141512Y-71375500D01*
X170141515Y-71375500D01*
X171808485Y-71375500D01*
X171808488Y-71375500D01*
X171908126Y-71359719D01*
X172028220Y-71298528D01*
X172123528Y-71203220D01*
X172184719Y-71083126D01*
X172200500Y-70983488D01*
X172200500Y-69653709D01*
X177099500Y-69653709D01*
X177099500Y-69896290D01*
X177131160Y-70136782D01*
X177193944Y-70371095D01*
X177193945Y-70371097D01*
X177193946Y-70371100D01*
X177286776Y-70595212D01*
X177286777Y-70595213D01*
X177286782Y-70595224D01*
X177408061Y-70805285D01*
X177408063Y-70805288D01*
X177408064Y-70805289D01*
X177555735Y-70997738D01*
X177555739Y-70997742D01*
X177555744Y-70997748D01*
X177727251Y-71169255D01*
X177727256Y-71169259D01*
X177727262Y-71169265D01*
X177919711Y-71316936D01*
X177919714Y-71316938D01*
X178129775Y-71438217D01*
X178129779Y-71438218D01*
X178129788Y-71438224D01*
X178353900Y-71531054D01*
X178588211Y-71593838D01*
X178588215Y-71593838D01*
X178588217Y-71593839D01*
X178650202Y-71601999D01*
X178828712Y-71625500D01*
X178828719Y-71625500D01*
X179071281Y-71625500D01*
X179071288Y-71625500D01*
X179288637Y-71596885D01*
X179311782Y-71593839D01*
X179311782Y-71593838D01*
X179311789Y-71593838D01*
X179546100Y-71531054D01*
X179770212Y-71438224D01*
X179980289Y-71316936D01*
X180172738Y-71169265D01*
X180344265Y-70997738D01*
X180491936Y-70805289D01*
X180613224Y-70595212D01*
X180706054Y-70371100D01*
X180768838Y-70136789D01*
X180800500Y-69896288D01*
X180800500Y-69653712D01*
X180770057Y-69422467D01*
X180768839Y-69413217D01*
X180768838Y-69413215D01*
X180768838Y-69413211D01*
X180706054Y-69178900D01*
X180613224Y-68954788D01*
X180613218Y-68954779D01*
X180613217Y-68954775D01*
X180491938Y-68744714D01*
X180466839Y-68712004D01*
X180344265Y-68552262D01*
X180344259Y-68552256D01*
X180344255Y-68552251D01*
X180172748Y-68380744D01*
X180172742Y-68380739D01*
X180172738Y-68380735D01*
X179980289Y-68233064D01*
X179980288Y-68233063D01*
X179980285Y-68233061D01*
X179770224Y-68111782D01*
X179770216Y-68111778D01*
X179770212Y-68111776D01*
X179546100Y-68018946D01*
X179546097Y-68018945D01*
X179546095Y-68018944D01*
X179311782Y-67956160D01*
X179071290Y-67924500D01*
X179071288Y-67924500D01*
X178828712Y-67924500D01*
X178828709Y-67924500D01*
X178588217Y-67956160D01*
X178353904Y-68018944D01*
X178353900Y-68018946D01*
X178129786Y-68111777D01*
X178129775Y-68111782D01*
X177919714Y-68233061D01*
X177727262Y-68380735D01*
X177727251Y-68380744D01*
X177555744Y-68552251D01*
X177555735Y-68552262D01*
X177408061Y-68744714D01*
X177286782Y-68954775D01*
X177286777Y-68954786D01*
X177286776Y-68954788D01*
X177241995Y-69062899D01*
X177193946Y-69178900D01*
X177193944Y-69178904D01*
X177131160Y-69413217D01*
X177099500Y-69653709D01*
X172200500Y-69653709D01*
X172200500Y-69316512D01*
X172184719Y-69216874D01*
X172123528Y-69096780D01*
X172028220Y-69001472D01*
X172028219Y-69001471D01*
X171950781Y-68962015D01*
X171908126Y-68940281D01*
X171808488Y-68924500D01*
X170141512Y-68924500D01*
X170041874Y-68940281D01*
X170041872Y-68940281D01*
X170041872Y-68940282D01*
X169921780Y-69001471D01*
X169826471Y-69096780D01*
X169765281Y-69216872D01*
X169748823Y-69320787D01*
X169718410Y-69384940D01*
X169658142Y-69422467D01*
X169613394Y-69426597D01*
X169562099Y-69422109D01*
X168875000Y-70109208D01*
X168875000Y-70097339D01*
X168847741Y-69995606D01*
X168795080Y-69904394D01*
X168720606Y-69829920D01*
X168629394Y-69777259D01*
X168527661Y-69750000D01*
X168515790Y-69750000D01*
X169202888Y-69062899D01*
X169202888Y-69062898D01*
X169131501Y-69012913D01*
X168924073Y-68916188D01*
X168924068Y-68916186D01*
X168703000Y-68856951D01*
X168703004Y-68856951D01*
X168475000Y-68837004D01*
X168246997Y-68856951D01*
X168025931Y-68916186D01*
X168025926Y-68916188D01*
X167818500Y-69012913D01*
X167747109Y-69062900D01*
X168434209Y-69750000D01*
X168422339Y-69750000D01*
X168320606Y-69777259D01*
X168229394Y-69829920D01*
X168154920Y-69904394D01*
X168102259Y-69995606D01*
X168075000Y-70097339D01*
X168075000Y-70109209D01*
X167387900Y-69422109D01*
X167337913Y-69493500D01*
X167241188Y-69700926D01*
X167241186Y-69700931D01*
X167181951Y-69921997D01*
X167162004Y-70150000D01*
X162705613Y-70150000D01*
X162705613Y-69191512D01*
X162689832Y-69091874D01*
X162628641Y-68971780D01*
X162533333Y-68876472D01*
X162533332Y-68876471D01*
X162473286Y-68845876D01*
X162413239Y-68815281D01*
X162313601Y-68799500D01*
X160646625Y-68799500D01*
X160546987Y-68815281D01*
X160546985Y-68815281D01*
X160546985Y-68815282D01*
X160426894Y-68876471D01*
X160375375Y-68927990D01*
X160313062Y-68962015D01*
X160242247Y-68956949D01*
X160214009Y-68942107D01*
X160136611Y-68887912D01*
X159929186Y-68791188D01*
X159929181Y-68791186D01*
X159708113Y-68731951D01*
X159708117Y-68731951D01*
X159480113Y-68712004D01*
X159252110Y-68731951D01*
X159031044Y-68791186D01*
X159031039Y-68791188D01*
X158823613Y-68887913D01*
X158752222Y-68937899D01*
X159439324Y-69625000D01*
X159427452Y-69625000D01*
X159325719Y-69652259D01*
X159234507Y-69704920D01*
X159160033Y-69779394D01*
X159107372Y-69870606D01*
X159080113Y-69972339D01*
X159080113Y-69984209D01*
X158393013Y-69297109D01*
X158343026Y-69368500D01*
X158246301Y-69575926D01*
X158246299Y-69575931D01*
X158187064Y-69796997D01*
X158167117Y-70025000D01*
X153651173Y-70025000D01*
X153456513Y-69883571D01*
X153179965Y-69731538D01*
X152886539Y-69615362D01*
X152886533Y-69615360D01*
X152580896Y-69536886D01*
X152580869Y-69536881D01*
X152267804Y-69497332D01*
X152267786Y-69497331D01*
X151952214Y-69497331D01*
X151952195Y-69497332D01*
X151639130Y-69536881D01*
X151639103Y-69536886D01*
X151333466Y-69615360D01*
X151333460Y-69615362D01*
X151040034Y-69731538D01*
X150763486Y-69883571D01*
X150522522Y-70058641D01*
X150522522Y-70058643D01*
X151172577Y-70708698D01*
X151067670Y-70784919D01*
X150889588Y-70963001D01*
X150813367Y-71067908D01*
X150166042Y-70420583D01*
X150076972Y-70528252D01*
X150076969Y-70528255D01*
X149907882Y-70794694D01*
X149907875Y-70794708D01*
X149773513Y-71080242D01*
X149773509Y-71080251D01*
X149675992Y-71380375D01*
X149675989Y-71380388D01*
X149616856Y-71690369D01*
X149616854Y-71690386D01*
X149597041Y-72005324D01*
X146375500Y-72005324D01*
X146375500Y-71471843D01*
X146359719Y-71372205D01*
X146298528Y-71252111D01*
X146203220Y-71156803D01*
X146203219Y-71156802D01*
X146115485Y-71112100D01*
X146083126Y-71095612D01*
X145983488Y-71079831D01*
X144316512Y-71079831D01*
X144216874Y-71095612D01*
X144216872Y-71095612D01*
X144216872Y-71095613D01*
X144096780Y-71156802D01*
X144001471Y-71252111D01*
X143940282Y-71372203D01*
X143940281Y-71372205D01*
X143924500Y-71471843D01*
X143279630Y-71471843D01*
X143170745Y-71362958D01*
X143166119Y-71359719D01*
X143022011Y-71258813D01*
X142995091Y-71239963D01*
X142995087Y-71239961D01*
X142800750Y-71149340D01*
X142800745Y-71149338D01*
X142698754Y-71122010D01*
X142593619Y-71093839D01*
X142380000Y-71075150D01*
X142166381Y-71093839D01*
X142134099Y-71102489D01*
X141959254Y-71149338D01*
X141959250Y-71149340D01*
X141764909Y-71239963D01*
X141589258Y-71362955D01*
X141589252Y-71362960D01*
X141437629Y-71514583D01*
X141437624Y-71514589D01*
X141314632Y-71690240D01*
X141224009Y-71884581D01*
X141224007Y-71884585D01*
X141168507Y-72091716D01*
X141168506Y-72091722D01*
X141161927Y-72166923D01*
X141136064Y-72233041D01*
X141078560Y-72274681D01*
X141007673Y-72278621D01*
X140945909Y-72243611D01*
X140912877Y-72180767D01*
X140910886Y-72166922D01*
X140903048Y-72077328D01*
X140843813Y-71856262D01*
X140843811Y-71856257D01*
X140747086Y-71648829D01*
X140697100Y-71577441D01*
X140697098Y-71577441D01*
X140094157Y-72180382D01*
X140075925Y-72112338D01*
X140010099Y-71998324D01*
X139917007Y-71905232D01*
X139802993Y-71839406D01*
X139734947Y-71821172D01*
X140337888Y-71218230D01*
X140337888Y-71218229D01*
X140266501Y-71168244D01*
X140059073Y-71071519D01*
X140059068Y-71071517D01*
X139838000Y-71012282D01*
X139838004Y-71012282D01*
X139610000Y-70992335D01*
X139381997Y-71012282D01*
X139160931Y-71071517D01*
X139160926Y-71071519D01*
X138953500Y-71168244D01*
X138882109Y-71218231D01*
X139485051Y-71821173D01*
X139417007Y-71839406D01*
X139302993Y-71905232D01*
X139209901Y-71998324D01*
X139144075Y-72112338D01*
X139125842Y-72180382D01*
X138522900Y-71577440D01*
X138472913Y-71648831D01*
X138376188Y-71856257D01*
X138376186Y-71856262D01*
X138316951Y-72077330D01*
X138316950Y-72077337D01*
X138309112Y-72166923D01*
X138283249Y-72233041D01*
X138225745Y-72274681D01*
X138154858Y-72278621D01*
X138093094Y-72243611D01*
X138060062Y-72180767D01*
X138058073Y-72166938D01*
X138051492Y-72091712D01*
X137995992Y-71884584D01*
X137905368Y-71690241D01*
X137782373Y-71514586D01*
X137630745Y-71362958D01*
X137626119Y-71359719D01*
X137482011Y-71258813D01*
X137455091Y-71239963D01*
X137455087Y-71239961D01*
X137260750Y-71149340D01*
X137260745Y-71149338D01*
X137158754Y-71122010D01*
X137053619Y-71093839D01*
X136840000Y-71075150D01*
X136626381Y-71093839D01*
X136594099Y-71102489D01*
X136419254Y-71149338D01*
X136419250Y-71149340D01*
X136224909Y-71239963D01*
X136049258Y-71362955D01*
X136049252Y-71362960D01*
X135897629Y-71514583D01*
X135897624Y-71514589D01*
X135774632Y-71690240D01*
X135684009Y-71884581D01*
X135684007Y-71884585D01*
X135628507Y-72091716D01*
X135628506Y-72091722D01*
X135621927Y-72166923D01*
X135596064Y-72233041D01*
X135538560Y-72274681D01*
X135467673Y-72278621D01*
X135405909Y-72243611D01*
X135372877Y-72180767D01*
X135370886Y-72166922D01*
X135363048Y-72077328D01*
X135303813Y-71856262D01*
X135303811Y-71856257D01*
X135207086Y-71648829D01*
X135157100Y-71577441D01*
X135157098Y-71577441D01*
X134554157Y-72180382D01*
X134535925Y-72112338D01*
X134470099Y-71998324D01*
X134377007Y-71905232D01*
X134262993Y-71839406D01*
X134194947Y-71821172D01*
X134797888Y-71218230D01*
X134797888Y-71218229D01*
X134726501Y-71168244D01*
X134519073Y-71071519D01*
X134519068Y-71071517D01*
X134298000Y-71012282D01*
X134298004Y-71012282D01*
X134070000Y-70992335D01*
X133841997Y-71012282D01*
X133620931Y-71071517D01*
X133620926Y-71071519D01*
X133413500Y-71168244D01*
X133342109Y-71218231D01*
X133945051Y-71821173D01*
X133877007Y-71839406D01*
X133762993Y-71905232D01*
X133669901Y-71998324D01*
X133604075Y-72112338D01*
X133585842Y-72180382D01*
X132982900Y-71577440D01*
X132932913Y-71648831D01*
X132836188Y-71856257D01*
X132836186Y-71856262D01*
X132776951Y-72077328D01*
X132757004Y-72305331D01*
X129604085Y-72305331D01*
X129622959Y-72005337D01*
X129622959Y-72005324D01*
X129603145Y-71690386D01*
X129603143Y-71690369D01*
X129544010Y-71380388D01*
X129544007Y-71380375D01*
X129446490Y-71080251D01*
X129446486Y-71080242D01*
X129312124Y-70794708D01*
X129312117Y-70794694D01*
X129143030Y-70528255D01*
X129143028Y-70528252D01*
X129053956Y-70420583D01*
X128406631Y-71067907D01*
X128330412Y-70963001D01*
X128152330Y-70784919D01*
X128047421Y-70708698D01*
X128697476Y-70058643D01*
X128697476Y-70058641D01*
X128456513Y-69883571D01*
X128179965Y-69731538D01*
X127886539Y-69615362D01*
X127886533Y-69615360D01*
X127580896Y-69536886D01*
X127580869Y-69536881D01*
X127267804Y-69497332D01*
X127267786Y-69497331D01*
X126952214Y-69497331D01*
X126952195Y-69497332D01*
X126639130Y-69536881D01*
X126639103Y-69536886D01*
X126333466Y-69615360D01*
X126333460Y-69615362D01*
X126040034Y-69731538D01*
X125763486Y-69883571D01*
X125522522Y-70058641D01*
X125522522Y-70058643D01*
X126172577Y-70708698D01*
X126067670Y-70784919D01*
X125889588Y-70963001D01*
X125813367Y-71067908D01*
X125166042Y-70420583D01*
X125076972Y-70528252D01*
X125076969Y-70528255D01*
X124907882Y-70794694D01*
X124907875Y-70794708D01*
X124773513Y-71080242D01*
X124773509Y-71080251D01*
X124675992Y-71380375D01*
X124675989Y-71380388D01*
X124616856Y-71690369D01*
X124616854Y-71690386D01*
X124597041Y-72005324D01*
X115192835Y-72005324D01*
X115197594Y-69278709D01*
X117799500Y-69278709D01*
X117799500Y-69521290D01*
X117831160Y-69761782D01*
X117893944Y-69996095D01*
X117893945Y-69996097D01*
X117893946Y-69996100D01*
X117986776Y-70220212D01*
X117986777Y-70220213D01*
X117986782Y-70220224D01*
X118108061Y-70430285D01*
X118108063Y-70430288D01*
X118108064Y-70430289D01*
X118255735Y-70622738D01*
X118255739Y-70622742D01*
X118255744Y-70622748D01*
X118427251Y-70794255D01*
X118427256Y-70794259D01*
X118427262Y-70794265D01*
X118613005Y-70936790D01*
X118619714Y-70941938D01*
X118829775Y-71063217D01*
X118829779Y-71063218D01*
X118829788Y-71063224D01*
X119053900Y-71156054D01*
X119288211Y-71218838D01*
X119288215Y-71218838D01*
X119288217Y-71218839D01*
X119350202Y-71226999D01*
X119528712Y-71250500D01*
X119528719Y-71250500D01*
X119771281Y-71250500D01*
X119771288Y-71250500D01*
X119988637Y-71221885D01*
X120011782Y-71218839D01*
X120011782Y-71218838D01*
X120011789Y-71218838D01*
X120246100Y-71156054D01*
X120470212Y-71063224D01*
X120680289Y-70941936D01*
X120872738Y-70794265D01*
X121044265Y-70622738D01*
X121191936Y-70430289D01*
X121313224Y-70220212D01*
X121406054Y-69996100D01*
X121468838Y-69761789D01*
X121500500Y-69521288D01*
X121500500Y-69465331D01*
X134224819Y-69465331D01*
X134243508Y-69678950D01*
X134249398Y-69700931D01*
X134299007Y-69886076D01*
X134299009Y-69886081D01*
X134389630Y-70080418D01*
X134389632Y-70080422D01*
X134475225Y-70202661D01*
X134512627Y-70256076D01*
X134512630Y-70256080D01*
X134664250Y-70407700D01*
X134664254Y-70407703D01*
X134664255Y-70407704D01*
X134839909Y-70530699D01*
X135034253Y-70621323D01*
X135241381Y-70676823D01*
X135455000Y-70695512D01*
X135668619Y-70676823D01*
X135875747Y-70621323D01*
X136070091Y-70530699D01*
X136245745Y-70407704D01*
X136397373Y-70256076D01*
X136520368Y-70080422D01*
X136610992Y-69886078D01*
X136666492Y-69678950D01*
X136685181Y-69465331D01*
X136994819Y-69465331D01*
X137013508Y-69678950D01*
X137019398Y-69700931D01*
X137069007Y-69886076D01*
X137069009Y-69886081D01*
X137159630Y-70080418D01*
X137159632Y-70080422D01*
X137245225Y-70202661D01*
X137282627Y-70256076D01*
X137282630Y-70256080D01*
X137434250Y-70407700D01*
X137434254Y-70407703D01*
X137434255Y-70407704D01*
X137609909Y-70530699D01*
X137804253Y-70621323D01*
X138011381Y-70676823D01*
X138225000Y-70695512D01*
X138438619Y-70676823D01*
X138645747Y-70621323D01*
X138840091Y-70530699D01*
X139015745Y-70407704D01*
X139167373Y-70256076D01*
X139290368Y-70080422D01*
X139380992Y-69886078D01*
X139436492Y-69678950D01*
X139455181Y-69465331D01*
X139764819Y-69465331D01*
X139783508Y-69678950D01*
X139789398Y-69700931D01*
X139839007Y-69886076D01*
X139839009Y-69886081D01*
X139929630Y-70080418D01*
X139929632Y-70080422D01*
X140015225Y-70202661D01*
X140052627Y-70256076D01*
X140052630Y-70256080D01*
X140204250Y-70407700D01*
X140204254Y-70407703D01*
X140204255Y-70407704D01*
X140379909Y-70530699D01*
X140574253Y-70621323D01*
X140781381Y-70676823D01*
X140995000Y-70695512D01*
X141208619Y-70676823D01*
X141415747Y-70621323D01*
X141610091Y-70530699D01*
X141785745Y-70407704D01*
X141937373Y-70256076D01*
X142060368Y-70080422D01*
X142150992Y-69886078D01*
X142206492Y-69678950D01*
X142225181Y-69465331D01*
X142534819Y-69465331D01*
X142553508Y-69678950D01*
X142559398Y-69700931D01*
X142609007Y-69886076D01*
X142609009Y-69886081D01*
X142699630Y-70080418D01*
X142699632Y-70080422D01*
X142785225Y-70202661D01*
X142822627Y-70256076D01*
X142822630Y-70256080D01*
X142974250Y-70407700D01*
X142974254Y-70407703D01*
X142974255Y-70407704D01*
X143149909Y-70530699D01*
X143344253Y-70621323D01*
X143551381Y-70676823D01*
X143765000Y-70695512D01*
X143978619Y-70676823D01*
X144185747Y-70621323D01*
X144380091Y-70530699D01*
X144555745Y-70407704D01*
X144707373Y-70256076D01*
X144830368Y-70080422D01*
X144920992Y-69886078D01*
X144976492Y-69678950D01*
X144995181Y-69465331D01*
X144976492Y-69251712D01*
X144920992Y-69044584D01*
X144830368Y-68850241D01*
X144707373Y-68674586D01*
X144555745Y-68522958D01*
X144380091Y-68399963D01*
X144338876Y-68380744D01*
X144185750Y-68309340D01*
X144185745Y-68309338D01*
X144089617Y-68283580D01*
X143978619Y-68253839D01*
X143765000Y-68235150D01*
X143551381Y-68253839D01*
X143495882Y-68268709D01*
X143344254Y-68309338D01*
X143344250Y-68309340D01*
X143149909Y-68399963D01*
X142974258Y-68522955D01*
X142974252Y-68522960D01*
X142822629Y-68674583D01*
X142822624Y-68674589D01*
X142699632Y-68850240D01*
X142609009Y-69044581D01*
X142609007Y-69044585D01*
X142595022Y-69096780D01*
X142553508Y-69251712D01*
X142534819Y-69465331D01*
X142225181Y-69465331D01*
X142206492Y-69251712D01*
X142150992Y-69044584D01*
X142060368Y-68850241D01*
X141937373Y-68674586D01*
X141785745Y-68522958D01*
X141610091Y-68399963D01*
X141568876Y-68380744D01*
X141415750Y-68309340D01*
X141415745Y-68309338D01*
X141319617Y-68283580D01*
X141208619Y-68253839D01*
X140995000Y-68235150D01*
X140781381Y-68253839D01*
X140725882Y-68268709D01*
X140574254Y-68309338D01*
X140574250Y-68309340D01*
X140379909Y-68399963D01*
X140204258Y-68522955D01*
X140204252Y-68522960D01*
X140052629Y-68674583D01*
X140052624Y-68674589D01*
X139929632Y-68850240D01*
X139839009Y-69044581D01*
X139839007Y-69044585D01*
X139825022Y-69096780D01*
X139783508Y-69251712D01*
X139764819Y-69465331D01*
X139455181Y-69465331D01*
X139436492Y-69251712D01*
X139380992Y-69044584D01*
X139290368Y-68850241D01*
X139167373Y-68674586D01*
X139015745Y-68522958D01*
X138854230Y-68409863D01*
X138854229Y-68409862D01*
X138809901Y-68354404D01*
X138800500Y-68306649D01*
X138800500Y-66393594D01*
X138820502Y-66325473D01*
X138852439Y-66291658D01*
X138955410Y-66216845D01*
X139071522Y-66087889D01*
X139158286Y-65937611D01*
X139211908Y-65772576D01*
X139230047Y-65600000D01*
X139211908Y-65427424D01*
X139158286Y-65262389D01*
X139071522Y-65112111D01*
X138955410Y-64983155D01*
X138894340Y-64938785D01*
X138815024Y-64881158D01*
X138656499Y-64810578D01*
X138486764Y-64774500D01*
X138313236Y-64774500D01*
X138143503Y-64810577D01*
X137984978Y-64881157D01*
X137984976Y-64881158D01*
X137844590Y-64983154D01*
X137728479Y-65112109D01*
X137728479Y-65112110D01*
X137641712Y-65262391D01*
X137588094Y-65427416D01*
X137588093Y-65427420D01*
X137588092Y-65427424D01*
X137569953Y-65600000D01*
X137588092Y-65772576D01*
X137588093Y-65772579D01*
X137588094Y-65772583D01*
X137643333Y-65942597D01*
X137649500Y-65981532D01*
X137649500Y-68306650D01*
X137629498Y-68374771D01*
X137595771Y-68409863D01*
X137434258Y-68522955D01*
X137434252Y-68522960D01*
X137282629Y-68674583D01*
X137282624Y-68674589D01*
X137159632Y-68850240D01*
X137069009Y-69044581D01*
X137069007Y-69044585D01*
X137055022Y-69096780D01*
X137013508Y-69251712D01*
X136994819Y-69465331D01*
X136685181Y-69465331D01*
X136666492Y-69251712D01*
X136610992Y-69044584D01*
X136520368Y-68850241D01*
X136397373Y-68674586D01*
X136245745Y-68522958D01*
X136070091Y-68399963D01*
X136028876Y-68380744D01*
X135875750Y-68309340D01*
X135875745Y-68309338D01*
X135779617Y-68283580D01*
X135668619Y-68253839D01*
X135455000Y-68235150D01*
X135241381Y-68253839D01*
X135185882Y-68268709D01*
X135034254Y-68309338D01*
X135034250Y-68309340D01*
X134839909Y-68399963D01*
X134664258Y-68522955D01*
X134664252Y-68522960D01*
X134512629Y-68674583D01*
X134512624Y-68674589D01*
X134389632Y-68850240D01*
X134299009Y-69044581D01*
X134299007Y-69044585D01*
X134285022Y-69096780D01*
X134243508Y-69251712D01*
X134224819Y-69465331D01*
X121500500Y-69465331D01*
X121500500Y-69278712D01*
X121475903Y-69091874D01*
X121468839Y-69038217D01*
X121468838Y-69038215D01*
X121468838Y-69038211D01*
X121406054Y-68803900D01*
X121313224Y-68579788D01*
X121313218Y-68579779D01*
X121313217Y-68579775D01*
X121191938Y-68369714D01*
X121191936Y-68369711D01*
X121044265Y-68177262D01*
X121044259Y-68177256D01*
X121044255Y-68177251D01*
X120872748Y-68005744D01*
X120872742Y-68005739D01*
X120872738Y-68005735D01*
X120680289Y-67858064D01*
X120680288Y-67858063D01*
X120680285Y-67858061D01*
X120470224Y-67736782D01*
X120470216Y-67736778D01*
X120470212Y-67736776D01*
X120246100Y-67643946D01*
X120246097Y-67643945D01*
X120246095Y-67643944D01*
X120011782Y-67581160D01*
X119771290Y-67549500D01*
X119771288Y-67549500D01*
X119528712Y-67549500D01*
X119528709Y-67549500D01*
X119288217Y-67581160D01*
X119053904Y-67643944D01*
X119053900Y-67643946D01*
X118829786Y-67736777D01*
X118829775Y-67736782D01*
X118619714Y-67858061D01*
X118427262Y-68005735D01*
X118427251Y-68005744D01*
X118255744Y-68177251D01*
X118255735Y-68177262D01*
X118108061Y-68369714D01*
X117986782Y-68579775D01*
X117986777Y-68579786D01*
X117986776Y-68579788D01*
X117923748Y-68731951D01*
X117893946Y-68803900D01*
X117893944Y-68803904D01*
X117831160Y-69038217D01*
X117799500Y-69278709D01*
X115197594Y-69278709D01*
X115199999Y-67900530D01*
X115200005Y-67899511D01*
X115202342Y-67708999D01*
X115202939Y-67698229D01*
X115240303Y-67318863D01*
X115242109Y-67306681D01*
X115316329Y-66933551D01*
X115319333Y-66921565D01*
X115429758Y-66557542D01*
X115433913Y-66545928D01*
X115579500Y-66194448D01*
X115584772Y-66183302D01*
X115764108Y-65847791D01*
X115770445Y-65837218D01*
X115981805Y-65520894D01*
X115989153Y-65510989D01*
X116230490Y-65216917D01*
X116238775Y-65207776D01*
X116507776Y-64938775D01*
X116516917Y-64930490D01*
X116810989Y-64689153D01*
X116820894Y-64681805D01*
X117137218Y-64470445D01*
X117147791Y-64464108D01*
X117483302Y-64284772D01*
X117494448Y-64279500D01*
X117845928Y-64133913D01*
X117857542Y-64129758D01*
X118221569Y-64019331D01*
X118233551Y-64016329D01*
X118606681Y-63942109D01*
X118618863Y-63940303D01*
X118998229Y-63902939D01*
X119009001Y-63902342D01*
X119199266Y-63900008D01*
X119200811Y-63900000D01*
X180999189Y-63900000D01*
X181000733Y-63900008D01*
G37*
%TD.AperFunction*%
%TD*%
M02*
