%TF.GenerationSoftware,KiCad,Pcbnew,8.0.5*%
%TF.CreationDate,2024-10-20T22:23:27+07:00*%
%TF.ProjectId,Panel_LIN,50616e65-6c5f-44c4-994e-2e6b69636164,rev?*%
%TF.SameCoordinates,Original*%
%TF.FileFunction,Copper,L1,Top*%
%TF.FilePolarity,Positive*%
%FSLAX46Y46*%
G04 Gerber Fmt 4.6, Leading zero omitted, Abs format (unit mm)*
G04 Created by KiCad (PCBNEW 8.0.5) date 2024-10-20 22:23:27*
%MOMM*%
%LPD*%
G01*
G04 APERTURE LIST*
G04 Aperture macros list*
%AMRoundRect*
0 Rectangle with rounded corners*
0 $1 Rounding radius*
0 $2 $3 $4 $5 $6 $7 $8 $9 X,Y pos of 4 corners*
0 Add a 4 corners polygon primitive as box body*
4,1,4,$2,$3,$4,$5,$6,$7,$8,$9,$2,$3,0*
0 Add four circle primitives for the rounded corners*
1,1,$1+$1,$2,$3*
1,1,$1+$1,$4,$5*
1,1,$1+$1,$6,$7*
1,1,$1+$1,$8,$9*
0 Add four rect primitives between the rounded corners*
20,1,$1+$1,$2,$3,$4,$5,0*
20,1,$1+$1,$4,$5,$6,$7,0*
20,1,$1+$1,$6,$7,$8,$9,0*
20,1,$1+$1,$8,$9,$2,$3,0*%
G04 Aperture macros list end*
%TA.AperFunction,ComponentPad*%
%ADD10R,3.500000X3.500000*%
%TD*%
%TA.AperFunction,ComponentPad*%
%ADD11RoundRect,0.750000X-0.750000X-1.000000X0.750000X-1.000000X0.750000X1.000000X-0.750000X1.000000X0*%
%TD*%
%TA.AperFunction,ComponentPad*%
%ADD12RoundRect,0.875000X-0.875000X-0.875000X0.875000X-0.875000X0.875000X0.875000X-0.875000X0.875000X0*%
%TD*%
%TA.AperFunction,ComponentPad*%
%ADD13R,2.400000X1.600000*%
%TD*%
%TA.AperFunction,ComponentPad*%
%ADD14O,2.400000X1.600000*%
%TD*%
%TA.AperFunction,ComponentPad*%
%ADD15R,1.700000X1.700000*%
%TD*%
%TA.AperFunction,ComponentPad*%
%ADD16O,1.700000X1.700000*%
%TD*%
%TA.AperFunction,ComponentPad*%
%ADD17R,1.600000X2.400000*%
%TD*%
%TA.AperFunction,ComponentPad*%
%ADD18O,1.600000X2.400000*%
%TD*%
%TA.AperFunction,Conductor*%
%ADD19C,0.200000*%
%TD*%
G04 APERTURE END LIST*
D10*
%TO.P,J39,1*%
%TO.N,Vss*%
X95000000Y-151000000D03*
D11*
%TO.P,J39,2*%
%TO.N,Vbb*%
X89000000Y-151000000D03*
D12*
%TO.P,J39,3*%
%TO.N,unconnected-(J39-Pad3)*%
X92000000Y-155700000D03*
%TD*%
D13*
%TO.P,RN34,1,R1.1*%
%TO.N,Rxd34*%
X184175000Y-125200000D03*
D14*
%TO.P,RN34,2,R2.1*%
%TO.N,CS34*%
X184175000Y-127740000D03*
%TO.P,RN34,3,R3.1*%
%TO.N,WAKEUP34*%
X184175000Y-130280000D03*
%TO.P,RN34,4,R4.1*%
%TO.N,Txd34*%
X184175000Y-132820000D03*
%TO.P,RN34,5,R4.2*%
%TO.N,Vss*%
X191795000Y-132820000D03*
%TO.P,RN34,6,R3.2*%
%TO.N,Lbus3*%
X191795000Y-130280000D03*
%TO.P,RN34,7,R2.2*%
%TO.N,Vbb*%
X191795000Y-127740000D03*
%TO.P,RN34,8,R1.2*%
%TO.N,Vren*%
X191795000Y-125200000D03*
%TD*%
D13*
%TO.P,RN14,1,R1.1*%
%TO.N,Rxd14*%
X204175000Y-64450000D03*
D14*
%TO.P,RN14,2,R2.1*%
%TO.N,CS14*%
X204175000Y-66990000D03*
%TO.P,RN14,3,R3.1*%
%TO.N,WAKEUP14*%
X204175000Y-69530000D03*
%TO.P,RN14,4,R4.1*%
%TO.N,Txd14*%
X204175000Y-72070000D03*
%TO.P,RN14,5,R4.2*%
%TO.N,Vss*%
X211795000Y-72070000D03*
%TO.P,RN14,6,R3.2*%
%TO.N,Lbus1*%
X211795000Y-69530000D03*
%TO.P,RN14,7,R2.2*%
%TO.N,Vbb*%
X211795000Y-66990000D03*
%TO.P,RN14,8,R1.2*%
%TO.N,Vren*%
X211795000Y-64450000D03*
%TD*%
D13*
%TO.P,RN6,1,R1.1*%
%TO.N,Rxd6*%
X184175000Y-45200000D03*
D14*
%TO.P,RN6,2,R2.1*%
%TO.N,CS6*%
X184175000Y-47740000D03*
%TO.P,RN6,3,R3.1*%
%TO.N,WAKEUP6*%
X184175000Y-50280000D03*
%TO.P,RN6,4,R4.1*%
%TO.N,Txd6*%
X184175000Y-52820000D03*
%TO.P,RN6,5,R4.2*%
%TO.N,Vss*%
X191795000Y-52820000D03*
%TO.P,RN6,6,R3.2*%
%TO.N,Lbus1*%
X191795000Y-50280000D03*
%TO.P,RN6,7,R2.2*%
%TO.N,Vbb*%
X191795000Y-47740000D03*
%TO.P,RN6,8,R1.2*%
%TO.N,Vren*%
X191795000Y-45200000D03*
%TD*%
D15*
%TO.P,J33,1*%
%TO.N,Rxd33*%
X165000000Y-119000000D03*
D16*
%TO.P,J33,2*%
%TO.N,CS33*%
X167540000Y-119000000D03*
%TO.P,J33,3*%
%TO.N,WAKEUP33*%
X170080000Y-119000000D03*
%TO.P,J33,4*%
%TO.N,Txd33*%
X172620000Y-119000000D03*
%TD*%
D15*
%TO.P,J32,1*%
%TO.N,Rxd32*%
X144380000Y-119000000D03*
D16*
%TO.P,J32,2*%
%TO.N,CS32*%
X146920000Y-119000000D03*
%TO.P,J32,3*%
%TO.N,WAKEUP32*%
X149460000Y-119000000D03*
%TO.P,J32,4*%
%TO.N,Txd32*%
X152000000Y-119000000D03*
%TD*%
D15*
%TO.P,J9,1*%
%TO.N,Rxd9*%
X104000000Y-58000000D03*
D16*
%TO.P,J9,2*%
%TO.N,CS9*%
X106540000Y-58000000D03*
%TO.P,J9,3*%
%TO.N,WAKEUP9*%
X109080000Y-58000000D03*
%TO.P,J9,4*%
%TO.N,Txd9*%
X111620000Y-58000000D03*
%TD*%
D15*
%TO.P,J27,1*%
%TO.N,Rxd27*%
X184460000Y-99000000D03*
D16*
%TO.P,J27,2*%
%TO.N,CS27*%
X187000000Y-99000000D03*
%TO.P,J27,3*%
%TO.N,WAKEUP27*%
X189540000Y-99000000D03*
%TO.P,J27,4*%
%TO.N,Txd27*%
X192080000Y-99000000D03*
%TD*%
D13*
%TO.P,RN24,1,R1.1*%
%TO.N,Rxd24*%
X123970000Y-105380000D03*
D14*
%TO.P,RN24,2,R2.1*%
%TO.N,CS24*%
X123970000Y-107920000D03*
%TO.P,RN24,3,R3.1*%
%TO.N,WAKEUP24*%
X123970000Y-110460000D03*
%TO.P,RN24,4,R4.1*%
%TO.N,Txd24*%
X123970000Y-113000000D03*
%TO.P,RN24,5,R4.2*%
%TO.N,Vss*%
X131590000Y-113000000D03*
%TO.P,RN24,6,R3.2*%
%TO.N,Lbus2*%
X131590000Y-110460000D03*
%TO.P,RN24,7,R2.2*%
%TO.N,Vbb*%
X131590000Y-107920000D03*
%TO.P,RN24,8,R1.2*%
%TO.N,Vren*%
X131590000Y-105380000D03*
%TD*%
D15*
%TO.P,J29,1*%
%TO.N,Rxd29*%
X84000000Y-120000000D03*
D16*
%TO.P,J29,2*%
%TO.N,CS29*%
X86540000Y-120000000D03*
%TO.P,J29,3*%
%TO.N,WAKEUP29*%
X89080000Y-120000000D03*
%TO.P,J29,4*%
%TO.N,Txd29*%
X91620000Y-120000000D03*
%TD*%
D15*
%TO.P,J1,1*%
%TO.N,Rxd1*%
X84000000Y-39000000D03*
D16*
%TO.P,J1,2*%
%TO.N,CS1*%
X86540000Y-39000000D03*
%TO.P,J1,3*%
%TO.N,WAKEUP1*%
X89080000Y-39000000D03*
%TO.P,J1,4*%
%TO.N,Txd1*%
X91620000Y-39000000D03*
%TD*%
D13*
%TO.P,RN32,1,R1.1*%
%TO.N,Rxd32*%
X145380000Y-125920000D03*
D14*
%TO.P,RN32,2,R2.1*%
%TO.N,CS32*%
X145380000Y-128460000D03*
%TO.P,RN32,3,R3.1*%
%TO.N,WAKEUP32*%
X145380000Y-131000000D03*
%TO.P,RN32,4,R4.1*%
%TO.N,Txd32*%
X145380000Y-133540000D03*
%TO.P,RN32,5,R4.2*%
%TO.N,Vss*%
X153000000Y-133540000D03*
%TO.P,RN32,6,R3.2*%
%TO.N,Lbus3*%
X153000000Y-131000000D03*
%TO.P,RN32,7,R2.2*%
%TO.N,Vbb*%
X153000000Y-128460000D03*
%TO.P,RN32,8,R1.2*%
%TO.N,Vren*%
X153000000Y-125920000D03*
%TD*%
D13*
%TO.P,RN13,1,R1.1*%
%TO.N,Rxd13*%
X184175000Y-64450000D03*
D14*
%TO.P,RN13,2,R2.1*%
%TO.N,CS13*%
X184175000Y-66990000D03*
%TO.P,RN13,3,R3.1*%
%TO.N,WAKEUP13*%
X184175000Y-69530000D03*
%TO.P,RN13,4,R4.1*%
%TO.N,Txd13*%
X184175000Y-72070000D03*
%TO.P,RN13,5,R4.2*%
%TO.N,Vss*%
X191795000Y-72070000D03*
%TO.P,RN13,6,R3.2*%
%TO.N,Lbus1*%
X191795000Y-69530000D03*
%TO.P,RN13,7,R2.2*%
%TO.N,Vbb*%
X191795000Y-66990000D03*
%TO.P,RN13,8,R1.2*%
%TO.N,Vren*%
X191795000Y-64450000D03*
%TD*%
D15*
%TO.P,J16,1*%
%TO.N,Rxd16*%
X104000000Y-79000000D03*
D16*
%TO.P,J16,2*%
%TO.N,CS16*%
X106540000Y-79000000D03*
%TO.P,J16,3*%
%TO.N,WAKEUP16*%
X109080000Y-79000000D03*
%TO.P,J16,4*%
%TO.N,Txd16*%
X111620000Y-79000000D03*
%TD*%
D13*
%TO.P,RN23,1,R1.1*%
%TO.N,Rxd23*%
X104175000Y-105380000D03*
D14*
%TO.P,RN23,2,R2.1*%
%TO.N,CS23*%
X104175000Y-107920000D03*
%TO.P,RN23,3,R3.1*%
%TO.N,WAKEUP23*%
X104175000Y-110460000D03*
%TO.P,RN23,4,R4.1*%
%TO.N,Txd23*%
X104175000Y-113000000D03*
%TO.P,RN23,5,R4.2*%
%TO.N,Vss*%
X111795000Y-113000000D03*
%TO.P,RN23,6,R3.2*%
%TO.N,Lbus2*%
X111795000Y-110460000D03*
%TO.P,RN23,7,R2.2*%
%TO.N,Vbb*%
X111795000Y-107920000D03*
%TO.P,RN23,8,R1.2*%
%TO.N,Vren*%
X111795000Y-105380000D03*
%TD*%
D17*
%TO.P,RN18,1,R1.1*%
%TO.N,Rxd18*%
X144970000Y-85200000D03*
D18*
%TO.P,RN18,2,R2.1*%
%TO.N,CS18*%
X147510000Y-85200000D03*
%TO.P,RN18,3,R3.1*%
%TO.N,WAKEUP18*%
X150050000Y-85200000D03*
%TO.P,RN18,4,R4.1*%
%TO.N,Txd18*%
X152590000Y-85200000D03*
%TO.P,RN18,5,R4.2*%
%TO.N,Vss*%
X152590000Y-77580000D03*
%TO.P,RN18,6,R3.2*%
%TO.N,Lbus2*%
X150050000Y-77580000D03*
%TO.P,RN18,7,R2.2*%
%TO.N,Vbb*%
X147510000Y-77580000D03*
%TO.P,RN18,8,R1.2*%
%TO.N,Vren*%
X144970000Y-77580000D03*
%TD*%
D13*
%TO.P,RN37,1,R1.1*%
%TO.N,Rxd37*%
X145175000Y-145200000D03*
D14*
%TO.P,RN37,2,R2.1*%
%TO.N,CS37*%
X145175000Y-147740000D03*
%TO.P,RN37,3,R3.1*%
%TO.N,WAKEUP37*%
X145175000Y-150280000D03*
%TO.P,RN37,4,R4.1*%
%TO.N,Txd37*%
X145175000Y-152820000D03*
%TO.P,RN37,5,R4.2*%
%TO.N,Vss*%
X152795000Y-152820000D03*
%TO.P,RN37,6,R3.2*%
%TO.N,Lbus3*%
X152795000Y-150280000D03*
%TO.P,RN37,7,R2.2*%
%TO.N,Vbb*%
X152795000Y-147740000D03*
%TO.P,RN37,8,R1.2*%
%TO.N,Vren*%
X152795000Y-145200000D03*
%TD*%
D13*
%TO.P,RN12,1,R1.1*%
%TO.N,Rxd12*%
X164175000Y-64450000D03*
D14*
%TO.P,RN12,2,R2.1*%
%TO.N,CS12*%
X164175000Y-66990000D03*
%TO.P,RN12,3,R3.1*%
%TO.N,WAKEUP12*%
X164175000Y-69530000D03*
%TO.P,RN12,4,R4.1*%
%TO.N,Txd12*%
X164175000Y-72070000D03*
%TO.P,RN12,5,R4.2*%
%TO.N,Vss*%
X171795000Y-72070000D03*
%TO.P,RN12,6,R3.2*%
%TO.N,Lbus1*%
X171795000Y-69530000D03*
%TO.P,RN12,7,R2.2*%
%TO.N,Vbb*%
X171795000Y-66990000D03*
%TO.P,RN12,8,R1.2*%
%TO.N,Vren*%
X171795000Y-64450000D03*
%TD*%
D15*
%TO.P,J4,1*%
%TO.N,Rxd4*%
X144000000Y-39000000D03*
D16*
%TO.P,J4,2*%
%TO.N,CS4*%
X146540000Y-39000000D03*
%TO.P,J4,3*%
%TO.N,WAKEUP4*%
X149080000Y-39000000D03*
%TO.P,J4,4*%
%TO.N,Txd4*%
X151620000Y-39000000D03*
%TD*%
D15*
%TO.P,J14,1*%
%TO.N,Rxd14*%
X205000000Y-59000000D03*
D16*
%TO.P,J14,2*%
%TO.N,CS14*%
X207540000Y-59000000D03*
%TO.P,J14,3*%
%TO.N,WAKEUP14*%
X210080000Y-59000000D03*
%TO.P,J14,4*%
%TO.N,Txd14*%
X212620000Y-59000000D03*
%TD*%
D15*
%TO.P,J26,1*%
%TO.N,Rxd26*%
X163460000Y-99000000D03*
D16*
%TO.P,J26,2*%
%TO.N,CS26*%
X166000000Y-99000000D03*
%TO.P,J26,3*%
%TO.N,WAKEUP26*%
X168540000Y-99000000D03*
%TO.P,J26,4*%
%TO.N,Txd26*%
X171080000Y-99000000D03*
%TD*%
D13*
%TO.P,RN1,1,R1.1*%
%TO.N,Rxd1*%
X84175000Y-45200000D03*
D14*
%TO.P,RN1,2,R2.1*%
%TO.N,CS1*%
X84175000Y-47740000D03*
%TO.P,RN1,3,R3.1*%
%TO.N,WAKEUP1*%
X84175000Y-50280000D03*
%TO.P,RN1,4,R4.1*%
%TO.N,Txd1*%
X84175000Y-52820000D03*
%TO.P,RN1,5,R4.2*%
%TO.N,Vss*%
X91795000Y-52820000D03*
%TO.P,RN1,6,R3.2*%
%TO.N,Lbus1*%
X91795000Y-50280000D03*
%TO.P,RN1,7,R2.2*%
%TO.N,Vbb*%
X91795000Y-47740000D03*
%TO.P,RN1,8,R1.2*%
%TO.N,Vren*%
X91795000Y-45200000D03*
%TD*%
D13*
%TO.P,RN36,1,R1.1*%
%TO.N,Rxd36*%
X125175000Y-145200000D03*
D14*
%TO.P,RN36,2,R2.1*%
%TO.N,CS36*%
X125175000Y-147740000D03*
%TO.P,RN36,3,R3.1*%
%TO.N,WAKEUP36*%
X125175000Y-150280000D03*
%TO.P,RN36,4,R4.1*%
%TO.N,Txd36*%
X125175000Y-152820000D03*
%TO.P,RN36,5,R4.2*%
%TO.N,Vss*%
X132795000Y-152820000D03*
%TO.P,RN36,6,R3.2*%
%TO.N,Lbus3*%
X132795000Y-150280000D03*
%TO.P,RN36,7,R2.2*%
%TO.N,Vbb*%
X132795000Y-147740000D03*
%TO.P,RN36,8,R1.2*%
%TO.N,Vren*%
X132795000Y-145200000D03*
%TD*%
D15*
%TO.P,J2,1*%
%TO.N,Rxd2*%
X104000000Y-39000000D03*
D16*
%TO.P,J2,2*%
%TO.N,CS2*%
X106540000Y-39000000D03*
%TO.P,J2,3*%
%TO.N,WAKEUP2*%
X109080000Y-39000000D03*
%TO.P,J2,4*%
%TO.N,Txd2*%
X111620000Y-39000000D03*
%TD*%
D13*
%TO.P,RN5,1,R1.1*%
%TO.N,Rxd5*%
X164175000Y-45200000D03*
D14*
%TO.P,RN5,2,R2.1*%
%TO.N,CS5*%
X164175000Y-47740000D03*
%TO.P,RN5,3,R3.1*%
%TO.N,WAKEUP5*%
X164175000Y-50280000D03*
%TO.P,RN5,4,R4.1*%
%TO.N,Txd5*%
X164175000Y-52820000D03*
%TO.P,RN5,5,R4.2*%
%TO.N,Vss*%
X171795000Y-52820000D03*
%TO.P,RN5,6,R3.2*%
%TO.N,Lbus1*%
X171795000Y-50280000D03*
%TO.P,RN5,7,R2.2*%
%TO.N,Vbb*%
X171795000Y-47740000D03*
%TO.P,RN5,8,R1.2*%
%TO.N,Vren*%
X171795000Y-45200000D03*
%TD*%
D13*
%TO.P,RN19,1,R1.1*%
%TO.N,Rxd19*%
X163970000Y-85200000D03*
D14*
%TO.P,RN19,2,R2.1*%
%TO.N,CS19*%
X163970000Y-87740000D03*
%TO.P,RN19,3,R3.1*%
%TO.N,WAKEUP19*%
X163970000Y-90280000D03*
%TO.P,RN19,4,R4.1*%
%TO.N,Txd19*%
X163970000Y-92820000D03*
%TO.P,RN19,5,R4.2*%
%TO.N,Vss*%
X171590000Y-92820000D03*
%TO.P,RN19,6,R3.2*%
%TO.N,Lbus2*%
X171590000Y-90280000D03*
%TO.P,RN19,7,R2.2*%
%TO.N,Vbb*%
X171590000Y-87740000D03*
%TO.P,RN19,8,R1.2*%
%TO.N,Vren*%
X171590000Y-85200000D03*
%TD*%
D15*
%TO.P,J35,1*%
%TO.N,Rxd35*%
X204000000Y-119000000D03*
D16*
%TO.P,J35,2*%
%TO.N,CS35*%
X206540000Y-119000000D03*
%TO.P,J35,3*%
%TO.N,WAKEUP35*%
X209080000Y-119000000D03*
%TO.P,J35,4*%
%TO.N,Txd35*%
X211620000Y-119000000D03*
%TD*%
D13*
%TO.P,RN17,1,R1.1*%
%TO.N,Rxd17*%
X123970000Y-85200000D03*
D14*
%TO.P,RN17,2,R2.1*%
%TO.N,CS17*%
X123970000Y-87740000D03*
%TO.P,RN17,3,R3.1*%
%TO.N,WAKEUP17*%
X123970000Y-90280000D03*
%TO.P,RN17,4,R4.1*%
%TO.N,Txd17*%
X123970000Y-92820000D03*
%TO.P,RN17,5,R4.2*%
%TO.N,Vss*%
X131590000Y-92820000D03*
%TO.P,RN17,6,R3.2*%
%TO.N,Lbus2*%
X131590000Y-90280000D03*
%TO.P,RN17,7,R2.2*%
%TO.N,Vbb*%
X131590000Y-87740000D03*
%TO.P,RN17,8,R1.2*%
%TO.N,Vren*%
X131590000Y-85200000D03*
%TD*%
D13*
%TO.P,RN8,1,R1.1*%
%TO.N,Rxd8*%
X84175000Y-64450000D03*
D14*
%TO.P,RN8,2,R2.1*%
%TO.N,CS8*%
X84175000Y-66990000D03*
%TO.P,RN8,3,R3.1*%
%TO.N,WAKEUP8*%
X84175000Y-69530000D03*
%TO.P,RN8,4,R4.1*%
%TO.N,Txd8*%
X84175000Y-72070000D03*
%TO.P,RN8,5,R4.2*%
%TO.N,Vss*%
X91795000Y-72070000D03*
%TO.P,RN8,6,R3.2*%
%TO.N,Lbus1*%
X91795000Y-69530000D03*
%TO.P,RN8,7,R2.2*%
%TO.N,Vbb*%
X91795000Y-66990000D03*
%TO.P,RN8,8,R1.2*%
%TO.N,Vren*%
X91795000Y-64450000D03*
%TD*%
D15*
%TO.P,J3,1*%
%TO.N,Rxd3*%
X125000000Y-39000000D03*
D16*
%TO.P,J3,2*%
%TO.N,CS3*%
X127540000Y-39000000D03*
%TO.P,J3,3*%
%TO.N,WAKEUP3*%
X130080000Y-39000000D03*
%TO.P,J3,4*%
%TO.N,Txd3*%
X132620000Y-39000000D03*
%TD*%
D13*
%TO.P,RN29,1,R1.1*%
%TO.N,Rxd29*%
X84380000Y-125920000D03*
D14*
%TO.P,RN29,2,R2.1*%
%TO.N,CS29*%
X84380000Y-128460000D03*
%TO.P,RN29,3,R3.1*%
%TO.N,WAKEUP29*%
X84380000Y-131000000D03*
%TO.P,RN29,4,R4.1*%
%TO.N,Txd29*%
X84380000Y-133540000D03*
%TO.P,RN29,5,R4.2*%
%TO.N,Vss*%
X92000000Y-133540000D03*
%TO.P,RN29,6,R3.2*%
%TO.N,Lbus2*%
X92000000Y-131000000D03*
%TO.P,RN29,7,R2.2*%
%TO.N,Vbb*%
X92000000Y-128460000D03*
%TO.P,RN29,8,R1.2*%
%TO.N,Vren*%
X92000000Y-125920000D03*
%TD*%
D15*
%TO.P,J25,1*%
%TO.N,Rxd25*%
X144200000Y-99000000D03*
D16*
%TO.P,J25,2*%
%TO.N,CS25*%
X146740000Y-99000000D03*
%TO.P,J25,3*%
%TO.N,WAKEUP25*%
X149280000Y-99000000D03*
%TO.P,J25,4*%
%TO.N,Txd25*%
X151820000Y-99000000D03*
%TD*%
D13*
%TO.P,RN7,1,R1.1*%
%TO.N,Rxd7*%
X204175000Y-45200000D03*
D14*
%TO.P,RN7,2,R2.1*%
%TO.N,CS7*%
X204175000Y-47740000D03*
%TO.P,RN7,3,R3.1*%
%TO.N,WAKEUP7*%
X204175000Y-50280000D03*
%TO.P,RN7,4,R4.1*%
%TO.N,Txd7*%
X204175000Y-52820000D03*
%TO.P,RN7,5,R4.2*%
%TO.N,Vss*%
X211795000Y-52820000D03*
%TO.P,RN7,6,R3.2*%
%TO.N,Lbus1*%
X211795000Y-50280000D03*
%TO.P,RN7,7,R2.2*%
%TO.N,Vbb*%
X211795000Y-47740000D03*
%TO.P,RN7,8,R1.2*%
%TO.N,Vren*%
X211795000Y-45200000D03*
%TD*%
D15*
%TO.P,J19,1*%
%TO.N,Rxd19*%
X164460000Y-79000000D03*
D16*
%TO.P,J19,2*%
%TO.N,CS19*%
X167000000Y-79000000D03*
%TO.P,J19,3*%
%TO.N,WAKEUP19*%
X169540000Y-79000000D03*
%TO.P,J19,4*%
%TO.N,Txd19*%
X172080000Y-79000000D03*
%TD*%
D13*
%TO.P,RN21,1,R1.1*%
%TO.N,Rxd21*%
X203970000Y-85200000D03*
D14*
%TO.P,RN21,2,R2.1*%
%TO.N,CS21*%
X203970000Y-87740000D03*
%TO.P,RN21,3,R3.1*%
%TO.N,WAKEUP21*%
X203970000Y-90280000D03*
%TO.P,RN21,4,R4.1*%
%TO.N,Txd21*%
X203970000Y-92820000D03*
%TO.P,RN21,5,R4.2*%
%TO.N,Vss*%
X211590000Y-92820000D03*
%TO.P,RN21,6,R3.2*%
%TO.N,Lbus2*%
X211590000Y-90280000D03*
%TO.P,RN21,7,R2.2*%
%TO.N,Vbb*%
X211590000Y-87740000D03*
%TO.P,RN21,8,R1.2*%
%TO.N,Vren*%
X211590000Y-85200000D03*
%TD*%
D15*
%TO.P,J20,1*%
%TO.N,Rxd20*%
X184000000Y-79000000D03*
D16*
%TO.P,J20,2*%
%TO.N,CS20*%
X186540000Y-79000000D03*
%TO.P,J20,3*%
%TO.N,WAKEUP20*%
X189080000Y-79000000D03*
%TO.P,J20,4*%
%TO.N,Txd20*%
X191620000Y-79000000D03*
%TD*%
D15*
%TO.P,J11,1*%
%TO.N,Rxd11*%
X145000000Y-58000000D03*
D16*
%TO.P,J11,2*%
%TO.N,CS11*%
X147540000Y-58000000D03*
%TO.P,J11,3*%
%TO.N,WAKEUP11*%
X150080000Y-58000000D03*
%TO.P,J11,4*%
%TO.N,Txd11*%
X152620000Y-58000000D03*
%TD*%
D15*
%TO.P,J7,1*%
%TO.N,Rxd7*%
X204000000Y-39000000D03*
D16*
%TO.P,J7,2*%
%TO.N,CS7*%
X206540000Y-39000000D03*
%TO.P,J7,3*%
%TO.N,WAKEUP7*%
X209080000Y-39000000D03*
%TO.P,J7,4*%
%TO.N,Txd7*%
X211620000Y-39000000D03*
%TD*%
D13*
%TO.P,RN2,1,R1.1*%
%TO.N,Rxd2*%
X104380000Y-45200000D03*
D14*
%TO.P,RN2,2,R2.1*%
%TO.N,CS2*%
X104380000Y-47740000D03*
%TO.P,RN2,3,R3.1*%
%TO.N,WAKEUP2*%
X104380000Y-50280000D03*
%TO.P,RN2,4,R4.1*%
%TO.N,Txd2*%
X104380000Y-52820000D03*
%TO.P,RN2,5,R4.2*%
%TO.N,Vss*%
X112000000Y-52820000D03*
%TO.P,RN2,6,R3.2*%
%TO.N,Lbus1*%
X112000000Y-50280000D03*
%TO.P,RN2,7,R2.2*%
%TO.N,Vbb*%
X112000000Y-47740000D03*
%TO.P,RN2,8,R1.2*%
%TO.N,Vren*%
X112000000Y-45200000D03*
%TD*%
D13*
%TO.P,RN38,1,R1.1*%
%TO.N,Rxd38*%
X165375000Y-145200000D03*
D14*
%TO.P,RN38,2,R2.1*%
%TO.N,CS38*%
X165375000Y-147740000D03*
%TO.P,RN38,3,R3.1*%
%TO.N,WAKEUP38*%
X165375000Y-150280000D03*
%TO.P,RN38,4,R4.1*%
%TO.N,Txd38*%
X165375000Y-152820000D03*
%TO.P,RN38,5,R4.2*%
%TO.N,Vss*%
X172995000Y-152820000D03*
%TO.P,RN38,6,R3.2*%
%TO.N,Lbus3*%
X172995000Y-150280000D03*
%TO.P,RN38,7,R2.2*%
%TO.N,Vbb*%
X172995000Y-147740000D03*
%TO.P,RN38,8,R1.2*%
%TO.N,Vren*%
X172995000Y-145200000D03*
%TD*%
D15*
%TO.P,J13,1*%
%TO.N,Rxd13*%
X184000000Y-59000000D03*
D16*
%TO.P,J13,2*%
%TO.N,CS13*%
X186540000Y-59000000D03*
%TO.P,J13,3*%
%TO.N,WAKEUP13*%
X189080000Y-59000000D03*
%TO.P,J13,4*%
%TO.N,Txd13*%
X191620000Y-59000000D03*
%TD*%
D13*
%TO.P,RN28,1,R1.1*%
%TO.N,Rxd28*%
X203970000Y-105380000D03*
D14*
%TO.P,RN28,2,R2.1*%
%TO.N,CS28*%
X203970000Y-107920000D03*
%TO.P,RN28,3,R3.1*%
%TO.N,WAKEUP28*%
X203970000Y-110460000D03*
%TO.P,RN28,4,R4.1*%
%TO.N,Txd28*%
X203970000Y-113000000D03*
%TO.P,RN28,5,R4.2*%
%TO.N,Vss*%
X211590000Y-113000000D03*
%TO.P,RN28,6,R3.2*%
%TO.N,Lbus2*%
X211590000Y-110460000D03*
%TO.P,RN28,7,R2.2*%
%TO.N,Vbb*%
X211590000Y-107920000D03*
%TO.P,RN28,8,R1.2*%
%TO.N,Vren*%
X211590000Y-105380000D03*
%TD*%
D13*
%TO.P,RN27,1,R1.1*%
%TO.N,Rxd27*%
X183970000Y-105380000D03*
D14*
%TO.P,RN27,2,R2.1*%
%TO.N,CS27*%
X183970000Y-107920000D03*
%TO.P,RN27,3,R3.1*%
%TO.N,WAKEUP27*%
X183970000Y-110460000D03*
%TO.P,RN27,4,R4.1*%
%TO.N,Txd27*%
X183970000Y-113000000D03*
%TO.P,RN27,5,R4.2*%
%TO.N,Vss*%
X191590000Y-113000000D03*
%TO.P,RN27,6,R3.2*%
%TO.N,Lbus2*%
X191590000Y-110460000D03*
%TO.P,RN27,7,R2.2*%
%TO.N,Vbb*%
X191590000Y-107920000D03*
%TO.P,RN27,8,R1.2*%
%TO.N,Vren*%
X191590000Y-105380000D03*
%TD*%
D13*
%TO.P,RN25,1,R1.1*%
%TO.N,Rxd25*%
X144970000Y-105380000D03*
D14*
%TO.P,RN25,2,R2.1*%
%TO.N,CS25*%
X144970000Y-107920000D03*
%TO.P,RN25,3,R3.1*%
%TO.N,WAKEUP25*%
X144970000Y-110460000D03*
%TO.P,RN25,4,R4.1*%
%TO.N,Txd25*%
X144970000Y-113000000D03*
%TO.P,RN25,5,R4.2*%
%TO.N,Vss*%
X152590000Y-113000000D03*
%TO.P,RN25,6,R3.2*%
%TO.N,Lbus2*%
X152590000Y-110460000D03*
%TO.P,RN25,7,R2.2*%
%TO.N,Vbb*%
X152590000Y-107920000D03*
%TO.P,RN25,8,R1.2*%
%TO.N,Vren*%
X152590000Y-105380000D03*
%TD*%
D15*
%TO.P,J5,1*%
%TO.N,Rxd5*%
X164000000Y-39000000D03*
D16*
%TO.P,J5,2*%
%TO.N,CS5*%
X166540000Y-39000000D03*
%TO.P,J5,3*%
%TO.N,WAKEUP5*%
X169080000Y-39000000D03*
%TO.P,J5,4*%
%TO.N,Txd5*%
X171620000Y-39000000D03*
%TD*%
D13*
%TO.P,RN20,1,R1.1*%
%TO.N,Rxd20*%
X183970000Y-85200000D03*
D14*
%TO.P,RN20,2,R2.1*%
%TO.N,CS20*%
X183970000Y-87740000D03*
%TO.P,RN20,3,R3.1*%
%TO.N,WAKEUP20*%
X183970000Y-90280000D03*
%TO.P,RN20,4,R4.1*%
%TO.N,Txd20*%
X183970000Y-92820000D03*
%TO.P,RN20,5,R4.2*%
%TO.N,Vss*%
X191590000Y-92820000D03*
%TO.P,RN20,6,R3.2*%
%TO.N,Lbus2*%
X191590000Y-90280000D03*
%TO.P,RN20,7,R2.2*%
%TO.N,Vbb*%
X191590000Y-87740000D03*
%TO.P,RN20,8,R1.2*%
%TO.N,Vren*%
X191590000Y-85200000D03*
%TD*%
D15*
%TO.P,J36,1*%
%TO.N,Rxd36*%
X125000000Y-140000000D03*
D16*
%TO.P,J36,2*%
%TO.N,CS36*%
X127540000Y-140000000D03*
%TO.P,J36,3*%
%TO.N,WAKEUP36*%
X130080000Y-140000000D03*
%TO.P,J36,4*%
%TO.N,Txd36*%
X132620000Y-140000000D03*
%TD*%
D13*
%TO.P,RN35,1,R1.1*%
%TO.N,Rxd35*%
X204175000Y-125200000D03*
D14*
%TO.P,RN35,2,R2.1*%
%TO.N,CS35*%
X204175000Y-127740000D03*
%TO.P,RN35,3,R3.1*%
%TO.N,WAKEUP35*%
X204175000Y-130280000D03*
%TO.P,RN35,4,R4.1*%
%TO.N,Txd35*%
X204175000Y-132820000D03*
%TO.P,RN35,5,R4.2*%
%TO.N,Vss*%
X211795000Y-132820000D03*
%TO.P,RN35,6,R3.2*%
%TO.N,Lbus3*%
X211795000Y-130280000D03*
%TO.P,RN35,7,R2.2*%
%TO.N,Vbb*%
X211795000Y-127740000D03*
%TO.P,RN35,8,R1.2*%
%TO.N,Vren*%
X211795000Y-125200000D03*
%TD*%
D15*
%TO.P,J24,1*%
%TO.N,Rxd24*%
X124000000Y-99000000D03*
D16*
%TO.P,J24,2*%
%TO.N,CS24*%
X126540000Y-99000000D03*
%TO.P,J24,3*%
%TO.N,WAKEUP24*%
X129080000Y-99000000D03*
%TO.P,J24,4*%
%TO.N,Txd24*%
X131620000Y-99000000D03*
%TD*%
D13*
%TO.P,RN3,1,R1.1*%
%TO.N,Rxd3*%
X124175000Y-45200000D03*
D14*
%TO.P,RN3,2,R2.1*%
%TO.N,CS3*%
X124175000Y-47740000D03*
%TO.P,RN3,3,R3.1*%
%TO.N,WAKEUP3*%
X124175000Y-50280000D03*
%TO.P,RN3,4,R4.1*%
%TO.N,Txd3*%
X124175000Y-52820000D03*
%TO.P,RN3,5,R4.2*%
%TO.N,Vss*%
X131795000Y-52820000D03*
%TO.P,RN3,6,R3.2*%
%TO.N,Lbus1*%
X131795000Y-50280000D03*
%TO.P,RN3,7,R2.2*%
%TO.N,Vbb*%
X131795000Y-47740000D03*
%TO.P,RN3,8,R1.2*%
%TO.N,Vren*%
X131795000Y-45200000D03*
%TD*%
D15*
%TO.P,J37,1*%
%TO.N,Rxd37*%
X145000000Y-139000000D03*
D16*
%TO.P,J37,2*%
%TO.N,CS37*%
X147540000Y-139000000D03*
%TO.P,J37,3*%
%TO.N,WAKEUP37*%
X150080000Y-139000000D03*
%TO.P,J37,4*%
%TO.N,Txd37*%
X152620000Y-139000000D03*
%TD*%
D15*
%TO.P,J28,1*%
%TO.N,Rxd28*%
X204460000Y-98000000D03*
D16*
%TO.P,J28,2*%
%TO.N,CS28*%
X207000000Y-98000000D03*
%TO.P,J28,3*%
%TO.N,WAKEUP28*%
X209540000Y-98000000D03*
%TO.P,J28,4*%
%TO.N,Txd28*%
X212080000Y-98000000D03*
%TD*%
D13*
%TO.P,RN11,1,R1.1*%
%TO.N,Rxd11*%
X145175000Y-64450000D03*
D14*
%TO.P,RN11,2,R2.1*%
%TO.N,CS11*%
X145175000Y-66990000D03*
%TO.P,RN11,3,R3.1*%
%TO.N,WAKEUP11*%
X145175000Y-69530000D03*
%TO.P,RN11,4,R4.1*%
%TO.N,Txd11*%
X145175000Y-72070000D03*
%TO.P,RN11,5,R4.2*%
%TO.N,Vss*%
X152795000Y-72070000D03*
%TO.P,RN11,6,R3.2*%
%TO.N,Lbus1*%
X152795000Y-69530000D03*
%TO.P,RN11,7,R2.2*%
%TO.N,Vbb*%
X152795000Y-66990000D03*
%TO.P,RN11,8,R1.2*%
%TO.N,Vren*%
X152795000Y-64450000D03*
%TD*%
D13*
%TO.P,RN33,1,R1.1*%
%TO.N,Rxd33*%
X165180000Y-125380000D03*
D14*
%TO.P,RN33,2,R2.1*%
%TO.N,CS33*%
X165180000Y-127920000D03*
%TO.P,RN33,3,R3.1*%
%TO.N,WAKEUP33*%
X165180000Y-130460000D03*
%TO.P,RN33,4,R4.1*%
%TO.N,Txd33*%
X165180000Y-133000000D03*
%TO.P,RN33,5,R4.2*%
%TO.N,Vss*%
X172800000Y-133000000D03*
%TO.P,RN33,6,R3.2*%
%TO.N,Lbus3*%
X172800000Y-130460000D03*
%TO.P,RN33,7,R2.2*%
%TO.N,Vbb*%
X172800000Y-127920000D03*
%TO.P,RN33,8,R1.2*%
%TO.N,Vren*%
X172800000Y-125380000D03*
%TD*%
D13*
%TO.P,RN22,1,R1.1*%
%TO.N,Rxd22*%
X83970000Y-105380000D03*
D14*
%TO.P,RN22,2,R2.1*%
%TO.N,CS22*%
X83970000Y-107920000D03*
%TO.P,RN22,3,R3.1*%
%TO.N,WAKEUP22*%
X83970000Y-110460000D03*
%TO.P,RN22,4,R4.1*%
%TO.N,Txd22*%
X83970000Y-113000000D03*
%TO.P,RN22,5,R4.2*%
%TO.N,Vss*%
X91590000Y-113000000D03*
%TO.P,RN22,6,R3.2*%
%TO.N,Lbus2*%
X91590000Y-110460000D03*
%TO.P,RN22,7,R2.2*%
%TO.N,Vbb*%
X91590000Y-107920000D03*
%TO.P,RN22,8,R1.2*%
%TO.N,Vren*%
X91590000Y-105380000D03*
%TD*%
D15*
%TO.P,J15,1*%
%TO.N,Rxd15*%
X85000000Y-79000000D03*
D16*
%TO.P,J15,2*%
%TO.N,CS15*%
X87540000Y-79000000D03*
%TO.P,J15,3*%
%TO.N,WAKEUP15*%
X90080000Y-79000000D03*
%TO.P,J15,4*%
%TO.N,Txd15*%
X92620000Y-79000000D03*
%TD*%
D15*
%TO.P,J34,1*%
%TO.N,Rxd34*%
X185000000Y-119000000D03*
D16*
%TO.P,J34,2*%
%TO.N,CS34*%
X187540000Y-119000000D03*
%TO.P,J34,3*%
%TO.N,WAKEUP34*%
X190080000Y-119000000D03*
%TO.P,J34,4*%
%TO.N,Txd34*%
X192620000Y-119000000D03*
%TD*%
D13*
%TO.P,RN16,1,R1.1*%
%TO.N,Rxd16*%
X104175000Y-85200000D03*
D14*
%TO.P,RN16,2,R2.1*%
%TO.N,CS16*%
X104175000Y-87740000D03*
%TO.P,RN16,3,R3.1*%
%TO.N,WAKEUP16*%
X104175000Y-90280000D03*
%TO.P,RN16,4,R4.1*%
%TO.N,Txd16*%
X104175000Y-92820000D03*
%TO.P,RN16,5,R4.2*%
%TO.N,Vss*%
X111795000Y-92820000D03*
%TO.P,RN16,6,R3.2*%
%TO.N,Lbus2*%
X111795000Y-90280000D03*
%TO.P,RN16,7,R2.2*%
%TO.N,Vbb*%
X111795000Y-87740000D03*
%TO.P,RN16,8,R1.2*%
%TO.N,Vren*%
X111795000Y-85200000D03*
%TD*%
D15*
%TO.P,J10,1*%
%TO.N,Rxd10*%
X125000000Y-58000000D03*
D16*
%TO.P,J10,2*%
%TO.N,CS10*%
X127540000Y-58000000D03*
%TO.P,J10,3*%
%TO.N,WAKEUP10*%
X130080000Y-58000000D03*
%TO.P,J10,4*%
%TO.N,Txd10*%
X132620000Y-58000000D03*
%TD*%
D15*
%TO.P,J17,1*%
%TO.N,Rxd17*%
X124000000Y-79000000D03*
D16*
%TO.P,J17,2*%
%TO.N,CS17*%
X126540000Y-79000000D03*
%TO.P,J17,3*%
%TO.N,WAKEUP17*%
X129080000Y-79000000D03*
%TO.P,J17,4*%
%TO.N,Txd17*%
X131620000Y-79000000D03*
%TD*%
D15*
%TO.P,J6,1*%
%TO.N,Rxd6*%
X184000000Y-39000000D03*
D16*
%TO.P,J6,2*%
%TO.N,CS6*%
X186540000Y-39000000D03*
%TO.P,J6,3*%
%TO.N,WAKEUP6*%
X189080000Y-39000000D03*
%TO.P,J6,4*%
%TO.N,Txd6*%
X191620000Y-39000000D03*
%TD*%
D15*
%TO.P,J18,1*%
%TO.N,Rxd18*%
X145000000Y-79000000D03*
D16*
%TO.P,J18,2*%
%TO.N,CS18*%
X147540000Y-79000000D03*
%TO.P,J18,3*%
%TO.N,WAKEUP18*%
X150080000Y-79000000D03*
%TO.P,J18,4*%
%TO.N,Txd18*%
X152620000Y-79000000D03*
%TD*%
D13*
%TO.P,RN9,1,R1.1*%
%TO.N,Rxd9*%
X104380000Y-64450000D03*
D14*
%TO.P,RN9,2,R2.1*%
%TO.N,CS9*%
X104380000Y-66990000D03*
%TO.P,RN9,3,R3.1*%
%TO.N,WAKEUP9*%
X104380000Y-69530000D03*
%TO.P,RN9,4,R4.1*%
%TO.N,Txd9*%
X104380000Y-72070000D03*
%TO.P,RN9,5,R4.2*%
%TO.N,Vss*%
X112000000Y-72070000D03*
%TO.P,RN9,6,R3.2*%
%TO.N,Lbus1*%
X112000000Y-69530000D03*
%TO.P,RN9,7,R2.2*%
%TO.N,Vbb*%
X112000000Y-66990000D03*
%TO.P,RN9,8,R1.2*%
%TO.N,Vren*%
X112000000Y-64450000D03*
%TD*%
D13*
%TO.P,RN10,1,R1.1*%
%TO.N,Rxd10*%
X124175000Y-64450000D03*
D14*
%TO.P,RN10,2,R2.1*%
%TO.N,CS10*%
X124175000Y-66990000D03*
%TO.P,RN10,3,R3.1*%
%TO.N,WAKEUP10*%
X124175000Y-69530000D03*
%TO.P,RN10,4,R4.1*%
%TO.N,Txd10*%
X124175000Y-72070000D03*
%TO.P,RN10,5,R4.2*%
%TO.N,Vss*%
X131795000Y-72070000D03*
%TO.P,RN10,6,R3.2*%
%TO.N,Lbus1*%
X131795000Y-69530000D03*
%TO.P,RN10,7,R2.2*%
%TO.N,Vbb*%
X131795000Y-66990000D03*
%TO.P,RN10,8,R1.2*%
%TO.N,Vren*%
X131795000Y-64450000D03*
%TD*%
D15*
%TO.P,J23,1*%
%TO.N,Rxd23*%
X104000000Y-99000000D03*
D16*
%TO.P,J23,2*%
%TO.N,CS23*%
X106540000Y-99000000D03*
%TO.P,J23,3*%
%TO.N,WAKEUP23*%
X109080000Y-99000000D03*
%TO.P,J23,4*%
%TO.N,Txd23*%
X111620000Y-99000000D03*
%TD*%
D15*
%TO.P,J8,1*%
%TO.N,Rxd8*%
X84000000Y-59000000D03*
D16*
%TO.P,J8,2*%
%TO.N,CS8*%
X86540000Y-59000000D03*
%TO.P,J8,3*%
%TO.N,WAKEUP8*%
X89080000Y-59000000D03*
%TO.P,J8,4*%
%TO.N,Txd8*%
X91620000Y-59000000D03*
%TD*%
D15*
%TO.P,J30,1*%
%TO.N,Rxd30*%
X104460000Y-119000000D03*
D16*
%TO.P,J30,2*%
%TO.N,CS30*%
X107000000Y-119000000D03*
%TO.P,J30,3*%
%TO.N,WAKEUP30*%
X109540000Y-119000000D03*
%TO.P,J30,4*%
%TO.N,Txd30*%
X112080000Y-119000000D03*
%TD*%
D15*
%TO.P,J21,1*%
%TO.N,Rxd21*%
X203460000Y-79000000D03*
D16*
%TO.P,J21,2*%
%TO.N,CS21*%
X206000000Y-79000000D03*
%TO.P,J21,3*%
%TO.N,WAKEUP21*%
X208540000Y-79000000D03*
%TO.P,J21,4*%
%TO.N,Txd21*%
X211080000Y-79000000D03*
%TD*%
D13*
%TO.P,RN15,1,R1.1*%
%TO.N,Rxd15*%
X83970000Y-85200000D03*
D14*
%TO.P,RN15,2,R2.1*%
%TO.N,CS15*%
X83970000Y-87740000D03*
%TO.P,RN15,3,R3.1*%
%TO.N,WAKEUP15*%
X83970000Y-90280000D03*
%TO.P,RN15,4,R4.1*%
%TO.N,Txd15*%
X83970000Y-92820000D03*
%TO.P,RN15,5,R4.2*%
%TO.N,Vss*%
X91590000Y-92820000D03*
%TO.P,RN15,6,R3.2*%
%TO.N,Lbus1*%
X91590000Y-90280000D03*
%TO.P,RN15,7,R2.2*%
%TO.N,Vbb*%
X91590000Y-87740000D03*
%TO.P,RN15,8,R1.2*%
%TO.N,Vren*%
X91590000Y-85200000D03*
%TD*%
D15*
%TO.P,J38,1*%
%TO.N,Rxd38*%
X165200000Y-140000000D03*
D16*
%TO.P,J38,2*%
%TO.N,CS38*%
X167740000Y-140000000D03*
%TO.P,J38,3*%
%TO.N,WAKEUP38*%
X170280000Y-140000000D03*
%TO.P,J38,4*%
%TO.N,Txd38*%
X172820000Y-140000000D03*
%TD*%
D15*
%TO.P,J12,1*%
%TO.N,Rxd12*%
X164000000Y-58000000D03*
D16*
%TO.P,J12,2*%
%TO.N,CS12*%
X166540000Y-58000000D03*
%TO.P,J12,3*%
%TO.N,WAKEUP12*%
X169080000Y-58000000D03*
%TO.P,J12,4*%
%TO.N,Txd12*%
X171620000Y-58000000D03*
%TD*%
D13*
%TO.P,RN30,1,R1.1*%
%TO.N,Rxd30*%
X104585000Y-125920000D03*
D14*
%TO.P,RN30,2,R2.1*%
%TO.N,CS30*%
X104585000Y-128460000D03*
%TO.P,RN30,3,R3.1*%
%TO.N,WAKEUP30*%
X104585000Y-131000000D03*
%TO.P,RN30,4,R4.1*%
%TO.N,Txd30*%
X104585000Y-133540000D03*
%TO.P,RN30,5,R4.2*%
%TO.N,Vss*%
X112205000Y-133540000D03*
%TO.P,RN30,6,R3.2*%
%TO.N,Lbus2*%
X112205000Y-131000000D03*
%TO.P,RN30,7,R2.2*%
%TO.N,Vbb*%
X112205000Y-128460000D03*
%TO.P,RN30,8,R1.2*%
%TO.N,Vren*%
X112205000Y-125920000D03*
%TD*%
D15*
%TO.P,J31,1*%
%TO.N,Rxd31*%
X125000000Y-119000000D03*
D16*
%TO.P,J31,2*%
%TO.N,CS31*%
X127540000Y-119000000D03*
%TO.P,J31,3*%
%TO.N,WAKEUP31*%
X130080000Y-119000000D03*
%TO.P,J31,4*%
%TO.N,Txd31*%
X132620000Y-119000000D03*
%TD*%
D15*
%TO.P,J22,1*%
%TO.N,Rxd22*%
X84000000Y-99000000D03*
D16*
%TO.P,J22,2*%
%TO.N,CS22*%
X86540000Y-99000000D03*
%TO.P,J22,3*%
%TO.N,WAKEUP22*%
X89080000Y-99000000D03*
%TO.P,J22,4*%
%TO.N,Txd22*%
X91620000Y-99000000D03*
%TD*%
D13*
%TO.P,RN4,1,R1.1*%
%TO.N,Rxd4*%
X145175000Y-45200000D03*
D14*
%TO.P,RN4,2,R2.1*%
%TO.N,CS4*%
X145175000Y-47740000D03*
%TO.P,RN4,3,R3.1*%
%TO.N,WAKEUP4*%
X145175000Y-50280000D03*
%TO.P,RN4,4,R4.1*%
%TO.N,Txd4*%
X145175000Y-52820000D03*
%TO.P,RN4,5,R4.2*%
%TO.N,Vss*%
X152795000Y-52820000D03*
%TO.P,RN4,6,R3.2*%
%TO.N,Lbus1*%
X152795000Y-50280000D03*
%TO.P,RN4,7,R2.2*%
%TO.N,Vbb*%
X152795000Y-47740000D03*
%TO.P,RN4,8,R1.2*%
%TO.N,Vren*%
X152795000Y-45200000D03*
%TD*%
D13*
%TO.P,RN31,1,R1.1*%
%TO.N,Rxd31*%
X124380000Y-125920000D03*
D14*
%TO.P,RN31,2,R2.1*%
%TO.N,CS31*%
X124380000Y-128460000D03*
%TO.P,RN31,3,R3.1*%
%TO.N,WAKEUP31*%
X124380000Y-131000000D03*
%TO.P,RN31,4,R4.1*%
%TO.N,Txd31*%
X124380000Y-133540000D03*
%TO.P,RN31,5,R4.2*%
%TO.N,Vss*%
X132000000Y-133540000D03*
%TO.P,RN31,6,R3.2*%
%TO.N,Lbus3*%
X132000000Y-131000000D03*
%TO.P,RN31,7,R2.2*%
%TO.N,Vbb*%
X132000000Y-128460000D03*
%TO.P,RN31,8,R1.2*%
%TO.N,Vren*%
X132000000Y-125920000D03*
%TD*%
D13*
%TO.P,RN26,1,R1.1*%
%TO.N,Rxd26*%
X163970000Y-105380000D03*
D14*
%TO.P,RN26,2,R2.1*%
%TO.N,CS26*%
X163970000Y-107920000D03*
%TO.P,RN26,3,R3.1*%
%TO.N,WAKEUP26*%
X163970000Y-110460000D03*
%TO.P,RN26,4,R4.1*%
%TO.N,Txd26*%
X163970000Y-113000000D03*
%TO.P,RN26,5,R4.2*%
%TO.N,Vss*%
X171590000Y-113000000D03*
%TO.P,RN26,6,R3.2*%
%TO.N,Lbus2*%
X171590000Y-110460000D03*
%TO.P,RN26,7,R2.2*%
%TO.N,Vbb*%
X171590000Y-107920000D03*
%TO.P,RN26,8,R1.2*%
%TO.N,Vren*%
X171590000Y-105380000D03*
%TD*%
D19*
%TO.N,Vss*%
X213230000Y-111360000D02*
X211590000Y-113000000D01*
X152795000Y-72070000D02*
X152070000Y-72070000D01*
X91590000Y-92820000D02*
X95000000Y-96230000D01*
X113100000Y-73170000D02*
X112000000Y-72070000D01*
X113305000Y-134640000D02*
X130900000Y-134640000D01*
X92895000Y-73170000D02*
X91795000Y-72070000D01*
X193370000Y-94600000D02*
X191590000Y-92820000D01*
X171795000Y-72070000D02*
X170695000Y-73170000D01*
X95000000Y-151000000D02*
X95000000Y-136540000D01*
X211795000Y-72070000D02*
X215000000Y-75275000D01*
X190695000Y-70970000D02*
X172895000Y-70970000D01*
X153895000Y-73170000D02*
X152795000Y-72070000D01*
X215000000Y-93000000D02*
X214820000Y-92820000D01*
X112205000Y-133540000D02*
X113305000Y-134640000D01*
X112205000Y-133795000D02*
X112205000Y-133540000D01*
X209410000Y-95000000D02*
X204565686Y-95000000D01*
X91795000Y-72070000D02*
X97000000Y-66865000D01*
X204165686Y-94600000D02*
X193370000Y-94600000D01*
X97000000Y-58025000D02*
X91795000Y-52820000D01*
X215000000Y-75275000D02*
X215000000Y-93000000D01*
X191795000Y-72070000D02*
X190695000Y-70970000D01*
X170695000Y-73170000D02*
X153895000Y-73170000D01*
X95000000Y-151000000D02*
X112205000Y-133795000D01*
X95000000Y-96230000D02*
X95000000Y-109590000D01*
X211590000Y-92820000D02*
X209410000Y-95000000D01*
X211590000Y-92820000D02*
X213230000Y-94460000D01*
X131795000Y-72070000D02*
X130695000Y-73170000D01*
X152070000Y-72070000D02*
X150970000Y-73170000D01*
X172895000Y-70970000D02*
X171795000Y-72070000D01*
X130900000Y-134640000D02*
X132000000Y-133540000D01*
X130695000Y-73170000D02*
X113100000Y-73170000D01*
X150970000Y-73170000D02*
X132895000Y-73170000D01*
X132895000Y-73170000D02*
X131795000Y-72070000D01*
X95000000Y-136540000D02*
X92000000Y-133540000D01*
X213230000Y-94460000D02*
X213230000Y-111360000D01*
X214820000Y-92820000D02*
X211590000Y-92820000D01*
X112205000Y-133540000D02*
X111000000Y-133540000D01*
X97000000Y-66865000D02*
X97000000Y-58025000D01*
X204565686Y-95000000D02*
X204165686Y-94600000D01*
X110900000Y-73170000D02*
X92895000Y-73170000D01*
X112000000Y-72070000D02*
X110900000Y-73170000D01*
X95000000Y-109590000D02*
X91590000Y-113000000D01*
%TO.N,Vren*%
X138000000Y-131920000D02*
X138000000Y-143000000D01*
X138000000Y-143000000D02*
X137000000Y-143000000D01*
X132000000Y-125920000D02*
X138000000Y-131920000D01*
X211795000Y-64450000D02*
X215000000Y-61245000D01*
X215000000Y-45200000D02*
X211795000Y-45200000D01*
X137000000Y-143000000D02*
X134800000Y-145200000D01*
X134800000Y-145200000D02*
X132795000Y-145200000D01*
X215000000Y-61245000D02*
X215000000Y-45200000D01*
%TO.N,Rxd1*%
X84000000Y-45025000D02*
X84175000Y-45200000D01*
X84000000Y-39000000D02*
X84000000Y-45025000D01*
%TO.N,Vbb*%
X132795000Y-147740000D02*
X131000000Y-145945000D01*
X131000000Y-144000000D02*
X133000000Y-142000000D01*
X131000000Y-145945000D02*
X131000000Y-144000000D01*
X135000000Y-131060000D02*
X132400000Y-128460000D01*
X135000000Y-142000000D02*
X135000000Y-131060000D01*
X133000000Y-142000000D02*
X135000000Y-142000000D01*
X132400000Y-128460000D02*
X132000000Y-128460000D01*
%TO.N,WAKEUP1*%
X86080000Y-36000000D02*
X79000000Y-36000000D01*
X79000000Y-45105000D02*
X84175000Y-50280000D01*
X79000000Y-36000000D02*
X79000000Y-45105000D01*
X89080000Y-39000000D02*
X86080000Y-36000000D01*
%TO.N,CS1*%
X81000000Y-37000000D02*
X81000000Y-44565000D01*
X84540000Y-37000000D02*
X81000000Y-37000000D01*
X86540000Y-39000000D02*
X84540000Y-37000000D01*
X81000000Y-44565000D02*
X84175000Y-47740000D01*
%TO.N,Txd1*%
X77000000Y-35000000D02*
X77000000Y-45645000D01*
X77000000Y-45645000D02*
X84175000Y-52820000D01*
X91620000Y-39000000D02*
X87620000Y-35000000D01*
X87620000Y-35000000D02*
X77000000Y-35000000D01*
%TO.N,WAKEUP5*%
X160000000Y-33000000D02*
X167000000Y-33000000D01*
X161280000Y-50280000D02*
X159000000Y-48000000D01*
X164175000Y-50280000D02*
X161280000Y-50280000D01*
X159000000Y-34000000D02*
X160000000Y-33000000D01*
X167000000Y-33000000D02*
X169080000Y-35080000D01*
X169080000Y-35080000D02*
X169080000Y-39000000D01*
X159000000Y-48000000D02*
X159000000Y-34000000D01*
%TO.N,Txd5*%
X171620000Y-33620000D02*
X170000000Y-32000000D01*
X171620000Y-39000000D02*
X171620000Y-33620000D01*
X170000000Y-32000000D02*
X158000000Y-32000000D01*
X158000000Y-32000000D02*
X158000000Y-48045000D01*
X162775000Y-52820000D02*
X164175000Y-52820000D01*
X158000000Y-48045000D02*
X162775000Y-52820000D01*
%TO.N,WAKEUP6*%
X178000000Y-34000000D02*
X189000000Y-34000000D01*
X189000000Y-34000000D02*
X189080000Y-34080000D01*
X189080000Y-34080000D02*
X189080000Y-39000000D01*
X177000000Y-43105000D02*
X177000000Y-35000000D01*
X177000000Y-35000000D02*
X178000000Y-34000000D01*
X184175000Y-50280000D02*
X177000000Y-43105000D01*
%TO.N,CS6*%
X186540000Y-36540000D02*
X186000000Y-36000000D01*
X179000000Y-36000000D02*
X179000000Y-42565000D01*
X186000000Y-36000000D02*
X179000000Y-36000000D01*
X186540000Y-39000000D02*
X186540000Y-36540000D01*
X179000000Y-42565000D02*
X184175000Y-47740000D01*
%TO.N,Txd6*%
X175000000Y-43645000D02*
X184175000Y-52820000D01*
X192000000Y-32000000D02*
X175000000Y-32000000D01*
X191620000Y-32380000D02*
X192000000Y-32000000D01*
X175000000Y-32000000D02*
X175000000Y-43645000D01*
X191620000Y-39000000D02*
X191620000Y-32380000D01*
%TO.N,Rxd6*%
X184000000Y-45025000D02*
X184175000Y-45200000D01*
X184000000Y-39000000D02*
X184000000Y-45025000D01*
%TO.N,Lbus1*%
X112000000Y-50280000D02*
X112280000Y-50000000D01*
X116000000Y-50000000D02*
X116000000Y-65530000D01*
X98000000Y-56485000D02*
X98000000Y-64000000D01*
X91795000Y-50280000D02*
X98000000Y-56485000D01*
X112280000Y-50000000D02*
X116000000Y-50000000D01*
X116000000Y-65530000D02*
X112000000Y-69530000D01*
%TO.N,CS2*%
X101000000Y-36000000D02*
X101000000Y-44360000D01*
X106540000Y-39000000D02*
X103540000Y-36000000D01*
X103540000Y-36000000D02*
X101000000Y-36000000D01*
X101000000Y-44360000D02*
X104380000Y-47740000D01*
%TO.N,WAKEUP2*%
X98000000Y-43900000D02*
X104380000Y-50280000D01*
X98000000Y-35000000D02*
X98000000Y-43900000D01*
X109080000Y-39000000D02*
X105080000Y-35000000D01*
X105080000Y-35000000D02*
X98000000Y-35000000D01*
%TO.N,Txd2*%
X108000000Y-42620000D02*
X108000000Y-49200000D01*
X111620000Y-39000000D02*
X108000000Y-42620000D01*
X108000000Y-49200000D02*
X104380000Y-52820000D01*
%TO.N,Rxd2*%
X104000000Y-39000000D02*
X104000000Y-44820000D01*
X104000000Y-44820000D02*
X104380000Y-45200000D01*
%TO.N,CS3*%
X125000000Y-34000000D02*
X121000000Y-34000000D01*
X121000000Y-44565000D02*
X124175000Y-47740000D01*
X127540000Y-36540000D02*
X125000000Y-34000000D01*
X127540000Y-39000000D02*
X127540000Y-36540000D01*
X121000000Y-34000000D02*
X121000000Y-44565000D01*
%TO.N,Rxd3*%
X125000000Y-39000000D02*
X125000000Y-44375000D01*
X125000000Y-44375000D02*
X124175000Y-45200000D01*
%TO.N,WAKEUP3*%
X129000000Y-37920000D02*
X129000000Y-33000000D01*
X120000000Y-33000000D02*
X120000000Y-46105000D01*
X129000000Y-33000000D02*
X120000000Y-33000000D01*
X130080000Y-39000000D02*
X129000000Y-37920000D01*
X120000000Y-46105000D02*
X124175000Y-50280000D01*
%TO.N,Txd3*%
X132620000Y-32620000D02*
X132620000Y-39000000D01*
X119000000Y-32000000D02*
X132000000Y-32000000D01*
X118000000Y-51000000D02*
X119000000Y-50000000D01*
X132000000Y-32000000D02*
X132620000Y-32620000D01*
X119000000Y-50000000D02*
X119000000Y-32000000D01*
X124175000Y-52820000D02*
X118820000Y-52820000D01*
X118000000Y-52000000D02*
X118000000Y-51000000D01*
X118820000Y-52820000D02*
X118000000Y-52000000D01*
%TO.N,CS4*%
X147000000Y-35000000D02*
X139000000Y-35000000D01*
X139000000Y-35000000D02*
X139000000Y-41565000D01*
X139000000Y-41565000D02*
X145175000Y-47740000D01*
X146540000Y-35460000D02*
X147000000Y-35000000D01*
X146540000Y-39000000D02*
X146540000Y-35460000D01*
%TO.N,Txd4*%
X151000000Y-34434315D02*
X151000000Y-32000000D01*
X136000000Y-49000000D02*
X139000000Y-52000000D01*
X136000000Y-33000000D02*
X136000000Y-49000000D01*
X151620000Y-35054315D02*
X151000000Y-34434315D01*
X137000000Y-32000000D02*
X136000000Y-33000000D01*
X151000000Y-32000000D02*
X137000000Y-32000000D01*
X151620000Y-39000000D02*
X151620000Y-35054315D01*
X140820000Y-52820000D02*
X145175000Y-52820000D01*
X139000000Y-52000000D02*
X140000000Y-52000000D01*
X140000000Y-52000000D02*
X140820000Y-52820000D01*
%TO.N,WAKEUP4*%
X137000000Y-42105000D02*
X137000000Y-36434315D01*
X149000000Y-33000000D02*
X149000000Y-34000000D01*
X137000000Y-36434315D02*
X140434315Y-33000000D01*
X145175000Y-50280000D02*
X137000000Y-42105000D01*
X149000000Y-34000000D02*
X149080000Y-34080000D01*
X149080000Y-34080000D02*
X149080000Y-39000000D01*
X140434315Y-33000000D02*
X149000000Y-33000000D01*
%TO.N,Rxd4*%
X144000000Y-44025000D02*
X145175000Y-45200000D01*
X144000000Y-39000000D02*
X144000000Y-44025000D01*
%TO.N,CS5*%
X160000000Y-35000000D02*
X160000000Y-43565000D01*
X165000000Y-35000000D02*
X160000000Y-35000000D01*
X166540000Y-39000000D02*
X166540000Y-36540000D01*
X160000000Y-43565000D02*
X164175000Y-47740000D01*
X166540000Y-36540000D02*
X165000000Y-35000000D01*
%TO.N,Rxd5*%
X164175000Y-45200000D02*
X164175000Y-39175000D01*
X164175000Y-39175000D02*
X164000000Y-39000000D01*
%TO.N,CS7*%
X206540000Y-35460000D02*
X207000000Y-35000000D01*
X200000000Y-35000000D02*
X199000000Y-36000000D01*
X199000000Y-36000000D02*
X199000000Y-42565000D01*
X199000000Y-42565000D02*
X204175000Y-47740000D01*
X206540000Y-39000000D02*
X206540000Y-35460000D01*
X207000000Y-35000000D02*
X200000000Y-35000000D01*
%TO.N,WAKEUP7*%
X209000000Y-35000000D02*
X209080000Y-35080000D01*
X209080000Y-35080000D02*
X209080000Y-39000000D01*
X198000000Y-44505000D02*
X198000000Y-35000000D01*
X199000000Y-34000000D02*
X209000000Y-34000000D01*
X204175000Y-50280000D02*
X203775000Y-50280000D01*
X198000000Y-35000000D02*
X199000000Y-34000000D01*
X209000000Y-34000000D02*
X209000000Y-35000000D01*
X203775000Y-50280000D02*
X198000000Y-44505000D01*
%TO.N,Txd7*%
X197000000Y-33000000D02*
X197000000Y-45645000D01*
X197000000Y-45645000D02*
X204175000Y-52820000D01*
X211620000Y-33620000D02*
X211000000Y-33000000D01*
X211000000Y-33000000D02*
X197000000Y-33000000D01*
X211620000Y-39000000D02*
X211620000Y-33620000D01*
%TO.N,Rxd7*%
X204175000Y-40175000D02*
X204175000Y-45200000D01*
X204000000Y-39000000D02*
X204000000Y-40000000D01*
X204000000Y-40000000D02*
X204175000Y-40175000D01*
%TO.N,WAKEUP8*%
X77000000Y-56000000D02*
X77000000Y-62355000D01*
X86680000Y-56600000D02*
X86600000Y-56600000D01*
X86600000Y-56600000D02*
X86000000Y-56000000D01*
X89080000Y-59000000D02*
X86680000Y-56600000D01*
X77000000Y-62355000D02*
X84175000Y-69530000D01*
X86000000Y-56000000D02*
X77000000Y-56000000D01*
%TO.N,CS8*%
X80000000Y-57000000D02*
X80000000Y-62815000D01*
X80000000Y-62815000D02*
X84175000Y-66990000D01*
X84540000Y-57000000D02*
X80000000Y-57000000D01*
X86540000Y-59000000D02*
X84540000Y-57000000D01*
%TO.N,Txd8*%
X87620000Y-55000000D02*
X74000000Y-55000000D01*
X74000000Y-61895000D02*
X84175000Y-72070000D01*
X74000000Y-55000000D02*
X74000000Y-61895000D01*
X91620000Y-59000000D02*
X87620000Y-55000000D01*
%TO.N,Rxd8*%
X84000000Y-64275000D02*
X84175000Y-64450000D01*
X84000000Y-59000000D02*
X84000000Y-64275000D01*
%TO.N,WAKEUP9*%
X109080000Y-58000000D02*
X109080000Y-64830000D01*
X109080000Y-64830000D02*
X104380000Y-69530000D01*
%TO.N,Rxd9*%
X104000000Y-58000000D02*
X104000000Y-64070000D01*
X104000000Y-64070000D02*
X104380000Y-64450000D01*
%TO.N,CS9*%
X104540000Y-56000000D02*
X101000000Y-56000000D01*
X106540000Y-58000000D02*
X104540000Y-56000000D01*
X101000000Y-63610000D02*
X104380000Y-66990000D01*
X101000000Y-56000000D02*
X101000000Y-63610000D01*
%TO.N,Txd9*%
X111620000Y-58000000D02*
X108620000Y-55000000D01*
X100000000Y-67690000D02*
X104380000Y-72070000D01*
X108620000Y-55000000D02*
X100000000Y-55000000D01*
X100000000Y-55000000D02*
X100000000Y-67690000D01*
%TO.N,Txd10*%
X130000000Y-60620000D02*
X130000000Y-66245000D01*
X130000000Y-66245000D02*
X124175000Y-72070000D01*
X132620000Y-58000000D02*
X130000000Y-60620000D01*
%TO.N,WAKEUP10*%
X130080000Y-58000000D02*
X127080000Y-55000000D01*
X119000000Y-55000000D02*
X119000000Y-64355000D01*
X119000000Y-64355000D02*
X124175000Y-69530000D01*
X127080000Y-55000000D02*
X119000000Y-55000000D01*
%TO.N,CS10*%
X121000000Y-56000000D02*
X121000000Y-63815000D01*
X127540000Y-58000000D02*
X125540000Y-56000000D01*
X125540000Y-56000000D02*
X121000000Y-56000000D01*
X121000000Y-63815000D02*
X124175000Y-66990000D01*
%TO.N,Rxd10*%
X125000000Y-63625000D02*
X124175000Y-64450000D01*
X125000000Y-58000000D02*
X125000000Y-63625000D01*
%TO.N,Txd11*%
X142000000Y-68895000D02*
X145175000Y-72070000D01*
X149620000Y-55000000D02*
X142000000Y-55000000D01*
X152620000Y-58000000D02*
X149620000Y-55000000D01*
X142000000Y-55000000D02*
X142000000Y-68895000D01*
%TO.N,WAKEUP11*%
X150080000Y-64625000D02*
X145175000Y-69530000D01*
X150080000Y-58000000D02*
X150080000Y-64625000D01*
%TO.N,CS11*%
X147540000Y-58000000D02*
X147540000Y-64625000D01*
X147540000Y-64625000D02*
X145175000Y-66990000D01*
%TO.N,Rxd11*%
X145000000Y-64275000D02*
X145175000Y-64450000D01*
X145000000Y-58000000D02*
X145000000Y-64275000D01*
%TO.N,Rxd12*%
X164000000Y-64275000D02*
X164175000Y-64450000D01*
X164000000Y-58000000D02*
X164000000Y-64275000D01*
%TO.N,WAKEUP12*%
X164175000Y-69530000D02*
X160000000Y-65355000D01*
X160000000Y-55000000D02*
X166080000Y-55000000D01*
X160000000Y-65355000D02*
X160000000Y-55000000D01*
X166080000Y-55000000D02*
X169080000Y-58000000D01*
%TO.N,Txd12*%
X168000000Y-64209365D02*
X168000000Y-68245000D01*
X168000000Y-68245000D02*
X164175000Y-72070000D01*
X171620000Y-60589365D02*
X168000000Y-64209365D01*
X171620000Y-58000000D02*
X171620000Y-60589365D01*
%TO.N,CS12*%
X161000000Y-57000000D02*
X161000000Y-63815000D01*
X164540000Y-56000000D02*
X162000000Y-56000000D01*
X162000000Y-56000000D02*
X161000000Y-57000000D01*
X166540000Y-58000000D02*
X164540000Y-56000000D01*
X161000000Y-63815000D02*
X164175000Y-66990000D01*
%TO.N,WAKEUP13*%
X189000000Y-56000000D02*
X189080000Y-56080000D01*
X180000000Y-55000000D02*
X189000000Y-55000000D01*
X184175000Y-69530000D02*
X179000000Y-64355000D01*
X189080000Y-56080000D02*
X189080000Y-59000000D01*
X189000000Y-55000000D02*
X189000000Y-56000000D01*
X179000000Y-56000000D02*
X180000000Y-55000000D01*
X179000000Y-64355000D02*
X179000000Y-56000000D01*
%TO.N,Rxd13*%
X184175000Y-60175000D02*
X184175000Y-64450000D01*
X184000000Y-59000000D02*
X184000000Y-60000000D01*
X184000000Y-60000000D02*
X184175000Y-60175000D01*
%TO.N,CS13*%
X180000000Y-62815000D02*
X184175000Y-66990000D01*
X186540000Y-59000000D02*
X186540000Y-57540000D01*
X185000000Y-56000000D02*
X180000000Y-56000000D01*
X180000000Y-56000000D02*
X180000000Y-62815000D01*
X186540000Y-57540000D02*
X185000000Y-56000000D01*
%TO.N,Txd13*%
X191620000Y-59000000D02*
X194000000Y-61380000D01*
X184000000Y-72245000D02*
X184175000Y-72070000D01*
X194000000Y-74000000D02*
X184000000Y-74000000D01*
X184000000Y-74000000D02*
X184000000Y-72245000D01*
X194000000Y-61380000D02*
X194000000Y-74000000D01*
%TO.N,CS14*%
X201000000Y-63815000D02*
X204175000Y-66990000D01*
X204540000Y-56000000D02*
X201000000Y-56000000D01*
X201000000Y-56000000D02*
X201000000Y-63815000D01*
X207540000Y-59000000D02*
X204540000Y-56000000D01*
%TO.N,Rxd14*%
X205000000Y-59000000D02*
X205000000Y-63625000D01*
X205000000Y-63625000D02*
X204175000Y-64450000D01*
%TO.N,Txd14*%
X208000000Y-72000000D02*
X207930000Y-72070000D01*
X212620000Y-59000000D02*
X208000000Y-63620000D01*
X207930000Y-72070000D02*
X204175000Y-72070000D01*
X208000000Y-63620000D02*
X208000000Y-72000000D01*
%TO.N,WAKEUP14*%
X208000000Y-56920000D02*
X210080000Y-59000000D01*
X200000000Y-55000000D02*
X207000000Y-55000000D01*
X208000000Y-56000000D02*
X208000000Y-56920000D01*
X200000000Y-65355000D02*
X200000000Y-55000000D01*
X204175000Y-69530000D02*
X200000000Y-65355000D01*
X207000000Y-55000000D02*
X208000000Y-56000000D01*
%TO.N,Txd15*%
X81000000Y-89850000D02*
X83970000Y-92820000D01*
X90620000Y-77000000D02*
X81000000Y-77000000D01*
X92620000Y-79000000D02*
X90620000Y-77000000D01*
X81000000Y-77000000D02*
X81000000Y-89850000D01*
%TO.N,WAKEUP15*%
X90080000Y-84170000D02*
X83970000Y-90280000D01*
X90080000Y-79000000D02*
X90080000Y-84170000D01*
%TO.N,Rxd15*%
X85000000Y-84170000D02*
X83970000Y-85200000D01*
X85000000Y-79000000D02*
X85000000Y-84170000D01*
%TO.N,CS15*%
X87540000Y-79000000D02*
X87540000Y-84170000D01*
X87540000Y-84170000D02*
X83970000Y-87740000D01*
%TO.N,Txd16*%
X111620000Y-79000000D02*
X115000000Y-82380000D01*
X115000000Y-95000000D02*
X106355000Y-95000000D01*
X106355000Y-95000000D02*
X104175000Y-92820000D01*
X115000000Y-82380000D02*
X115000000Y-95000000D01*
%TO.N,WAKEUP16*%
X109080000Y-85375000D02*
X104175000Y-90280000D01*
X109080000Y-79000000D02*
X109080000Y-85375000D01*
%TO.N,CS16*%
X106540000Y-79000000D02*
X103540000Y-76000000D01*
X103540000Y-76000000D02*
X101000000Y-76000000D01*
X100000000Y-83565000D02*
X104175000Y-87740000D01*
X101000000Y-76000000D02*
X100000000Y-77000000D01*
X100000000Y-77000000D02*
X100000000Y-83565000D01*
%TO.N,Rxd16*%
X104175000Y-80175000D02*
X104175000Y-85200000D01*
X104000000Y-79000000D02*
X104000000Y-80000000D01*
X104000000Y-80000000D02*
X104175000Y-80175000D01*
%TO.N,Txd17*%
X120000000Y-88850000D02*
X123970000Y-92820000D01*
X131620000Y-79000000D02*
X128620000Y-76000000D01*
X120000000Y-76000000D02*
X120000000Y-88850000D01*
X128620000Y-76000000D02*
X120000000Y-76000000D01*
%TO.N,WAKEUP17*%
X129080000Y-85170000D02*
X123970000Y-90280000D01*
X129080000Y-79000000D02*
X129080000Y-85170000D01*
%TO.N,Rxd17*%
X124000000Y-79000000D02*
X124000000Y-85170000D01*
X124000000Y-85170000D02*
X123970000Y-85200000D01*
%TO.N,CS17*%
X126540000Y-85170000D02*
X123970000Y-87740000D01*
X126540000Y-79000000D02*
X126540000Y-85170000D01*
%TO.N,Txd18*%
X142000000Y-76000000D02*
X142000000Y-89850000D01*
X142000000Y-89850000D02*
X144970000Y-92820000D01*
X152620000Y-79000000D02*
X149620000Y-76000000D01*
X149620000Y-76000000D02*
X142000000Y-76000000D01*
%TO.N,Rxd18*%
X144970000Y-80030000D02*
X144970000Y-85200000D01*
X145000000Y-79000000D02*
X145000000Y-80000000D01*
X145000000Y-80000000D02*
X144970000Y-80030000D01*
%TO.N,CS18*%
X147540000Y-79000000D02*
X147540000Y-85170000D01*
X147540000Y-85170000D02*
X144970000Y-87740000D01*
%TO.N,WAKEUP18*%
X150080000Y-85170000D02*
X144970000Y-90280000D01*
X150080000Y-79000000D02*
X150080000Y-85170000D01*
%TO.N,CS19*%
X163000000Y-76000000D02*
X162000000Y-77000000D01*
X164000000Y-76000000D02*
X163000000Y-76000000D01*
X162000000Y-77000000D02*
X162000000Y-86170000D01*
X163570000Y-87740000D02*
X163970000Y-87740000D01*
X162000000Y-86170000D02*
X163570000Y-87740000D01*
X167000000Y-79000000D02*
X164000000Y-76000000D01*
%TO.N,WAKEUP19*%
X162000000Y-75000000D02*
X161000000Y-76000000D01*
X165540000Y-75000000D02*
X162000000Y-75000000D01*
X169540000Y-79000000D02*
X165540000Y-75000000D01*
X161000000Y-87310000D02*
X163970000Y-90280000D01*
X161000000Y-76000000D02*
X161000000Y-87310000D01*
%TO.N,Rxd19*%
X164460000Y-84710000D02*
X163970000Y-85200000D01*
X164460000Y-79000000D02*
X164460000Y-84710000D01*
%TO.N,Txd19*%
X176000000Y-95000000D02*
X175000000Y-96000000D01*
X167150000Y-96000000D02*
X163970000Y-92820000D01*
X175000000Y-96000000D02*
X167150000Y-96000000D01*
X176000000Y-79000000D02*
X176000000Y-95000000D01*
X172080000Y-79000000D02*
X176000000Y-79000000D01*
%TO.N,Txd20*%
X188822081Y-75000000D02*
X180000000Y-75000000D01*
X179000000Y-87850000D02*
X183970000Y-92820000D01*
X179000000Y-76000000D02*
X179000000Y-87850000D01*
X191620000Y-79000000D02*
X191620000Y-77797919D01*
X180000000Y-75000000D02*
X179000000Y-76000000D01*
X191620000Y-77797919D02*
X188822081Y-75000000D01*
%TO.N,Rxd20*%
X184000000Y-79000000D02*
X184000000Y-85170000D01*
X184000000Y-85170000D02*
X183970000Y-85200000D01*
%TO.N,CS20*%
X184540000Y-77000000D02*
X181000000Y-77000000D01*
X181000000Y-84770000D02*
X183970000Y-87740000D01*
X181000000Y-77000000D02*
X181000000Y-84770000D01*
X186540000Y-79000000D02*
X184540000Y-77000000D01*
%TO.N,WAKEUP20*%
X189000000Y-76000000D02*
X189080000Y-76080000D01*
X180000000Y-86310000D02*
X180000000Y-76000000D01*
X189080000Y-76080000D02*
X189080000Y-79000000D01*
X180000000Y-76000000D02*
X189000000Y-76000000D01*
X183970000Y-90280000D02*
X180000000Y-86310000D01*
%TO.N,WAKEUP21*%
X208540000Y-79000000D02*
X208540000Y-77797919D01*
X205742081Y-75000000D02*
X199000000Y-75000000D01*
X208540000Y-77797919D02*
X205742081Y-75000000D01*
X198000000Y-84310000D02*
X203970000Y-90280000D01*
X198000000Y-76000000D02*
X198000000Y-84310000D01*
X199000000Y-75000000D02*
X198000000Y-76000000D01*
%TO.N,Txd21*%
X208000000Y-82080000D02*
X208000000Y-88790000D01*
X208000000Y-88790000D02*
X203970000Y-92820000D01*
X211080000Y-79000000D02*
X208000000Y-82080000D01*
%TO.N,Rxd21*%
X203460000Y-79000000D02*
X203460000Y-84690000D01*
X203460000Y-84690000D02*
X203970000Y-85200000D01*
%TO.N,CS21*%
X206000000Y-77000000D02*
X205000000Y-76000000D01*
X200000000Y-83770000D02*
X203970000Y-87740000D01*
X200000000Y-76000000D02*
X200000000Y-83770000D01*
X206000000Y-79000000D02*
X206000000Y-77000000D01*
X205000000Y-76000000D02*
X200000000Y-76000000D01*
%TO.N,Txd22*%
X88000000Y-102620000D02*
X91620000Y-99000000D01*
X85000000Y-113000000D02*
X88000000Y-110000000D01*
X83970000Y-113000000D02*
X85000000Y-113000000D01*
X88000000Y-110000000D02*
X88000000Y-102620000D01*
%TO.N,WAKEUP22*%
X89000000Y-95000000D02*
X79000000Y-95000000D01*
X79000000Y-95000000D02*
X79000000Y-105490000D01*
X79000000Y-105490000D02*
X83970000Y-110460000D01*
X89080000Y-95080000D02*
X89000000Y-95000000D01*
X89080000Y-99000000D02*
X89080000Y-95080000D01*
%TO.N,Rxd22*%
X84000000Y-99000000D02*
X84000000Y-105350000D01*
X84000000Y-105350000D02*
X83970000Y-105380000D01*
%TO.N,CS22*%
X81000000Y-104950000D02*
X83970000Y-107920000D01*
X81000000Y-96000000D02*
X81000000Y-104950000D01*
X83540000Y-96000000D02*
X81000000Y-96000000D01*
X86540000Y-99000000D02*
X83540000Y-96000000D01*
%TO.N,WAKEUP23*%
X109080000Y-105555000D02*
X104175000Y-110460000D01*
X109080000Y-99000000D02*
X109080000Y-105555000D01*
%TO.N,Rxd23*%
X104000000Y-105205000D02*
X104175000Y-105380000D01*
X104000000Y-99000000D02*
X104000000Y-105205000D01*
%TO.N,CS23*%
X106540000Y-105555000D02*
X104175000Y-107920000D01*
X106540000Y-99000000D02*
X106540000Y-105555000D01*
%TO.N,Txd23*%
X100000000Y-108825000D02*
X104175000Y-113000000D01*
X100000000Y-96000000D02*
X100000000Y-108825000D01*
X111620000Y-99000000D02*
X108620000Y-96000000D01*
X108620000Y-96000000D02*
X100000000Y-96000000D01*
%TO.N,WAKEUP24*%
X129080000Y-99000000D02*
X125680000Y-95600000D01*
X125680000Y-95600000D02*
X119400000Y-95600000D01*
X119000000Y-105490000D02*
X123970000Y-110460000D01*
X119400000Y-95600000D02*
X119000000Y-96000000D01*
X119000000Y-96000000D02*
X119000000Y-105490000D01*
%TO.N,CS24*%
X120000000Y-103950000D02*
X123970000Y-107920000D01*
X123540000Y-96000000D02*
X121000000Y-96000000D01*
X126540000Y-99000000D02*
X123540000Y-96000000D01*
X120000000Y-97000000D02*
X120000000Y-103950000D01*
X121000000Y-96000000D02*
X120000000Y-97000000D01*
%TO.N,Rxd24*%
X124000000Y-99000000D02*
X124000000Y-105350000D01*
X124000000Y-105350000D02*
X123970000Y-105380000D01*
%TO.N,Txd24*%
X123970000Y-113000000D02*
X125970000Y-115000000D01*
X134000000Y-115000000D02*
X134000000Y-101380000D01*
X125970000Y-115000000D02*
X134000000Y-115000000D01*
X134000000Y-101380000D02*
X131620000Y-99000000D01*
%TO.N,Rxd25*%
X144200000Y-104610000D02*
X144970000Y-105380000D01*
X144200000Y-99000000D02*
X144200000Y-104610000D01*
%TO.N,CS25*%
X143740000Y-96000000D02*
X142000000Y-96000000D01*
X142000000Y-104950000D02*
X144970000Y-107920000D01*
X142000000Y-96000000D02*
X142000000Y-104950000D01*
X146740000Y-99000000D02*
X143740000Y-96000000D01*
%TO.N,Txd25*%
X151820000Y-99000000D02*
X156000000Y-99000000D01*
X156000000Y-99000000D02*
X156000000Y-115000000D01*
X147970000Y-116000000D02*
X144970000Y-113000000D01*
X155000000Y-116000000D02*
X147970000Y-116000000D01*
X156000000Y-115000000D02*
X155000000Y-116000000D01*
%TO.N,WAKEUP25*%
X140000000Y-107000000D02*
X143460000Y-110460000D01*
X145280000Y-95000000D02*
X140000000Y-95000000D01*
X149280000Y-99000000D02*
X145280000Y-95000000D01*
X140000000Y-95000000D02*
X140000000Y-107000000D01*
X143460000Y-110460000D02*
X144970000Y-110460000D01*
%TO.N,Txd26*%
X175000000Y-115000000D02*
X165000000Y-115000000D01*
X171080000Y-99000000D02*
X175000000Y-102920000D01*
X175000000Y-102920000D02*
X175000000Y-115000000D01*
X165000000Y-115000000D02*
X163970000Y-113970000D01*
X163970000Y-113970000D02*
X163970000Y-113000000D01*
%TO.N,WAKEUP26*%
X159000000Y-96000000D02*
X165540000Y-96000000D01*
X165540000Y-96000000D02*
X168540000Y-99000000D01*
X159000000Y-105490000D02*
X159000000Y-96000000D01*
X163970000Y-110460000D02*
X159000000Y-105490000D01*
%TO.N,CS26*%
X161000000Y-98000000D02*
X161000000Y-104950000D01*
X162000000Y-97000000D02*
X161000000Y-98000000D01*
X166000000Y-99000000D02*
X164000000Y-97000000D01*
X161000000Y-104950000D02*
X163970000Y-107920000D01*
X164000000Y-97000000D02*
X162000000Y-97000000D01*
%TO.N,Rxd26*%
X163970000Y-99510000D02*
X163460000Y-99000000D01*
X163970000Y-105380000D02*
X163970000Y-99510000D01*
%TO.N,Rxd32*%
X144380000Y-119000000D02*
X144380000Y-124920000D01*
X144380000Y-124920000D02*
X145380000Y-125920000D01*
%TO.N,CS32*%
X140000000Y-127575635D02*
X140884365Y-128460000D01*
X140000000Y-117000000D02*
X140000000Y-127575635D01*
X146920000Y-119000000D02*
X144920000Y-117000000D01*
X140884365Y-128460000D02*
X145380000Y-128460000D01*
X144920000Y-117000000D02*
X140000000Y-117000000D01*
%TO.N,Txd32*%
X151000000Y-120000000D02*
X151000000Y-130000000D01*
X147460000Y-133540000D02*
X145380000Y-133540000D01*
X152000000Y-119000000D02*
X151000000Y-120000000D01*
X151000000Y-130000000D02*
X147460000Y-133540000D01*
%TO.N,WAKEUP32*%
X148000000Y-127000000D02*
X149460000Y-125540000D01*
X145380000Y-131000000D02*
X148000000Y-128380000D01*
X149460000Y-125540000D02*
X149460000Y-119000000D01*
X148000000Y-128380000D02*
X148000000Y-127000000D01*
%TO.N,Txd28*%
X205565686Y-113000000D02*
X203970000Y-113000000D01*
X209000000Y-108000000D02*
X208000000Y-109000000D01*
X208000000Y-109000000D02*
X208000000Y-110565686D01*
X209000000Y-101080000D02*
X209000000Y-108000000D01*
X208000000Y-110565686D02*
X205565686Y-113000000D01*
X212080000Y-98000000D02*
X209000000Y-101080000D01*
%TO.N,WAKEUP28*%
X207000000Y-110460000D02*
X203970000Y-110460000D01*
X209540000Y-98000000D02*
X207000000Y-100540000D01*
X207000000Y-100540000D02*
X207000000Y-110460000D01*
%TO.N,CS28*%
X204000000Y-95000000D02*
X200000000Y-95000000D01*
X200000000Y-95000000D02*
X200000000Y-103950000D01*
X200000000Y-103950000D02*
X203970000Y-107920000D01*
X207000000Y-98000000D02*
X204000000Y-95000000D01*
%TO.N,Rxd28*%
X204460000Y-98000000D02*
X204460000Y-104890000D01*
X204460000Y-104890000D02*
X203970000Y-105380000D01*
%TO.N,CS29*%
X86540000Y-120000000D02*
X83540000Y-117000000D01*
X83540000Y-117000000D02*
X80000000Y-117000000D01*
X80000000Y-124080000D02*
X84380000Y-128460000D01*
X80000000Y-117000000D02*
X80000000Y-124080000D01*
%TO.N,Rxd29*%
X84000000Y-120000000D02*
X84000000Y-121000000D01*
X84000000Y-121000000D02*
X84380000Y-121380000D01*
X84380000Y-121380000D02*
X84380000Y-125920000D01*
%TO.N,Txd29*%
X84840000Y-134000000D02*
X84380000Y-133540000D01*
X89000000Y-134000000D02*
X84840000Y-134000000D01*
X91620000Y-120000000D02*
X89000000Y-122620000D01*
X89000000Y-122620000D02*
X89000000Y-134000000D01*
%TO.N,WAKEUP29*%
X77000000Y-123620000D02*
X77000000Y-117000000D01*
X85083173Y-116000000D02*
X89080000Y-119996827D01*
X89080000Y-119996827D02*
X89080000Y-120000000D01*
X78000000Y-116000000D02*
X85083173Y-116000000D01*
X84380000Y-131000000D02*
X77000000Y-123620000D01*
X77000000Y-117000000D02*
X78000000Y-116000000D01*
%TO.N,WAKEUP30*%
X104585000Y-131000000D02*
X100000000Y-126415000D01*
X105540000Y-115000000D02*
X109540000Y-119000000D01*
X100000000Y-126415000D02*
X100000000Y-115000000D01*
X100000000Y-115000000D02*
X105540000Y-115000000D01*
%TO.N,Txd30*%
X109000000Y-122080000D02*
X109000000Y-133000000D01*
X112080000Y-119000000D02*
X109000000Y-122080000D01*
X105045000Y-134000000D02*
X104585000Y-133540000D01*
X109000000Y-133000000D02*
X108000000Y-134000000D01*
X108000000Y-134000000D02*
X105045000Y-134000000D01*
%TO.N,CS30*%
X107000000Y-119000000D02*
X104000000Y-116000000D01*
X104000000Y-116000000D02*
X101000000Y-116000000D01*
X104185000Y-128460000D02*
X104585000Y-128460000D01*
X101000000Y-125275000D02*
X104185000Y-128460000D01*
X101000000Y-116000000D02*
X101000000Y-125275000D01*
%TO.N,Rxd30*%
X104460000Y-125795000D02*
X104585000Y-125920000D01*
X104460000Y-119000000D02*
X104460000Y-125795000D01*
%TO.N,Rxd31*%
X125000000Y-119000000D02*
X125000000Y-125300000D01*
X125000000Y-125300000D02*
X124380000Y-125920000D01*
%TO.N,Txd31*%
X129000000Y-126000000D02*
X132620000Y-122380000D01*
X127460000Y-133540000D02*
X129000000Y-132000000D01*
X132620000Y-122380000D02*
X132620000Y-119000000D01*
X124380000Y-133540000D02*
X127460000Y-133540000D01*
X129000000Y-132000000D02*
X129000000Y-126000000D01*
%TO.N,WAKEUP31*%
X124380000Y-131000000D02*
X118000000Y-124620000D01*
X118000000Y-116000000D02*
X127080000Y-116000000D01*
X127080000Y-116000000D02*
X130080000Y-119000000D01*
X118000000Y-124620000D02*
X118000000Y-116000000D01*
%TO.N,CS31*%
X120000000Y-117000000D02*
X120000000Y-124080000D01*
X120000000Y-124080000D02*
X124380000Y-128460000D01*
X125540000Y-117000000D02*
X120000000Y-117000000D01*
X127540000Y-119000000D02*
X125540000Y-117000000D01*
%TO.N,Txd33*%
X176000000Y-135000000D02*
X167180000Y-135000000D01*
X167180000Y-135000000D02*
X165180000Y-133000000D01*
X172620000Y-119000000D02*
X176000000Y-122380000D01*
X176000000Y-122380000D02*
X176000000Y-135000000D01*
%TO.N,WAKEUP33*%
X170080000Y-125560000D02*
X165180000Y-130460000D01*
X170080000Y-119000000D02*
X170080000Y-125560000D01*
%TO.N,CS33*%
X167540000Y-125560000D02*
X165180000Y-127920000D01*
X167540000Y-119000000D02*
X167540000Y-125560000D01*
%TO.N,Rxd33*%
X165000000Y-119000000D02*
X165000000Y-125200000D01*
X165000000Y-125200000D02*
X165180000Y-125380000D01*
%TO.N,Txd34*%
X195000000Y-121380000D02*
X195000000Y-136000000D01*
X192620000Y-119000000D02*
X195000000Y-121380000D01*
X195000000Y-136000000D02*
X187355000Y-136000000D01*
X187355000Y-136000000D02*
X184175000Y-132820000D01*
%TO.N,WAKEUP34*%
X190080000Y-119000000D02*
X187080000Y-116000000D01*
X181000000Y-116000000D02*
X181000000Y-127105000D01*
X187080000Y-116000000D02*
X181000000Y-116000000D01*
X181000000Y-127105000D02*
X184175000Y-130280000D01*
%TO.N,CS34*%
X187540000Y-119000000D02*
X187540000Y-124375000D01*
X187540000Y-124375000D02*
X184175000Y-127740000D01*
%TO.N,Rxd34*%
X185000000Y-124375000D02*
X184175000Y-125200000D01*
X185000000Y-119000000D02*
X185000000Y-124375000D01*
%TO.N,Rxd35*%
X204000000Y-125025000D02*
X204175000Y-125200000D01*
X204000000Y-119000000D02*
X204000000Y-125025000D01*
%TO.N,Txd35*%
X200000000Y-116000000D02*
X200000000Y-128645000D01*
X208620000Y-116000000D02*
X200000000Y-116000000D01*
X200000000Y-128645000D02*
X204175000Y-132820000D01*
X211620000Y-119000000D02*
X208620000Y-116000000D01*
%TO.N,CS35*%
X206540000Y-125375000D02*
X204175000Y-127740000D01*
X206540000Y-119000000D02*
X206540000Y-125375000D01*
%TO.N,WAKEUP35*%
X209080000Y-125375000D02*
X204175000Y-130280000D01*
X209080000Y-119000000D02*
X209080000Y-125375000D01*
%TO.N,CS36*%
X121000000Y-138000000D02*
X121000000Y-143565000D01*
X127540000Y-140000000D02*
X125540000Y-138000000D01*
X121000000Y-143565000D02*
X125175000Y-147740000D01*
X125540000Y-138000000D02*
X121000000Y-138000000D01*
%TO.N,WAKEUP36*%
X130080000Y-140000000D02*
X127680000Y-137600000D01*
X117000000Y-138000000D02*
X117000000Y-142105000D01*
X117000000Y-142105000D02*
X125175000Y-150280000D01*
X127680000Y-137600000D02*
X117400000Y-137600000D01*
X117400000Y-137600000D02*
X117000000Y-138000000D01*
%TO.N,Rxd36*%
X125000000Y-140000000D02*
X125000000Y-141000000D01*
X125000000Y-141000000D02*
X125175000Y-141175000D01*
X125175000Y-141175000D02*
X125175000Y-145200000D01*
%TO.N,Txd36*%
X129000000Y-150000000D02*
X126180000Y-152820000D01*
X129000000Y-143620000D02*
X129000000Y-150000000D01*
X126180000Y-152820000D02*
X125175000Y-152820000D01*
X132620000Y-140000000D02*
X129000000Y-143620000D01*
%TO.N,WAKEUP37*%
X150080000Y-139000000D02*
X149000000Y-140080000D01*
X149000000Y-140080000D02*
X149000000Y-146455000D01*
X149000000Y-146455000D02*
X145175000Y-150280000D01*
%TO.N,Txd37*%
X152620000Y-139000000D02*
X150000000Y-141620000D01*
X148000000Y-153000000D02*
X145355000Y-153000000D01*
X145355000Y-153000000D02*
X145175000Y-152820000D01*
X150000000Y-151000000D02*
X148000000Y-153000000D01*
X150000000Y-141620000D02*
X150000000Y-151000000D01*
%TO.N,Rxd37*%
X145175000Y-140175000D02*
X145175000Y-145200000D01*
X145000000Y-140000000D02*
X145175000Y-140175000D01*
X145000000Y-139000000D02*
X145000000Y-140000000D01*
%TO.N,CS37*%
X147540000Y-139000000D02*
X147540000Y-145375000D01*
X147540000Y-145375000D02*
X145175000Y-147740000D01*
%TO.N,Lbus2*%
X112895000Y-111560000D02*
X130490000Y-111560000D01*
X130490000Y-111560000D02*
X131590000Y-110460000D01*
X118000000Y-106000000D02*
X118000000Y-96000000D01*
X119000000Y-95000000D02*
X126870000Y-95000000D01*
X126870000Y-95000000D02*
X131590000Y-90280000D01*
X111795000Y-110460000D02*
X113295000Y-108960000D01*
X113295000Y-108960000D02*
X115040000Y-108960000D01*
X111795000Y-110460000D02*
X112895000Y-111560000D01*
X118000000Y-96000000D02*
X119000000Y-95000000D01*
X115040000Y-108960000D02*
X118000000Y-106000000D01*
%TO.N,Lbus3*%
X216000000Y-138000000D02*
X203720000Y-150280000D01*
X211795000Y-130280000D02*
X216000000Y-134485000D01*
X203720000Y-150280000D02*
X172995000Y-150280000D01*
X216000000Y-134485000D02*
X216000000Y-138000000D01*
%TO.N,CS38*%
X167740000Y-140000000D02*
X167740000Y-145375000D01*
X166115000Y-147000000D02*
X165375000Y-147740000D01*
X164575000Y-147000000D02*
X166115000Y-147000000D01*
X167740000Y-145375000D02*
X165375000Y-147740000D01*
%TO.N,Txd38*%
X165375000Y-152820000D02*
X169820000Y-152820000D01*
X171000000Y-141820000D02*
X172820000Y-140000000D01*
X171000000Y-152000000D02*
X171000000Y-141820000D01*
X169820000Y-152820000D02*
X170000000Y-153000000D01*
X170000000Y-153000000D02*
X171000000Y-152000000D01*
%TO.N,Rxd38*%
X165200000Y-140000000D02*
X165200000Y-145025000D01*
X165200000Y-145025000D02*
X165375000Y-145200000D01*
%TO.N,WAKEUP38*%
X166720000Y-150280000D02*
X165375000Y-150280000D01*
X170280000Y-140000000D02*
X170280000Y-146720000D01*
X170280000Y-146720000D02*
X166720000Y-150280000D01*
%TO.N,Rxd27*%
X184460000Y-99000000D02*
X184460000Y-104890000D01*
X184460000Y-104890000D02*
X183970000Y-105380000D01*
%TO.N,WAKEUP27*%
X180000000Y-95000000D02*
X188000000Y-95000000D01*
X188000000Y-95000000D02*
X189540000Y-96540000D01*
X180000000Y-106490000D02*
X180000000Y-95000000D01*
X189540000Y-96540000D02*
X189540000Y-99000000D01*
X183970000Y-110460000D02*
X180000000Y-106490000D01*
%TO.N,Txd27*%
X195000000Y-95000000D02*
X197000000Y-97000000D01*
X197000000Y-111000000D02*
X193000000Y-115000000D01*
X192000000Y-95000000D02*
X195000000Y-95000000D01*
X185970000Y-115000000D02*
X183970000Y-113000000D01*
X192080000Y-99000000D02*
X192080000Y-95080000D01*
X192080000Y-95080000D02*
X192000000Y-95000000D01*
X193000000Y-115000000D02*
X185970000Y-115000000D01*
X197000000Y-97000000D02*
X197000000Y-111000000D01*
%TO.N,CS27*%
X181000000Y-96000000D02*
X181000000Y-104950000D01*
X184000000Y-96000000D02*
X181000000Y-96000000D01*
X187000000Y-99000000D02*
X184000000Y-96000000D01*
X181000000Y-104950000D02*
X183970000Y-107920000D01*
%TD*%
M02*
