%TF.GenerationSoftware,KiCad,Pcbnew,8.0.5*%
%TF.CreationDate,2024-10-20T22:23:28+07:00*%
%TF.ProjectId,Panel_LIN,50616e65-6c5f-44c4-994e-2e6b69636164,rev?*%
%TF.SameCoordinates,Original*%
%TF.FileFunction,Soldermask,Bot*%
%TF.FilePolarity,Negative*%
%FSLAX46Y46*%
G04 Gerber Fmt 4.6, Leading zero omitted, Abs format (unit mm)*
G04 Created by KiCad (PCBNEW 8.0.5) date 2024-10-20 22:23:28*
%MOMM*%
%LPD*%
G01*
G04 APERTURE LIST*
G04 Aperture macros list*
%AMRoundRect*
0 Rectangle with rounded corners*
0 $1 Rounding radius*
0 $2 $3 $4 $5 $6 $7 $8 $9 X,Y pos of 4 corners*
0 Add a 4 corners polygon primitive as box body*
4,1,4,$2,$3,$4,$5,$6,$7,$8,$9,$2,$3,0*
0 Add four circle primitives for the rounded corners*
1,1,$1+$1,$2,$3*
1,1,$1+$1,$4,$5*
1,1,$1+$1,$6,$7*
1,1,$1+$1,$8,$9*
0 Add four rect primitives between the rounded corners*
20,1,$1+$1,$2,$3,$4,$5,0*
20,1,$1+$1,$4,$5,$6,$7,0*
20,1,$1+$1,$6,$7,$8,$9,0*
20,1,$1+$1,$8,$9,$2,$3,0*%
G04 Aperture macros list end*
%ADD10R,3.500000X3.500000*%
%ADD11RoundRect,0.750000X-0.750000X-1.000000X0.750000X-1.000000X0.750000X1.000000X-0.750000X1.000000X0*%
%ADD12RoundRect,0.875000X-0.875000X-0.875000X0.875000X-0.875000X0.875000X0.875000X-0.875000X0.875000X0*%
%ADD13R,2.400000X1.600000*%
%ADD14O,2.400000X1.600000*%
%ADD15R,1.700000X1.700000*%
%ADD16O,1.700000X1.700000*%
%ADD17R,1.600000X2.400000*%
%ADD18O,1.600000X2.400000*%
G04 APERTURE END LIST*
D10*
%TO.C,J39*%
X95000000Y-151000000D03*
D11*
X89000000Y-151000000D03*
D12*
X92000000Y-155700000D03*
%TD*%
D13*
%TO.C,RN34*%
X184175000Y-125200000D03*
D14*
X184175000Y-127740000D03*
X184175000Y-130280000D03*
X184175000Y-132820000D03*
X191795000Y-132820000D03*
X191795000Y-130280000D03*
X191795000Y-127740000D03*
X191795000Y-125200000D03*
%TD*%
D13*
%TO.C,RN14*%
X204175000Y-64450000D03*
D14*
X204175000Y-66990000D03*
X204175000Y-69530000D03*
X204175000Y-72070000D03*
X211795000Y-72070000D03*
X211795000Y-69530000D03*
X211795000Y-66990000D03*
X211795000Y-64450000D03*
%TD*%
D13*
%TO.C,RN6*%
X184175000Y-45200000D03*
D14*
X184175000Y-47740000D03*
X184175000Y-50280000D03*
X184175000Y-52820000D03*
X191795000Y-52820000D03*
X191795000Y-50280000D03*
X191795000Y-47740000D03*
X191795000Y-45200000D03*
%TD*%
D15*
%TO.C,J33*%
X165000000Y-119000000D03*
D16*
X167540000Y-119000000D03*
X170080000Y-119000000D03*
X172620000Y-119000000D03*
%TD*%
D15*
%TO.C,J32*%
X144380000Y-119000000D03*
D16*
X146920000Y-119000000D03*
X149460000Y-119000000D03*
X152000000Y-119000000D03*
%TD*%
D15*
%TO.C,J9*%
X104000000Y-58000000D03*
D16*
X106540000Y-58000000D03*
X109080000Y-58000000D03*
X111620000Y-58000000D03*
%TD*%
D15*
%TO.C,J27*%
X184460000Y-99000000D03*
D16*
X187000000Y-99000000D03*
X189540000Y-99000000D03*
X192080000Y-99000000D03*
%TD*%
D13*
%TO.C,RN24*%
X123970000Y-105380000D03*
D14*
X123970000Y-107920000D03*
X123970000Y-110460000D03*
X123970000Y-113000000D03*
X131590000Y-113000000D03*
X131590000Y-110460000D03*
X131590000Y-107920000D03*
X131590000Y-105380000D03*
%TD*%
D15*
%TO.C,J29*%
X84000000Y-120000000D03*
D16*
X86540000Y-120000000D03*
X89080000Y-120000000D03*
X91620000Y-120000000D03*
%TD*%
D15*
%TO.C,J1*%
X84000000Y-39000000D03*
D16*
X86540000Y-39000000D03*
X89080000Y-39000000D03*
X91620000Y-39000000D03*
%TD*%
D13*
%TO.C,RN32*%
X145380000Y-125920000D03*
D14*
X145380000Y-128460000D03*
X145380000Y-131000000D03*
X145380000Y-133540000D03*
X153000000Y-133540000D03*
X153000000Y-131000000D03*
X153000000Y-128460000D03*
X153000000Y-125920000D03*
%TD*%
D13*
%TO.C,RN13*%
X184175000Y-64450000D03*
D14*
X184175000Y-66990000D03*
X184175000Y-69530000D03*
X184175000Y-72070000D03*
X191795000Y-72070000D03*
X191795000Y-69530000D03*
X191795000Y-66990000D03*
X191795000Y-64450000D03*
%TD*%
D15*
%TO.C,J16*%
X104000000Y-79000000D03*
D16*
X106540000Y-79000000D03*
X109080000Y-79000000D03*
X111620000Y-79000000D03*
%TD*%
D13*
%TO.C,RN23*%
X104175000Y-105380000D03*
D14*
X104175000Y-107920000D03*
X104175000Y-110460000D03*
X104175000Y-113000000D03*
X111795000Y-113000000D03*
X111795000Y-110460000D03*
X111795000Y-107920000D03*
X111795000Y-105380000D03*
%TD*%
D17*
%TO.C,RN18*%
X144970000Y-85200000D03*
D18*
X147510000Y-85200000D03*
X150050000Y-85200000D03*
X152590000Y-85200000D03*
X152590000Y-77580000D03*
X150050000Y-77580000D03*
X147510000Y-77580000D03*
X144970000Y-77580000D03*
%TD*%
D13*
%TO.C,RN37*%
X145175000Y-145200000D03*
D14*
X145175000Y-147740000D03*
X145175000Y-150280000D03*
X145175000Y-152820000D03*
X152795000Y-152820000D03*
X152795000Y-150280000D03*
X152795000Y-147740000D03*
X152795000Y-145200000D03*
%TD*%
D13*
%TO.C,RN12*%
X164175000Y-64450000D03*
D14*
X164175000Y-66990000D03*
X164175000Y-69530000D03*
X164175000Y-72070000D03*
X171795000Y-72070000D03*
X171795000Y-69530000D03*
X171795000Y-66990000D03*
X171795000Y-64450000D03*
%TD*%
D15*
%TO.C,J4*%
X144000000Y-39000000D03*
D16*
X146540000Y-39000000D03*
X149080000Y-39000000D03*
X151620000Y-39000000D03*
%TD*%
D15*
%TO.C,J14*%
X205000000Y-59000000D03*
D16*
X207540000Y-59000000D03*
X210080000Y-59000000D03*
X212620000Y-59000000D03*
%TD*%
D15*
%TO.C,J26*%
X163460000Y-99000000D03*
D16*
X166000000Y-99000000D03*
X168540000Y-99000000D03*
X171080000Y-99000000D03*
%TD*%
D13*
%TO.C,RN1*%
X84175000Y-45200000D03*
D14*
X84175000Y-47740000D03*
X84175000Y-50280000D03*
X84175000Y-52820000D03*
X91795000Y-52820000D03*
X91795000Y-50280000D03*
X91795000Y-47740000D03*
X91795000Y-45200000D03*
%TD*%
D13*
%TO.C,RN36*%
X125175000Y-145200000D03*
D14*
X125175000Y-147740000D03*
X125175000Y-150280000D03*
X125175000Y-152820000D03*
X132795000Y-152820000D03*
X132795000Y-150280000D03*
X132795000Y-147740000D03*
X132795000Y-145200000D03*
%TD*%
D15*
%TO.C,J2*%
X104000000Y-39000000D03*
D16*
X106540000Y-39000000D03*
X109080000Y-39000000D03*
X111620000Y-39000000D03*
%TD*%
D13*
%TO.C,RN5*%
X164175000Y-45200000D03*
D14*
X164175000Y-47740000D03*
X164175000Y-50280000D03*
X164175000Y-52820000D03*
X171795000Y-52820000D03*
X171795000Y-50280000D03*
X171795000Y-47740000D03*
X171795000Y-45200000D03*
%TD*%
D13*
%TO.C,RN19*%
X163970000Y-85200000D03*
D14*
X163970000Y-87740000D03*
X163970000Y-90280000D03*
X163970000Y-92820000D03*
X171590000Y-92820000D03*
X171590000Y-90280000D03*
X171590000Y-87740000D03*
X171590000Y-85200000D03*
%TD*%
D15*
%TO.C,J35*%
X204000000Y-119000000D03*
D16*
X206540000Y-119000000D03*
X209080000Y-119000000D03*
X211620000Y-119000000D03*
%TD*%
D13*
%TO.C,RN17*%
X123970000Y-85200000D03*
D14*
X123970000Y-87740000D03*
X123970000Y-90280000D03*
X123970000Y-92820000D03*
X131590000Y-92820000D03*
X131590000Y-90280000D03*
X131590000Y-87740000D03*
X131590000Y-85200000D03*
%TD*%
D13*
%TO.C,RN8*%
X84175000Y-64450000D03*
D14*
X84175000Y-66990000D03*
X84175000Y-69530000D03*
X84175000Y-72070000D03*
X91795000Y-72070000D03*
X91795000Y-69530000D03*
X91795000Y-66990000D03*
X91795000Y-64450000D03*
%TD*%
D15*
%TO.C,J3*%
X125000000Y-39000000D03*
D16*
X127540000Y-39000000D03*
X130080000Y-39000000D03*
X132620000Y-39000000D03*
%TD*%
D13*
%TO.C,RN29*%
X84380000Y-125920000D03*
D14*
X84380000Y-128460000D03*
X84380000Y-131000000D03*
X84380000Y-133540000D03*
X92000000Y-133540000D03*
X92000000Y-131000000D03*
X92000000Y-128460000D03*
X92000000Y-125920000D03*
%TD*%
D15*
%TO.C,J25*%
X144200000Y-99000000D03*
D16*
X146740000Y-99000000D03*
X149280000Y-99000000D03*
X151820000Y-99000000D03*
%TD*%
D13*
%TO.C,RN7*%
X204175000Y-45200000D03*
D14*
X204175000Y-47740000D03*
X204175000Y-50280000D03*
X204175000Y-52820000D03*
X211795000Y-52820000D03*
X211795000Y-50280000D03*
X211795000Y-47740000D03*
X211795000Y-45200000D03*
%TD*%
D15*
%TO.C,J19*%
X164460000Y-79000000D03*
D16*
X167000000Y-79000000D03*
X169540000Y-79000000D03*
X172080000Y-79000000D03*
%TD*%
D13*
%TO.C,RN21*%
X203970000Y-85200000D03*
D14*
X203970000Y-87740000D03*
X203970000Y-90280000D03*
X203970000Y-92820000D03*
X211590000Y-92820000D03*
X211590000Y-90280000D03*
X211590000Y-87740000D03*
X211590000Y-85200000D03*
%TD*%
D15*
%TO.C,J20*%
X184000000Y-79000000D03*
D16*
X186540000Y-79000000D03*
X189080000Y-79000000D03*
X191620000Y-79000000D03*
%TD*%
D15*
%TO.C,J11*%
X145000000Y-58000000D03*
D16*
X147540000Y-58000000D03*
X150080000Y-58000000D03*
X152620000Y-58000000D03*
%TD*%
D15*
%TO.C,J7*%
X204000000Y-39000000D03*
D16*
X206540000Y-39000000D03*
X209080000Y-39000000D03*
X211620000Y-39000000D03*
%TD*%
D13*
%TO.C,RN2*%
X104380000Y-45200000D03*
D14*
X104380000Y-47740000D03*
X104380000Y-50280000D03*
X104380000Y-52820000D03*
X112000000Y-52820000D03*
X112000000Y-50280000D03*
X112000000Y-47740000D03*
X112000000Y-45200000D03*
%TD*%
D13*
%TO.C,RN38*%
X165375000Y-145200000D03*
D14*
X165375000Y-147740000D03*
X165375000Y-150280000D03*
X165375000Y-152820000D03*
X172995000Y-152820000D03*
X172995000Y-150280000D03*
X172995000Y-147740000D03*
X172995000Y-145200000D03*
%TD*%
D15*
%TO.C,J13*%
X184000000Y-59000000D03*
D16*
X186540000Y-59000000D03*
X189080000Y-59000000D03*
X191620000Y-59000000D03*
%TD*%
D13*
%TO.C,RN28*%
X203970000Y-105380000D03*
D14*
X203970000Y-107920000D03*
X203970000Y-110460000D03*
X203970000Y-113000000D03*
X211590000Y-113000000D03*
X211590000Y-110460000D03*
X211590000Y-107920000D03*
X211590000Y-105380000D03*
%TD*%
D13*
%TO.C,RN27*%
X183970000Y-105380000D03*
D14*
X183970000Y-107920000D03*
X183970000Y-110460000D03*
X183970000Y-113000000D03*
X191590000Y-113000000D03*
X191590000Y-110460000D03*
X191590000Y-107920000D03*
X191590000Y-105380000D03*
%TD*%
D13*
%TO.C,RN25*%
X144970000Y-105380000D03*
D14*
X144970000Y-107920000D03*
X144970000Y-110460000D03*
X144970000Y-113000000D03*
X152590000Y-113000000D03*
X152590000Y-110460000D03*
X152590000Y-107920000D03*
X152590000Y-105380000D03*
%TD*%
D15*
%TO.C,J5*%
X164000000Y-39000000D03*
D16*
X166540000Y-39000000D03*
X169080000Y-39000000D03*
X171620000Y-39000000D03*
%TD*%
D13*
%TO.C,RN20*%
X183970000Y-85200000D03*
D14*
X183970000Y-87740000D03*
X183970000Y-90280000D03*
X183970000Y-92820000D03*
X191590000Y-92820000D03*
X191590000Y-90280000D03*
X191590000Y-87740000D03*
X191590000Y-85200000D03*
%TD*%
D15*
%TO.C,J36*%
X125000000Y-140000000D03*
D16*
X127540000Y-140000000D03*
X130080000Y-140000000D03*
X132620000Y-140000000D03*
%TD*%
D13*
%TO.C,RN35*%
X204175000Y-125200000D03*
D14*
X204175000Y-127740000D03*
X204175000Y-130280000D03*
X204175000Y-132820000D03*
X211795000Y-132820000D03*
X211795000Y-130280000D03*
X211795000Y-127740000D03*
X211795000Y-125200000D03*
%TD*%
D15*
%TO.C,J24*%
X124000000Y-99000000D03*
D16*
X126540000Y-99000000D03*
X129080000Y-99000000D03*
X131620000Y-99000000D03*
%TD*%
D13*
%TO.C,RN3*%
X124175000Y-45200000D03*
D14*
X124175000Y-47740000D03*
X124175000Y-50280000D03*
X124175000Y-52820000D03*
X131795000Y-52820000D03*
X131795000Y-50280000D03*
X131795000Y-47740000D03*
X131795000Y-45200000D03*
%TD*%
D15*
%TO.C,J37*%
X145000000Y-139000000D03*
D16*
X147540000Y-139000000D03*
X150080000Y-139000000D03*
X152620000Y-139000000D03*
%TD*%
D15*
%TO.C,J28*%
X204460000Y-98000000D03*
D16*
X207000000Y-98000000D03*
X209540000Y-98000000D03*
X212080000Y-98000000D03*
%TD*%
D13*
%TO.C,RN11*%
X145175000Y-64450000D03*
D14*
X145175000Y-66990000D03*
X145175000Y-69530000D03*
X145175000Y-72070000D03*
X152795000Y-72070000D03*
X152795000Y-69530000D03*
X152795000Y-66990000D03*
X152795000Y-64450000D03*
%TD*%
D13*
%TO.C,RN33*%
X165180000Y-125380000D03*
D14*
X165180000Y-127920000D03*
X165180000Y-130460000D03*
X165180000Y-133000000D03*
X172800000Y-133000000D03*
X172800000Y-130460000D03*
X172800000Y-127920000D03*
X172800000Y-125380000D03*
%TD*%
D13*
%TO.C,RN22*%
X83970000Y-105380000D03*
D14*
X83970000Y-107920000D03*
X83970000Y-110460000D03*
X83970000Y-113000000D03*
X91590000Y-113000000D03*
X91590000Y-110460000D03*
X91590000Y-107920000D03*
X91590000Y-105380000D03*
%TD*%
D15*
%TO.C,J15*%
X85000000Y-79000000D03*
D16*
X87540000Y-79000000D03*
X90080000Y-79000000D03*
X92620000Y-79000000D03*
%TD*%
D15*
%TO.C,J34*%
X185000000Y-119000000D03*
D16*
X187540000Y-119000000D03*
X190080000Y-119000000D03*
X192620000Y-119000000D03*
%TD*%
D13*
%TO.C,RN16*%
X104175000Y-85200000D03*
D14*
X104175000Y-87740000D03*
X104175000Y-90280000D03*
X104175000Y-92820000D03*
X111795000Y-92820000D03*
X111795000Y-90280000D03*
X111795000Y-87740000D03*
X111795000Y-85200000D03*
%TD*%
D15*
%TO.C,J10*%
X125000000Y-58000000D03*
D16*
X127540000Y-58000000D03*
X130080000Y-58000000D03*
X132620000Y-58000000D03*
%TD*%
D15*
%TO.C,J17*%
X124000000Y-79000000D03*
D16*
X126540000Y-79000000D03*
X129080000Y-79000000D03*
X131620000Y-79000000D03*
%TD*%
D15*
%TO.C,J6*%
X184000000Y-39000000D03*
D16*
X186540000Y-39000000D03*
X189080000Y-39000000D03*
X191620000Y-39000000D03*
%TD*%
D15*
%TO.C,J18*%
X145000000Y-79000000D03*
D16*
X147540000Y-79000000D03*
X150080000Y-79000000D03*
X152620000Y-79000000D03*
%TD*%
D13*
%TO.C,RN9*%
X104380000Y-64450000D03*
D14*
X104380000Y-66990000D03*
X104380000Y-69530000D03*
X104380000Y-72070000D03*
X112000000Y-72070000D03*
X112000000Y-69530000D03*
X112000000Y-66990000D03*
X112000000Y-64450000D03*
%TD*%
D13*
%TO.C,RN10*%
X124175000Y-64450000D03*
D14*
X124175000Y-66990000D03*
X124175000Y-69530000D03*
X124175000Y-72070000D03*
X131795000Y-72070000D03*
X131795000Y-69530000D03*
X131795000Y-66990000D03*
X131795000Y-64450000D03*
%TD*%
D15*
%TO.C,J23*%
X104000000Y-99000000D03*
D16*
X106540000Y-99000000D03*
X109080000Y-99000000D03*
X111620000Y-99000000D03*
%TD*%
D15*
%TO.C,J8*%
X84000000Y-59000000D03*
D16*
X86540000Y-59000000D03*
X89080000Y-59000000D03*
X91620000Y-59000000D03*
%TD*%
D15*
%TO.C,J30*%
X104460000Y-119000000D03*
D16*
X107000000Y-119000000D03*
X109540000Y-119000000D03*
X112080000Y-119000000D03*
%TD*%
D15*
%TO.C,J21*%
X203460000Y-79000000D03*
D16*
X206000000Y-79000000D03*
X208540000Y-79000000D03*
X211080000Y-79000000D03*
%TD*%
D13*
%TO.C,RN15*%
X83970000Y-85200000D03*
D14*
X83970000Y-87740000D03*
X83970000Y-90280000D03*
X83970000Y-92820000D03*
X91590000Y-92820000D03*
X91590000Y-90280000D03*
X91590000Y-87740000D03*
X91590000Y-85200000D03*
%TD*%
D15*
%TO.C,J38*%
X165200000Y-140000000D03*
D16*
X167740000Y-140000000D03*
X170280000Y-140000000D03*
X172820000Y-140000000D03*
%TD*%
D15*
%TO.C,J12*%
X164000000Y-58000000D03*
D16*
X166540000Y-58000000D03*
X169080000Y-58000000D03*
X171620000Y-58000000D03*
%TD*%
D13*
%TO.C,RN30*%
X104585000Y-125920000D03*
D14*
X104585000Y-128460000D03*
X104585000Y-131000000D03*
X104585000Y-133540000D03*
X112205000Y-133540000D03*
X112205000Y-131000000D03*
X112205000Y-128460000D03*
X112205000Y-125920000D03*
%TD*%
D15*
%TO.C,J31*%
X125000000Y-119000000D03*
D16*
X127540000Y-119000000D03*
X130080000Y-119000000D03*
X132620000Y-119000000D03*
%TD*%
D15*
%TO.C,J22*%
X84000000Y-99000000D03*
D16*
X86540000Y-99000000D03*
X89080000Y-99000000D03*
X91620000Y-99000000D03*
%TD*%
D13*
%TO.C,RN4*%
X145175000Y-45200000D03*
D14*
X145175000Y-47740000D03*
X145175000Y-50280000D03*
X145175000Y-52820000D03*
X152795000Y-52820000D03*
X152795000Y-50280000D03*
X152795000Y-47740000D03*
X152795000Y-45200000D03*
%TD*%
D13*
%TO.C,RN31*%
X124380000Y-125920000D03*
D14*
X124380000Y-128460000D03*
X124380000Y-131000000D03*
X124380000Y-133540000D03*
X132000000Y-133540000D03*
X132000000Y-131000000D03*
X132000000Y-128460000D03*
X132000000Y-125920000D03*
%TD*%
D13*
%TO.C,RN26*%
X163970000Y-105380000D03*
D14*
X163970000Y-107920000D03*
X163970000Y-110460000D03*
X163970000Y-113000000D03*
X171590000Y-113000000D03*
X171590000Y-110460000D03*
X171590000Y-107920000D03*
X171590000Y-105380000D03*
%TD*%
M02*
