M48
; DRILL file {KiCad 8.0.5} date 2024-10-20T22:23:22+0700
; FORMAT={-:-/ absolute / inch / decimal}
; #@! TF.CreationDate,2024-10-20T22:23:22+07:00
; #@! TF.GenerationSoftware,Kicad,Pcbnew,8.0.5
; #@! TF.FileFunction,Plated,1,2,PTH
FMAT,2
INCH
; #@! TA.AperFunction,Plated,PTH,ComponentDrill
T1C0.0315
; #@! TA.AperFunction,Plated,PTH,ComponentDrill
T2C0.0394
%
G90
G05
T1
X3.3059Y-3.3543
X3.3059Y-3.4543
X3.3059Y-3.5543
X3.3059Y-3.6543
X3.3059Y-4.1488
X3.3059Y-4.2488
X3.3059Y-4.3488
X3.3059Y-4.4488
X3.314Y-1.7795
X3.314Y-1.8795
X3.314Y-1.9795
X3.314Y-2.0795
X3.314Y-2.5374
X3.314Y-2.6374
X3.314Y-2.7374
X3.314Y-2.8374
X3.322Y-4.9575
X3.322Y-5.0575
X3.322Y-5.1575
X3.322Y-5.2575
X3.6059Y-3.3543
X3.6059Y-3.4543
X3.6059Y-3.5543
X3.6059Y-3.6543
X3.6059Y-4.1488
X3.6059Y-4.2488
X3.6059Y-4.3488
X3.6059Y-4.4488
X3.614Y-1.7795
X3.614Y-1.8795
X3.614Y-1.9795
X3.614Y-2.0795
X3.614Y-2.5374
X3.614Y-2.6374
X3.614Y-2.7374
X3.614Y-2.8374
X3.622Y-4.9575
X3.622Y-5.0575
X3.622Y-5.1575
X3.622Y-5.2575
X4.1014Y-3.3543
X4.1014Y-3.4543
X4.1014Y-3.5543
X4.1014Y-3.6543
X4.1014Y-4.1488
X4.1014Y-4.2488
X4.1014Y-4.3488
X4.1014Y-4.4488
X4.1094Y-1.7795
X4.1094Y-1.8795
X4.1094Y-1.9795
X4.1094Y-2.0795
X4.1094Y-2.5374
X4.1094Y-2.6374
X4.1094Y-2.7374
X4.1094Y-2.8374
X4.1175Y-4.9575
X4.1175Y-5.0575
X4.1175Y-5.1575
X4.1175Y-5.2575
X4.4014Y-3.3543
X4.4014Y-3.4543
X4.4014Y-3.5543
X4.4014Y-3.6543
X4.4014Y-4.1488
X4.4014Y-4.2488
X4.4014Y-4.3488
X4.4014Y-4.4488
X4.4094Y-1.7795
X4.4094Y-1.8795
X4.4094Y-1.9795
X4.4094Y-2.0795
X4.4094Y-2.5374
X4.4094Y-2.6374
X4.4094Y-2.7374
X4.4094Y-2.8374
X4.4175Y-4.9575
X4.4175Y-5.0575
X4.4175Y-5.1575
X4.4175Y-5.2575
X4.8807Y-3.3543
X4.8807Y-3.4543
X4.8807Y-3.5543
X4.8807Y-3.6543
X4.8807Y-4.1488
X4.8807Y-4.2488
X4.8807Y-4.3488
X4.8807Y-4.4488
X4.8888Y-1.7795
X4.8888Y-1.8795
X4.8888Y-1.9795
X4.8888Y-2.0795
X4.8888Y-2.5374
X4.8888Y-2.6374
X4.8888Y-2.7374
X4.8888Y-2.8374
X4.8969Y-4.9575
X4.8969Y-5.0575
X4.8969Y-5.1575
X4.8969Y-5.2575
X4.9281Y-5.7165
X4.9281Y-5.8165
X4.9281Y-5.9165
X4.9281Y-6.0165
X5.1807Y-3.3543
X5.1807Y-3.4543
X5.1807Y-3.5543
X5.1807Y-3.6543
X5.1807Y-4.1488
X5.1807Y-4.2488
X5.1807Y-4.3488
X5.1807Y-4.4488
X5.1888Y-1.7795
X5.1888Y-1.8795
X5.1888Y-1.9795
X5.1888Y-2.0795
X5.1888Y-2.5374
X5.1888Y-2.6374
X5.1888Y-2.7374
X5.1888Y-2.8374
X5.1969Y-4.9575
X5.1969Y-5.0575
X5.1969Y-5.1575
X5.1969Y-5.2575
X5.2281Y-5.7165
X5.2281Y-5.8165
X5.2281Y-5.9165
X5.2281Y-6.0165
X5.7075Y-3.0543
X5.7075Y-3.3543
X5.7075Y-4.1488
X5.7075Y-4.2488
X5.7075Y-4.3488
X5.7075Y-4.4488
X5.7156Y-1.7795
X5.7156Y-1.8795
X5.7156Y-1.9795
X5.7156Y-2.0795
X5.7156Y-2.5374
X5.7156Y-2.6374
X5.7156Y-2.7374
X5.7156Y-2.8374
X5.7156Y-5.7165
X5.7156Y-5.8165
X5.7156Y-5.9165
X5.7156Y-6.0165
X5.7236Y-4.9575
X5.7236Y-5.0575
X5.7236Y-5.1575
X5.7236Y-5.2575
X5.8075Y-3.0543
X5.8075Y-3.3543
X5.9075Y-3.0543
X5.9075Y-3.3543
X6.0075Y-3.0543
X6.0075Y-3.3543
X6.0075Y-4.1488
X6.0075Y-4.2488
X6.0075Y-4.3488
X6.0075Y-4.4488
X6.0156Y-1.7795
X6.0156Y-1.8795
X6.0156Y-1.9795
X6.0156Y-2.0795
X6.0156Y-2.5374
X6.0156Y-2.6374
X6.0156Y-2.7374
X6.0156Y-2.8374
X6.0156Y-5.7165
X6.0156Y-5.8165
X6.0156Y-5.9165
X6.0156Y-6.0165
X6.0236Y-4.9575
X6.0236Y-5.0575
X6.0236Y-5.1575
X6.0236Y-5.2575
X6.4555Y-3.3543
X6.4555Y-3.4543
X6.4555Y-3.5543
X6.4555Y-3.6543
X6.4555Y-4.1488
X6.4555Y-4.2488
X6.4555Y-4.3488
X6.4555Y-4.4488
X6.4636Y-1.7795
X6.4636Y-1.8795
X6.4636Y-1.9795
X6.4636Y-2.0795
X6.4636Y-2.5374
X6.4636Y-2.6374
X6.4636Y-2.7374
X6.4636Y-2.8374
X6.5031Y-4.9362
X6.5031Y-5.0362
X6.5031Y-5.1362
X6.5031Y-5.2362
X6.5108Y-5.7165
X6.5108Y-5.8165
X6.5108Y-5.9165
X6.5108Y-6.0165
X6.7555Y-3.3543
X6.7555Y-3.4543
X6.7555Y-3.5543
X6.7555Y-3.6543
X6.7555Y-4.1488
X6.7555Y-4.2488
X6.7555Y-4.3488
X6.7555Y-4.4488
X6.7636Y-1.7795
X6.7636Y-1.8795
X6.7636Y-1.9795
X6.7636Y-2.0795
X6.7636Y-2.5374
X6.7636Y-2.6374
X6.7636Y-2.7374
X6.7636Y-2.8374
X6.8031Y-4.9362
X6.8031Y-5.0362
X6.8031Y-5.1362
X6.8031Y-5.2362
X6.8108Y-5.7165
X6.8108Y-5.8165
X6.8108Y-5.9165
X6.8108Y-6.0165
X7.2429Y-3.3543
X7.2429Y-3.4543
X7.2429Y-3.5543
X7.2429Y-3.6543
X7.2429Y-4.1488
X7.2429Y-4.2488
X7.2429Y-4.3488
X7.2429Y-4.4488
X7.251Y-1.7795
X7.251Y-1.8795
X7.251Y-1.9795
X7.251Y-2.0795
X7.251Y-2.5374
X7.251Y-2.6374
X7.251Y-2.7374
X7.251Y-2.8374
X7.251Y-4.9291
X7.251Y-5.0291
X7.251Y-5.1291
X7.251Y-5.2291
X7.5429Y-3.3543
X7.5429Y-3.4543
X7.5429Y-3.5543
X7.5429Y-3.6543
X7.5429Y-4.1488
X7.5429Y-4.2488
X7.5429Y-4.3488
X7.5429Y-4.4488
X7.551Y-1.7795
X7.551Y-1.8795
X7.551Y-1.9795
X7.551Y-2.0795
X7.551Y-2.5374
X7.551Y-2.6374
X7.551Y-2.7374
X7.551Y-2.8374
X7.551Y-4.9291
X7.551Y-5.0291
X7.551Y-5.1291
X7.551Y-5.2291
X8.0303Y-3.3543
X8.0303Y-3.4543
X8.0303Y-3.5543
X8.0303Y-3.6543
X8.0303Y-4.1488
X8.0303Y-4.2488
X8.0303Y-4.3488
X8.0303Y-4.4488
X8.0384Y-1.7795
X8.0384Y-1.8795
X8.0384Y-1.9795
X8.0384Y-2.0795
X8.0384Y-2.5374
X8.0384Y-2.6374
X8.0384Y-2.7374
X8.0384Y-2.8374
X8.0384Y-4.9291
X8.0384Y-5.0291
X8.0384Y-5.1291
X8.0384Y-5.2291
X8.3303Y-3.3543
X8.3303Y-3.4543
X8.3303Y-3.5543
X8.3303Y-3.6543
X8.3303Y-4.1488
X8.3303Y-4.2488
X8.3303Y-4.3488
X8.3303Y-4.4488
X8.3384Y-1.7795
X8.3384Y-1.8795
X8.3384Y-1.9795
X8.3384Y-2.0795
X8.3384Y-2.5374
X8.3384Y-2.6374
X8.3384Y-2.7374
X8.3384Y-2.8374
X8.3384Y-4.9291
X8.3384Y-5.0291
X8.3384Y-5.1291
X8.3384Y-5.2291
T2
X3.3071Y-1.5354
X3.3071Y-2.3228
X3.3071Y-3.8976
X3.3071Y-4.7244
X3.3465Y-3.1102
X3.4071Y-1.5354
X3.4071Y-2.3228
X3.4071Y-3.8976
X3.4071Y-4.7244
X3.4465Y-3.1102
X3.5071Y-1.5354
X3.5071Y-2.3228
X3.5071Y-3.8976
X3.5071Y-4.7244
X3.5465Y-3.1102
X3.6071Y-1.5354
X3.6071Y-2.3228
X3.6071Y-3.8976
X3.6071Y-4.7244
X3.6465Y-3.1102
X4.0945Y-1.5354
X4.0945Y-2.2835
X4.0945Y-3.1102
X4.0945Y-3.8976
X4.1126Y-4.685
X4.1945Y-1.5354
X4.1945Y-2.2835
X4.1945Y-3.1102
X4.1945Y-3.8976
X4.2126Y-4.685
X4.2945Y-1.5354
X4.2945Y-2.2835
X4.2945Y-3.1102
X4.2945Y-3.8976
X4.3126Y-4.685
X4.3945Y-1.5354
X4.3945Y-2.2835
X4.3945Y-3.1102
X4.3945Y-3.8976
X4.4126Y-4.685
X4.8819Y-3.1102
X4.8819Y-3.8976
X4.9213Y-1.5354
X4.9213Y-2.2835
X4.9213Y-4.685
X4.9213Y-5.5118
X4.9819Y-3.1102
X4.9819Y-3.8976
X5.0213Y-1.5354
X5.0213Y-2.2835
X5.0213Y-4.685
X5.0213Y-5.5118
X5.0819Y-3.1102
X5.0819Y-3.8976
X5.1213Y-1.5354
X5.1213Y-2.2835
X5.1213Y-4.685
X5.1213Y-5.5118
X5.1819Y-3.1102
X5.1819Y-3.8976
X5.2213Y-1.5354
X5.2213Y-2.2835
X5.2213Y-4.685
X5.2213Y-5.5118
X5.6693Y-1.5354
X5.6772Y-3.8976
X5.6843Y-4.685
X5.7087Y-2.2835
X5.7087Y-3.1102
X5.7087Y-5.4724
X5.7693Y-1.5354
X5.7772Y-3.8976
X5.7843Y-4.685
X5.8087Y-2.2835
X5.8087Y-3.1102
X5.8087Y-5.4724
X5.8693Y-1.5354
X5.8772Y-3.8976
X5.8843Y-4.685
X5.9087Y-2.2835
X5.9087Y-3.1102
X5.9087Y-5.4724
X5.9693Y-1.5354
X5.9772Y-3.8976
X5.9843Y-4.685
X6.0087Y-2.2835
X6.0087Y-3.1102
X6.0087Y-5.4724
X6.4354Y-3.8976
X6.4567Y-1.5354
X6.4567Y-2.2835
X6.4748Y-3.1102
X6.4961Y-4.685
X6.5039Y-5.5118
X6.5354Y-3.8976
X6.5567Y-1.5354
X6.5567Y-2.2835
X6.5748Y-3.1102
X6.5961Y-4.685
X6.6039Y-5.5118
X6.6354Y-3.8976
X6.6567Y-1.5354
X6.6567Y-2.2835
X6.6748Y-3.1102
X6.6961Y-4.685
X6.7039Y-5.5118
X6.7354Y-3.8976
X6.7567Y-1.5354
X6.7567Y-2.2835
X6.7748Y-3.1102
X6.7961Y-4.685
X6.8039Y-5.5118
X7.2441Y-1.5354
X7.2441Y-2.3228
X7.2441Y-3.1102
X7.2622Y-3.8976
X7.2835Y-4.685
X7.3441Y-1.5354
X7.3441Y-2.3228
X7.3441Y-3.1102
X7.3622Y-3.8976
X7.3835Y-4.685
X7.4441Y-1.5354
X7.4441Y-2.3228
X7.4441Y-3.1102
X7.4622Y-3.8976
X7.4835Y-4.685
X7.5441Y-1.5354
X7.5441Y-2.3228
X7.5441Y-3.1102
X7.5622Y-3.8976
X7.5835Y-4.685
X8.0102Y-3.1102
X8.0315Y-1.5354
X8.0315Y-4.685
X8.0496Y-3.8583
X8.0709Y-2.3228
X8.1102Y-3.1102
X8.1315Y-1.5354
X8.1315Y-4.685
X8.1496Y-3.8583
X8.1709Y-2.3228
X8.2102Y-3.1102
X8.2315Y-1.5354
X8.2315Y-4.685
X8.2496Y-3.8583
X8.2709Y-2.3228
X8.3102Y-3.1102
X8.3315Y-1.5354
X8.3315Y-4.685
X8.3496Y-3.8583
X8.3709Y-2.3228
T2
G00X3.5039Y-5.9055
M15
G01X3.5039Y-5.9843
M16
G05
G00X3.5827Y-6.1299
M15
G01X3.6614Y-6.1299
M16
G05
G00X3.7402Y-5.9055
M15
G01X3.7402Y-5.9843
M16
G05
M30
