%TF.GenerationSoftware,KiCad,Pcbnew,8.0.5*%
%TF.CreationDate,2024-10-17T22:46:51+07:00*%
%TF.ProjectId,beginer,62656769-6e65-4722-9e6b-696361645f70,1.0.0*%
%TF.SameCoordinates,Original*%
%TF.FileFunction,Legend,Top*%
%TF.FilePolarity,Positive*%
%FSLAX46Y46*%
G04 Gerber Fmt 4.6, Leading zero omitted, Abs format (unit mm)*
G04 Created by KiCad (PCBNEW 8.0.5) date 2024-10-17 22:46:51*
%MOMM*%
%LPD*%
G01*
G04 APERTURE LIST*
%ADD10C,0.300000*%
%ADD11C,0.150000*%
%ADD12C,0.120000*%
%ADD13C,0.127000*%
%ADD14C,0.200000*%
G04 APERTURE END LIST*
D10*
X104300828Y-86159774D02*
X104300828Y-85874060D01*
X104300828Y-85874060D02*
X104372257Y-85731203D01*
X104372257Y-85731203D02*
X104515114Y-85588346D01*
X104515114Y-85588346D02*
X104800828Y-85516917D01*
X104800828Y-85516917D02*
X105300828Y-85516917D01*
X105300828Y-85516917D02*
X105586542Y-85588346D01*
X105586542Y-85588346D02*
X105729400Y-85731203D01*
X105729400Y-85731203D02*
X105800828Y-85874060D01*
X105800828Y-85874060D02*
X105800828Y-86159774D01*
X105800828Y-86159774D02*
X105729400Y-86302632D01*
X105729400Y-86302632D02*
X105586542Y-86445489D01*
X105586542Y-86445489D02*
X105300828Y-86516917D01*
X105300828Y-86516917D02*
X104800828Y-86516917D01*
X104800828Y-86516917D02*
X104515114Y-86445489D01*
X104515114Y-86445489D02*
X104372257Y-86302632D01*
X104372257Y-86302632D02*
X104300828Y-86159774D01*
X105800828Y-84874060D02*
X104300828Y-84874060D01*
X104300828Y-84874060D02*
X105800828Y-84016917D01*
X105800828Y-84016917D02*
X104300828Y-84016917D01*
X103885912Y-80159774D02*
X103885912Y-79874060D01*
X103885912Y-79874060D02*
X103957341Y-79731203D01*
X103957341Y-79731203D02*
X104100198Y-79588346D01*
X104100198Y-79588346D02*
X104385912Y-79516917D01*
X104385912Y-79516917D02*
X104885912Y-79516917D01*
X104885912Y-79516917D02*
X105171626Y-79588346D01*
X105171626Y-79588346D02*
X105314484Y-79731203D01*
X105314484Y-79731203D02*
X105385912Y-79874060D01*
X105385912Y-79874060D02*
X105385912Y-80159774D01*
X105385912Y-80159774D02*
X105314484Y-80302632D01*
X105314484Y-80302632D02*
X105171626Y-80445489D01*
X105171626Y-80445489D02*
X104885912Y-80516917D01*
X104885912Y-80516917D02*
X104385912Y-80516917D01*
X104385912Y-80516917D02*
X104100198Y-80445489D01*
X104100198Y-80445489D02*
X103957341Y-80302632D01*
X103957341Y-80302632D02*
X103885912Y-80159774D01*
X104600198Y-78374060D02*
X104600198Y-78874060D01*
X105385912Y-78874060D02*
X103885912Y-78874060D01*
X103885912Y-78874060D02*
X103885912Y-78159774D01*
X104600198Y-77088346D02*
X104600198Y-77588346D01*
X105385912Y-77588346D02*
X103885912Y-77588346D01*
X103885912Y-77588346D02*
X103885912Y-76874060D01*
D11*
X123724819Y-103601904D02*
X124534342Y-103601904D01*
X124534342Y-103601904D02*
X124629580Y-103554285D01*
X124629580Y-103554285D02*
X124677200Y-103506666D01*
X124677200Y-103506666D02*
X124724819Y-103411428D01*
X124724819Y-103411428D02*
X124724819Y-103220952D01*
X124724819Y-103220952D02*
X124677200Y-103125714D01*
X124677200Y-103125714D02*
X124629580Y-103078095D01*
X124629580Y-103078095D02*
X124534342Y-103030476D01*
X124534342Y-103030476D02*
X123724819Y-103030476D01*
X124724819Y-102030476D02*
X124724819Y-102601904D01*
X124724819Y-102316190D02*
X123724819Y-102316190D01*
X123724819Y-102316190D02*
X123867676Y-102411428D01*
X123867676Y-102411428D02*
X123962914Y-102506666D01*
X123962914Y-102506666D02*
X124010533Y-102601904D01*
X98534819Y-101656666D02*
X98058628Y-101989999D01*
X98534819Y-102228094D02*
X97534819Y-102228094D01*
X97534819Y-102228094D02*
X97534819Y-101847142D01*
X97534819Y-101847142D02*
X97582438Y-101751904D01*
X97582438Y-101751904D02*
X97630057Y-101704285D01*
X97630057Y-101704285D02*
X97725295Y-101656666D01*
X97725295Y-101656666D02*
X97868152Y-101656666D01*
X97868152Y-101656666D02*
X97963390Y-101704285D01*
X97963390Y-101704285D02*
X98011009Y-101751904D01*
X98011009Y-101751904D02*
X98058628Y-101847142D01*
X98058628Y-101847142D02*
X98058628Y-102228094D01*
X97630057Y-101275713D02*
X97582438Y-101228094D01*
X97582438Y-101228094D02*
X97534819Y-101132856D01*
X97534819Y-101132856D02*
X97534819Y-100894761D01*
X97534819Y-100894761D02*
X97582438Y-100799523D01*
X97582438Y-100799523D02*
X97630057Y-100751904D01*
X97630057Y-100751904D02*
X97725295Y-100704285D01*
X97725295Y-100704285D02*
X97820533Y-100704285D01*
X97820533Y-100704285D02*
X97963390Y-100751904D01*
X97963390Y-100751904D02*
X98534819Y-101323332D01*
X98534819Y-101323332D02*
X98534819Y-100704285D01*
X97232200Y-81101904D02*
X97279819Y-80959047D01*
X97279819Y-80959047D02*
X97279819Y-80720952D01*
X97279819Y-80720952D02*
X97232200Y-80625714D01*
X97232200Y-80625714D02*
X97184580Y-80578095D01*
X97184580Y-80578095D02*
X97089342Y-80530476D01*
X97089342Y-80530476D02*
X96994104Y-80530476D01*
X96994104Y-80530476D02*
X96898866Y-80578095D01*
X96898866Y-80578095D02*
X96851247Y-80625714D01*
X96851247Y-80625714D02*
X96803628Y-80720952D01*
X96803628Y-80720952D02*
X96756009Y-80911428D01*
X96756009Y-80911428D02*
X96708390Y-81006666D01*
X96708390Y-81006666D02*
X96660771Y-81054285D01*
X96660771Y-81054285D02*
X96565533Y-81101904D01*
X96565533Y-81101904D02*
X96470295Y-81101904D01*
X96470295Y-81101904D02*
X96375057Y-81054285D01*
X96375057Y-81054285D02*
X96327438Y-81006666D01*
X96327438Y-81006666D02*
X96279819Y-80911428D01*
X96279819Y-80911428D02*
X96279819Y-80673333D01*
X96279819Y-80673333D02*
X96327438Y-80530476D01*
X97279819Y-79578095D02*
X97279819Y-80149523D01*
X97279819Y-79863809D02*
X96279819Y-79863809D01*
X96279819Y-79863809D02*
X96422676Y-79959047D01*
X96422676Y-79959047D02*
X96517914Y-80054285D01*
X96517914Y-80054285D02*
X96565533Y-80149523D01*
X141666666Y-79244819D02*
X141666666Y-79959104D01*
X141666666Y-79959104D02*
X141619047Y-80101961D01*
X141619047Y-80101961D02*
X141523809Y-80197200D01*
X141523809Y-80197200D02*
X141380952Y-80244819D01*
X141380952Y-80244819D02*
X141285714Y-80244819D01*
X142047619Y-79244819D02*
X142666666Y-79244819D01*
X142666666Y-79244819D02*
X142333333Y-79625771D01*
X142333333Y-79625771D02*
X142476190Y-79625771D01*
X142476190Y-79625771D02*
X142571428Y-79673390D01*
X142571428Y-79673390D02*
X142619047Y-79721009D01*
X142619047Y-79721009D02*
X142666666Y-79816247D01*
X142666666Y-79816247D02*
X142666666Y-80054342D01*
X142666666Y-80054342D02*
X142619047Y-80149580D01*
X142619047Y-80149580D02*
X142571428Y-80197200D01*
X142571428Y-80197200D02*
X142476190Y-80244819D01*
X142476190Y-80244819D02*
X142190476Y-80244819D01*
X142190476Y-80244819D02*
X142095238Y-80197200D01*
X142095238Y-80197200D02*
X142047619Y-80149580D01*
X128534819Y-103976666D02*
X128058628Y-104309999D01*
X128534819Y-104548094D02*
X127534819Y-104548094D01*
X127534819Y-104548094D02*
X127534819Y-104167142D01*
X127534819Y-104167142D02*
X127582438Y-104071904D01*
X127582438Y-104071904D02*
X127630057Y-104024285D01*
X127630057Y-104024285D02*
X127725295Y-103976666D01*
X127725295Y-103976666D02*
X127868152Y-103976666D01*
X127868152Y-103976666D02*
X127963390Y-104024285D01*
X127963390Y-104024285D02*
X128011009Y-104071904D01*
X128011009Y-104071904D02*
X128058628Y-104167142D01*
X128058628Y-104167142D02*
X128058628Y-104548094D01*
X128534819Y-103024285D02*
X128534819Y-103595713D01*
X128534819Y-103309999D02*
X127534819Y-103309999D01*
X127534819Y-103309999D02*
X127677676Y-103405237D01*
X127677676Y-103405237D02*
X127772914Y-103500475D01*
X127772914Y-103500475D02*
X127820533Y-103595713D01*
X121778095Y-70484819D02*
X121778095Y-71294342D01*
X121778095Y-71294342D02*
X121825714Y-71389580D01*
X121825714Y-71389580D02*
X121873333Y-71437200D01*
X121873333Y-71437200D02*
X121968571Y-71484819D01*
X121968571Y-71484819D02*
X122159047Y-71484819D01*
X122159047Y-71484819D02*
X122254285Y-71437200D01*
X122254285Y-71437200D02*
X122301904Y-71389580D01*
X122301904Y-71389580D02*
X122349523Y-71294342D01*
X122349523Y-71294342D02*
X122349523Y-70484819D01*
X122778095Y-70580057D02*
X122825714Y-70532438D01*
X122825714Y-70532438D02*
X122920952Y-70484819D01*
X122920952Y-70484819D02*
X123159047Y-70484819D01*
X123159047Y-70484819D02*
X123254285Y-70532438D01*
X123254285Y-70532438D02*
X123301904Y-70580057D01*
X123301904Y-70580057D02*
X123349523Y-70675295D01*
X123349523Y-70675295D02*
X123349523Y-70770533D01*
X123349523Y-70770533D02*
X123301904Y-70913390D01*
X123301904Y-70913390D02*
X122730476Y-71484819D01*
X122730476Y-71484819D02*
X123349523Y-71484819D01*
X147666666Y-90309819D02*
X147666666Y-91024104D01*
X147666666Y-91024104D02*
X147619047Y-91166961D01*
X147619047Y-91166961D02*
X147523809Y-91262200D01*
X147523809Y-91262200D02*
X147380952Y-91309819D01*
X147380952Y-91309819D02*
X147285714Y-91309819D01*
X148571428Y-90309819D02*
X148380952Y-90309819D01*
X148380952Y-90309819D02*
X148285714Y-90357438D01*
X148285714Y-90357438D02*
X148238095Y-90405057D01*
X148238095Y-90405057D02*
X148142857Y-90547914D01*
X148142857Y-90547914D02*
X148095238Y-90738390D01*
X148095238Y-90738390D02*
X148095238Y-91119342D01*
X148095238Y-91119342D02*
X148142857Y-91214580D01*
X148142857Y-91214580D02*
X148190476Y-91262200D01*
X148190476Y-91262200D02*
X148285714Y-91309819D01*
X148285714Y-91309819D02*
X148476190Y-91309819D01*
X148476190Y-91309819D02*
X148571428Y-91262200D01*
X148571428Y-91262200D02*
X148619047Y-91214580D01*
X148619047Y-91214580D02*
X148666666Y-91119342D01*
X148666666Y-91119342D02*
X148666666Y-90881247D01*
X148666666Y-90881247D02*
X148619047Y-90786009D01*
X148619047Y-90786009D02*
X148571428Y-90738390D01*
X148571428Y-90738390D02*
X148476190Y-90690771D01*
X148476190Y-90690771D02*
X148285714Y-90690771D01*
X148285714Y-90690771D02*
X148190476Y-90738390D01*
X148190476Y-90738390D02*
X148142857Y-90786009D01*
X148142857Y-90786009D02*
X148095238Y-90881247D01*
X112409580Y-89216666D02*
X112457200Y-89264285D01*
X112457200Y-89264285D02*
X112504819Y-89407142D01*
X112504819Y-89407142D02*
X112504819Y-89502380D01*
X112504819Y-89502380D02*
X112457200Y-89645237D01*
X112457200Y-89645237D02*
X112361961Y-89740475D01*
X112361961Y-89740475D02*
X112266723Y-89788094D01*
X112266723Y-89788094D02*
X112076247Y-89835713D01*
X112076247Y-89835713D02*
X111933390Y-89835713D01*
X111933390Y-89835713D02*
X111742914Y-89788094D01*
X111742914Y-89788094D02*
X111647676Y-89740475D01*
X111647676Y-89740475D02*
X111552438Y-89645237D01*
X111552438Y-89645237D02*
X111504819Y-89502380D01*
X111504819Y-89502380D02*
X111504819Y-89407142D01*
X111504819Y-89407142D02*
X111552438Y-89264285D01*
X111552438Y-89264285D02*
X111600057Y-89216666D01*
X112504819Y-88264285D02*
X112504819Y-88835713D01*
X112504819Y-88549999D02*
X111504819Y-88549999D01*
X111504819Y-88549999D02*
X111647676Y-88645237D01*
X111647676Y-88645237D02*
X111742914Y-88740475D01*
X111742914Y-88740475D02*
X111790533Y-88835713D01*
X108309580Y-109216666D02*
X108357200Y-109264285D01*
X108357200Y-109264285D02*
X108404819Y-109407142D01*
X108404819Y-109407142D02*
X108404819Y-109502380D01*
X108404819Y-109502380D02*
X108357200Y-109645237D01*
X108357200Y-109645237D02*
X108261961Y-109740475D01*
X108261961Y-109740475D02*
X108166723Y-109788094D01*
X108166723Y-109788094D02*
X107976247Y-109835713D01*
X107976247Y-109835713D02*
X107833390Y-109835713D01*
X107833390Y-109835713D02*
X107642914Y-109788094D01*
X107642914Y-109788094D02*
X107547676Y-109740475D01*
X107547676Y-109740475D02*
X107452438Y-109645237D01*
X107452438Y-109645237D02*
X107404819Y-109502380D01*
X107404819Y-109502380D02*
X107404819Y-109407142D01*
X107404819Y-109407142D02*
X107452438Y-109264285D01*
X107452438Y-109264285D02*
X107500057Y-109216666D01*
X107500057Y-108835713D02*
X107452438Y-108788094D01*
X107452438Y-108788094D02*
X107404819Y-108692856D01*
X107404819Y-108692856D02*
X107404819Y-108454761D01*
X107404819Y-108454761D02*
X107452438Y-108359523D01*
X107452438Y-108359523D02*
X107500057Y-108311904D01*
X107500057Y-108311904D02*
X107595295Y-108264285D01*
X107595295Y-108264285D02*
X107690533Y-108264285D01*
X107690533Y-108264285D02*
X107833390Y-108311904D01*
X107833390Y-108311904D02*
X108404819Y-108883332D01*
X108404819Y-108883332D02*
X108404819Y-108264285D01*
X139666666Y-97424819D02*
X139666666Y-98139104D01*
X139666666Y-98139104D02*
X139619047Y-98281961D01*
X139619047Y-98281961D02*
X139523809Y-98377200D01*
X139523809Y-98377200D02*
X139380952Y-98424819D01*
X139380952Y-98424819D02*
X139285714Y-98424819D01*
X140619047Y-97424819D02*
X140142857Y-97424819D01*
X140142857Y-97424819D02*
X140095238Y-97901009D01*
X140095238Y-97901009D02*
X140142857Y-97853390D01*
X140142857Y-97853390D02*
X140238095Y-97805771D01*
X140238095Y-97805771D02*
X140476190Y-97805771D01*
X140476190Y-97805771D02*
X140571428Y-97853390D01*
X140571428Y-97853390D02*
X140619047Y-97901009D01*
X140619047Y-97901009D02*
X140666666Y-97996247D01*
X140666666Y-97996247D02*
X140666666Y-98234342D01*
X140666666Y-98234342D02*
X140619047Y-98329580D01*
X140619047Y-98329580D02*
X140571428Y-98377200D01*
X140571428Y-98377200D02*
X140476190Y-98424819D01*
X140476190Y-98424819D02*
X140238095Y-98424819D01*
X140238095Y-98424819D02*
X140142857Y-98377200D01*
X140142857Y-98377200D02*
X140095238Y-98329580D01*
X137409580Y-78916666D02*
X137457200Y-78964285D01*
X137457200Y-78964285D02*
X137504819Y-79107142D01*
X137504819Y-79107142D02*
X137504819Y-79202380D01*
X137504819Y-79202380D02*
X137457200Y-79345237D01*
X137457200Y-79345237D02*
X137361961Y-79440475D01*
X137361961Y-79440475D02*
X137266723Y-79488094D01*
X137266723Y-79488094D02*
X137076247Y-79535713D01*
X137076247Y-79535713D02*
X136933390Y-79535713D01*
X136933390Y-79535713D02*
X136742914Y-79488094D01*
X136742914Y-79488094D02*
X136647676Y-79440475D01*
X136647676Y-79440475D02*
X136552438Y-79345237D01*
X136552438Y-79345237D02*
X136504819Y-79202380D01*
X136504819Y-79202380D02*
X136504819Y-79107142D01*
X136504819Y-79107142D02*
X136552438Y-78964285D01*
X136552438Y-78964285D02*
X136600057Y-78916666D01*
X136504819Y-78583332D02*
X136504819Y-77964285D01*
X136504819Y-77964285D02*
X136885771Y-78297618D01*
X136885771Y-78297618D02*
X136885771Y-78154761D01*
X136885771Y-78154761D02*
X136933390Y-78059523D01*
X136933390Y-78059523D02*
X136981009Y-78011904D01*
X136981009Y-78011904D02*
X137076247Y-77964285D01*
X137076247Y-77964285D02*
X137314342Y-77964285D01*
X137314342Y-77964285D02*
X137409580Y-78011904D01*
X137409580Y-78011904D02*
X137457200Y-78059523D01*
X137457200Y-78059523D02*
X137504819Y-78154761D01*
X137504819Y-78154761D02*
X137504819Y-78440475D01*
X137504819Y-78440475D02*
X137457200Y-78535713D01*
X137457200Y-78535713D02*
X137409580Y-78583332D01*
X107374819Y-101656666D02*
X106898628Y-101989999D01*
X107374819Y-102228094D02*
X106374819Y-102228094D01*
X106374819Y-102228094D02*
X106374819Y-101847142D01*
X106374819Y-101847142D02*
X106422438Y-101751904D01*
X106422438Y-101751904D02*
X106470057Y-101704285D01*
X106470057Y-101704285D02*
X106565295Y-101656666D01*
X106565295Y-101656666D02*
X106708152Y-101656666D01*
X106708152Y-101656666D02*
X106803390Y-101704285D01*
X106803390Y-101704285D02*
X106851009Y-101751904D01*
X106851009Y-101751904D02*
X106898628Y-101847142D01*
X106898628Y-101847142D02*
X106898628Y-102228094D01*
X106374819Y-101323332D02*
X106374819Y-100704285D01*
X106374819Y-100704285D02*
X106755771Y-101037618D01*
X106755771Y-101037618D02*
X106755771Y-100894761D01*
X106755771Y-100894761D02*
X106803390Y-100799523D01*
X106803390Y-100799523D02*
X106851009Y-100751904D01*
X106851009Y-100751904D02*
X106946247Y-100704285D01*
X106946247Y-100704285D02*
X107184342Y-100704285D01*
X107184342Y-100704285D02*
X107279580Y-100751904D01*
X107279580Y-100751904D02*
X107327200Y-100799523D01*
X107327200Y-100799523D02*
X107374819Y-100894761D01*
X107374819Y-100894761D02*
X107374819Y-101180475D01*
X107374819Y-101180475D02*
X107327200Y-101275713D01*
X107327200Y-101275713D02*
X107279580Y-101323332D01*
X129414819Y-89508094D02*
X128414819Y-89508094D01*
X128414819Y-89508094D02*
X128414819Y-89269999D01*
X128414819Y-89269999D02*
X128462438Y-89127142D01*
X128462438Y-89127142D02*
X128557676Y-89031904D01*
X128557676Y-89031904D02*
X128652914Y-88984285D01*
X128652914Y-88984285D02*
X128843390Y-88936666D01*
X128843390Y-88936666D02*
X128986247Y-88936666D01*
X128986247Y-88936666D02*
X129176723Y-88984285D01*
X129176723Y-88984285D02*
X129271961Y-89031904D01*
X129271961Y-89031904D02*
X129367200Y-89127142D01*
X129367200Y-89127142D02*
X129414819Y-89269999D01*
X129414819Y-89269999D02*
X129414819Y-89508094D01*
X129414819Y-87984285D02*
X129414819Y-88555713D01*
X129414819Y-88269999D02*
X128414819Y-88269999D01*
X128414819Y-88269999D02*
X128557676Y-88365237D01*
X128557676Y-88365237D02*
X128652914Y-88460475D01*
X128652914Y-88460475D02*
X128700533Y-88555713D01*
X144666666Y-107084819D02*
X144666666Y-107799104D01*
X144666666Y-107799104D02*
X144619047Y-107941961D01*
X144619047Y-107941961D02*
X144523809Y-108037200D01*
X144523809Y-108037200D02*
X144380952Y-108084819D01*
X144380952Y-108084819D02*
X144285714Y-108084819D01*
X145571428Y-107418152D02*
X145571428Y-108084819D01*
X145333333Y-107037200D02*
X145095238Y-107751485D01*
X145095238Y-107751485D02*
X145714285Y-107751485D01*
X150294819Y-77383333D02*
X151009104Y-77383333D01*
X151009104Y-77383333D02*
X151151961Y-77430952D01*
X151151961Y-77430952D02*
X151247200Y-77526190D01*
X151247200Y-77526190D02*
X151294819Y-77669047D01*
X151294819Y-77669047D02*
X151294819Y-77764285D01*
X150294819Y-77002380D02*
X150294819Y-76335714D01*
X150294819Y-76335714D02*
X151294819Y-76764285D01*
X102216666Y-80504819D02*
X102216666Y-81219104D01*
X102216666Y-81219104D02*
X102169047Y-81361961D01*
X102169047Y-81361961D02*
X102073809Y-81457200D01*
X102073809Y-81457200D02*
X101930952Y-81504819D01*
X101930952Y-81504819D02*
X101835714Y-81504819D01*
X103216666Y-81504819D02*
X102645238Y-81504819D01*
X102930952Y-81504819D02*
X102930952Y-80504819D01*
X102930952Y-80504819D02*
X102835714Y-80647676D01*
X102835714Y-80647676D02*
X102740476Y-80742914D01*
X102740476Y-80742914D02*
X102645238Y-80790533D01*
X150294819Y-102383333D02*
X151009104Y-102383333D01*
X151009104Y-102383333D02*
X151151961Y-102430952D01*
X151151961Y-102430952D02*
X151247200Y-102526190D01*
X151247200Y-102526190D02*
X151294819Y-102669047D01*
X151294819Y-102669047D02*
X151294819Y-102764285D01*
X150390057Y-101954761D02*
X150342438Y-101907142D01*
X150342438Y-101907142D02*
X150294819Y-101811904D01*
X150294819Y-101811904D02*
X150294819Y-101573809D01*
X150294819Y-101573809D02*
X150342438Y-101478571D01*
X150342438Y-101478571D02*
X150390057Y-101430952D01*
X150390057Y-101430952D02*
X150485295Y-101383333D01*
X150485295Y-101383333D02*
X150580533Y-101383333D01*
X150580533Y-101383333D02*
X150723390Y-101430952D01*
X150723390Y-101430952D02*
X151294819Y-102002380D01*
X151294819Y-102002380D02*
X151294819Y-101383333D01*
D10*
X129678572Y-89249757D02*
X129535715Y-89178328D01*
X129535715Y-89178328D02*
X129321429Y-89178328D01*
X129321429Y-89178328D02*
X129107143Y-89249757D01*
X129107143Y-89249757D02*
X128964286Y-89392614D01*
X128964286Y-89392614D02*
X128892857Y-89535471D01*
X128892857Y-89535471D02*
X128821429Y-89821185D01*
X128821429Y-89821185D02*
X128821429Y-90035471D01*
X128821429Y-90035471D02*
X128892857Y-90321185D01*
X128892857Y-90321185D02*
X128964286Y-90464042D01*
X128964286Y-90464042D02*
X129107143Y-90606900D01*
X129107143Y-90606900D02*
X129321429Y-90678328D01*
X129321429Y-90678328D02*
X129464286Y-90678328D01*
X129464286Y-90678328D02*
X129678572Y-90606900D01*
X129678572Y-90606900D02*
X129750000Y-90535471D01*
X129750000Y-90535471D02*
X129750000Y-90035471D01*
X129750000Y-90035471D02*
X129464286Y-90035471D01*
X130607143Y-89178328D02*
X130607143Y-89535471D01*
X130250000Y-89392614D02*
X130607143Y-89535471D01*
X130607143Y-89535471D02*
X130964286Y-89392614D01*
X130392857Y-89821185D02*
X130607143Y-89535471D01*
X130607143Y-89535471D02*
X130821429Y-89821185D01*
X131750000Y-89178328D02*
X131750000Y-89535471D01*
X131392857Y-89392614D02*
X131750000Y-89535471D01*
X131750000Y-89535471D02*
X132107143Y-89392614D01*
X131535714Y-89821185D02*
X131750000Y-89535471D01*
X131750000Y-89535471D02*
X131964286Y-89821185D01*
X132892857Y-89178328D02*
X132892857Y-89535471D01*
X132535714Y-89392614D02*
X132892857Y-89535471D01*
X132892857Y-89535471D02*
X133250000Y-89392614D01*
X132678571Y-89821185D02*
X132892857Y-89535471D01*
X132892857Y-89535471D02*
X133107143Y-89821185D01*
X128392856Y-90678328D02*
X127678570Y-90678328D01*
X127678570Y-90678328D02*
X127678570Y-89178328D01*
X129178571Y-89178328D02*
X129464285Y-89178328D01*
X129464285Y-89178328D02*
X129607142Y-89249757D01*
X129607142Y-89249757D02*
X129749999Y-89392614D01*
X129749999Y-89392614D02*
X129821428Y-89678328D01*
X129821428Y-89678328D02*
X129821428Y-90178328D01*
X129821428Y-90178328D02*
X129749999Y-90464042D01*
X129749999Y-90464042D02*
X129607142Y-90606900D01*
X129607142Y-90606900D02*
X129464285Y-90678328D01*
X129464285Y-90678328D02*
X129178571Y-90678328D01*
X129178571Y-90678328D02*
X129035714Y-90606900D01*
X129035714Y-90606900D02*
X128892856Y-90464042D01*
X128892856Y-90464042D02*
X128821428Y-90178328D01*
X128821428Y-90178328D02*
X128821428Y-89678328D01*
X128821428Y-89678328D02*
X128892856Y-89392614D01*
X128892856Y-89392614D02*
X129035714Y-89249757D01*
X129035714Y-89249757D02*
X129178571Y-89178328D01*
X131250000Y-89249757D02*
X131107143Y-89178328D01*
X131107143Y-89178328D02*
X130892857Y-89178328D01*
X130892857Y-89178328D02*
X130678571Y-89249757D01*
X130678571Y-89249757D02*
X130535714Y-89392614D01*
X130535714Y-89392614D02*
X130464285Y-89535471D01*
X130464285Y-89535471D02*
X130392857Y-89821185D01*
X130392857Y-89821185D02*
X130392857Y-90035471D01*
X130392857Y-90035471D02*
X130464285Y-90321185D01*
X130464285Y-90321185D02*
X130535714Y-90464042D01*
X130535714Y-90464042D02*
X130678571Y-90606900D01*
X130678571Y-90606900D02*
X130892857Y-90678328D01*
X130892857Y-90678328D02*
X131035714Y-90678328D01*
X131035714Y-90678328D02*
X131250000Y-90606900D01*
X131250000Y-90606900D02*
X131321428Y-90535471D01*
X131321428Y-90535471D02*
X131321428Y-90035471D01*
X131321428Y-90035471D02*
X131035714Y-90035471D01*
X132250000Y-89178328D02*
X132535714Y-89178328D01*
X132535714Y-89178328D02*
X132678571Y-89249757D01*
X132678571Y-89249757D02*
X132821428Y-89392614D01*
X132821428Y-89392614D02*
X132892857Y-89678328D01*
X132892857Y-89678328D02*
X132892857Y-90178328D01*
X132892857Y-90178328D02*
X132821428Y-90464042D01*
X132821428Y-90464042D02*
X132678571Y-90606900D01*
X132678571Y-90606900D02*
X132535714Y-90678328D01*
X132535714Y-90678328D02*
X132250000Y-90678328D01*
X132250000Y-90678328D02*
X132107143Y-90606900D01*
X132107143Y-90606900D02*
X131964285Y-90464042D01*
X131964285Y-90464042D02*
X131892857Y-90178328D01*
X131892857Y-90178328D02*
X131892857Y-89678328D01*
X131892857Y-89678328D02*
X131964285Y-89392614D01*
X131964285Y-89392614D02*
X132107143Y-89249757D01*
X132107143Y-89249757D02*
X132250000Y-89178328D01*
D12*
%TO.C,U1*%
X118629000Y-97720000D02*
X118629000Y-107960000D01*
X121760000Y-97720000D02*
X121760000Y-107960000D01*
X123270000Y-97720000D02*
X118629000Y-97720000D01*
X123270000Y-97720000D02*
X123270000Y-107960000D01*
X123270000Y-100990000D02*
X121760000Y-100990000D01*
X123270000Y-104691000D02*
X121760000Y-104691000D01*
X123270000Y-107960000D02*
X118629000Y-107960000D01*
%TO.C,R2*%
X99080000Y-99570000D02*
X99080000Y-103410000D01*
X99080000Y-103410000D02*
X100920000Y-103410000D01*
X100000000Y-98620000D02*
X100000000Y-99570000D01*
X100000000Y-104360000D02*
X100000000Y-103410000D01*
X100920000Y-99570000D02*
X99080000Y-99570000D01*
X100920000Y-103410000D02*
X100920000Y-99570000D01*
D13*
%TO.C,S1*%
X98000000Y-77000000D02*
X102000000Y-77000000D01*
X98000000Y-88600000D02*
X98000000Y-77000000D01*
X102000000Y-77000000D02*
X102000000Y-88600000D01*
X102000000Y-88600000D02*
X98000000Y-88600000D01*
D14*
X102600000Y-85300000D02*
G75*
G02*
X102400000Y-85300000I-100000J0D01*
G01*
X102400000Y-85300000D02*
G75*
G02*
X102600000Y-85300000I100000J0D01*
G01*
D12*
%TO.C,J3*%
X140670000Y-76190000D02*
X140670000Y-73590000D01*
X143330000Y-73590000D02*
X140670000Y-73590000D01*
X143330000Y-76190000D02*
X140670000Y-76190000D01*
X143330000Y-76190000D02*
X143330000Y-73590000D01*
X143330000Y-77460000D02*
X143330000Y-78790000D01*
X143330000Y-78790000D02*
X142000000Y-78790000D01*
%TO.C,R1*%
X129080000Y-101890000D02*
X129080000Y-105730000D01*
X129080000Y-105730000D02*
X130920000Y-105730000D01*
X130000000Y-100940000D02*
X130000000Y-101890000D01*
X130000000Y-106680000D02*
X130000000Y-105730000D01*
X130920000Y-101890000D02*
X129080000Y-101890000D01*
X130920000Y-105730000D02*
X130920000Y-101890000D01*
%TO.C,U2*%
X117420000Y-72030000D02*
X117420000Y-76671000D01*
X117420000Y-72030000D02*
X127660000Y-72030000D01*
X117420000Y-73540000D02*
X127660000Y-73540000D01*
X117420000Y-76671000D02*
X127660000Y-76671000D01*
X120690000Y-72030000D02*
X120690000Y-73540000D01*
X124391000Y-72030000D02*
X124391000Y-73540000D01*
X127660000Y-72030000D02*
X127660000Y-76671000D01*
%TO.C,J6*%
X146670000Y-87255000D02*
X146670000Y-82115000D01*
X149330000Y-82115000D02*
X146670000Y-82115000D01*
X149330000Y-87255000D02*
X146670000Y-87255000D01*
X149330000Y-87255000D02*
X149330000Y-82115000D01*
X149330000Y-88525000D02*
X149330000Y-89855000D01*
X149330000Y-89855000D02*
X148000000Y-89855000D01*
%TO.C,C1*%
X109080000Y-88421000D02*
X109080000Y-89679000D01*
X110920000Y-88421000D02*
X110920000Y-89679000D01*
%TO.C,C2*%
X109080000Y-109679000D02*
X109080000Y-108421000D01*
X110920000Y-109679000D02*
X110920000Y-108421000D01*
%TO.C,J5*%
X138670000Y-98970000D02*
X140000000Y-98970000D01*
X138670000Y-100300000D02*
X138670000Y-98970000D01*
X138670000Y-101570000D02*
X138670000Y-104170000D01*
X138670000Y-101570000D02*
X141330000Y-101570000D01*
X138670000Y-104170000D02*
X141330000Y-104170000D01*
X141330000Y-101570000D02*
X141330000Y-104170000D01*
%TO.C,C3*%
X134080000Y-78121000D02*
X134080000Y-79379000D01*
X135920000Y-78121000D02*
X135920000Y-79379000D01*
%TO.C,R3*%
X104080000Y-99570000D02*
X104080000Y-103410000D01*
X104080000Y-103410000D02*
X105920000Y-103410000D01*
X105000000Y-98620000D02*
X105000000Y-99570000D01*
X105000000Y-104360000D02*
X105000000Y-103410000D01*
X105920000Y-99570000D02*
X104080000Y-99570000D01*
X105920000Y-103410000D02*
X105920000Y-99570000D01*
%TO.C,D1*%
X126545000Y-86210000D02*
X123455000Y-86210000D01*
X125000462Y-91760000D02*
G75*
G02*
X123455170Y-86210000I-462J2990000D01*
G01*
X126544830Y-86210000D02*
G75*
G02*
X124999538Y-91760000I-1544830J-2560000D01*
G01*
X127500000Y-88770000D02*
G75*
G02*
X122500000Y-88770000I-2500000J0D01*
G01*
X122500000Y-88770000D02*
G75*
G02*
X127500000Y-88770000I2500000J0D01*
G01*
%TO.C,J4*%
X143670000Y-104030000D02*
X143670000Y-98890000D01*
X146330000Y-98890000D02*
X143670000Y-98890000D01*
X146330000Y-104030000D02*
X143670000Y-104030000D01*
X146330000Y-104030000D02*
X146330000Y-98890000D01*
X146330000Y-105300000D02*
X146330000Y-106630000D01*
X146330000Y-106630000D02*
X145000000Y-106630000D01*
%TO.C,J7*%
X151840000Y-73490000D02*
X159560000Y-73490000D01*
X151840000Y-80610000D02*
X151840000Y-73490000D01*
X151840000Y-80610000D02*
X159560000Y-80610000D01*
X153725000Y-74230000D02*
X153819000Y-74324000D01*
X153931000Y-74025000D02*
X154059000Y-74154000D01*
X155941000Y-76445000D02*
X156069000Y-76574000D01*
X156181000Y-76275000D02*
X156274000Y-76369000D01*
X158000000Y-80610000D02*
X158000000Y-73490000D01*
X159100000Y-80610000D02*
X159100000Y-73490000D01*
X159160000Y-80850000D02*
X159800000Y-80850000D01*
X159560000Y-80610000D02*
X159560000Y-73490000D01*
X159800000Y-80850000D02*
X159800000Y-80450000D01*
X153574642Y-79689894D02*
G75*
G02*
X153560000Y-77934000I1425356J889894D01*
G01*
X154109807Y-77374496D02*
G75*
G02*
X155891000Y-77375000I890193J-1425507D01*
G01*
X155889894Y-80225358D02*
G75*
G02*
X154134000Y-80240000I-889894J1425356D01*
G01*
X156424721Y-77909736D02*
G75*
G02*
X156680000Y-78800000I-1424711J-890261D01*
G01*
X156680099Y-78771326D02*
G75*
G02*
X156440000Y-79666000I-1680113J-28671D01*
G01*
X156680000Y-75300000D02*
G75*
G02*
X153320000Y-75300000I-1680000J0D01*
G01*
X153320000Y-75300000D02*
G75*
G02*
X156680000Y-75300000I1680000J0D01*
G01*
%TO.C,J1*%
X97200000Y-65700000D02*
X111900000Y-65700000D01*
X97200000Y-74900000D02*
X97200000Y-65700000D01*
X106000000Y-74900000D02*
X97200000Y-74900000D01*
X111050000Y-65500000D02*
X112100000Y-65500000D01*
X111900000Y-65700000D02*
X111900000Y-68300000D01*
X111900000Y-72200000D02*
X111900000Y-74900000D01*
X111900000Y-74900000D02*
X110000000Y-74900000D01*
X112100000Y-66550000D02*
X112100000Y-65500000D01*
%TO.C,J2*%
X151840000Y-98490000D02*
X159560000Y-98490000D01*
X151840000Y-105610000D02*
X151840000Y-98490000D01*
X151840000Y-105610000D02*
X159560000Y-105610000D01*
X153725000Y-99230000D02*
X153819000Y-99324000D01*
X153931000Y-99025000D02*
X154059000Y-99154000D01*
X155941000Y-101445000D02*
X156069000Y-101574000D01*
X156181000Y-101275000D02*
X156274000Y-101369000D01*
X158000000Y-105610000D02*
X158000000Y-98490000D01*
X159100000Y-105610000D02*
X159100000Y-98490000D01*
X159160000Y-105850000D02*
X159800000Y-105850000D01*
X159560000Y-105610000D02*
X159560000Y-98490000D01*
X159800000Y-105850000D02*
X159800000Y-105450000D01*
X153574642Y-104689894D02*
G75*
G02*
X153560000Y-102934000I1425356J889894D01*
G01*
X154109807Y-102374496D02*
G75*
G02*
X155891000Y-102375000I890193J-1425507D01*
G01*
X155889894Y-105225358D02*
G75*
G02*
X154134000Y-105240000I-889894J1425356D01*
G01*
X156424721Y-102909736D02*
G75*
G02*
X156680000Y-103800000I-1424711J-890261D01*
G01*
X156680099Y-103771326D02*
G75*
G02*
X156440000Y-104666000I-1680113J-28671D01*
G01*
X156680000Y-100300000D02*
G75*
G02*
X153320000Y-100300000I-1680000J0D01*
G01*
X153320000Y-100300000D02*
G75*
G02*
X156680000Y-100300000I1680000J0D01*
G01*
%TD*%
M02*
